<svg width="43" height="24" viewBox="0 0 43 24" fill="none" xmlns="http://www.w3.org/2000/svg">
<g clip-path="url(#clip0_116_809)">
<path d="M31.4062 17.9305C31.0521 17.9305 30.7058 17.8266 30.4113 17.6317C30.1168 17.4368 29.8872 17.1598 29.7516 16.8357C29.616 16.5116 29.5805 16.1549 29.6495 15.8108C29.7186 15.4667 29.8891 15.1506 30.1394 14.9024C30.3898 14.6543 30.7089 14.4853 31.0562 14.4168C31.4036 14.3483 31.7636 14.3833 32.0909 14.5175C32.4181 14.6517 32.6978 14.879 32.8946 15.1707C33.0914 15.4624 33.1965 15.8054 33.1966 16.1562C33.1961 16.6265 33.0073 17.0774 32.6717 17.41C32.336 17.7426 31.881 17.9298 31.4062 17.9305ZM11.6151 17.9305C11.2609 17.9305 10.9147 17.8266 10.6202 17.6317C10.3257 17.4368 10.0961 17.1598 9.96051 16.8357C9.82491 16.5116 9.78938 16.1549 9.85841 15.8108C9.92744 15.4667 10.0979 15.1506 10.3483 14.9024C10.5987 14.6543 10.9177 14.4853 11.2651 14.4168C11.6124 14.3483 11.9725 14.3833 12.2997 14.5175C12.627 14.6517 12.9067 14.879 13.1035 15.1707C13.3003 15.4624 13.4054 15.8054 13.4055 16.1562C13.405 16.6265 13.2163 17.0775 12.8806 17.4101C12.545 17.7427 12.0899 17.9299 11.6151 17.9305ZM32.0483 7.2458L35.6267 1.10607C35.6756 1.02221 35.7074 0.92962 35.7202 0.833587C35.7331 0.737554 35.7267 0.63996 35.7014 0.546377C35.6762 0.452794 35.6325 0.365055 35.5731 0.28817C35.5136 0.211284 35.4394 0.146758 35.3547 0.0982747C35.2701 0.0497917 35.1766 0.0183015 35.0797 0.00560208C34.9827 -0.00709736 34.8842 -0.00075734 34.7897 0.0242602C34.6953 0.0492777 34.6067 0.0924827 34.5291 0.151408C34.4515 0.210334 34.3864 0.283827 34.3374 0.36769L30.7138 6.58496C27.9429 5.33215 24.8309 4.63454 21.5103 4.63454C18.1898 4.63454 15.0781 5.33315 12.3072 6.58496L8.68392 0.36769C8.63505 0.283805 8.56997 0.210278 8.49241 0.151306C8.41485 0.0923351 8.32633 0.0490747 8.23189 0.0239951C8.13746 -0.00108443 8.03896 -0.00749204 7.94202 0.00513817C7.84509 0.0177684 7.75161 0.0491891 7.66693 0.0976062C7.58225 0.146023 7.50803 0.210489 7.4485 0.287322C7.38897 0.364155 7.34531 0.451851 7.31999 0.545403C7.29467 0.638955 7.2882 0.73653 7.30095 0.832558C7.3137 0.928586 7.34542 1.02119 7.3943 1.10507L10.973 7.2458C4.8282 10.5567 0.62528 16.7191 0.010498 24H43.0108C42.3954 16.7191 38.1928 10.5567 32.0483 7.2458Z" fill="#3DDC84"/>
</g>
<defs>
<clipPath id="clip0_116_809">
<rect width="43" height="24" fill="white"/>
</clipPath>
</defs>
</svg>
