<svg width="40" height="24" viewBox="0 0 40 24" fill="none" xmlns="http://www.w3.org/2000/svg">
<g clip-path="url(#clip0_134_634)">
<path d="M11.2625 8.69999C11.2625 9.19999 11.3289 9.59999 11.3954 9.89999C11.495 10.2 11.6279 10.5 11.8272 10.8667C11.8937 10.9667 11.9269 11.0667 11.9269 11.1667C11.9269 11.3 11.8605 11.4333 11.6611 11.5667L10.8306 12.1333C10.6977 12.2 10.598 12.2667 10.4983 12.2667C10.3655 12.2667 10.2326 12.2 10.0997 12.0667C9.90034 11.8667 9.76745 11.6667 9.63455 11.4333C9.50166 11.2 9.36877 10.9667 9.23588 10.6333C8.20598 11.8667 6.9103 12.4667 5.31562 12.4667C4.18605 12.4667 3.32226 12.1333 2.65781 11.5C1.99336 10.8667 1.66113 9.99999 1.66113 8.93333C1.66113 7.79999 2.0598 6.86666 2.85715 6.19999C3.65449 5.53333 4.75083 5.16666 6.11296 5.16666C6.57808 5.16666 7.04319 5.19999 7.50831 5.26666C8.00665 5.33333 8.50499 5.43333 9.03655 5.56666V4.59999C9.03655 3.59999 8.83721 2.86666 8.40532 2.46666C7.97342 2.06666 7.27575 1.86666 6.24585 1.86666C5.78073 1.86666 5.31562 1.93333 4.81728 2.03333C4.31894 2.16666 3.85382 2.29999 3.38871 2.49999C3.18937 2.56666 3.02326 2.63333 2.92359 2.66666C2.82392 2.66666 2.75748 2.69999 2.72426 2.69999C2.52492 2.69999 2.45848 2.56666 2.45848 2.29999V1.63333C2.45848 1.43333 2.4917 1.26666 2.55814 1.16666C2.62459 1.06666 2.75748 0.966659 2.92359 0.899992C3.38871 0.666659 3.95349 0.466659 4.58472 0.299992C5.24917 0.133325 5.91362 0.0333252 6.64452 0.0333252C8.23921 0.0333252 9.36877 0.399992 10.1329 1.09999C10.8638 1.83333 11.2292 2.89999 11.2292 4.39999L11.2625 8.69999ZM5.8804 10.7333C6.3123 10.7333 6.77741 10.6667 7.24253 10.5C7.70764 10.3333 8.13954 10.0333 8.50499 9.63333C8.70432 9.36666 8.87044 9.09999 8.9701 8.76666C9.03655 8.43333 9.10299 8.06666 9.10299 7.59999V7.03333C8.70432 6.93333 8.30565 6.86666 7.87376 6.79999C7.44186 6.73333 7.04319 6.73333 6.6113 6.73333C5.71429 6.73333 5.08306 6.89999 4.61794 7.26666C4.18605 7.63333 3.95349 8.13333 3.95349 8.79999C3.95349 9.43333 4.1196 9.89999 4.45183 10.2C4.78406 10.6 5.24917 10.7333 5.8804 10.7333ZM16.5449 12.2C16.3123 12.2 16.1462 12.1667 16.0465 12.0667C15.9468 12 15.8472 11.8 15.7807 11.5333L12.6578 1.19999C12.5914 0.933325 12.5249 0.766659 12.5249 0.666659C12.5249 0.466659 12.6246 0.333325 12.8571 0.333325H14.1528C14.4186 0.333325 14.5847 0.366659 14.6844 0.466659C14.7841 0.533325 14.8837 0.733325 14.9502 0.999992L17.1761 9.83333L19.2359 0.999992C19.3023 0.733325 19.3688 0.566659 19.5017 0.466659C19.6013 0.399992 19.8007 0.333325 20.0332 0.333325H21.0963C21.3621 0.333325 21.5282 0.366659 21.6279 0.466659C21.7276 0.533325 21.8272 0.733325 21.8937 0.999992L23.9867 9.93333L26.2791 0.999992C26.3455 0.733325 26.4452 0.566659 26.5449 0.466659C26.6445 0.399992 26.8106 0.333325 27.0764 0.333325H28.3057C28.505 0.333325 28.6379 0.433325 28.6379 0.666659C28.6379 0.733325 28.6379 0.799992 28.6047 0.866659C28.6047 0.933325 28.5714 1.06666 28.505 1.19999L25.2824 11.5333C25.216 11.8 25.1163 11.9667 25.0166 12.0667C24.9169 12.1333 24.7508 12.2 24.5183 12.2H23.3887C23.1229 12.2 22.9568 12.1667 22.8571 12.0667C22.7575 11.9667 22.6578 11.8 22.5914 11.5333L20.5316 2.93333L18.4718 11.5333C18.4053 11.8 18.3389 11.9667 18.206 12.0667C18.1063 12.1667 17.907 12.2 17.6744 12.2H16.5449ZM33.6545 12.5333C32.9568 12.5333 32.2591 12.4667 31.5947 12.3C30.9302 12.1333 30.3987 11.9667 30.0664 11.7667C29.8671 11.6333 29.701 11.5 29.6678 11.4C29.6346 11.3 29.5681 11.1333 29.5681 11.0333V10.3667C29.5681 10.1 29.6678 9.96666 29.8671 9.96666C29.9336 9.96666 30.0332 9.96666 30.0997 9.99999C30.1661 10.0333 30.299 10.0667 30.4319 10.1333C30.897 10.3333 31.3621 10.5 31.8937 10.6C32.4253 10.7 32.9568 10.7667 33.4884 10.7667C34.3189 10.7667 34.9834 10.6333 35.4153 10.3333C35.8804 10.0333 36.113 9.59999 36.113 9.06666C36.113 8.69999 35.9801 8.39999 35.7475 8.13333C35.515 7.86666 35.0498 7.66666 34.4186 7.43333L32.4917 6.83333C31.5282 6.53333 30.7973 6.06666 30.3655 5.46666C29.9336 4.86666 29.701 4.23333 29.701 3.53333C29.701 2.96666 29.8339 2.46666 30.0664 2.06666C30.299 1.66666 30.6312 1.26666 31.0299 0.966659C31.4286 0.666659 31.8937 0.433325 32.4253 0.266659C32.9568 0.0999919 33.5216 0.0333252 34.0864 0.0333252C34.3854 0.0333252 34.6844 0.0333252 34.9834 0.0999919C35.2824 0.133325 35.5814 0.199992 35.8472 0.233325C36.113 0.299992 36.3787 0.366659 36.6113 0.433325C36.8439 0.499992 37.0432 0.599992 37.1761 0.666659C37.3754 0.766659 37.5083 0.866659 37.5748 0.999992C37.6412 1.09999 37.7076 1.26666 37.7076 1.43333V2.06666C37.7076 2.33333 37.608 2.49999 37.4086 2.49999C37.309 2.49999 37.1429 2.43333 36.9103 2.33333C36.1462 1.99999 35.3156 1.79999 34.3522 1.79999C33.588 1.79999 32.99 1.93333 32.5914 2.16666C32.1927 2.39999 31.9601 2.79999 31.9601 3.36666C31.9601 3.73333 32.093 4.06666 32.3588 4.29999C32.6246 4.56666 33.1229 4.79999 33.8206 5.03333L35.7143 5.63333C36.6777 5.93333 37.3754 6.36666 37.7741 6.89999C38.1728 7.43333 38.3721 8.06666 38.3721 8.76666C38.3721 9.33333 38.2392 9.86666 38.0399 10.3C37.8073 10.7667 37.4751 11.1667 37.0764 11.4667C36.6777 11.8 36.1794 12.0333 35.6146 12.2C34.9502 12.4667 34.3189 12.5333 33.6545 12.5333Z" fill="#252F3E"/>
<path d="M36.1794 19.0333C31.794 22.2667 25.4153 24 19.9668 24C12.2924 24 5.38208 21.1667 0.166129 16.4333C-0.232543 16.0667 0.132906 15.5667 0.631245 15.8333C6.27909 19.1333 13.2226 21.1 20.4319 21.1C25.2824 21.1 30.6312 20.1 35.5482 18C36.2459 17.7 36.8771 18.5 36.1794 19.0333Z" fill="#FF9900"/>
<path d="M37.9735 16.9667C37.4087 16.2333 34.2858 16.6333 32.8572 16.8C32.4253 16.8667 32.3589 16.4667 32.7575 16.2C35.2492 14.4333 39.3688 14.9333 39.8339 15.5333C40.2991 16.1333 39.701 20.2667 37.3755 22.2333C37.01 22.5333 36.6778 22.3667 36.8439 21.9667C37.3755 20.6333 38.5383 17.6667 37.9735 16.9667Z" fill="#FF9900"/>
<path d="M11.2625 8.69999C11.2625 9.19999 11.3289 9.59999 11.3954 9.89999C11.495 10.2 11.6279 10.5 11.8272 10.8667C11.8937 10.9667 11.9269 11.0667 11.9269 11.1667C11.9269 11.3 11.8605 11.4333 11.6611 11.5667L10.8306 12.1333C10.6977 12.2 10.598 12.2667 10.4983 12.2667C10.3655 12.2667 10.2326 12.2 10.0997 12.0667C9.90034 11.8667 9.76745 11.6667 9.63455 11.4333C9.50166 11.2 9.36877 10.9667 9.23588 10.6333C8.20598 11.8667 6.9103 12.4667 5.31562 12.4667C4.18605 12.4667 3.32226 12.1333 2.65781 11.5C1.99336 10.8667 1.66113 9.99999 1.66113 8.93333C1.66113 7.79999 2.0598 6.86666 2.85715 6.19999C3.65449 5.53333 4.75083 5.16666 6.11296 5.16666C6.57808 5.16666 7.04319 5.19999 7.50831 5.26666C8.00665 5.33333 8.50499 5.43333 9.03655 5.56666V4.59999C9.03655 3.59999 8.83721 2.86666 8.40532 2.46666C7.97342 2.06666 7.27575 1.86666 6.24585 1.86666C5.78073 1.86666 5.31562 1.93333 4.81728 2.03333C4.31894 2.16666 3.85382 2.29999 3.38871 2.49999C3.18937 2.56666 3.02326 2.63333 2.92359 2.66666C2.82392 2.66666 2.75748 2.69999 2.72426 2.69999C2.52492 2.69999 2.45848 2.56666 2.45848 2.29999V1.63333C2.45848 1.43333 2.4917 1.26666 2.55814 1.16666C2.62459 1.06666 2.75748 0.966659 2.92359 0.899992C3.38871 0.666659 3.95349 0.466659 4.58472 0.299992C5.24917 0.133325 5.91362 0.0333252 6.64452 0.0333252C8.23921 0.0333252 9.36877 0.399992 10.1329 1.09999C10.8638 1.83333 11.2292 2.89999 11.2292 4.39999L11.2625 8.69999ZM5.8804 10.7333C6.3123 10.7333 6.77741 10.6667 7.24253 10.5C7.70764 10.3333 8.13954 10.0333 8.50499 9.63333C8.70432 9.36666 8.87044 9.09999 8.9701 8.76666C9.03655 8.43333 9.10299 8.06666 9.10299 7.59999V7.03333C8.70432 6.93333 8.30565 6.86666 7.87376 6.79999C7.44186 6.73333 7.04319 6.73333 6.6113 6.73333C5.71429 6.73333 5.08306 6.89999 4.61794 7.26666C4.18605 7.63333 3.95349 8.13333 3.95349 8.79999C3.95349 9.43333 4.1196 9.89999 4.45183 10.2C4.78406 10.6 5.24917 10.7333 5.8804 10.7333ZM16.5449 12.2C16.3123 12.2 16.1462 12.1667 16.0465 12.0667C15.9468 12 15.8472 11.8 15.7807 11.5333L12.6578 1.19999C12.5914 0.933325 12.5249 0.766659 12.5249 0.666659C12.5249 0.466659 12.6246 0.333325 12.8571 0.333325H14.1528C14.4186 0.333325 14.5847 0.366659 14.6844 0.466659C14.7841 0.533325 14.8837 0.733325 14.9502 0.999992L17.1761 9.83333L19.2359 0.999992C19.3023 0.733325 19.3688 0.566659 19.5017 0.466659C19.6013 0.399992 19.8007 0.333325 20.0332 0.333325H21.0963C21.3621 0.333325 21.5282 0.366659 21.6279 0.466659C21.7276 0.533325 21.8272 0.733325 21.8937 0.999992L23.9867 9.93333L26.2791 0.999992C26.3455 0.733325 26.4452 0.566659 26.5449 0.466659C26.6445 0.399992 26.8106 0.333325 27.0764 0.333325H28.3057C28.505 0.333325 28.6379 0.433325 28.6379 0.666659C28.6379 0.733325 28.6379 0.799992 28.6047 0.866659C28.6047 0.933325 28.5714 1.06666 28.505 1.19999L25.2824 11.5333C25.216 11.8 25.1163 11.9667 25.0166 12.0667C24.9169 12.1333 24.7508 12.2 24.5183 12.2H23.3887C23.1229 12.2 22.9568 12.1667 22.8571 12.0667C22.7575 11.9667 22.6578 11.8 22.5914 11.5333L20.5316 2.93333L18.4718 11.5333C18.4053 11.8 18.3389 11.9667 18.206 12.0667C18.1063 12.1667 17.907 12.2 17.6744 12.2H16.5449ZM33.6545 12.5333C32.9568 12.5333 32.2591 12.4667 31.5947 12.3C30.9302 12.1333 30.3987 11.9667 30.0664 11.7667C29.8671 11.6333 29.701 11.5 29.6678 11.4C29.6346 11.3 29.5681 11.1333 29.5681 11.0333V10.3667C29.5681 10.1 29.6678 9.96666 29.8671 9.96666C29.9336 9.96666 30.0332 9.96666 30.0997 9.99999C30.1661 10.0333 30.299 10.0667 30.4319 10.1333C30.897 10.3333 31.3621 10.5 31.8937 10.6C32.4253 10.7 32.9568 10.7667 33.4884 10.7667C34.3189 10.7667 34.9834 10.6333 35.4153 10.3333C35.8804 10.0333 36.113 9.59999 36.113 9.06666C36.113 8.69999 35.9801 8.39999 35.7475 8.13333C35.515 7.86666 35.0498 7.66666 34.4186 7.43333L32.4917 6.83333C31.5282 6.53333 30.7973 6.06666 30.3655 5.46666C29.9336 4.86666 29.701 4.23333 29.701 3.53333C29.701 2.96666 29.8339 2.46666 30.0664 2.06666C30.299 1.66666 30.6312 1.26666 31.0299 0.966659C31.4286 0.666659 31.8937 0.433325 32.4253 0.266659C32.9568 0.0999919 33.5216 0.0333252 34.0864 0.0333252C34.3854 0.0333252 34.6844 0.0333252 34.9834 0.0999919C35.2824 0.133325 35.5814 0.199992 35.8472 0.233325C36.113 0.299992 36.3787 0.366659 36.6113 0.433325C36.8439 0.499992 37.0432 0.599992 37.1761 0.666659C37.3754 0.766659 37.5083 0.866659 37.5748 0.999992C37.6412 1.09999 37.7076 1.26666 37.7076 1.43333V2.06666C37.7076 2.33333 37.608 2.49999 37.4086 2.49999C37.309 2.49999 37.1429 2.43333 36.9103 2.33333C36.1462 1.99999 35.3156 1.79999 34.3522 1.79999C33.588 1.79999 32.99 1.93333 32.5914 2.16666C32.1927 2.39999 31.9601 2.79999 31.9601 3.36666C31.9601 3.73333 32.093 4.06666 32.3588 4.29999C32.6246 4.56666 33.1229 4.79999 33.8206 5.03333L35.7143 5.63333C36.6777 5.93333 37.3754 6.36666 37.7741 6.89999C38.1728 7.43333 38.3721 8.06666 38.3721 8.76666C38.3721 9.33333 38.2392 9.86666 38.0399 10.3C37.8073 10.7667 37.4751 11.1667 37.0764 11.4667C36.6777 11.8 36.1794 12.0333 35.6146 12.2C34.9502 12.4667 34.3189 12.5333 33.6545 12.5333Z" fill="#252F3E"/>
<path d="M36.1794 19.0333C31.794 22.2667 25.4153 24 19.9668 24C12.2924 24 5.38208 21.1667 0.166129 16.4333C-0.232543 16.0667 0.132906 15.5667 0.631245 15.8333C6.27909 19.1333 13.2226 21.1 20.4319 21.1C25.2824 21.1 30.6312 20.1 35.5482 18C36.2459 17.7 36.8771 18.5 36.1794 19.0333Z" fill="#FF9900"/>
<path d="M37.9735 16.9667C37.4087 16.2333 34.2858 16.6333 32.8572 16.8C32.4253 16.8667 32.3589 16.4667 32.7575 16.2C35.2492 14.4333 39.3688 14.9333 39.8339 15.5333C40.2991 16.1333 39.701 20.2667 37.3755 22.2333C37.01 22.5333 36.6778 22.3667 36.8439 21.9667C37.3755 20.6333 38.5383 17.6667 37.9735 16.9667Z" fill="#FF9900"/>
</g>
<defs>
<clipPath id="clip0_134_634">
<rect width="40" height="24" fill="white"/>
</clipPath>
</defs>
</svg>
