<svg width="25" height="24" viewBox="0 0 25 24" fill="none" xmlns="http://www.w3.org/2000/svg">
<g clip-path="url(#clip0_134_628)">
<path d="M8.32857 0H15.7286L8.05714 23.185C7.9 23.6798 7.44286 24 6.94286 24H1.17143C0.514286 24 0 23.4615 0 22.8065C0 22.6756 0.0142857 22.5446 0.0571429 22.4281L7.21429 0.815039C7.37143 0.334748 7.82857 0 8.32857 0Z" fill="url(#paint0_linear_134_628)"/>
<path d="M19.0858 15.544H7.35719C7.05719 15.544 6.81433 15.7914 6.81433 16.097C6.81433 16.2571 6.87147 16.4027 6.98576 16.5046L14.5286 23.6653C14.7429 23.869 15.0429 23.9855 15.3429 23.9855H21.9858L19.0858 15.544Z" fill="#0078D4"/>
<path d="M8.32861 0C7.81433 0 7.35718 0.334748 7.21433 0.829594L0.071468 22.3845C-0.142818 23.0103 0.171468 23.6944 0.785754 23.9127C0.914325 23.9563 1.0429 23.9854 1.18575 23.9854H7.08575C7.52861 23.8981 7.90004 23.5779 8.05718 23.1413L9.48575 18.8623L14.5715 23.7235C14.7858 23.8981 15.0572 24 15.3286 24H21.9429L19.0429 15.544H10.5858L15.7572 0H8.32861Z" fill="url(#paint1_linear_134_628)"/>
<path d="M17.7857 0.815039C17.6286 0.320194 17.1714 0 16.6714 0H8.42859C8.92859 0 9.38573 0.334748 9.54288 0.815039L16.6857 22.4136C16.9 23.0394 16.5572 23.7235 15.9429 23.9272C15.8286 23.9709 15.7 23.9854 15.5714 23.9854H23.8143C24.4714 23.9854 24.9857 23.4469 24.9857 22.792C24.9857 22.661 24.9714 22.53 24.9286 22.4136L17.7857 0.815039Z" fill="url(#paint2_linear_134_628)"/>
</g>
<defs>
<linearGradient id="paint0_linear_134_628" x1="11.0297" y1="1.77854" x2="3.08698" y2="24.8104" gradientUnits="userSpaceOnUse">
<stop stop-color="#114A8B"/>
<stop offset="1" stop-color="#0765B6"/>
</linearGradient>
<linearGradient id="paint1_linear_134_628" x1="13.4294" y1="12.5535" x2="11.6457" y2="13.1456" gradientUnits="userSpaceOnUse">
<stop stop-opacity="0.3"/>
<stop offset="0.071" stop-opacity="0.2"/>
<stop offset="0.321" stop-opacity="0.1"/>
<stop offset="0.623" stop-opacity="0.05"/>
<stop offset="1" stop-opacity="0"/>
</linearGradient>
<linearGradient id="paint2_linear_134_628" x1="12.5074" y1="1.08307" x2="21.2194" y2="23.8651" gradientUnits="userSpaceOnUse">
<stop stop-color="#3BC9F3"/>
<stop offset="1" stop-color="#2892DF"/>
</linearGradient>
<clipPath id="clip0_134_628">
<rect width="25" height="24" fill="white"/>
</clipPath>
</defs>
</svg>
