<svg width="29" height="24" viewBox="0 0 29 24" fill="none" xmlns="http://www.w3.org/2000/svg">
<g clip-path="url(#clip0_134_603)">
<path d="M0.597168 10.8465H6.0285V11.6249H0.597168V10.8465ZM0.597168 9.34617H6.0285V10.1293H0.597168V9.34617ZM2.14427 7.85531H4.47669V8.63848H2.14427V7.85531ZM2.14427 6.35973H4.47669V7.1429H2.14427V6.35973ZM2.14427 4.86415H4.47669V5.64733H2.14427V4.86415ZM2.14427 3.36858H4.47669V4.15175H2.14427V3.36858ZM0.597168 1.87772H6.0285V2.66089H0.597168V1.87772ZM0.597168 0.382141H6.0285V1.16531H0.597168V0.382141ZM6.8044 10.1293H15.1607C15.3017 9.88873 15.4052 9.62452 15.471 9.34617H6.8044V10.1293ZM14.507 6.35973H8.35621V7.1429H15.1559C14.9867 6.85039 14.7656 6.58619 14.507 6.35973ZM8.35621 4.86415V5.64733H14.507C14.7656 5.42558 14.982 5.1661 15.1559 4.86415H8.35621ZM15.1559 1.87772H6.8044V2.66089H15.471C15.3958 2.38725 15.2923 2.12305 15.1559 1.87772ZM12.5884 0.382141H6.8044V1.16531H14.587C14.0415 0.660498 13.3314 0.382141 12.5884 0.382141ZM8.35621 3.36858H10.6839V4.15175H8.35621V3.36858ZM13.0116 4.15175H15.4475C15.518 3.9017 15.551 3.6375 15.551 3.36858H13.0116V4.15175ZM8.35621 7.85531H10.6839V8.63848H8.35621V7.85531ZM13.0116 7.85531V8.63848H15.551C15.551 8.36956 15.5133 8.10536 15.4475 7.85531H13.0116ZM6.8044 11.6202L12.5884 11.6296C13.3643 11.6296 14.065 11.3277 14.587 10.8465H6.8044V11.6202ZM16.1199 10.8465H19.9995V11.6249H16.1199V10.8465ZM16.1199 9.34617H19.9995V10.1293H16.1199V9.34617ZM17.6671 7.85531H19.9948V8.63848H17.6671V7.85531ZM17.6671 6.35973H19.9948V7.1429H17.6671V6.35973ZM21.0763 1.87772H16.1199V2.66089H21.3491L21.0763 1.87772ZM20.5638 0.382141H16.1199V1.16531H20.8318L20.5638 0.382141ZM24.6502 10.8465H28.5344V11.6249H24.6502V10.8465ZM24.6502 9.34617H28.5344V10.1293H24.6502V9.34617ZM24.6502 7.85531H26.9779V8.63848H24.6502V7.85531ZM24.6502 6.35973H26.9779V7.1429H24.6502V6.35973ZM24.6502 5.64733H26.9779V4.86415H22.5435L22.3225 5.49635L22.1015 4.86415H17.6624V5.64733H19.9901V4.9302L20.2393 5.64733H24.4057L24.6502 4.9302V5.64733ZM26.9826 3.36858H23.0608L22.7927 4.15175H26.9826V3.36858ZM24.0906 0.382141L23.8226 1.16531H28.5344V0.382141H24.0906ZM22.3272 11.6202L22.5952 10.8465H22.0544L22.3272 11.6202ZM21.8099 10.1293H22.8397L23.1172 9.34617H21.5372L21.8099 10.1293ZM21.2879 8.63848H23.3617L23.6345 7.85531H21.0105L21.2879 8.63848ZM20.766 7.1429H23.8837L24.1517 6.35973H20.4979L20.766 7.1429ZM17.6671 4.15175H21.8616L21.5936 3.36858H17.6671V4.15175ZM23.3053 2.66089H28.5344V1.87772H23.5733L23.3053 2.66089ZM0.597168 13.7338H4.44377C5.20557 13.7338 5.77456 13.7668 6.14606 13.8282C6.52225 13.8942 6.85613 14.0263 7.15238 14.2245C7.44864 14.4274 7.69316 14.6963 7.89067 15.0312C8.08817 15.3662 8.18692 15.7436 8.18692 16.1588C8.18692 16.6117 8.06466 17.0269 7.82483 17.4044C7.5803 17.7818 7.25113 18.0649 6.83732 18.2536C7.42512 18.4234 7.87656 18.7159 8.19162 19.1311C8.50669 19.5416 8.66657 20.0275 8.66657 20.5889C8.66657 21.0277 8.56312 21.457 8.36091 21.8722C8.15871 22.2874 7.88126 22.6176 7.52858 22.8677C7.17589 23.1177 6.74327 23.2687 6.226 23.3253C5.90153 23.3584 5.12092 23.3819 3.88418 23.3914H0.597168V13.7338ZM2.53928 15.3426V17.5742H3.81364C4.57074 17.5742 5.04098 17.5648 5.22438 17.5412C5.55825 17.5034 5.81689 17.3855 6.00969 17.1968C6.19778 17.008 6.29654 16.7533 6.29654 16.4419C6.29654 16.1447 6.21659 15.8993 6.05201 15.7153C5.88742 15.5266 5.6429 15.4134 5.31843 15.3757C5.12563 15.3521 4.57074 15.3426 3.65846 15.3426H2.53928ZM2.53928 19.183V21.7637H4.33561C5.03628 21.7637 5.47831 21.7448 5.66641 21.7024C5.95326 21.6505 6.18838 21.5231 6.37177 21.3155C6.55517 21.1126 6.64452 20.839 6.64452 20.4946C6.64452 20.2068 6.57398 19.9567 6.43291 19.7586C6.29183 19.5557 6.08963 19.4095 5.82629 19.3151C5.56295 19.2207 4.98925 19.1783 4.10519 19.1783L2.53928 19.183ZM10.2983 23.3914V13.7338H13.416C14.5964 13.7338 15.3676 13.781 15.7249 13.8801C16.2751 14.0263 16.736 14.3424 17.1122 14.8237C17.4837 15.3096 17.6718 15.9371 17.6718 16.7061C17.6718 17.3006 17.5636 17.7959 17.352 18.2017C17.1357 18.6074 16.8629 18.9235 16.5338 19.1547C16.2046 19.3859 15.866 19.5368 15.5274 19.6123C15.0619 19.7067 14.3894 19.7492 13.5101 19.7492H12.2451V23.3914H10.2983ZM12.2404 15.3662V18.1073H13.3032C14.0697 18.1073 14.5822 18.0554 14.8409 17.9563C15.0995 17.8573 15.3017 17.6969 15.4475 17.4798C15.5933 17.2628 15.6685 17.0128 15.6685 16.7297C15.6685 16.3806 15.5651 16.0881 15.3582 15.8616C15.1512 15.6351 14.8926 15.4889 14.5775 15.4323C14.3471 15.3898 13.8816 15.3662 13.1809 15.3662H12.2404ZM19.2377 23.3914V13.7338H22.1485L23.8931 20.32L25.6189 13.7338H28.5344V23.3914H26.7287V15.7908L24.8195 23.3914H22.9479L21.0434 15.7908V23.3914H19.2377Z" fill="#0070BE"/>
</g>
<defs>
<clipPath id="clip0_134_603">
<rect width="29" height="24" fill="white"/>
</clipPath>
</defs>
</svg>
