<svg width="18" height="24" viewBox="0 0 18 24" fill="none" xmlns="http://www.w3.org/2000/svg">
<g clip-path="url(#clip0_101_499)">
<path d="M5.80457 18.553C5.80457 18.553 4.87656 19.0854 6.46501 19.2656C8.38937 19.4821 9.37289 19.4511 11.4936 19.0551C11.4936 19.0551 12.0511 19.4 12.8297 19.6987C8.07578 21.7087 2.07059 19.5823 5.80457 18.553Z" fill="#5382A1"/>
<path d="M5.22364 15.9301C5.22364 15.9301 4.18279 16.6902 5.77242 16.8524C7.82808 17.0616 9.45148 17.0787 12.2606 16.5451C12.2606 16.5451 12.6491 16.9337 13.2601 17.1462C7.51226 18.8042 1.11022 17.2769 5.22364 15.9301Z" fill="#5382A1"/>
<path d="M10.1209 11.4808C11.2923 12.8112 9.81314 14.0085 9.81314 14.0085C9.81314 14.0085 12.7875 12.4937 11.4215 10.5969C10.1457 8.82806 9.16737 7.94917 14.4638 4.91888C14.4638 4.91888 6.15018 6.96723 10.1209 11.4808Z" fill="#E76F00"/>
<path d="M16.4084 20.4931C16.4084 20.4931 17.0952 21.0513 15.6521 21.4831C12.9081 22.3032 4.23108 22.5508 1.82065 21.5158C0.954165 21.1439 2.57907 20.6279 3.09021 20.5196C3.62327 20.4056 3.9279 20.4268 3.9279 20.4268C2.96427 19.7571 -2.30056 21.7417 1.25362 22.3101C10.9464 23.8608 18.9226 21.6118 16.4084 20.4931Z" fill="#5382A1"/>
<path d="M6.25082 13.2125C6.25082 13.2125 1.83715 14.2466 4.68783 14.6222C5.89147 14.7812 8.2909 14.7452 10.5259 14.5605C12.3525 14.4085 14.1866 14.0853 14.1866 14.0853C14.1866 14.0853 13.5425 14.3574 13.0765 14.6713C8.59455 15.8341 -0.0638452 15.2932 2.42879 14.1037C4.53682 13.0984 6.25082 13.2125 6.25082 13.2125Z" fill="#5382A1"/>
<path d="M14.1685 17.5784C18.7246 15.2428 16.618 12.9983 15.1477 13.3007C14.7873 13.3747 14.6266 13.4388 14.6266 13.4388C14.6266 13.4388 14.7604 13.232 15.0159 13.1425C17.9248 12.1337 20.1619 16.1181 14.0769 17.6961C14.0769 17.6961 14.1474 17.634 14.1685 17.5784Z" fill="#5382A1"/>
<path d="M11.4216 0.0257568C11.4216 0.0257568 13.9448 2.51584 9.02836 6.34488C5.08583 9.41642 8.12934 11.1677 9.02672 13.1687C6.72541 11.1203 5.03655 9.31718 6.16957 7.63896C7.83257 5.17548 12.4397 3.9811 11.4216 0.0257568Z" fill="#E76F00"/>
<path d="M6.69855 23.9074C11.0719 24.1836 17.7877 23.7542 17.9467 21.7128C17.9467 21.7128 17.641 22.4867 14.3324 23.1013C10.5996 23.7942 5.99583 23.7133 3.26526 23.2692C3.26526 23.2692 3.82424 23.7256 6.69855 23.9074Z" fill="#5382A1"/>
</g>
<defs>
<clipPath id="clip0_101_499">
<rect width="18" height="24" fill="white"/>
</clipPath>
</defs>
</svg>
