<svg width="48" height="24" viewBox="0 0 48 24" fill="none" xmlns="http://www.w3.org/2000/svg">
<path d="M5.95612 3.45091C5.7301 3.21986 5.41628 3.07758 5.06671 3.07758C4.71792 3.07758 4.40667 3.21986 4.18348 3.45091H4.17764C3.95233 3.68019 3.81248 4.00023 3.81248 4.35386C3.81248 4.70959 3.95233 5.02762 4.17764 5.25465L4.18348 5.26095C4.40667 5.48998 4.71792 5.63028 5.06671 5.63028C5.41628 5.63028 5.7301 5.48998 5.95612 5.26095L5.95868 5.25465C6.18503 5.02762 6.32301 4.70959 6.32301 4.35386C6.32301 4.00023 6.18503 3.68019 5.95868 3.45091H5.95612ZM5.06671 20.9224C5.41628 20.9224 5.7301 20.7775 5.95612 20.5507L5.95868 20.5442C6.18503 20.3178 6.32301 19.9977 6.32301 19.646C6.32301 19.2903 6.18503 18.9717 5.95868 18.7413H5.95612C5.7301 18.5081 5.41628 18.3671 5.06671 18.3671C4.71792 18.3671 4.40667 18.5081 4.18348 18.7413H4.17764C3.95233 18.9717 3.81248 19.2903 3.81248 19.646C3.81248 19.9977 3.95233 20.3178 4.17764 20.5442L4.18348 20.5507C4.40667 20.7775 4.71792 20.9224 5.06671 20.9224ZM11.9003 17.0553C12.2109 16.9722 12.4922 16.7693 12.6639 16.4624L12.687 16.4176C12.8397 16.127 12.8678 15.791 12.7861 15.493C12.7038 15.1746 12.5022 14.8922 12.2012 14.7165L12.1836 14.7044C11.8903 14.5404 11.5565 14.5048 11.2498 14.5898C10.9379 14.6691 10.6575 14.8805 10.4868 15.1847C10.3139 15.487 10.2778 15.8346 10.3604 16.1545C10.446 16.4693 10.6459 16.7536 10.945 16.9312H10.9469C11.2466 17.1067 11.5855 17.138 11.9003 17.0553ZM6.35319 10.692C6.02394 10.3579 5.56958 10.1485 5.06671 10.1485C4.56451 10.1485 4.11147 10.3579 3.7829 10.692C3.45518 11.0258 3.25327 11.4861 3.25327 11.9978C3.25327 12.5096 3.45518 12.9719 3.7829 13.3096C4.11147 13.6417 4.56451 13.8492 5.06671 13.8492C5.56958 13.8492 6.02394 13.6417 6.35319 13.3096C6.6815 12.9719 6.88342 12.5096 6.88342 11.9978C6.88342 11.4861 6.6815 11.0258 6.35319 10.692ZM5.62977 8.51683C6.3596 8.63916 7.0152 8.99489 7.51619 9.50854H7.52004C7.59976 9.58934 7.67729 9.67832 7.74931 9.76733L9.00166 9.03023C8.83317 8.51256 8.82545 7.97132 8.96075 7.46353C9.13927 6.78401 9.57236 6.17543 10.2215 5.79423L10.2428 5.78045C10.8849 5.41076 11.6147 5.33388 12.2736 5.51545C12.9407 5.69738 13.5426 6.14009 13.9172 6.79971V6.80163C14.2902 7.45768 14.3658 8.21057 14.1879 8.88818C14.0104 9.56779 13.5757 10.1803 12.9272 10.5595L12.7561 10.6622H12.7388C12.1388 10.9528 11.4794 10.9983 10.8736 10.836C10.3762 10.7018 9.91996 10.4191 9.56266 10.0183L8.31228 10.7532C8.45599 11.1403 8.53538 11.5571 8.53538 11.9978C8.53538 12.4363 8.45599 12.8594 8.31228 13.2483L9.56266 13.9813C9.91996 13.5742 10.3762 13.2978 10.8736 13.1634C11.5411 12.9778 12.2806 13.0566 12.9272 13.4401L12.9687 13.4597V13.4617C13.5931 13.8471 14.0124 14.4417 14.1879 15.1134C14.3658 15.7871 14.2902 16.5403 13.9172 17.1976L13.8947 17.2434L13.8921 17.2395C13.5176 17.8733 12.9272 18.3026 12.2754 18.4841C11.607 18.6634 10.8671 18.5868 10.2215 18.2089V18.2037C9.57234 17.8219 9.13925 17.212 8.96073 16.5337C8.82543 16.0283 8.83315 15.487 9.00164 14.9694L7.74929 14.2342C7.67727 14.3232 7.59974 14.4083 7.52002 14.489L7.51617 14.493C7.01519 15.0047 6.35958 15.3604 5.62975 15.4789V16.9512C6.14996 17.0619 6.61554 17.3266 6.98046 17.6979L6.98243 17.7018C7.47152 18.1972 7.77436 18.8873 7.77436 19.646C7.77436 20.4022 7.47152 21.0884 6.98243 21.5863L6.98046 21.5941C6.48786 22.0917 5.81239 22.4 5.06669 22.4C4.32493 22.4 3.64749 22.0917 3.15618 21.5941H3.15421V21.5863C2.66455 21.0884 2.36103 20.4022 2.36103 19.646C2.36103 18.8873 2.66455 18.1972 3.15421 17.7018V17.6979H3.15618C3.52075 17.3266 3.98728 17.0619 4.50569 16.9512V15.4789C3.77577 15.3604 3.12146 15.0047 2.62115 14.493L2.61602 14.489C1.9913 13.8511 1.59998 12.9719 1.59998 11.9978C1.59998 11.0258 1.9913 10.1465 2.61602 9.50854H2.62115C3.12146 8.99489 3.77577 8.63916 4.50569 8.51683V7.05066C3.98729 6.93618 3.52077 6.67145 3.1562 6.30203H3.15423V6.29809C2.66457 5.79815 2.36105 5.11269 2.36105 4.35385C2.36105 3.59904 2.66457 2.90759 3.15423 2.40971L3.1562 2.40769C3.64751 1.90803 4.32495 1.60001 5.06671 1.60001C5.81241 1.60001 6.48788 1.90803 6.98048 2.40769V2.40971H6.98245C7.47154 2.90759 7.77438 3.59904 7.77438 4.35385C7.77438 5.11269 7.47154 5.79815 6.98245 6.29809L6.98048 6.30203C6.61556 6.67145 6.14998 6.93618 5.62977 7.05066V8.51683ZM12.6639 7.53882L12.6533 7.52276C12.4807 7.22674 12.2051 7.0291 11.9003 6.94393C11.5855 6.85897 11.2466 6.89455 10.945 7.07063H10.9469C10.6459 7.24436 10.4447 7.52871 10.3604 7.847C10.2777 8.16311 10.3139 8.51256 10.4868 8.8169L10.4926 8.82476C10.6659 9.12507 10.9417 9.32661 11.2498 9.40776C11.5591 9.49675 11.9041 9.45916 12.2012 9.28308L12.2173 9.27522C12.5099 9.09757 12.7048 8.8169 12.7861 8.50863C12.8691 8.1906 12.8359 7.84307 12.6639 7.53882Z" fill="#231F20"/>
<path d="M18.2203 7.96942H19.6177V12.31L21.6327 10.0419H23.3082L20.8755 12.6696L23.3183 16.0004H21.7183L19.6177 13.0252V16.0004H18.2203V7.96942Z" fill="#231F20"/>
<path d="M24.9313 13.0469C24.9313 13.786 25.4537 14.8605 26.7123 14.8605C27.4911 14.8605 28.0036 14.4475 28.2694 13.9064C28.4086 13.6437 28.4727 13.3629 28.4942 13.0707C28.5039 12.788 28.4514 12.4939 28.3333 12.2328C28.0884 11.6699 27.5447 11.1819 26.702 11.1819C25.572 11.1819 24.9313 12.1143 24.9313 13.037V13.0469ZM29.8804 16.0004H28.4824V15.1432C28.1103 15.8365 27.3313 16.1843 26.5097 16.1843C24.6323 16.1843 23.5342 14.6965 23.5342 13.0155C23.5342 11.1383 24.8672 9.85797 26.5097 9.85797C27.5763 9.85797 28.2266 10.4331 28.4824 10.9112V10.0419H29.8804V16.0004Z" fill="#231F20"/>
<path d="M31.4625 11.1383H30.7384V10.0419H31.4625V9.70617C31.4625 7.93576 32.7855 7.82903 33.7886 7.81726V8.91175C33.4358 8.91175 32.8605 8.91175 32.8605 9.74937V10.0419H33.7886V11.1383H32.8605V16.0004H31.4625V11.1383Z" fill="#231F20"/>
<path d="M34.7388 7.96942H36.1357V12.31L38.1511 10.0419H39.8265L37.3938 12.6696L39.8362 16.0004H38.2363L36.1357 13.0252V16.0004H34.7388V7.96942Z" fill="#231F20"/>
<path d="M41.4498 13.0469C41.4498 13.786 41.972 14.8605 43.2308 14.8605C44.0085 14.8605 44.5211 14.4475 44.7873 13.9064C44.9269 13.6437 44.9912 13.3629 45.0123 13.0707C45.022 12.788 44.9695 12.4939 44.8512 12.2328C44.6067 11.6699 44.063 11.1819 43.2205 11.1819C42.0903 11.1819 41.4498 12.1143 41.4498 13.037V13.0469ZM46.3984 16.0004H45.0009V15.1432C44.6277 15.8365 43.8494 16.1843 43.0282 16.1843C41.1509 16.1843 40.0536 14.6965 40.0536 13.0155C40.0536 11.1383 41.3862 9.85797 43.0282 9.85797C44.0941 9.85797 44.7452 10.4331 45.0009 10.9112V10.0419H46.3984V16.0004Z" fill="#231F20"/>
</svg>
