<svg width="35" height="24" viewBox="0 0 35 24" fill="none" xmlns="http://www.w3.org/2000/svg">
<g clip-path="url(#clip0_134_606)">
<path d="M8.41164 21.8619H7.06161C7.01488 19.5599 6.88506 17.3941 6.66698 15.37H6.6566L4.60039 21.8619H3.57228L1.52646 15.37H1.51607C1.36549 17.3155 1.26683 19.4812 1.23049 21.8619H-0.00012207C0.0777647 18.9673 0.28027 16.251 0.597009 13.7129H2.26898L4.21615 19.7015H4.22653L6.18408 13.7129H7.78336C8.14164 16.6862 8.34933 19.4025 8.41164 21.8619Z" fill="#00758F"/>
<path d="M14.2687 15.8524C13.7183 18.8677 12.9914 21.0544 12.0931 22.4178C11.3921 23.4718 10.6236 23.9962 9.78763 23.9962C9.56436 23.9962 9.28916 23.928 8.96204 23.7917V23.068C9.123 23.089 9.30993 23.1048 9.52282 23.1048C9.91225 23.1048 10.229 22.9946 10.4678 22.7796C10.7534 22.5122 10.8988 22.2185 10.8988 21.8882C10.8988 21.6627 10.7846 21.2012 10.5665 20.4985L9.08665 15.8524H10.4107L11.4752 19.3291C11.714 20.1157 11.8127 20.6716 11.7763 20.981C12.3579 19.413 12.7629 17.7035 12.9966 15.8524H14.2687Z" fill="#00758F"/>
<path d="M20.1829 19.6071C20.1829 20.2993 19.9337 20.8656 19.43 21.3113C18.9264 21.7518 18.2565 21.9721 17.4102 21.9721C16.6209 21.9721 15.8576 21.7151 15.1151 21.2117L15.463 20.5143C16.1017 20.8342 16.678 20.9967 17.1973 20.9967C17.6854 20.9967 18.0644 20.8866 18.3396 20.6716C18.6148 20.4566 18.781 20.1524 18.781 19.7644C18.781 19.282 18.4487 18.8677 17.836 18.5216C17.27 18.207 16.138 17.5515 16.138 17.5515C15.5253 17.1005 15.219 16.6181 15.219 15.8157C15.219 15.155 15.4474 14.6201 15.9044 14.2163C16.3613 13.8073 16.9532 13.6081 17.6802 13.6081C18.4279 13.6081 19.1081 13.8073 19.7208 14.2111L19.4093 14.9085C18.8848 14.6831 18.3656 14.5729 17.8567 14.5729C17.4413 14.5729 17.1246 14.6726 16.9013 14.8771C16.678 15.0764 16.5378 15.3333 16.5378 15.6479C16.5378 16.1304 16.8805 16.5499 17.5088 16.9012C18.08 17.2159 19.2379 17.8818 19.2379 17.8818C19.8714 18.3328 20.1829 18.8153 20.1829 19.6071Z" fill="#F29111"/>
<path fill-rule="evenodd" clip-rule="evenodd" d="M22.5974 20.2363C22.2703 19.7067 22.1093 18.8519 22.1093 17.6773C22.1093 15.6269 22.7272 14.5991 23.963 14.5991C24.6069 14.5991 25.0846 14.8456 25.3858 15.3333C25.7129 15.8629 25.8739 16.7072 25.8739 17.8661C25.8739 19.9322 25.256 20.9705 24.0202 20.9705C23.3763 20.9705 22.8986 20.724 22.5974 20.2363ZM27.4004 22.0612L25.9154 21.3218C26.0452 21.2117 26.175 21.0963 26.2841 20.96C26.9123 20.2101 27.2291 19.1036 27.2291 17.6406C27.2291 14.9452 26.1802 13.5976 24.0877 13.5976C23.0596 13.5976 22.2599 13.9384 21.6836 14.6254C21.0553 15.3752 20.7385 16.4765 20.7385 17.9343C20.7385 19.3658 21.0189 20.4146 21.5745 21.0858C22.0834 21.6889 22.8519 21.993 23.88 21.993C24.2642 21.993 24.6173 21.9458 24.934 21.8514L26.8656 22.9841L27.4004 22.0612Z" fill="#F29111"/>
<path d="M32.2398 21.8619H28.4026V13.7129H29.6955V20.8604H32.2398V21.8619Z" fill="#F29111"/>
<path d="M33.1641 21.8619H33.377V21.0334H33.6573V20.8656H32.8733V21.0334H33.1641V21.8619ZM34.7893 21.8619H34.9918V20.8656H34.6906L34.4414 21.5473L34.1714 20.8656H33.8806V21.8619H34.0727V21.1016H34.0831L34.3635 21.8619H34.5089L34.7893 21.1016V21.8619Z" fill="#F29111"/>
<path fill-rule="evenodd" clip-rule="evenodd" d="M33.8598 10.9861C33.0809 10.9651 32.4734 11.0438 31.9698 11.264C31.8244 11.3217 31.5907 11.3217 31.5699 11.5105C31.6478 11.5892 31.6582 11.715 31.7257 11.8251C31.8399 12.0244 32.0476 12.2866 32.2346 12.4229C32.4371 12.5803 32.6448 12.7376 32.8577 12.8739C33.2367 13.1099 33.6677 13.2462 34.0363 13.4822C34.2492 13.6185 34.4673 13.7968 34.6802 13.9437C34.7893 14.0223 34.8568 14.1482 34.9918 14.2006V14.1692C34.9243 14.08 34.9035 13.9542 34.836 13.8545C34.7373 13.7549 34.6387 13.6657 34.5452 13.5714C34.2648 13.1885 33.9117 12.8529 33.5327 12.575C33.2211 12.36 32.5357 12.0611 32.4111 11.6993C32.4111 11.6993 32.4007 11.6888 32.3903 11.6783C32.6032 11.6573 32.8577 11.5787 33.0654 11.521C33.3977 11.4318 33.6988 11.4528 34.0415 11.3637C34.1973 11.3217 34.3531 11.2745 34.5089 11.2273V11.1382C34.3323 10.9599 34.2077 10.7239 34.0208 10.5561C33.5223 10.1209 32.9771 9.70136 32.4111 9.34477C32.1099 9.1455 31.7205 9.01965 31.3986 8.85185C31.2843 8.79416 31.087 8.7627 31.0195 8.66307C30.843 8.44807 30.7443 8.15965 30.6197 7.9027C30.3393 7.36258 30.0641 6.75953 29.8201 6.18794C29.6435 5.80514 29.5397 5.42233 29.3216 5.06575C28.3195 3.39294 27.2239 2.38087 25.5519 1.38453C25.1936 1.18002 24.7626 1.09088 24.3057 0.980754C24.0617 0.970266 23.8176 0.949286 23.5736 0.944042C23.4178 0.875872 23.262 0.687093 23.127 0.597946C22.5714 0.241362 21.1383 -0.524246 20.7281 0.487826C20.4633 1.12758 21.1175 1.75685 21.3408 2.08197C21.507 2.30746 21.7199 2.56441 21.8393 2.82136C21.9068 2.98917 21.9276 3.16746 21.9951 3.34575C22.1508 3.78099 22.2962 4.26343 22.5039 4.66721C22.613 4.87172 22.7272 5.09197 22.8622 5.2755C22.9401 5.38562 23.0751 5.43282 23.1062 5.61111C22.9712 5.81038 22.9609 6.10404 22.883 6.3505C22.5299 7.46221 22.6701 8.84136 23.1634 9.65941C23.3191 9.90587 23.6878 10.446 24.1863 10.2415C24.6224 10.0632 24.529 9.50209 24.6536 9.00916C24.6847 8.88855 24.664 8.80989 24.7211 8.73123V8.75221C24.8561 9.02489 24.9963 9.29233 25.1209 9.57026C25.4221 10.0527 25.9517 10.5561 26.3879 10.8865C26.6215 11.0648 26.8085 11.3689 27.0992 11.479V11.4476H27.0785C27.0213 11.3584 26.9331 11.3217 26.8552 11.2535C26.6786 11.0753 26.4865 10.8603 26.3463 10.661C25.9361 10.1104 25.5778 9.49684 25.2559 8.86757C25.1001 8.56343 24.9651 8.22782 24.8353 7.92367C24.7782 7.80831 24.7782 7.63002 24.6796 7.56709C24.5342 7.78209 24.3213 7.97087 24.2122 8.23306C24.0253 8.65782 24.0097 9.17697 23.937 9.72233C23.9007 9.73282 23.9163 9.72233 23.9007 9.74331C23.5891 9.66465 23.4801 9.33953 23.3659 9.06684C23.0751 8.36941 23.0232 7.24721 23.2776 6.43965C23.3451 6.23514 23.6411 5.5849 23.5216 5.38563C23.4645 5.19685 23.2672 5.09197 23.1634 4.9399C23.0387 4.75112 22.8985 4.51514 22.8155 4.31063C22.5818 3.76002 22.4624 3.14648 22.2131 2.59587C22.0937 2.33892 21.8912 2.07148 21.7251 1.83551C21.5381 1.56807 21.3356 1.38453 21.1902 1.0699C21.1435 0.959776 21.076 0.781486 21.1487 0.66612C21.1695 0.587461 21.2058 0.555997 21.2837 0.540265C21.4083 0.430143 21.7718 0.571726 21.8964 0.629409C22.2599 0.776237 22.561 0.917825 22.8622 1.12234C22.9972 1.22197 23.1426 1.40551 23.3191 1.45795H23.5268C23.8384 1.52612 24.1915 1.47892 24.4822 1.56807C24.9963 1.73587 25.4688 1.98234 25.8842 2.24977C27.1615 3.06782 28.2156 4.22672 28.927 5.61636C29.0464 5.84184 29.0931 6.0516 29.2022 6.28758C29.4047 6.77002 29.6591 7.26294 29.8668 7.73489C30.0693 8.19636 30.2666 8.66831 30.5574 9.05636C30.7028 9.26087 31.2895 9.37099 31.5492 9.48111C31.7413 9.57026 32.0476 9.64892 32.2242 9.75379C32.5565 9.95831 32.8888 10.1943 33.2004 10.425C33.3458 10.5456 33.8338 10.7921 33.8598 10.9861Z" fill="#00758F"/>
<path fill-rule="evenodd" clip-rule="evenodd" d="M23.9215 2.4333C23.7554 2.4333 23.6412 2.45427 23.5217 2.48049V2.50147H23.5425C23.6204 2.65879 23.7554 2.7689 23.854 2.90525C23.9319 3.06256 23.9994 3.21988 24.0773 3.3772C24.0877 3.36671 24.0981 3.35622 24.0981 3.35622C24.2331 3.25659 24.3058 3.09927 24.3058 2.86329C24.2487 2.79512 24.2383 2.72696 24.1864 2.65879C24.1241 2.55915 23.9994 2.51195 23.9215 2.4333Z" fill="#00758F"/>
</g>
<defs>
<clipPath id="clip0_134_606">
<rect width="35" height="24" fill="white"/>
</clipPath>
</defs>
</svg>
