<svg width="39" height="24" viewBox="0 0 39 24" fill="none" xmlns="http://www.w3.org/2000/svg">
<g clip-path="url(#clip0_101_509)">
<path d="M19.2762 24.0001C19.1475 24.0001 19.0196 23.9662 18.9068 23.9009L17.731 23.2014C17.5554 23.1027 17.6411 23.0678 17.699 23.0477C17.9331 22.9653 17.9807 22.9467 18.2306 22.8041C18.2569 22.7891 18.2913 22.7944 18.3181 22.8103L19.2214 23.3489C19.2541 23.3666 19.3003 23.3666 19.3306 23.3489L22.8526 21.3062C22.8852 21.2876 22.9064 21.2495 22.9064 21.2105V17.1268C22.9064 17.086 22.8852 17.0497 22.8519 17.0293L19.3313 14.9883C19.2987 14.9689 19.2555 14.9689 19.2229 14.9883L15.7029 17.0293C15.6688 17.0488 15.6471 17.0869 15.6471 17.1259V21.2096C15.6471 21.2486 15.6683 21.2858 15.7018 21.3044L16.6663 21.8642C17.1899 22.1273 17.51 21.8173 17.51 21.5055V17.4749C17.51 17.4173 17.5549 17.373 17.6122 17.373H18.0583C18.1139 17.373 18.1597 17.4173 18.1597 17.4749V21.5072C18.1597 22.2088 17.7789 22.6119 17.1168 22.6119C16.9131 22.6119 16.7527 22.6119 16.3048 22.3904L15.3809 21.8554C15.1525 21.7225 15.0115 21.4745 15.0115 21.2096V17.1259C15.0115 16.8601 15.1525 16.6121 15.3809 16.481L18.9064 14.4374C19.1295 14.3107 19.4257 14.3107 19.647 14.4374L23.1682 16.4819C23.3956 16.6139 23.5376 16.861 23.5376 17.1268V21.2105C23.5376 21.4754 23.3956 21.7225 23.1682 21.8554L19.647 23.899C19.5341 23.9646 19.4063 23.9982 19.2758 23.9982" fill="#689F63"/>
<path d="M20.3642 21.1861C18.8231 21.1861 18.5 20.4753 18.5 19.8792C18.5 19.8225 18.5455 19.7773 18.602 19.7773H19.0569C19.1072 19.7773 19.1495 19.8141 19.1574 19.8639C19.2262 20.3297 19.4307 20.5646 20.3626 20.5646C21.1049 20.5646 21.4205 20.3961 21.4205 20.0006C21.4205 19.773 21.3306 19.6038 20.1774 19.4904C19.213 19.3947 18.617 19.1812 18.617 18.4061C18.617 17.6921 19.2165 17.2669 20.2206 17.2669C21.3482 17.2669 21.9072 17.6602 21.9777 18.5053C21.9803 18.5345 21.9698 18.5629 21.9504 18.5842C21.931 18.6045 21.9036 18.6169 21.8754 18.6169H21.4179C21.3703 18.6169 21.3288 18.5833 21.3191 18.5372C21.2089 18.0473 20.9427 17.8905 20.2189 17.8905C19.4087 17.8905 19.3143 18.174 19.3143 18.3866C19.3143 18.6444 19.4254 18.7197 20.5186 18.865C21.6012 19.0094 22.1152 19.2131 22.1152 19.9776C22.1152 20.7483 21.4752 21.1903 20.3591 21.1903M24.649 16.8594H24.7671C24.8641 16.8594 24.8826 16.7912 24.8826 16.7513C24.8826 16.6468 24.8112 16.6468 24.7715 16.6468H24.6499L24.649 16.8594ZM24.5053 16.5246H24.7671C24.857 16.5246 25.0334 16.5246 25.0334 16.7265C25.0334 16.8674 24.9434 16.8966 24.8897 16.9143C24.9946 16.9214 25.0016 16.9905 25.0157 17.088C25.0228 17.1491 25.0343 17.2545 25.0554 17.2899H24.8941C24.8897 17.2545 24.865 17.0596 24.865 17.049C24.8544 17.0056 24.8394 16.9843 24.7856 16.9843H24.6525V17.2908H24.5053V16.5246ZM24.1905 16.9055C24.1905 17.2226 24.4453 17.4795 24.7583 17.4795C25.0739 17.4795 25.3287 17.2173 25.3287 16.9055C25.3287 16.5875 25.0704 16.335 24.7574 16.335C24.4489 16.335 24.1897 16.5839 24.1897 16.9046M25.438 16.9073C25.438 17.2829 25.1321 17.5894 24.7592 17.5894C24.3889 17.5894 24.0803 17.2864 24.0803 16.9073C24.0803 16.521 24.396 16.2252 24.7592 16.2252C25.1251 16.2252 25.4371 16.5219 25.4371 16.9073" fill="#689F63"/>
<path fill-rule="evenodd" clip-rule="evenodd" d="M8.3698 8.02127C8.3698 7.85828 8.28428 7.70857 8.14429 7.62751L4.41013 5.46872C4.34709 5.43151 4.27647 5.41203 4.20489 5.40937H4.16627C4.09468 5.41203 4.02407 5.43151 3.95997 5.46872L0.225991 7.62751C0.0868728 7.70901 0.00012207 7.85872 0.00012207 8.02171L0.00832107 13.8364C0.00832107 13.917 0.0497569 13.9923 0.120286 14.0321C0.189052 14.0747 0.27545 14.0747 0.344216 14.0321L2.56412 12.7548C2.70429 12.671 2.78981 12.5228 2.78981 12.3614V9.64502C2.78981 9.48291 2.87533 9.3332 3.01506 9.25259L3.96015 8.70567C4.03033 8.66492 4.10738 8.64472 4.18584 8.64472C4.26307 8.64472 4.34189 8.66475 4.41013 8.70558L5.35477 9.25232C5.4946 9.33293 5.58047 9.48264 5.58047 9.64475V12.361C5.58047 12.5222 5.66713 12.671 5.8066 12.7543L8.02509 14.0308C8.09474 14.0724 8.1814 14.0724 8.25078 14.0308C8.3192 13.991 8.36257 13.9157 8.36257 13.835L8.3698 8.02127ZM25.9904 11.0487C25.9904 11.0892 25.969 11.1267 25.934 11.1467L24.6514 11.8896C24.6166 11.9097 24.5736 11.9097 24.5388 11.8896L23.2561 11.1467C23.2208 11.1266 23.1997 11.0891 23.1997 11.0487V9.56086C23.1997 9.52029 23.2208 9.48291 23.2552 9.46253L24.5371 8.71843C24.5723 8.69805 24.6155 8.69805 24.6508 8.71843L25.9336 9.46253C25.9688 9.48291 25.99 9.52029 25.99 9.56086L25.9904 11.0487ZM26.3369 0.0286821C26.2669 -0.0104721 26.1817 -0.00940908 26.1126 0.0310738C26.0438 0.0718225 26.0014 0.146233 26.0014 0.226845V5.98481C26.0014 6.0415 25.9714 6.09377 25.9225 6.12212C25.874 6.15046 25.8137 6.15046 25.7647 6.12212L24.8293 5.58078C24.69 5.49981 24.5185 5.49981 24.3787 5.58078L20.6433 7.74693C20.5037 7.82754 20.4176 7.97724 20.4176 8.13847V12.472C20.4176 12.6341 20.5037 12.7829 20.6433 12.8644L24.3787 15.0321C24.5181 15.1127 24.6899 15.1127 24.8298 15.0321L28.5652 12.8635C28.7045 12.782 28.7909 12.6332 28.7909 12.4711V1.67094C28.7909 1.50653 28.7018 1.35532 28.559 1.27497L26.3369 0.0286821ZM38.7758 9.52171C38.9146 9.44074 39 9.29121 39 9.12999V8.07974C39 7.91816 38.9145 7.76907 38.7755 7.68775L35.0639 5.52276C34.9237 5.44126 34.7518 5.44126 34.6116 5.52276L30.8771 7.68864C30.7369 7.77013 30.6514 7.91896 30.6514 8.08106V12.4128C30.6514 12.5758 30.7387 12.7264 30.8789 12.807L34.5896 14.9322C34.7262 15.011 34.8937 15.0119 35.0322 14.9348L37.2767 13.6814C37.3473 13.6415 37.3922 13.5662 37.3922 13.4847C37.3922 13.4032 37.349 13.327 37.2785 13.2872L33.5211 11.1204C33.4505 11.0805 33.4073 11.0052 33.4073 10.9246V9.56573C33.4073 9.48459 33.4497 9.40983 33.5202 9.36943L34.6892 8.69176C34.7589 8.65101 34.8444 8.65101 34.914 8.69176L36.0839 9.36943C36.1536 9.40929 36.1968 9.48459 36.1968 9.5652V10.6335C36.1968 10.7141 36.24 10.7894 36.3096 10.8302C36.3793 10.87 36.4657 10.87 36.5353 10.8293L38.7758 9.52171Z" fill="#333333"/>
<path fill-rule="evenodd" clip-rule="evenodd" d="M34.783 9.31904C34.8094 9.30336 34.8426 9.30336 34.8694 9.31904L35.5861 9.7345C35.6129 9.75009 35.6293 9.77879 35.6293 9.8098V10.6416C35.6293 10.6726 35.6129 10.7013 35.5861 10.7169L34.8694 11.1324C34.8426 11.148 34.8094 11.148 34.783 11.1324L34.0667 10.7169C34.0393 10.7013 34.0226 10.6726 34.0226 10.6416V9.8098C34.0226 9.77879 34.0385 9.75009 34.0658 9.7345L34.783 9.31904Z" fill="#689F63"/>
<mask id="mask0_101_509" style="mask-type:luminance" maskUnits="userSpaceOnUse" x="10" y="5" width="9" height="11">
<path d="M14.1696 5.5444L10.4554 7.6985C10.3163 7.77911 10.231 7.92793 10.231 8.0888V12.4C10.231 12.561 10.3163 12.7097 10.4554 12.7903L14.1699 14.9461C14.3088 15.0264 14.48 15.0264 14.6187 14.9461L18.3325 12.7903C18.4709 12.7097 18.5565 12.5609 18.5565 12.4V8.0888C18.5565 7.92793 18.471 7.77911 18.3317 7.6985L14.6183 5.5444C14.5487 5.50427 14.4711 5.48416 14.3935 5.48416C14.3159 5.48416 14.2383 5.50427 14.1687 5.5444" fill="white"/>
</mask>
<g mask="url(#mask0_101_509)">
<path d="M22.3099 7.33275L11.8438 2.17804L6.47742 13.1779L16.9432 18.3329L22.3099 7.33275Z" fill="url(#paint0_linear_101_509)"/>
</g>
<mask id="mask1_101_509" style="mask-type:luminance" maskUnits="userSpaceOnUse" x="10" y="5" width="9" height="11">
<path d="M10.323 12.6737C10.3585 12.7201 10.403 12.7602 10.4552 12.7903L13.6414 14.6395L14.1721 14.946C14.2515 14.9921 14.3419 15.0116 14.4308 15.0049C14.4604 15.0025 14.49 14.9969 14.5189 14.9887L18.4363 7.7815C18.4063 7.74872 18.3712 7.72126 18.3319 7.69823L15.8999 6.28709L14.6143 5.54387C14.5778 5.52261 14.5383 5.50755 14.498 5.49692L10.323 12.6737Z" fill="white"/>
</mask>
<g mask="url(#mask1_101_509)">
<path d="M5.79785 8.85735L13.188 18.9075L22.9615 11.6519L15.571 1.60205L5.79785 8.85735Z" fill="url(#paint1_linear_101_509)"/>
</g>
<mask id="mask2_101_509" style="mask-type:luminance" maskUnits="userSpaceOnUse" x="10" y="5" width="9" height="11">
<path d="M14.3491 5.48664C14.2868 5.49284 14.2259 5.51233 14.1697 5.54439L10.4661 7.69229L14.4598 15.0014C14.5153 14.9934 14.57 14.9748 14.6193 14.9461L18.3336 12.7903C18.4482 12.7235 18.5267 12.6105 18.5505 12.4824L14.4792 5.49399C14.4492 5.48805 14.4192 5.48495 14.3884 5.48495C14.376 5.48495 14.3637 5.48557 14.3513 5.48673" fill="white"/>
</mask>
<g mask="url(#mask2_101_509)">
<path d="M10.4658 5.48495V15.0015H18.5487V5.48495H10.4658Z" fill="url(#paint2_linear_101_509)"/>
</g>
</g>
<defs>
<linearGradient id="paint0_linear_101_509" x1="17.0737" y1="4.74729" x2="11.6662" y2="15.7259" gradientUnits="userSpaceOnUse">
<stop offset="0.3" stop-color="#3E863D"/>
<stop offset="0.5" stop-color="#55934F"/>
<stop offset="0.8" stop-color="#5AAD45"/>
</linearGradient>
<linearGradient id="paint1_linear_101_509" x1="9.5372" y1="13.94" x2="19.3441" y2="6.72846" gradientUnits="userSpaceOnUse">
<stop offset="0.57" stop-color="#3E863D"/>
<stop offset="0.72" stop-color="#619857"/>
<stop offset="1" stop-color="#76AC64"/>
</linearGradient>
<linearGradient id="paint2_linear_101_509" x1="10.4685" y1="10.2435" x2="18.5502" y2="10.2435" gradientUnits="userSpaceOnUse">
<stop offset="0.16" stop-color="#6BBF47"/>
<stop offset="0.38" stop-color="#79B461"/>
<stop offset="0.47" stop-color="#75AC64"/>
<stop offset="0.7" stop-color="#659E5A"/>
<stop offset="0.9" stop-color="#3E863D"/>
</linearGradient>
<clipPath id="clip0_101_509">
<rect width="39" height="24" fill="white"/>
</clipPath>
</defs>
</svg>
