<svg width="31" height="24" viewBox="0 0 31 24" fill="none" xmlns="http://www.w3.org/2000/svg">
<path d="M10.8233 17.4553H21.0899C25.9703 17.3377 29.8091 13.3125 29.6901 8.5233C29.571 3.85164 25.762 0.120187 21.0899 0.00266084H10.8233C5.94289 -0.114865 1.86599 3.67535 1.74696 8.49392C1.62792 13.3125 5.46675 17.3084 10.3471 17.4259C10.4959 17.4553 10.6447 17.4553 10.8233 17.4553ZM20.8518 14.3702H11.0316C7.87718 14.2821 5.40724 11.6671 5.49651 8.55268C5.61555 5.58515 8.02598 3.17586 11.0316 3.08772H20.8518C24.0062 2.99957 26.6547 5.43824 26.744 8.55268C26.8333 11.6671 24.3633 14.2821 21.2089 14.3702C21.0899 14.3702 20.9709 14.3702 20.8518 14.3702Z" fill="#C74634"/>
<path d="M13.4117 22.6256H15.4533L14.3721 20.924L12.3842 23.9935H11.4844L13.902 20.3088C14.0833 20.0535 14.4459 19.9946 14.7011 20.1713C14.7549 20.2106 14.8019 20.2499 14.8422 20.3022L17.2665 23.9935H16.3666L15.9435 23.3063H13.8751L13.4117 22.6256ZM22.8002 23.3128V20.1124H22.0346V23.627C22.0346 23.7251 22.0749 23.8233 22.1488 23.8887C22.2227 23.9607 22.3234 24 22.4308 24H25.9163L26.3729 23.3128H22.8002ZM10.1144 22.7369C10.8598 22.7369 11.4642 22.1478 11.4642 21.4214C11.4642 20.6949 10.8598 20.1059 10.1144 20.1059H6.76326V23.9935H7.52212V20.7996H10.0606C10.4166 20.7996 10.7053 21.0811 10.7053 21.4279C10.7053 21.7748 10.4166 22.0562 10.0606 22.0562H7.8982L10.1882 23.9935H11.303L9.76515 22.7369H10.1144ZM2.04888 23.9935H4.36577C5.46714 23.9673 6.33346 23.0707 6.30659 22.0039C6.27973 20.9698 5.42013 20.1386 4.36577 20.1124H2.04888C0.947513 20.0863 0.0274707 20.9305 0.000608179 22.0039C-0.0262544 23.0772 0.840063 23.9673 1.94143 23.9935C1.97501 24 2.00858 24 2.04888 23.9935ZM4.31205 23.3128H2.09589C1.38403 23.2932 0.826632 22.7107 0.846779 22.0169C0.866926 21.3559 1.41761 20.8193 2.09589 20.7996H4.31205C5.02391 20.78 5.6216 21.3232 5.64175 22.0169C5.66189 22.7107 5.10449 23.2932 4.39264 23.3128C4.36577 23.3128 4.33891 23.3128 4.31205 23.3128ZM18.8648 23.9935H21.2287L21.6787 23.3128H18.9186C18.2067 23.3324 17.609 22.7892 17.5889 22.0955C17.5687 21.4017 18.1261 20.8193 18.838 20.7996C18.8648 20.7996 18.8917 20.7996 18.9186 20.7996H21.1683L21.625 20.1124H18.8716C17.7702 20.0863 16.8569 20.9305 16.83 22.0039C16.8031 23.0772 17.6695 23.9673 18.7708 23.9935C18.7977 24 18.8313 24 18.8648 23.9935ZM28.2399 23.3128C27.6623 23.3128 27.1519 22.9398 26.9975 22.3965H30.2747L30.7247 21.7093H26.9975C27.1519 21.1661 27.6623 20.7931 28.2399 20.7931H30.4896L30.9396 20.1059H28.1861C27.0848 20.1386 26.2185 21.0287 26.2453 22.102C26.2722 23.1361 27.1251 23.9673 28.1861 23.9935H30.5501L31 23.3128H28.2399Z" fill="#C74634"/>
</svg>
