<svg width="24" height="24" viewBox="0 0 24 24" fill="none" xmlns="http://www.w3.org/2000/svg">
<g clip-path="url(#clip0_101_473)">
<path d="M11.9592 0C6.2928 0 6.23193 2.19949 6.23193 2.65222C6.23193 3.33905 6.23193 5.4 6.23193 5.4H12.0683V6.22495C12.0683 6.22495 5.99149 6.22495 3.91375 6.22495C2.17942 6.22495 0 7.27942 0 11.9522C0 16.2445 1.70007 17.9044 3.41585 17.9044C3.92531 17.9044 5.45454 17.9044 5.45454 17.9044C5.45454 17.9044 5.45454 15.7739 5.45454 15.0408C5.45454 13.8428 6.04822 11.6249 8.81585 11.6249C12.2871 11.6249 13.1732 11.6249 14.6044 11.6249C15.4558 11.6249 17.8567 11.2549 17.8567 8.48182C17.8567 5.54684 17.8567 4.57855 17.8567 3.19767C17.8569 2.50975 17.7393 0 11.9592 0ZM8.74102 1.84778C9.32182 1.84778 9.79113 2.31687 9.79113 2.89789C9.79113 3.47847 9.32182 3.948 8.74102 3.948C8.16022 3.948 7.69091 3.47869 7.69091 2.89789C7.69091 2.31687 8.16022 1.84778 8.74102 1.84778Z" fill="url(#paint0_linear_101_473)"/>
<path d="M12.0407 24C17.7045 24 17.775 21.759 17.775 21.3478C17.775 20.6609 17.775 18.6 17.775 18.6H11.9316V17.775C11.9316 17.775 18.0477 17.775 20.0862 17.775C21.8336 17.775 23.9999 16.6942 23.9999 12.0478C23.9999 6.95933 21.7007 6.09555 20.5841 6.09555C20.0744 6.09555 18.5454 6.09555 18.5454 6.09555C18.5454 6.09555 18.5454 8.3245 18.5454 8.95919C18.5454 10.1572 17.9714 12.375 15.1841 12.375C11.7128 12.375 10.9348 12.375 9.39528 12.375C8.54612 12.375 6.14307 12.7887 6.14307 15.5182C6.14307 18.6763 6.14307 19.5033 6.14307 20.8023C6.14307 21.9434 6.84038 24 12.0407 24ZM15.2591 22.1522C14.6783 22.1522 14.209 21.6829 14.209 21.1021C14.209 20.5213 14.6781 20.052 15.2591 20.052C15.8397 20.052 16.3092 20.5213 16.3092 21.1021C16.3092 21.6829 15.8397 22.1522 15.2591 22.1522Z" fill="url(#paint1_linear_101_473)"/>
</g>
<defs>
<linearGradient id="paint0_linear_101_473" x1="2.24913" y1="2.1439" x2="14.1788" y2="14.1134" gradientUnits="userSpaceOnUse">
<stop stop-color="#387EB8"/>
<stop offset="1" stop-color="#366994"/>
</linearGradient>
<linearGradient id="paint1_linear_101_473" x1="9.49892" y1="9.79133" x2="22.2892" y2="22.0451" gradientUnits="userSpaceOnUse">
<stop stop-color="#FFE052"/>
<stop offset="1" stop-color="#FFC331"/>
</linearGradient>
<clipPath id="clip0_101_473">
<rect width="24" height="24" fill="white"/>
</clipPath>
</defs>
</svg>
