<svg width="26" height="24" viewBox="0 0 26 24" fill="none" xmlns="http://www.w3.org/2000/svg">
<g clip-path="url(#clip0_101_461)">
<path d="M13.0458 9.42188C11.6704 9.42188 10.5554 10.5656 10.5554 11.9766C10.5554 13.3875 11.6704 14.5312 13.0458 14.5312C14.4211 14.5312 15.5361 13.3875 15.5361 11.9766C15.5361 10.5656 14.4211 9.42188 13.0458 9.42188Z" fill="#58C4DC"/>
<path d="M25.9982 11.9997C25.9982 9.99411 24.1877 8.23507 21.305 7.07743C21.3435 6.81673 21.3784 6.55885 21.4031 6.30567C21.6875 3.42382 21.0106 1.34384 19.4982 0.44785C17.806 -0.554493 15.4158 0.17303 12.9991 2.15701C10.5823 0.17303 8.19218 -0.554493 6.5 0.44785C4.98758 1.34384 4.31071 3.42382 4.59503 6.30567C4.6198 6.55885 4.65373 6.81767 4.69317 7.07931C4.45287 7.17343 4.21716 7.27319 3.99062 7.37766C1.41703 8.56448 0 10.2078 0 11.9997C0 14.0054 1.8105 15.7644 4.69317 16.922C4.65373 17.1827 4.6198 17.4406 4.59503 17.6938C4.31071 20.5757 4.98758 22.6556 6.5 23.5516C7.01999 23.8541 7.6092 24.0088 8.20686 23.9996C9.63948 23.9996 11.3124 23.226 12.9991 21.8425C14.6848 23.226 16.3587 23.9996 17.7931 23.9996C18.3908 24.0086 18.98 23.854 19.5 23.5516C21.0124 22.6556 21.6893 20.5757 21.405 17.6938C21.3802 17.4406 21.3454 17.1827 21.3068 16.922C24.1895 15.7663 26 14.0044 26 11.9997M17.7821 1.27043C18.1664 1.26092 18.5463 1.35641 18.8827 1.54713C19.9329 2.16925 20.4043 3.85676 20.175 6.17673C20.1594 6.33485 20.1411 6.49485 20.1191 6.65579C18.9205 6.28538 17.6931 6.02119 16.4504 5.86615C15.6971 4.83863 14.8594 3.87921 13.9465 2.99841C15.3801 1.86148 16.7256 1.27043 17.7812 1.27043M17.2887 14.5409C16.8248 15.3671 16.3197 16.1681 15.7754 16.9409C14.8527 17.0381 13.9257 17.0865 12.9982 17.0858C12.0709 17.0865 11.1443 17.0381 10.2219 16.9409C9.67899 16.1681 9.1754 15.367 8.71314 14.5409C8.24929 13.717 7.82774 12.8688 7.45019 11.9997C7.82774 11.1307 8.24929 10.2825 8.71314 9.45858C9.17467 8.63575 9.67671 7.83755 10.2173 7.06708C11.1414 6.96741 12.0699 6.91777 12.9991 6.91837C13.9263 6.9178 14.853 6.96618 15.7754 7.06331C16.3178 7.83497 16.8217 8.63443 17.285 9.45858C17.7485 10.2827 18.1701 11.1309 18.548 11.9997C18.1701 12.8686 17.7485 13.7168 17.285 14.5409M19.179 13.5997C19.4701 14.4142 19.7091 15.2474 19.8944 16.0938C19.0901 16.3511 18.2702 16.5539 17.44 16.7009C17.7555 16.2127 18.0613 15.7048 18.3572 15.1771C18.6498 14.6557 18.924 14.1296 19.1827 13.6035M11.2574 18.299C11.8279 18.3347 12.4103 18.3554 13 18.3554C13.5897 18.3554 14.1758 18.3347 14.7472 18.299C14.2054 18.9648 13.6218 19.5936 13 20.1813C12.3795 19.5937 11.7974 18.9649 11.2574 18.299ZM8.55905 16.699C7.72859 16.5527 6.9084 16.3505 6.10378 16.0938C6.28837 15.2487 6.52642 14.4168 6.81642 13.6035C7.0714 14.1296 7.34472 14.6557 7.64188 15.1771C7.93904 15.6985 8.2463 16.2124 8.55905 16.7009M6.81642 10.395C6.52746 9.58472 6.29003 8.756 6.10562 7.91413C6.90824 7.65714 7.72623 7.45374 8.55447 7.30519C8.24079 7.79178 7.93354 8.29624 7.63729 8.82236C7.34105 9.34847 7.07048 9.86799 6.81184 10.395M14.7417 5.69956C14.1712 5.6638 13.5888 5.64309 12.9945 5.64309C12.4051 5.64309 11.8242 5.66192 11.2519 5.69956C11.7919 5.0336 12.374 4.4048 12.9945 3.81723C13.6165 4.40465 14.2002 5.03345 14.7417 5.69956ZM18.3554 8.82236C18.0582 8.29405 17.751 7.78582 17.4336 7.29766C18.266 7.44464 19.088 7.64775 19.8944 7.90566C19.7094 8.75066 19.4713 9.5825 19.1817 10.396C18.9268 9.86987 18.6525 9.34376 18.3563 8.8233M5.8268 6.17768C5.59475 3.85864 6.06893 2.17019 7.11817 1.54807C7.45477 1.35765 7.83453 1.26218 8.21878 1.27137C9.27445 1.27137 10.6199 1.86242 12.0535 2.99935C11.14 3.88078 10.3017 4.84082 9.54776 5.86897C8.30546 6.02475 7.07819 6.28796 5.87907 6.65579C5.85798 6.49485 5.83872 6.33579 5.82404 6.17768M4.49873 8.53624C4.63998 8.4735 4.78397 8.41075 4.93072 8.34801C5.21922 9.59698 5.61042 10.8186 6.10011 11.9997C5.60949 13.1832 5.21797 14.4074 4.9298 15.659C2.59285 14.6755 1.23818 13.3127 1.23818 11.9997C1.23818 10.7555 2.43051 9.49341 4.49873 8.53624ZM7.11817 22.4514C6.06893 21.8293 5.59475 20.1408 5.8268 17.8218C5.84147 17.6637 5.86073 17.5046 5.88183 17.3427C7.08048 17.7131 8.30788 17.9772 9.55052 18.1324C10.3041 19.1603 11.1417 20.1203 12.0544 21.002C10.0559 22.586 8.22979 23.1083 7.12093 22.4514M20.1741 17.8218C20.4034 20.1418 19.932 21.8293 18.8818 22.4514C17.7739 23.1102 15.9469 22.586 13.9493 21.002C14.8616 20.1203 15.699 19.1603 16.4522 18.1324C17.6949 17.9773 18.9223 17.7132 20.1209 17.3427C20.1429 17.5046 20.1613 17.6637 20.1769 17.8218M21.0739 15.6571C20.7849 14.4062 20.3931 13.1827 19.9026 11.9997C20.3929 10.8161 20.7844 9.59199 21.073 8.34048C23.4053 9.324 24.7637 10.6868 24.7637 11.9997C24.7637 13.3127 23.409 14.6755 21.072 15.659" fill="#58C4DC"/>
</g>
<defs>
<clipPath id="clip0_101_461">
<rect width="26" height="24" fill="white"/>
</clipPath>
</defs>
</svg>
