<svg width="24" height="24" viewBox="0 0 24 24" fill="none" xmlns="http://www.w3.org/2000/svg">
<path d="M21.7854 17.2807C18.8316 21.2214 12.5217 19.8912 8.47623 20.0825C8.47623 20.0825 7.76008 20.1224 7.03875 20.2413C7.03875 20.2413 7.3115 20.1248 7.65935 20.0047C10.5007 19.0209 11.8434 18.8232 13.5699 17.9353C16.8137 16.2715 20.0421 12.6473 20.699 8.88247C19.4643 12.5034 15.709 15.6198 12.2897 16.8853C9.94938 17.7501 5.71702 18.5916 5.71641 18.592C5.71839 18.595 5.54774 18.5033 5.54536 18.5013C2.66703 17.0991 2.58398 10.8571 7.81158 8.84497C10.1036 7.96216 12.2959 8.44704 14.7737 7.85653C17.4163 7.22741 20.477 5.24402 21.721 2.65097C23.1157 6.79294 24.791 13.2731 21.7854 17.2807ZM21.8368 1.36748C21.4851 2.204 21.056 2.95781 20.5612 3.63205C18.3836 1.39426 15.3441 0 11.9845 0C5.37587 0 0 5.38339 0 11.9993C0 15.4676 1.47851 18.5956 3.83573 20.7881L4.09817 21.0209C3.65991 20.6631 3.59252 20.0186 3.94773 19.5794C4.30511 19.14 4.94933 19.0719 5.3878 19.4278C5.82744 19.7844 5.89442 20.4305 5.53846 20.8705C5.18381 21.3107 4.53842 21.3772 4.09937 21.0219L4.27796 21.1803C6.36305 22.9382 9.05085 24 11.9845 24C18.3013 24 23.4883 19.0779 23.9324 12.8653C24.2612 9.82341 23.3639 5.96094 21.8368 1.36748Z" fill="#5FB832"/>
</svg>
