<svg width="73" height="58" viewBox="0 0 73 58" fill="none" xmlns="http://www.w3.org/2000/svg">
<path d="M14.0472 25H12.4165L16.0805 14.8182H17.8554L21.5195 25H19.8888L17.0102 16.6676H16.9307L14.0472 25ZM14.3206 21.0128H19.6104V22.3054H14.3206V21.0128ZM25.7811 28.0227C25.1746 28.0227 24.6526 27.9432 24.2151 27.7841C23.7809 27.625 23.4263 27.4145 23.1512 27.1527C22.8761 26.8909 22.6706 26.6042 22.5347 26.2926L23.8124 25.7656C23.9019 25.9115 24.0212 26.0656 24.1704 26.228C24.3228 26.3937 24.5283 26.5346 24.7868 26.6506C25.0487 26.7666 25.3851 26.8246 25.7961 26.8246C26.3595 26.8246 26.8252 26.687 27.1931 26.4119C27.561 26.1402 27.7449 25.706 27.7449 25.1094V23.608H27.6505C27.561 23.7704 27.4317 23.951 27.2627 24.1499C27.097 24.3487 26.8683 24.5211 26.5766 24.6669C26.2849 24.8127 25.9054 24.8857 25.4381 24.8857C24.8349 24.8857 24.2913 24.7448 23.8074 24.4631C23.3268 24.178 22.9457 23.7588 22.664 23.2053C22.3856 22.6484 22.2463 21.964 22.2463 21.152C22.2463 20.34 22.3839 19.6439 22.659 19.0639C22.9374 18.4839 23.3186 18.0398 23.8025 17.7315C24.2864 17.42 24.8349 17.2642 25.4481 17.2642C25.922 17.2642 26.3048 17.3438 26.5965 17.5028C26.8882 17.6586 27.1152 17.8409 27.2776 18.0497C27.4433 18.2585 27.5709 18.4425 27.6604 18.6016H27.7698V17.3636H29.2265V25.169C29.2265 25.8253 29.074 26.3639 28.7691 26.7848C28.4642 27.2057 28.0515 27.5173 27.5311 27.7195C27.0141 27.9216 26.4308 28.0227 25.7811 28.0227ZM25.7662 23.6527C26.1938 23.6527 26.5551 23.5533 26.85 23.3544C27.1483 23.1522 27.3737 22.8639 27.5262 22.4893C27.682 22.1115 27.7598 21.6591 27.7598 21.1321C27.7598 20.6184 27.6836 20.166 27.5311 19.7749C27.3787 19.3838 27.155 19.0788 26.86 18.8601C26.565 18.638 26.2004 18.527 25.7662 18.527C25.3188 18.527 24.9459 18.643 24.6476 18.875C24.3493 19.1037 24.124 19.4152 23.9715 19.8097C23.8223 20.2041 23.7478 20.6449 23.7478 21.1321C23.7478 21.6326 23.824 22.0717 23.9765 22.4496C24.1289 22.8274 24.3543 23.1224 24.6526 23.3345C24.9542 23.5466 25.3254 23.6527 25.7662 23.6527ZM31.0521 25V17.3636H32.5386V25H31.0521ZM31.8028 16.1854C31.5443 16.1854 31.3222 16.0992 31.1366 15.9268C30.9543 15.7512 30.8631 15.5424 30.8631 15.3004C30.8631 15.0552 30.9543 14.8464 31.1366 14.674C31.3222 14.4983 31.5443 14.4105 31.8028 14.4105C32.0613 14.4105 32.2817 14.4983 32.464 14.674C32.6496 14.8464 32.7424 15.0552 32.7424 15.3004C32.7424 15.5424 32.6496 15.7512 32.464 15.9268C32.2817 16.0992 32.0613 16.1854 31.8028 16.1854ZM35.8569 14.8182V25H34.3704V14.8182H35.8569ZM40.9799 25.1541C40.2276 25.1541 39.5796 24.9934 39.036 24.6719C38.4958 24.3471 38.0782 23.8913 37.7832 23.3047C37.4915 22.7147 37.3457 22.0237 37.3457 21.2315C37.3457 20.4493 37.4915 19.7599 37.7832 19.1634C38.0782 18.5668 38.4892 18.1011 39.0161 17.7663C39.5464 17.4316 40.1662 17.2642 40.8755 17.2642C41.3064 17.2642 41.724 17.3355 42.1284 17.478C42.5327 17.6205 42.8956 17.8442 43.2171 18.1491C43.5386 18.4541 43.7922 18.8501 43.9778 19.3374C44.1634 19.8213 44.2562 20.4096 44.2562 21.1023V21.6293H38.1859V20.5156H42.7995C42.7995 20.1245 42.72 19.7782 42.5609 19.4766C42.4018 19.1716 42.1781 18.9313 41.8897 18.7557C41.6047 18.58 41.2699 18.4922 40.8855 18.4922C40.4678 18.4922 40.1033 18.5949 39.7917 18.8004C39.4835 19.0026 39.2448 19.2678 39.0758 19.5959C38.9101 19.9207 38.8272 20.2737 38.8272 20.6548V21.5249C38.8272 22.0353 38.9167 22.4695 39.0957 22.8274C39.278 23.1854 39.5315 23.4588 39.8563 23.6477C40.1812 23.8333 40.5606 23.9261 40.9948 23.9261C41.2766 23.9261 41.5334 23.8864 41.7654 23.8068C41.9974 23.724 42.198 23.6013 42.367 23.4389C42.536 23.2765 42.6653 23.076 42.7548 22.8374L44.1617 23.0909C44.049 23.5052 43.8469 23.8681 43.5552 24.1797C43.2669 24.4879 42.9039 24.7282 42.4664 24.9006C42.0322 25.0696 41.5367 25.1541 40.9799 25.1541ZM52.2377 25.1442C51.5549 25.1442 50.9666 25.0199 50.4728 24.7713C49.9822 24.5227 49.6044 24.1847 49.3392 23.7571C49.0741 23.3262 48.9415 22.839 48.9415 22.2955C48.9415 21.8812 49.0277 21.5133 49.2 21.1918C49.3724 20.867 49.6127 20.567 49.9209 20.2919C50.2291 20.0168 50.5854 19.7401 50.9898 19.4616L52.6304 18.3033C52.9088 18.121 53.1259 17.9287 53.2817 17.7266C53.4375 17.5211 53.5154 17.2675 53.5154 16.9659C53.5154 16.7273 53.4126 16.4986 53.2071 16.2798C53.0016 16.0611 52.7265 15.9517 52.3818 15.9517C52.1432 15.9517 51.9327 16.0097 51.7505 16.1257C51.5715 16.2417 51.4306 16.3909 51.3279 16.5732C51.2284 16.7521 51.1787 16.9411 51.1787 17.1399C51.1787 17.3719 51.2417 17.6056 51.3676 17.8409C51.4969 18.0762 51.6626 18.3198 51.8648 18.5717C52.067 18.8203 52.2791 19.0788 52.5012 19.3473L57.2291 25H55.5488L51.6361 20.4013C51.308 20.0135 51.0031 19.6489 50.7213 19.3075C50.4396 18.9628 50.2109 18.6148 50.0353 18.2635C49.8629 17.9089 49.7767 17.526 49.7767 17.1151C49.7767 16.6477 49.8828 16.2334 50.0949 15.8722C50.3104 15.5076 50.6103 15.2225 50.9948 15.017C51.3792 14.8116 51.83 14.7088 52.347 14.7088C52.8707 14.7088 53.3198 14.8116 53.6943 15.017C54.0722 15.2192 54.3622 15.4893 54.5644 15.8274C54.7699 16.1622 54.8726 16.5284 54.8726 16.9261C54.8726 17.41 54.7516 17.8376 54.5097 18.2088C54.2711 18.5767 53.9413 18.9148 53.5203 19.223L51.477 20.7294C51.0793 21.0211 50.8025 21.3094 50.6468 21.5945C50.4943 21.8762 50.4181 22.0966 50.4181 22.2557C50.4181 22.5473 50.4926 22.8175 50.6418 23.0661C50.7943 23.3146 51.0064 23.5135 51.2782 23.6626C51.5533 23.8118 51.8747 23.8864 52.2426 23.8864C52.6205 23.8864 52.9884 23.8052 53.3463 23.6428C53.7076 23.477 54.0341 23.2401 54.3257 22.9318C54.6207 22.6236 54.8544 22.254 55.0267 21.8232C55.1991 21.3923 55.2853 20.91 55.2853 20.3764H56.6276C56.6276 21.0327 56.553 21.5878 56.4039 22.0419C56.2547 22.4927 56.0741 22.8606 55.862 23.1456C55.6532 23.4273 55.4559 23.6477 55.2703 23.8068C55.2107 23.8598 55.1543 23.9129 55.1013 23.9659C55.0483 24.0189 54.9919 24.072 54.9323 24.125C54.5876 24.473 54.17 24.7299 53.6794 24.8956C53.1922 25.0613 52.7116 25.1442 52.2377 25.1442ZM14.866 44H11.5699V33.8182H14.9704C15.9681 33.8182 16.8248 34.022 17.5407 34.4297C18.2566 34.834 18.8052 35.4157 19.1863 36.1747C19.5708 36.9304 19.763 37.8369 19.763 38.8942C19.763 39.9548 19.5691 40.8662 19.1814 41.6286C18.7969 42.3909 18.2401 42.9775 17.5109 43.3885C16.7817 43.7962 15.9001 44 14.866 44ZM13.1061 42.6577H14.7815C15.5571 42.6577 16.2017 42.5118 16.7155 42.2202C17.2292 41.9252 17.6137 41.4993 17.8689 40.9425C18.1241 40.3823 18.2517 39.6996 18.2517 38.8942C18.2517 38.0954 18.1241 37.4176 17.8689 36.8608C17.617 36.304 17.2408 35.8814 16.7403 35.593C16.2398 35.3047 15.6184 35.1605 14.876 35.1605H13.1061V42.6577ZM24.6772 44.1541C23.9249 44.1541 23.2769 43.9934 22.7334 43.6719C22.1931 43.3471 21.7755 42.8913 21.4805 42.3047C21.1888 41.7147 21.043 41.0237 21.043 40.2315C21.043 39.4493 21.1888 38.7599 21.4805 38.1634C21.7755 37.5668 22.1865 37.1011 22.7135 36.7663C23.2438 36.4316 23.8636 36.2642 24.5728 36.2642C25.0037 36.2642 25.4213 36.3355 25.8257 36.478C26.23 36.6205 26.593 36.8442 26.9145 37.1491C27.236 37.4541 27.4895 37.8501 27.6751 38.3374C27.8607 38.8213 27.9535 39.4096 27.9535 40.1023V40.6293H21.8832V39.5156H26.4969C26.4969 39.1245 26.4173 38.7782 26.2582 38.4766C26.0991 38.1716 25.8754 37.9313 25.587 37.7557C25.302 37.58 24.9673 37.4922 24.5828 37.4922C24.1652 37.4922 23.8006 37.5949 23.489 37.8004C23.1808 38.0026 22.9422 38.2678 22.7731 38.5959C22.6074 38.9207 22.5245 39.2737 22.5245 39.6548V40.5249C22.5245 41.0353 22.614 41.4695 22.793 41.8274C22.9753 42.1854 23.2289 42.4588 23.5537 42.6477C23.8785 42.8333 24.258 42.9261 24.6922 42.9261C24.9739 42.9261 25.2308 42.8864 25.4628 42.8068C25.6948 42.724 25.8953 42.6013 26.0643 42.4389C26.2334 42.2765 26.3626 42.076 26.4521 41.8374L27.8591 42.0909C27.7464 42.5052 27.5442 42.8681 27.2525 43.1797C26.9642 43.4879 26.6013 43.7282 26.1638 43.9006C25.7296 44.0696 25.2341 44.1541 24.6772 44.1541ZM35.7488 36.3636L32.9796 44H31.3887L28.6145 36.3636H30.2104L32.1444 42.2401H32.2239L34.1529 36.3636H35.7488ZM45.9416 38.9091C45.9416 39.9962 45.7427 40.9309 45.345 41.7131C44.9473 42.492 44.402 43.0919 43.7093 43.5128C43.0199 43.9304 42.2361 44.1392 41.3578 44.1392C40.4761 44.1392 39.689 43.9304 38.9963 43.5128C38.3069 43.0919 37.7633 42.4903 37.3656 41.7081C36.9678 40.9259 36.769 39.9929 36.769 38.9091C36.769 37.822 36.9678 36.889 37.3656 36.1101C37.7633 35.3279 38.3069 34.728 38.9963 34.3104C39.689 33.8894 40.4761 33.679 41.3578 33.679C42.2361 33.679 43.0199 33.8894 43.7093 34.3104C44.402 34.728 44.9473 35.3279 45.345 36.1101C45.7427 36.889 45.9416 37.822 45.9416 38.9091ZM44.4203 38.9091C44.4203 38.0805 44.286 37.3828 44.0176 36.8161C43.7524 36.246 43.3878 35.8151 42.9238 35.5234C42.4631 35.2285 41.9411 35.081 41.3578 35.081C40.7711 35.081 40.2474 35.2285 39.7867 35.5234C39.326 35.8151 38.9615 36.246 38.693 36.8161C38.4278 37.3828 38.2953 38.0805 38.2953 38.9091C38.2953 39.7377 38.4278 40.437 38.693 41.0071C38.9615 41.5739 39.326 42.0047 39.7867 42.2997C40.2474 42.5914 40.7711 42.7372 41.3578 42.7372C41.9411 42.7372 42.4631 42.5914 42.9238 42.2997C43.3878 42.0047 43.7524 41.5739 44.0176 41.0071C44.286 40.437 44.4203 39.7377 44.4203 38.9091ZM47.5696 46.8636V36.3636H49.0213V37.6016H49.1456C49.2317 37.4425 49.356 37.2585 49.5184 37.0497C49.6808 36.8409 49.9062 36.6586 50.1946 36.5028C50.4829 36.3438 50.8641 36.2642 51.338 36.2642C51.9545 36.2642 52.5047 36.42 52.9886 36.7315C53.4725 37.0431 53.852 37.4922 54.1271 38.0788C54.4055 38.6655 54.5447 39.3714 54.5447 40.1967C54.5447 41.022 54.4072 41.7296 54.1321 42.3196C53.857 42.9062 53.4791 43.3587 52.9985 43.6768C52.5179 43.9917 51.9694 44.1491 51.3529 44.1491C50.8889 44.1491 50.5094 44.0713 50.2144 43.9155C49.9228 43.7597 49.6941 43.5774 49.5284 43.3686C49.3626 43.1598 49.235 42.9742 49.1456 42.8118H49.0561V46.8636H47.5696ZM49.0262 40.1818C49.0262 40.7187 49.1041 41.1894 49.2599 41.5938C49.4157 41.9981 49.6411 42.3146 49.936 42.5433C50.231 42.7687 50.5923 42.8814 51.0198 42.8814C51.464 42.8814 51.8352 42.7637 52.1335 42.5284C52.4318 42.2898 52.6572 41.9666 52.8096 41.5589C52.9654 41.1513 53.0433 40.6922 53.0433 40.1818C53.0433 39.678 52.967 39.2256 52.8146 38.8246C52.6654 38.4235 52.4401 38.107 52.1384 37.875C51.8402 37.643 51.4673 37.527 51.0198 37.527C50.589 37.527 50.2244 37.638 49.9261 37.8601C49.6311 38.0821 49.4074 38.392 49.2549 38.7898C49.1025 39.1875 49.0262 39.6515 49.0262 40.1818ZM61.7645 38.228L60.4172 38.4666C60.3608 38.2943 60.2713 38.1302 60.1487 37.9744C60.0294 37.8187 59.867 37.6911 59.6615 37.5916C59.456 37.4922 59.1991 37.4425 58.8909 37.4425C58.47 37.4425 58.1187 37.5369 57.8369 37.7259C57.5552 37.9115 57.4143 38.1518 57.4143 38.4467C57.4143 38.7019 57.5088 38.9074 57.6977 39.0632C57.8866 39.219 58.1916 39.3466 58.6125 39.446L59.8256 39.7244C60.5282 39.8868 61.0519 40.1371 61.3966 40.4751C61.7413 40.8132 61.9136 41.2524 61.9136 41.7926C61.9136 42.25 61.7811 42.6577 61.5159 43.0156C61.2541 43.3703 60.8878 43.6487 60.4172 43.8509C59.9499 44.053 59.4079 44.1541 58.7915 44.1541C57.9364 44.1541 57.2387 43.9718 56.6984 43.6072C56.1582 43.2393 55.8267 42.7173 55.7041 42.0412L57.1409 41.8224C57.2304 42.197 57.4143 42.4804 57.6928 42.6726C57.9712 42.8615 58.3341 42.956 58.7815 42.956C59.2687 42.956 59.6582 42.8549 59.9499 42.6527C60.2415 42.4472 60.3874 42.197 60.3874 41.902C60.3874 41.6634 60.2979 41.4628 60.1189 41.3004C59.9432 41.138 59.6731 41.0154 59.3085 40.9325L58.0159 40.6491C57.3033 40.4867 56.7763 40.2282 56.4349 39.8736C56.0969 39.5189 55.9278 39.0698 55.9278 38.5263C55.9278 38.0755 56.0538 37.6811 56.3057 37.343C56.5576 37.005 56.9056 36.7415 57.3497 36.5526C57.7938 36.3603 58.3026 36.2642 58.876 36.2642C59.7013 36.2642 60.3509 36.4432 60.8249 36.8011C61.2988 37.1558 61.612 37.6314 61.7645 38.228Z" fill="#78716C"/>
</svg>
