<svg width="425" height="275" viewBox="0 0 425 275" fill="none" xmlns="http://www.w3.org/2000/svg">
<rect y="1" width="430" height="227" fill="url(#paint0_linear_978_5997)"/>
<path d="M-194 -37C-194 -43.6274 -188.627 -49 -182 -49H60C66.6274 -49 72 -43.6274 72 -37V95C72 101.627 66.6274 107 60 107H-182C-188.627 107 -194 101.627 -194 95V-37Z" fill="#F9F6FE"/>
<path d="M84 -37C84 -43.6274 89.3726 -49 96 -49H338C344.627 -49 350 -43.6274 350 -37V95C350 101.627 344.627 107 338 107H96C89.3726 107 84 101.627 84 95V-37Z" fill="#F9F6FE"/>
<path d="M362 -37C362 -43.6274 367.373 -49 374 -49H616C622.627 -49 628 -43.6274 628 -37V95C628 101.627 622.627 107 616 107H374C367.373 107 362 101.627 362 95V-37Z" fill="#F9F6FE"/>
<path d="M-45 131C-45 124.373 -39.6274 119 -33 119H209C215.627 119 221 124.373 221 131V263C221 269.627 215.627 275 209 275H-33C-39.6274 275 -45 269.627 -45 263V131Z" fill="white"/>
<path d="M233 131C233 124.373 238.373 119 245 119H487C493.627 119 499 124.373 499 131V263C499 269.627 493.627 275 487 275H245C238.373 275 233 269.627 233 263V131Z" fill="white"/>
<rect y="150" width="426" height="78" fill="url(#paint1_linear_978_5997)"/>
<g filter="url(#filter0_dddd_978_5997)">
<path d="M81 113C81 92.5655 97.5655 76 118 76H312C332.435 76 349 92.5655 349 113C349 133.435 332.435 150 312 150H118C97.5655 150 81 133.435 81 113Z" fill="url(#paint2_linear_978_5997)"/>
<g filter="url(#filter1_ii_978_5997)">
<path d="M87 113C87 95.8792 100.879 82 118 82H312C329.121 82 343 95.8792 343 113C343 130.121 329.121 144 312 144H118C100.879 144 87 130.121 87 113Z" fill="#FFC7C9" fill-opacity="0.6"/>
</g>
<path d="M135.586 118.5V117.016H136.984V108.344H135.586V106.859H140.117V108.344H138.719V117.016H140.117V118.5H135.586ZM143.521 113.75V118.5H141.873V110.25H143.49V111.492C144.052 110.555 144.896 110.086 145.982 110.086C147.677 110.086 148.967 111.203 148.967 113.359V118.5H147.318V113.562C147.318 112.242 146.654 111.562 145.513 111.562C144.388 111.562 143.521 112.219 143.521 113.75ZM154.121 118.695C152.23 118.695 150.792 117.781 150.675 115.992H152.3C152.394 116.883 153.019 117.383 154.089 117.383C155.136 117.383 155.785 116.906 155.785 116.25C155.785 115.688 155.308 115.359 154.597 115.203L153.23 114.898C151.675 114.555 150.863 113.766 150.863 112.539C150.863 111.078 152.128 110.07 154.019 110.07C155.878 110.07 157.207 111.102 157.253 112.766H155.675C155.66 111.961 155.019 111.375 154.042 111.375C153.105 111.375 152.511 111.875 152.511 112.508C152.511 113.062 152.957 113.398 153.699 113.57L155.105 113.883C156.714 114.242 157.449 114.961 157.449 116.156C157.449 117.727 156.042 118.695 154.121 118.695ZM162.478 110.25V111.609H160.798V116.32C160.798 116.93 161.009 117.141 161.673 117.141H162.478V118.5H161.439C159.892 118.5 159.15 117.859 159.15 116.531V108H160.798V110.25H162.478ZM167.062 118.664C164.913 118.664 163.483 116.93 163.483 114.375C163.483 111.828 164.921 110.086 167.054 110.086C168.124 110.086 169.085 110.531 169.608 111.438H169.632V110.25H171.257V118.5H169.632V117.258H169.608C169.054 118.203 168.14 118.664 167.062 118.664ZM167.397 117.242C168.804 117.242 169.71 116.109 169.71 114.375C169.71 112.641 168.804 111.5 167.397 111.5C166.069 111.5 165.155 112.508 165.155 114.375C165.155 116.234 166.069 117.242 167.397 117.242ZM175.013 113.75V118.5H173.364V110.25H174.981V111.492C175.544 110.555 176.388 110.086 177.473 110.086C179.169 110.086 180.458 111.203 180.458 113.359V118.5H178.809V113.562C178.809 112.242 178.145 111.562 177.005 111.562C175.88 111.562 175.013 112.219 175.013 113.75ZM185.885 110.25V111.609H184.206V116.32C184.206 116.93 184.417 117.141 185.081 117.141H185.885V118.5H184.846C183.299 118.5 182.557 117.859 182.557 116.531V108H184.206V110.25H185.885ZM191.623 118.5V106.859H199.451V108.383H193.357V111.812H198.998V113.32H193.357V116.977H199.451V118.5H191.623ZM200.41 118.5L203.449 114.297L200.598 110.25H202.48L203.465 111.719C203.785 112.203 204.082 112.672 204.379 113.148C204.683 112.672 204.988 112.203 205.316 111.719L206.316 110.25H208.168L205.308 114.273L208.308 118.5H206.426L205.277 116.828C204.965 116.352 204.668 115.898 204.371 115.438C204.066 115.898 203.762 116.352 203.449 116.828L202.277 118.5H200.41ZM209.673 121.766V110.25H211.291V111.438H211.314C211.838 110.531 212.798 110.086 213.869 110.086C216.002 110.086 217.439 111.828 217.439 114.375C217.439 116.93 216.009 118.664 213.861 118.664C212.783 118.664 211.9 118.203 211.345 117.258H211.322V121.766H209.673ZM213.525 117.242C214.853 117.242 215.767 116.234 215.767 114.375C215.767 112.508 214.853 111.5 213.525 111.5C212.119 111.5 211.213 112.641 211.213 114.375C211.213 116.109 212.119 117.242 213.525 117.242ZM222.656 118.688C220.21 118.688 218.726 116.883 218.726 114.391C218.726 111.875 220.32 110.062 222.57 110.062C224.906 110.062 226.421 111.828 226.421 114.375V114.82H220.351C220.406 116.305 221.234 117.312 222.679 117.312C223.757 117.312 224.476 116.773 224.71 115.992H226.296C225.992 117.586 224.523 118.688 222.656 118.688ZM220.367 113.57H224.812C224.679 112.258 223.835 111.438 222.585 111.438C221.343 111.438 220.507 112.258 220.367 113.57ZM228.091 118.5V110.25H229.669V111.586H229.7C230.005 110.688 230.646 110.148 231.692 110.148C231.942 110.148 232.161 110.172 232.294 110.188V111.727C232.169 111.703 231.81 111.648 231.427 111.648C230.497 111.648 229.739 112.281 229.739 113.625V118.5H228.091ZM236.972 110.25V111.609H235.292V116.32C235.292 116.93 235.503 117.141 236.167 117.141H236.972V118.5H235.933C234.386 118.5 233.643 117.859 233.643 116.531V108H235.292V110.25H236.972ZM238.524 118.5V110.25H240.173V118.5H238.524ZM239.344 108.828C238.758 108.828 238.305 108.383 238.305 107.82C238.305 107.25 238.758 106.805 239.344 106.805C239.93 106.805 240.391 107.25 240.391 107.82C240.391 108.383 239.93 108.828 239.344 108.828ZM245.334 118.695C243.444 118.695 242.006 117.781 241.889 115.992H243.514C243.608 116.883 244.233 117.383 245.303 117.383C246.35 117.383 246.998 116.906 246.998 116.25C246.998 115.688 246.522 115.359 245.811 115.203L244.444 114.898C242.889 114.555 242.077 113.766 242.077 112.539C242.077 111.078 243.342 110.07 245.233 110.07C247.092 110.07 248.42 111.102 248.467 112.766H246.889C246.873 111.961 246.233 111.375 245.256 111.375C244.319 111.375 243.725 111.875 243.725 112.508C243.725 113.062 244.17 113.398 244.912 113.57L246.319 113.883C247.928 114.242 248.662 114.961 248.662 116.156C248.662 117.727 247.256 118.695 245.334 118.695ZM253.887 118.688C251.442 118.688 249.957 116.883 249.957 114.391C249.957 111.875 251.551 110.062 253.801 110.062C256.137 110.062 257.652 111.828 257.652 114.375V114.82H251.582C251.637 116.305 252.465 117.312 253.91 117.312C254.988 117.312 255.707 116.773 255.942 115.992H257.527C257.223 117.586 255.754 118.688 253.887 118.688ZM251.598 113.57H256.043C255.91 112.258 255.067 111.438 253.817 111.438C252.574 111.438 251.738 112.258 251.598 113.57Z" fill="#420708"/>
<path opacity="0.4" fill-rule="evenodd" clip-rule="evenodd" d="M280.898 106.715C286.126 101.732 292.22 102.332 292.733 102.393C293.191 102.447 293.553 102.809 293.607 103.267C293.669 103.779 294.267 109.874 289.285 115.102C286.275 118.259 282.916 119.324 281.776 119.637C281.43 119.732 281.059 119.634 280.804 119.379L276.621 115.196C276.366 114.941 276.268 114.57 276.363 114.224C276.676 113.085 277.741 109.725 280.898 106.715Z" fill="#5C090C"/>
<path d="M281.735 105.97C281.454 106.204 281.175 106.452 280.898 106.715C278.763 108.751 277.584 110.947 276.949 112.507C276.161 112.495 275.478 112.565 274.941 112.656C274.527 112.725 274.203 112.806 273.987 112.867C273.879 112.898 273.799 112.924 273.749 112.941C273.724 112.949 273.706 112.955 273.696 112.959L273.687 112.962C273.279 113.116 272.818 112.988 272.547 112.645C272.277 112.301 272.261 111.821 272.51 111.46L275.517 107.089C276.152 106.193 276.926 105.718 277.841 105.568C278.668 105.433 279.553 105.579 280.366 105.725L281.735 105.97Z" fill="#5C090C"/>
<path d="M286.667 111.333C287.771 111.333 288.667 110.438 288.667 109.333C288.667 108.229 287.771 107.333 286.667 107.333C285.563 107.333 284.667 108.229 284.667 109.333C284.667 110.438 285.563 111.333 286.667 111.333Z" fill="#5C090C"/>
<path fill-rule="evenodd" clip-rule="evenodd" d="M274.553 117.173C274.888 117.005 275.294 117.07 275.56 117.336L278.664 120.441C278.93 120.706 278.995 121.112 278.826 121.447C278.305 122.483 277.237 123.212 275.981 123.212H273.659C273.178 123.212 272.788 122.822 272.788 122.341V120.019C272.788 118.762 273.518 117.694 274.553 117.173Z" fill="#5C090C"/>
<path d="M283.492 119.051C283.505 119.839 283.434 120.522 283.344 121.059C283.275 121.472 283.194 121.797 283.133 122.012C283.102 122.12 283.076 122.2 283.059 122.251C283.051 122.276 283.045 122.294 283.041 122.303L283.038 122.312C282.883 122.72 283.012 123.182 283.355 123.452C283.699 123.723 284.179 123.738 284.54 123.49L288.9 120.49L288.911 120.483C289.807 119.848 290.282 119.074 290.432 118.159C290.567 117.331 290.421 116.446 290.275 115.634L290.03 114.265C289.797 114.546 289.549 114.825 289.285 115.101C287.249 117.237 285.053 118.416 283.492 119.051Z" fill="#5C090C"/>
</g>
<defs>
<filter id="filter0_dddd_978_5997" x="50" y="70" width="330" height="190" filterUnits="userSpaceOnUse" color-interpolation-filters="sRGB">
<feFlood flood-opacity="0" result="BackgroundImageFix"/>
<feColorMatrix in="SourceAlpha" type="matrix" values="0 0 0 0 0 0 0 0 0 0 0 0 0 0 0 0 0 0 127 0" result="hardAlpha"/>
<feOffset dy="5"/>
<feGaussianBlur stdDeviation="5.5"/>
<feColorMatrix type="matrix" values="0 0 0 0 0.662745 0 0 0 0 0.0784314 0 0 0 0 0.0784314 0 0 0 0.25 0"/>
<feBlend mode="normal" in2="BackgroundImageFix" result="effect1_dropShadow_978_5997"/>
<feColorMatrix in="SourceAlpha" type="matrix" values="0 0 0 0 0 0 0 0 0 0 0 0 0 0 0 0 0 0 127 0" result="hardAlpha"/>
<feOffset dy="20"/>
<feGaussianBlur stdDeviation="10"/>
<feColorMatrix type="matrix" values="0 0 0 0 0.662745 0 0 0 0 0.0784314 0 0 0 0 0.0784314 0 0 0 0.21 0"/>
<feBlend mode="normal" in2="effect1_dropShadow_978_5997" result="effect2_dropShadow_978_5997"/>
<feColorMatrix in="SourceAlpha" type="matrix" values="0 0 0 0 0 0 0 0 0 0 0 0 0 0 0 0 0 0 127 0" result="hardAlpha"/>
<feOffset dy="44"/>
<feGaussianBlur stdDeviation="13.5"/>
<feColorMatrix type="matrix" values="0 0 0 0 0.662745 0 0 0 0 0.0784314 0 0 0 0 0.0784314 0 0 0 0.13 0"/>
<feBlend mode="normal" in2="effect2_dropShadow_978_5997" result="effect3_dropShadow_978_5997"/>
<feColorMatrix in="SourceAlpha" type="matrix" values="0 0 0 0 0 0 0 0 0 0 0 0 0 0 0 0 0 0 127 0" result="hardAlpha"/>
<feOffset dy="79"/>
<feGaussianBlur stdDeviation="15.5"/>
<feColorMatrix type="matrix" values="0 0 0 0 0.662745 0 0 0 0 0.0784314 0 0 0 0 0.0784314 0 0 0 0.04 0"/>
<feBlend mode="normal" in2="effect3_dropShadow_978_5997" result="effect4_dropShadow_978_5997"/>
<feBlend mode="normal" in="SourceGraphic" in2="effect4_dropShadow_978_5997" result="shape"/>
</filter>
<filter id="filter1_ii_978_5997" x="87" y="82" width="256" height="62" filterUnits="userSpaceOnUse" color-interpolation-filters="sRGB">
<feFlood flood-opacity="0" result="BackgroundImageFix"/>
<feBlend mode="normal" in="SourceGraphic" in2="BackgroundImageFix" result="shape"/>
<feColorMatrix in="SourceAlpha" type="matrix" values="0 0 0 0 0 0 0 0 0 0 0 0 0 0 0 0 0 0 127 0" result="hardAlpha"/>
<feOffset dy="-2"/>
<feComposite in2="hardAlpha" operator="arithmetic" k2="-1" k3="1"/>
<feColorMatrix type="matrix" values="0 0 0 0 0 0 0 0 0 0 0 0 0 0 0 0 0 0 0.25 0"/>
<feBlend mode="normal" in2="shape" result="effect1_innerShadow_978_5997"/>
<feColorMatrix in="SourceAlpha" type="matrix" values="0 0 0 0 0 0 0 0 0 0 0 0 0 0 0 0 0 0 127 0" result="hardAlpha"/>
<feOffset dy="2"/>
<feComposite in2="hardAlpha" operator="arithmetic" k2="-1" k3="1"/>
<feColorMatrix type="matrix" values="0 0 0 0 1 0 0 0 0 1 0 0 0 0 1 0 0 0 0.25 0"/>
<feBlend mode="normal" in2="effect1_innerShadow_978_5997" result="effect2_innerShadow_978_5997"/>
</filter>
<linearGradient id="paint0_linear_978_5997" x1="215" y1="1" x2="215" y2="228" gradientUnits="userSpaceOnUse">
<stop stop-color="#9A55F2" stop-opacity="0.25"/>
<stop offset="1" stop-color="#9A55F2" stop-opacity="0"/>
</linearGradient>
<linearGradient id="paint1_linear_978_5997" x1="213" y1="150" x2="213" y2="228" gradientUnits="userSpaceOnUse">
<stop stop-color="white" stop-opacity="0"/>
<stop offset="0.947115" stop-color="white"/>
</linearGradient>
<linearGradient id="paint2_linear_978_5997" x1="80.7722" y1="76" x2="348.772" y2="150" gradientUnits="userSpaceOnUse">
<stop stop-color="#E9242A"/>
<stop offset="0.173077" stop-color="#ED494E"/>
<stop offset="0.471154" stop-color="#E9242A"/>
<stop offset="0.798077" stop-color="#ED494E"/>
<stop offset="1" stop-color="#C11319"/>
</linearGradient>
</defs>
</svg>
