<svg width="84" height="82" viewBox="0 0 84 82" fill="none" xmlns="http://www.w3.org/2000/svg">
<g clip-path="url(#clip0_1282_13217)">
<path d="M84 42.9775C83.4837 44.9348 82.1144 46.3652 80.9834 47.9373C79.9728 49.341 78.8944 50.6961 77.8969 52.111C77.3872 52.835 77.035 53.6543 77.1159 54.5909C77.1225 54.6728 77.1159 54.7569 77.1159 54.8389C77.2122 57.6022 76.9409 60.3588 76.9212 63.1221C76.9103 64.5458 76.3109 65.8256 75.3616 66.9527C74.1891 68.3454 72.6075 68.8746 70.9778 69.3727C68.8363 70.0281 66.6991 70.699 64.5663 71.381C63.6847 71.6622 62.9934 72.1936 62.4356 72.9708C60.8322 75.2005 59.1828 77.3969 57.5356 79.5934C56.9275 80.4038 56.0766 80.9175 55.1841 81.3404C54.3878 81.719 53.5238 81.8984 52.6553 81.9803C51.8372 82.0578 51.0278 81.8718 50.2491 81.6061C47.8953 80.8001 45.5372 80.0075 43.1966 79.1639C42.0088 78.7343 40.8472 78.7476 39.6681 79.1152C37.2947 79.8569 34.9169 80.5809 32.5544 81.3515C29.7784 82.2571 26.7728 81.1699 25.2109 78.9292C23.8612 76.9895 22.5072 75.0499 21.1553 73.1125C20.9037 72.7516 20.6609 72.384 20.3941 72.0364C19.8428 71.319 19.1297 70.8341 18.2744 70.5441C15.8681 69.7226 13.475 68.8613 11.06 68.0664C9.03 67.3977 7.62125 66.0936 6.82719 64.1008C6.54937 63.4055 6.39406 62.6749 6.39187 61.922C6.3875 60.1241 6.37875 58.3262 6.40281 56.5283C6.41375 55.7312 6.53625 54.9385 6.56687 54.137C6.62156 52.6468 6.11844 51.4047 5.2675 50.2223C3.80625 48.1919 2.41062 46.115 0.977812 44.0647C0.529375 43.4248 0.374063 42.652 0 41.9811V38.992C0.566562 37.0966 1.83531 35.6331 2.96625 34.0876C3.99 32.6904 5.05531 31.3265 6.06156 29.9182C6.57781 29.1964 6.94312 28.3882 6.88625 27.4517C6.86875 27.1749 6.89281 26.8981 6.88406 26.6213C6.80312 24.0219 7.01969 21.4291 7.08313 18.8341C7.14219 16.3985 8.785 14.1023 11.2153 13.2654C13.5144 12.4727 15.8528 11.7974 18.1694 11.0601C18.8453 10.8453 19.5387 10.677 20.1687 10.3272C20.9387 9.90205 21.4244 9.19572 21.9341 8.51154C23.5091 6.39478 25.0272 4.23596 26.6744 2.17898C27.5844 1.04311 28.8641 0.405422 30.3166 0.110935C31.7188 -0.17248 33.0072 0.119792 34.3109 0.593627C35.9822 1.20253 37.6775 1.73836 39.3619 2.30962C39.6725 2.4159 39.9766 2.53989 40.2806 2.66167C40.8056 2.86981 41.02 3.275 41.0287 3.82855C41.0441 4.84486 40.32 5.43604 39.3488 5.12827C38.0209 4.70315 36.7084 4.22931 35.3916 3.76876C34.3853 3.41671 33.39 3.02923 32.3553 2.77017C30.7694 2.37383 29.4525 2.94066 28.4944 4.15625C26.7772 6.335 25.1606 8.59346 23.5266 10.8364C22.6472 12.0454 21.4703 12.796 20.0878 13.241C18.2153 13.8411 16.3319 14.4123 14.4528 14.9947C13.93 15.1563 13.4094 15.3201 12.8844 15.4707C11.7031 15.8073 10.7647 16.4715 10.1325 17.5498C9.86344 18.0082 9.68188 18.4953 9.68844 19.0378C9.72563 21.8852 9.41937 24.726 9.52219 27.5734C9.53531 27.9321 9.46969 28.2842 9.41938 28.6407C9.25531 29.8031 8.73469 30.7995 8.0675 31.7162C6.545 33.8041 5.02688 35.8943 3.42781 37.9203C2.46094 39.147 2.32312 41.4099 3.27031 42.7273C4.72937 44.7599 6.08562 46.87 7.57312 48.8805C9.03 50.8467 9.40844 53.0144 9.0825 55.3791C9.05188 55.5961 9.04094 55.8197 9.04094 56.0389C9.03656 57.921 9.03 59.8031 9.03438 61.6851C9.03656 63.3657 10.0209 64.785 11.5675 65.3939C13.4028 66.1179 15.2928 66.6714 17.1478 67.3335C17.9966 67.6368 18.8584 67.9114 19.6963 68.2457C20.8906 68.7218 21.8663 69.4923 22.61 70.5684C24.1588 72.8069 25.7162 75.0411 27.2891 77.2619C28.3631 78.7764 30.1328 79.3432 31.7647 78.8007C34.2016 77.9903 36.6734 77.284 39.1213 76.5113C40.7444 75.9998 42.3544 76.0153 43.9381 76.6043C45.7866 77.2907 47.6656 77.8774 49.5228 78.5284C50.1156 78.7365 50.7019 78.9668 51.2991 79.1616C53.0709 79.7329 54.7597 78.9181 55.7659 77.5453C57.3387 75.3931 58.9662 73.2808 60.5172 71.1131C61.3112 70.0038 62.3634 69.2975 63.595 68.8878C66.2134 68.0132 68.845 67.1719 71.4962 66.4124C72.9925 65.9828 74.375 64.2026 74.3269 62.7523C74.2372 60.0998 74.5828 57.4538 74.4778 54.7968C74.4559 54.2167 74.5084 53.6454 74.6244 53.0697C74.8038 52.1818 75.1581 51.3781 75.6787 50.6651C77.3303 48.4 78.9994 46.1482 80.6925 43.9163C81.5522 42.7826 81.6506 40.5707 80.7559 39.2997C79.5528 37.5904 78.3475 35.8833 77.1728 34.154C76.4181 33.0425 75.5256 32.0084 75.1494 30.6689C74.7775 29.3492 74.7009 28.0096 74.9 26.6523C74.935 26.4066 74.9569 26.1586 74.9569 25.9106C74.9634 24.0285 74.97 22.1465 74.9634 20.2644C74.9591 18.5794 73.9047 17.1026 72.3166 16.549C69.9409 15.7209 67.5719 14.8662 65.1787 14.0935C63.4681 13.5399 62.125 12.5524 61.1056 11.0689C59.6881 9.0053 58.2334 6.97047 56.8334 4.89357C56.0328 3.70455 54.9369 3.10451 53.5588 2.97609C52.9441 2.91852 52.3753 3.15765 51.8044 3.33257C49.8203 3.94147 47.8363 4.55923 45.8544 5.1792C45.6422 5.24562 45.4344 5.28991 45.2134 5.29433C44.5003 5.31205 43.9709 4.92457 43.8309 4.27138C43.7106 3.71562 44.0737 3.06023 44.6578 2.80338C44.8328 2.72588 45.0187 2.67496 45.2003 2.61739C47.3922 1.93321 49.5841 1.24902 51.7759 0.571485C54.2894 -0.207907 57.365 0.976681 58.6906 2.95616C59.8391 4.66994 61.0422 6.34607 62.2387 8.02442C62.8294 8.85031 63.3369 9.74041 64.0784 10.4534C64.5225 10.8807 65.0147 11.1951 65.5966 11.3966C68.1537 12.2823 70.7087 13.179 73.2616 14.0824C75.0312 14.709 76.3 15.898 77.0547 17.634C77.3763 18.3713 77.5884 19.1507 77.5972 19.9566C77.6191 21.8099 77.6475 23.6676 77.5797 25.5187C77.5469 26.3977 77.4375 27.2767 77.4441 28.1602C77.4528 29.3558 77.7744 30.412 78.4897 31.3995C79.9903 33.4698 81.4034 35.6043 82.8756 37.6967C83.4072 38.4517 83.6741 39.3152 83.9978 40.1611V42.9841L84 42.9775Z" fill="#78716C"/>
<path d="M41.9652 29.5261C35.3218 29.5261 28.6783 29.5261 22.0371 29.5261C21.873 29.5261 21.7068 29.5439 21.5449 29.5239C20.9827 29.4486 20.6677 29.6723 20.403 30.2037C19.5718 31.8687 18.9702 33.6091 18.5589 35.4203C18.3402 36.3879 18.1499 37.3599 18.0514 38.3497C17.9793 39.0715 17.3339 39.6804 16.6908 39.645C15.9536 39.6051 15.3324 38.8855 15.4264 38.0928C15.7458 35.4203 16.3583 32.8208 17.4696 30.3675C18.233 28.6825 19.0861 27.044 20.1711 25.5406C21.4443 23.7759 22.8158 22.1086 24.5002 20.7137C25.4518 19.9277 26.388 19.1306 27.4139 18.4442C30.4611 16.4093 33.7774 15.0587 37.3736 14.4011C38.9049 14.1221 40.4471 13.8985 41.9958 13.9339C45.5396 14.0158 48.9718 14.6712 52.2552 16.0971C54.6833 17.1533 56.9255 18.5039 58.9446 20.2155C62.7727 23.4593 65.553 27.4448 67.2177 32.2319C67.8652 34.0918 68.3399 35.9893 68.5346 37.9356C68.6943 39.5431 68.8343 41.155 68.6396 42.8024C68.4536 44.3634 68.2918 45.9244 67.9221 47.4499C67.0668 50.9882 65.4743 54.1855 63.359 57.1104C62.3768 58.4677 61.2655 59.7342 60.0164 60.8546C58.3189 62.3779 56.5033 63.7375 54.4908 64.8202C52.2836 66.007 49.9846 66.9414 47.528 67.4374C46.4627 67.6521 45.393 67.8337 44.3014 67.9289C43.4855 67.9998 42.6739 68.075 41.8558 68.0595C38.5264 67.9953 35.3043 67.3931 32.2155 66.1044C29.8027 65.097 27.5496 63.8105 25.5043 62.1787C24.1108 61.0672 22.8596 59.8006 21.6914 58.4367C20.3396 56.8602 19.2086 55.142 18.2461 53.3131C17.2814 51.4797 16.5858 49.5291 16.0718 47.5141C15.7852 46.3893 15.643 45.2424 15.4461 44.1021C15.3083 43.3006 15.783 42.5655 16.4677 42.4769C17.3602 42.3617 17.9311 42.8046 18.0514 43.7279C18.2899 45.5369 18.6443 47.3215 19.2589 49.0397C19.6024 50.0007 20.0268 50.9284 20.3964 51.8805C20.5999 52.4053 20.9039 52.7175 21.5011 52.6046C21.6061 52.5846 21.7199 52.6023 21.8293 52.6023C35.2255 52.6023 48.6196 52.6023 62.0158 52.6023C62.2346 52.6023 62.4533 52.5935 62.6721 52.6023C63.0111 52.6178 63.2277 52.4806 63.3874 52.1684C64.3105 50.3682 65.0061 48.4817 65.4349 46.5045C65.7455 45.0786 65.8921 43.6305 65.9818 42.1647C66.1918 38.6862 65.5924 35.3627 64.4177 32.1234C64.1552 31.3993 63.7855 30.7152 63.4814 30.0044C63.3305 29.6501 63.0943 29.4951 62.7158 29.5284C62.5255 29.5461 62.333 29.5306 62.1427 29.5306C55.4183 29.5306 48.6918 29.5306 41.9674 29.5306L41.9652 29.5261ZM32.8761 26.7983H40.6221V17.0404C40.283 16.8234 40.0446 16.9983 39.8018 17.109C38.3755 17.7644 37.2621 18.8161 36.2864 20.0229C35.1905 21.3802 34.3724 22.9102 33.6658 24.5022C33.3464 25.224 33.0052 25.948 32.8739 26.7961L32.8761 26.7983ZM51.1527 26.8005C51.1527 26.8005 51.0718 26.4772 51.0346 26.3466C50.6518 25.069 50.0721 23.88 49.4508 22.7131C48.5911 21.099 47.5499 19.6177 46.1761 18.4021C45.5155 17.8198 44.7696 17.357 43.9646 17.0005C43.7874 16.923 43.6014 16.8699 43.3761 17.0559V26.8027H51.1527V26.8005ZM40.6221 65.139V55.3258H32.9221C32.8543 55.6823 33.0511 55.9103 33.1474 56.1583C34.2302 58.9615 35.5711 61.6008 37.868 63.6201C38.6577 64.3131 39.5086 64.8888 40.6243 65.1413L40.6221 65.139ZM43.3477 65.108C43.7961 65.0748 44.1286 64.9442 44.4458 64.7848C45.8261 64.0962 46.8652 62.9869 47.8321 61.8266C48.9674 60.4627 49.6936 58.8397 50.4374 57.241C50.713 56.6499 50.9077 56.0188 51.1877 55.2749C50.223 55.2726 49.3568 55.2704 48.4927 55.2682C47.6461 55.2682 46.7974 55.2549 45.9508 55.2726C45.0911 55.2904 44.2249 55.1907 43.3499 55.3479V65.1102L43.3477 65.108ZM22.5271 26.6366C22.6474 26.8426 22.7589 26.8492 22.8661 26.8492C25.0755 26.8514 27.2849 26.8492 29.4943 26.8581C29.8486 26.8581 30.0608 26.7186 30.1571 26.3776C30.1943 26.2447 30.2424 26.1163 30.2861 25.9857C31.2268 23.1714 32.4846 20.5255 34.3461 18.205C34.4008 18.1364 34.3921 18.0523 34.2455 17.9172C29.4833 19.6022 25.5458 22.4718 22.5271 26.6366ZM61.4515 26.8558C59.859 23.57 52.0911 17.8596 49.5821 18.081C49.8227 18.4021 50.0546 18.701 50.2733 19.011C51.8002 21.1632 52.9093 23.5257 53.7339 26.0322C53.8608 26.4174 54.0074 26.8337 54.0074 26.8337C54.0074 26.8337 54.4208 26.8514 54.8889 26.8536C56.3655 26.8536 57.8421 26.8536 59.3186 26.8536C59.999 26.8536 60.6793 26.8536 61.4536 26.8536L61.4515 26.8558ZM34.333 64.1094C34.3308 63.7463 34.193 63.609 34.0814 63.4518C33.6964 62.916 33.2808 62.4001 32.9461 61.8333C31.8524 59.9778 30.9074 58.0492 30.2752 55.9745C30.0608 55.2749 30.0389 55.2726 29.2843 55.2726C27.2346 55.2682 25.1827 55.2682 23.133 55.2749C22.9602 55.2749 22.7524 55.1841 22.573 55.4564C25.6289 59.4796 29.4243 62.4754 34.333 64.1094ZM49.6696 64.1094C54.5171 62.3912 58.3999 59.5017 61.4296 55.3878C61.353 55.3346 61.3311 55.3059 61.3093 55.3059C59.0168 55.2926 56.7221 55.2837 54.4296 55.2704C54.0752 55.2704 53.8936 55.4365 53.7864 55.7775C53.5961 56.3819 53.3774 56.9798 53.1433 57.5687C52.3558 59.546 51.4349 61.4524 50.1596 63.1662C49.9736 63.4164 49.6739 63.6112 49.6696 64.1116V64.1094Z" fill="#78716C"/>
<path d="M41.8992 70.5328C44.9749 70.6257 47.8492 70.0722 50.6886 69.1998C53.9699 68.1902 56.9339 66.5716 59.6486 64.488C62.838 62.0414 65.3952 59.0234 67.4033 55.5095C69.1074 52.5292 70.1617 49.3297 70.8224 45.9775C70.9821 45.1693 71.0039 44.3346 71.1636 43.5264C71.3561 42.5521 72.0124 42.2134 72.9311 42.5322C73.4233 42.7027 73.6464 43.0459 73.6727 43.6924C73.7186 44.8327 73.4802 45.942 73.2789 47.0536C72.7583 49.9276 71.798 52.6577 70.5096 55.2615C69.5427 57.2144 68.3833 59.0522 67.0271 60.7616C66.1367 61.8842 65.1917 62.947 64.1833 63.9611C62.3349 65.821 60.2742 67.3975 58.0342 68.7393C55.1949 70.4398 52.1783 71.6996 48.9539 72.4347C47.6786 72.7248 46.388 72.9064 45.0886 73.0724C43.6689 73.254 42.2536 73.1898 40.8383 73.2031C39.143 73.2208 37.4717 72.9462 35.8158 72.6252C33.7224 72.22 31.6792 71.6221 29.7192 70.752C27.0571 69.5696 24.5502 68.1392 22.2708 66.297C21.0721 65.3294 19.9324 64.3043 18.8889 63.1728C17.2089 61.3528 15.7258 59.3843 14.4833 57.2255C12.8186 54.3316 11.6461 51.2539 10.9199 47.9968C10.6202 46.6528 10.4102 45.2977 10.2921 43.9183C10.2111 42.9795 10.1761 42.0473 10.1608 41.1107C10.1127 38.2788 10.4933 35.4978 11.2086 32.7655C12.0464 29.566 13.3261 26.5591 15.098 23.7648C16.533 21.4997 18.1758 19.4051 20.1117 17.5673C21.9667 15.807 24.0121 14.2947 26.2192 13.0039C28.1202 11.8901 30.1152 11.0045 32.1999 10.3291C33.9936 9.74903 35.8202 9.32391 37.6927 9.07149C39.4821 8.83015 41.2736 8.69065 43.0739 8.77258C44.813 8.85007 46.5433 9.03607 48.2539 9.39255C50.1571 9.78889 52.0099 10.338 53.8189 11.0598C56.7655 12.2356 59.4364 13.8718 61.9061 15.8646C62.9102 16.675 63.8858 17.5142 64.7739 18.4508C66.5742 20.3505 68.1361 22.4341 69.4727 24.6925C71.3583 27.881 72.5833 31.3262 73.2767 34.9619C73.4867 36.0646 73.7405 37.1761 73.6749 38.323C73.6333 39.0559 73.2833 39.4811 72.5527 39.6161C72.0342 39.7136 71.4239 39.3394 71.2052 38.7615C71.1177 38.5334 71.0564 38.2832 71.0367 38.0396C70.8267 35.3472 70.1355 32.7743 69.1861 30.2612C68.1821 27.6064 66.7777 25.1885 65.0605 22.95C62.7942 19.9963 60.0686 17.5673 56.8967 15.6476C55.1817 14.6092 53.388 13.7257 51.498 13.0703C49.2492 12.2909 46.9458 11.7728 44.5636 11.5602C43.4721 11.4628 42.3849 11.4207 41.2977 11.4407C38.8367 11.4827 36.4108 11.8436 34.0483 12.5455C32.2655 13.0747 30.5155 13.7102 28.8639 14.5892C26.8077 15.6853 24.8783 16.9606 23.0955 18.4862C21.0786 20.2133 19.3396 22.1817 17.8499 24.3693C16.5308 26.3067 15.4677 28.3947 14.643 30.6044C13.8489 32.7345 13.3021 34.9265 13.0133 37.1717C12.7333 39.3615 12.6852 41.5646 12.928 43.7766C13.0789 45.1516 13.2889 46.5022 13.5842 47.8507C13.9867 49.6951 14.6167 51.4554 15.3802 53.1714C16.3602 55.3745 17.5852 57.4314 19.0814 59.3135C20.2977 60.8435 21.6561 62.234 23.1305 63.5182C25.0927 65.2254 27.2452 66.607 29.5705 67.7385C31.7733 68.8101 34.0767 69.5585 36.4721 70.0301C38.2964 70.3888 40.1317 70.6125 41.8971 70.5283L41.8992 70.5328Z" fill="#78716C"/>
<path d="M59.0758 40.9977C59.242 45.3021 55.5648 48.7894 51.4873 48.7872C47.1714 48.7872 43.7304 45.229 43.7873 41.0021C43.8442 36.7443 46.9679 33.2658 51.4064 33.2149C55.8579 33.1639 59.242 36.9037 59.0758 40.9977ZM56.4376 41.0597C56.6826 38.4403 54.2873 35.883 51.4786 35.8719C48.6261 35.8608 46.4823 38.2721 46.4058 40.9999C46.3314 43.6968 48.9411 46.1235 51.3889 46.1435C54.1058 46.1656 56.6564 43.6725 56.4376 41.0597Z" fill="#78716C"/>
<path d="M36.1308 48.8315C34.0658 48.6632 32.2436 48.041 30.8108 46.5154C30.2114 45.8755 30.2223 45.1714 30.7867 44.6068C31.2133 44.1817 31.8476 44.1263 32.4514 44.454C32.6986 44.5869 32.8779 44.7972 33.0748 44.9876C34.1073 45.984 36.1942 46.5309 37.4826 45.7604C37.5526 45.7183 37.6336 45.6918 37.6992 45.6453C38.9483 44.7751 38.9854 43.6658 37.7036 42.8222C36.9008 42.2952 35.9536 42.0561 35.0764 41.6752C34.4004 41.3807 33.672 41.1793 33.0464 40.8028C31.9745 40.1585 31.2417 39.2485 31.1498 37.9C31.0317 36.1553 31.6704 34.7936 33.1645 33.9544C34.2408 33.3499 35.4154 33.0643 36.7039 33.2791C38.0601 33.5049 39.2851 33.9677 40.3395 34.8511C40.9717 35.3825 41.022 36.1885 40.5189 36.7531C40.0726 37.2535 39.3683 37.3399 38.7317 36.9081C37.9923 36.4055 37.1939 36.0534 36.3254 35.9139C35.5489 35.7877 34.8008 35.9272 34.2014 36.5118C33.4861 37.2114 33.6523 38.1702 34.5667 38.5599C35.7217 39.0514 36.8854 39.5297 38.047 40.0057C39.3595 40.5438 40.4204 41.352 40.9739 42.7248C41.3698 43.7101 41.3961 44.7131 40.987 45.6895C40.0726 47.8661 38.2614 48.6344 36.1286 48.8337L36.1308 48.8315Z" fill="#78716C"/>
<path d="M24.9242 41.0685C24.9242 38.9407 24.9176 36.8107 24.9264 34.6828C24.9308 33.8592 25.1823 33.4938 25.8276 33.2945C26.4839 33.0908 27.1992 33.4495 27.3873 34.1094C27.5011 34.5035 27.5689 34.9087 27.5667 35.3316C27.5558 39.0913 27.5558 42.851 27.5667 46.6128C27.5667 47.0358 27.5055 47.4387 27.3939 47.8373C27.2298 48.4329 26.5867 48.8602 26.0201 48.7805C25.5214 48.7097 24.8958 48.1561 24.9089 47.5384C24.9505 45.3818 24.9242 43.2251 24.9242 41.0685Z" fill="#78716C"/>
</g>
<defs>
<clipPath id="clip0_1282_13217">
<rect width="84" height="82" fill="white"/>
</clipPath>
</defs>
</svg>
