<svg width="618" height="385" viewBox="0 0 618 385" fill="none" xmlns="http://www.w3.org/2000/svg">
<g clip-path="url(#clip0_855_23892)">
<g opacity="0.4" filter="url(#filter0_dddddi_855_23892)">
<mask id="path-1-inside-1_855_23892" fill="white">
<path d="M69.3828 -82.5978C78.0511 -82.5978 85.0781 -75.5828 85.0781 -66.9298C85.0781 -61.1116 81.9004 -56.0351 77.1836 -53.3331C75.7121 -52.4901 74.6144 -51.0211 74.6143 -49.3253V-38.5499C74.6143 -36.3408 76.4051 -34.5499 78.6143 -34.5499H141.769C143.978 -34.5499 145.769 -32.7591 145.769 -30.5499V32.4774C145.769 34.6866 147.559 36.4774 149.769 36.4774H162.669C164.363 36.4774 165.831 35.381 166.676 33.912C169.383 29.2036 174.469 26.0322 180.297 26.0321C188.965 26.0321 195.992 33.047 195.992 41.7001C195.992 50.3529 188.965 57.3671 180.297 57.3671C174.469 57.3669 169.384 54.1953 166.677 49.4872C165.832 48.0185 164.364 46.9227 162.67 46.9227H149.769C147.559 46.9227 145.769 48.7136 145.769 50.9227V113.949C145.769 116.158 143.978 117.949 141.769 117.949H82.8018C80.5926 117.949 78.8018 116.158 78.8018 113.949V113.796C78.8019 112.324 79.6306 110.998 80.834 110.15C85.934 106.558 89.2655 100.63 89.2656 93.9257C89.2656 82.9654 80.3643 74.0803 69.3848 74.08C58.4049 74.08 49.5039 82.9651 49.5039 93.9257C49.504 100.63 52.8348 106.558 57.9346 110.15C59.1378 110.998 59.9667 112.324 59.9668 113.796V113.949C59.9668 116.158 58.1759 117.949 55.9668 117.949H-3C-5.20914 117.949 -7 116.158 -7 113.949V-30.5499C-7 -32.7591 -5.20914 -34.5499 -3 -34.5499H60.1514C62.3605 -34.5499 64.1514 -36.3408 64.1514 -38.5499V-49.3253C64.1513 -51.0212 63.0535 -52.4901 61.582 -53.3331C56.8653 -56.0352 53.6875 -61.1117 53.6875 -66.9298C53.6875 -75.5828 60.7146 -82.5976 69.3828 -82.5978Z"/>
<path d="M69.3848 78.2584C78.0528 78.2586 85.0799 85.2727 85.0801 93.9254C85.0801 99.7436 81.9024 104.821 77.1855 107.523C75.7141 108.366 74.6163 109.835 74.6162 111.531V122.305C74.6162 124.514 76.4071 126.305 78.6162 126.305H141.769C143.978 126.305 145.769 128.096 145.769 130.305V178.742C145.769 182.548 140.02 184.952 136.412 183.741C134.421 183.072 132.289 182.71 130.072 182.71C119.093 182.71 110.192 191.595 110.191 202.555C110.192 213.516 119.093 222.401 130.072 222.401C132.289 222.401 134.421 222.039 136.412 221.37C140.02 220.158 145.769 222.562 145.769 226.368V274.805C145.769 277.014 143.978 278.805 141.769 278.805H82.8018C80.5926 278.805 78.8018 277.014 78.8018 274.805V274.652C78.8018 273.18 79.6305 271.853 80.834 271.005C85.9337 267.413 89.2646 261.485 89.2646 254.781C89.2646 243.821 80.3643 234.936 69.3848 234.935C58.4049 234.935 49.5039 243.82 49.5039 254.781C49.504 261.486 52.8347 267.413 57.9346 271.005C59.1379 271.853 59.9668 273.18 59.9668 274.652V274.805C59.9668 277.014 58.1759 278.805 55.9668 278.805H-3C-5.20914 278.805 -7 277.014 -7 274.805V130.305C-6.99995 128.096 -5.20911 126.305 -3 126.305H60.1523C62.3615 126.305 64.1523 124.514 64.1523 122.305V111.53C64.1523 109.834 63.0545 108.365 61.583 107.522C56.8665 104.82 53.6895 99.7434 53.6895 93.9254C53.6897 85.2726 60.7166 78.2584 69.3848 78.2584Z"/>
<path d="M221.106 130.461C221.106 131.934 220.277 133.26 219.074 134.108C213.974 137.701 210.643 143.628 210.643 150.333C210.643 161.293 219.544 170.178 230.524 170.178C241.503 170.178 250.404 161.293 250.405 150.333C250.405 143.627 247.073 137.699 241.972 134.107C240.768 133.259 239.94 131.933 239.94 130.461V130.306C239.94 128.097 241.731 126.306 243.94 126.306H300.815C303.024 126.306 304.815 128.097 304.815 130.306V191.08C304.815 192.226 303.886 193.155 302.74 193.155C301.27 193.155 299.944 192.328 299.096 191.128C295.497 186.036 289.559 182.71 282.842 182.71C271.862 182.71 262.961 191.595 262.961 202.555C262.961 213.516 271.862 222.401 282.842 222.401C289.559 222.401 295.497 219.074 299.096 213.982C299.944 212.782 301.27 211.956 302.74 211.956C303.886 211.956 304.815 212.885 304.815 214.031V274.805C304.815 277.014 303.024 278.805 300.815 278.805H239.755C237.546 278.805 235.755 280.596 235.755 282.805V291.49C235.755 293.186 236.854 294.655 238.325 295.498C243.042 298.2 246.219 303.277 246.219 309.095C246.219 317.748 239.192 324.763 230.524 324.763C221.856 324.763 214.828 317.748 214.828 309.095C214.828 303.277 218.006 298.2 222.723 295.498C224.194 294.655 225.292 293.186 225.292 291.49V282.805C225.292 280.596 223.501 278.805 221.292 278.805H156.047C153.838 278.805 152.047 277.014 152.047 274.805V211.779C152.047 209.57 150.256 207.779 148.047 207.779H147.7C146.006 207.779 144.538 208.875 143.694 210.343C140.987 215.052 135.902 218.224 130.074 218.224C121.405 218.224 114.378 211.209 114.378 202.556C114.378 193.903 121.405 186.888 130.074 186.888C135.902 186.888 140.988 190.06 143.695 194.768C144.539 196.237 146.007 197.334 147.701 197.334H148.047C150.256 197.334 152.047 195.543 152.047 193.334V130.306C152.047 128.097 153.838 126.306 156.047 126.306H217.106C219.315 126.306 221.106 128.097 221.106 130.306V130.461Z"/>
<path d="M160.402 51.1005C161.872 51.1005 163.197 51.9274 164.046 53.1278C167.644 58.2197 173.583 61.5458 180.301 61.5458C191.28 61.5454 200.181 52.6602 200.181 41.7001C200.181 30.7399 191.28 21.8548 180.301 21.8544C173.583 21.8544 167.644 25.181 164.045 30.2733C163.196 31.4737 161.871 32.2997 160.401 32.2997H156.047C153.837 32.2997 152.047 30.5088 152.047 28.2997L152.047 -28.4611C152.047 -30.6702 153.837 -32.4611 156.047 -32.4611H217.105C219.314 -32.4611 221.105 -30.6702 221.105 -28.4611V-28.3077C221.105 -26.8358 220.276 -25.509 219.073 -24.6613C213.973 -21.0687 210.643 -15.1419 210.642 -8.43762C210.642 2.52289 219.543 11.4081 230.523 11.4081C241.503 11.408 250.404 2.52281 250.404 -8.43762C250.404 -15.1427 247.072 -21.0708 241.971 -24.6632C240.768 -25.511 239.939 -26.8376 239.939 -28.3097V-28.4611C239.939 -30.6702 241.73 -32.4611 243.939 -32.4611H300.814C303.023 -32.4609 304.814 -30.6701 304.814 -28.4611V32.4774C304.814 34.6865 306.605 36.4774 308.814 36.4774H319.622C321.316 36.4774 322.784 35.3809 323.629 33.912C326.336 29.2034 331.422 26.0321 337.251 26.0321C345.919 26.0324 352.946 33.0472 352.946 41.7001C352.946 50.3526 345.919 57.3667 337.251 57.3671C331.422 57.3671 326.336 54.1954 323.629 49.4872C322.784 48.0184 321.316 46.9227 319.622 46.9227H308.814C306.605 46.9227 304.814 48.7136 304.814 50.9227V116.038C304.814 118.247 303.023 120.038 300.814 120.038H239.754C237.545 120.038 235.754 121.829 235.754 124.038V132.723C235.754 134.419 236.851 135.888 238.323 136.731C243.04 139.433 246.218 144.51 246.218 150.329C246.218 158.982 239.191 165.997 230.523 165.997C221.855 165.997 214.828 158.982 214.828 150.329C214.828 144.511 218.005 139.434 222.721 136.732C224.193 135.889 225.291 134.42 225.291 132.724V124.038C225.291 121.829 223.5 120.038 221.291 120.038H156.047C153.838 120.038 152.047 118.247 152.047 116.038V55.1005C152.047 52.8913 153.837 51.1005 156.047 51.1005H160.402Z"/>
<path d="M478.495 51.1005C479.965 51.1006 481.289 51.9275 482.137 53.1278C485.736 58.2198 491.675 61.5457 498.392 61.5458C509.372 61.5458 518.273 52.6605 518.273 41.7001C518.273 30.7396 509.372 21.8544 498.392 21.8544C491.675 21.8544 485.735 25.181 482.136 30.2733C481.288 31.4736 479.963 32.2997 478.493 32.2997H476.232C474.023 32.2997 472.232 30.5088 472.232 28.2997V-28.4611C472.232 -30.6702 474.023 -32.4611 476.232 -32.4611H539.383C541.593 -32.4611 543.383 -30.6702 543.383 -28.4611V-28.3097C543.383 -26.8375 542.555 -25.51 541.351 -24.6622C536.251 -21.0697 532.92 -15.1422 532.92 -8.43762C532.92 2.5228 541.821 11.4079 552.8 11.4081C563.78 11.4081 572.681 2.52289 572.681 -8.43762C572.681 -15.142 569.35 -21.0687 564.251 -24.6613C563.047 -25.509 562.219 -26.8358 562.218 -28.3077V-28.4611C562.218 -30.6702 564.009 -32.4611 566.218 -32.4611H621C623.209 -32.4609 625 -30.6701 625 -28.4611V116.038C625 118.247 623.209 120.038 621 120.038H562.033C559.824 120.038 558.033 121.829 558.033 124.038V132.724C558.033 134.419 559.131 135.888 560.602 136.731C565.319 139.434 568.497 144.511 568.497 150.329C568.497 158.982 561.469 165.997 552.801 165.997C544.133 165.997 537.106 158.982 537.106 150.329C537.106 144.511 540.283 139.434 545 136.731C546.471 135.888 547.57 134.419 547.57 132.723V124.038C547.57 121.829 545.779 120.038 543.57 120.038H476.232C474.023 120.038 472.232 118.247 472.232 116.038V55.1005C472.232 52.8913 474.023 51.1005 476.232 51.1005H478.495Z"/>
<path d="M426.193 200.466C426.193 191.813 433.22 184.798 441.888 184.798C447.716 184.798 452.802 187.97 455.509 192.679C456.354 194.148 457.822 195.243 459.516 195.243H468.233C470.442 195.243 472.233 193.453 472.233 191.243V130.306C472.233 128.097 474.024 126.306 476.233 126.306H539.384C541.593 126.306 543.384 128.097 543.384 130.306V130.458C543.384 131.93 542.555 133.257 541.352 134.105C536.252 137.697 532.92 143.626 532.92 150.33C532.921 161.29 541.822 170.176 552.801 170.176C563.781 170.176 572.681 161.29 572.682 150.33C572.682 143.626 569.351 137.697 564.251 134.105C563.048 133.257 562.219 131.93 562.219 130.458V130.306C562.219 128.097 564.01 126.306 566.219 126.306H621C623.209 126.306 625 128.097 625 130.306V274.805C625 277.014 623.209 278.805 621 278.805H562.034C559.825 278.805 558.034 280.596 558.034 282.805V291.491C558.034 293.187 559.132 294.656 560.604 295.499C565.321 298.202 568.497 303.279 568.497 309.097C568.497 317.75 561.47 324.764 552.802 324.764C544.134 324.764 537.107 317.75 537.107 309.097C537.107 303.279 540.284 298.201 545.001 295.499C546.473 294.656 547.571 293.187 547.571 291.491V282.805C547.571 280.596 545.78 278.805 543.571 278.805H476.233C474.024 278.805 472.233 277.014 472.233 274.805V209.689C472.233 207.48 470.442 205.689 468.233 205.689H459.516C457.822 205.689 456.354 206.785 455.509 208.254C452.802 212.962 447.716 216.134 441.888 216.134C433.22 216.134 426.193 209.119 426.193 200.466Z"/>
<path d="M478.493 368.633C479.963 368.633 481.288 369.459 482.136 370.659C485.735 375.752 491.675 379.078 498.392 379.078C509.372 379.078 518.273 370.193 518.273 359.233C518.273 348.272 509.372 339.387 498.392 339.387C491.675 339.387 485.735 342.713 482.136 347.805C481.288 349.005 479.963 349.832 478.493 349.832H476.232C474.023 349.832 472.232 348.041 472.232 345.832V289.071C472.232 286.862 474.023 285.071 476.232 285.071H539.383C541.593 285.071 543.383 286.862 543.383 289.071V289.225C543.383 290.697 542.555 292.023 541.351 292.871C536.251 296.464 532.92 302.391 532.92 309.096C532.92 320.056 541.821 328.941 552.8 328.942C563.78 328.942 572.681 320.056 572.681 309.096C572.681 302.391 569.351 296.464 564.251 292.871C563.047 292.023 562.218 290.697 562.218 289.225V289.071C562.218 286.862 564.009 285.071 566.218 285.071H621C623.209 285.072 625 286.862 625 289.071V433.57C625 435.779 623.209 437.57 621 437.57H476.232C474.023 437.57 472.232 435.78 472.232 433.57V372.633C472.232 370.424 474.023 368.633 476.232 368.633H478.493Z"/>
<path d="M311.092 289.071C311.092 286.862 312.883 285.072 315.092 285.071H382.43C384.639 285.071 386.43 283.281 386.43 281.071V270.296C386.43 268.6 385.332 267.131 383.861 266.288C379.144 263.586 375.967 258.509 375.967 252.692C375.967 244.039 382.994 237.024 391.663 237.024C400.331 237.024 407.358 244.039 407.358 252.692C407.358 258.51 404.181 263.587 399.464 266.289C397.993 267.132 396.894 268.601 396.894 270.297V281.071C396.894 283.28 398.685 285.071 400.894 285.071H459.861C462.07 285.071 463.861 286.862 463.861 289.071V350.01C463.861 352.219 465.652 354.01 467.861 354.01H480.763C482.457 354.01 483.925 352.914 484.77 351.445C487.477 346.737 492.563 343.565 498.391 343.565C507.059 343.565 514.086 350.58 514.086 359.233C514.086 367.886 507.059 374.901 498.391 374.901C492.563 374.9 487.477 371.729 484.77 367.021C483.926 365.552 482.457 364.455 480.763 364.455H467.861C465.652 364.455 463.861 366.246 463.861 368.455V433.57C463.861 435.78 462.07 437.57 459.861 437.57H315.092C312.883 437.57 311.092 435.779 311.092 433.57V372.633C311.092 370.424 312.883 368.633 315.092 368.633H317.355C318.825 368.633 320.15 369.459 320.999 370.659C324.597 375.752 330.537 379.078 337.254 379.078C348.234 379.078 357.135 370.193 357.135 359.233C357.135 348.272 348.234 339.387 337.254 339.387C330.537 339.387 324.597 342.713 320.999 347.805C320.15 349.005 318.825 349.832 317.355 349.832H315.092C312.883 349.832 311.092 348.041 311.092 345.832V289.071Z"/>
<path d="M160.401 368.633C161.871 368.633 163.196 369.459 164.045 370.659C167.644 375.752 173.583 379.078 180.301 379.078C191.28 379.078 200.181 370.193 200.181 359.233C200.181 348.272 191.28 339.387 180.301 339.387C173.583 339.387 167.644 342.713 164.045 347.805C163.196 349.005 161.871 349.832 160.401 349.832H156.047C153.837 349.832 152.047 348.041 152.047 345.832V289.071C152.047 286.862 153.837 285.071 156.047 285.071H217.105C219.314 285.071 221.105 286.862 221.105 289.071V289.225C221.105 290.697 220.276 292.023 219.073 292.871C213.973 296.464 210.642 302.391 210.642 309.096C210.642 320.056 219.543 328.942 230.523 328.942C241.503 328.941 250.404 320.056 250.404 309.096C250.404 302.391 247.072 296.463 241.971 292.87C240.768 292.023 239.939 290.696 239.939 289.224V289.071C239.939 286.862 241.73 285.071 243.939 285.071H300.814C303.023 285.072 304.814 286.862 304.814 289.071V350.009C304.814 352.218 306.605 354.009 308.814 354.009H319.623C321.317 354.009 322.785 352.913 323.63 351.444C326.337 346.736 331.423 343.564 337.252 343.564C345.92 343.564 352.947 350.579 352.947 359.232C352.947 367.884 345.92 374.899 337.252 374.9C331.423 374.9 326.337 371.728 323.63 367.02C322.785 365.551 321.317 364.454 319.623 364.454H308.814C306.605 364.454 304.814 366.245 304.814 368.454V433.57C304.814 435.779 303.023 437.57 300.814 437.57H156.047C153.837 437.57 152.047 435.78 152.047 433.57V372.633C152.047 370.424 153.837 368.633 156.047 368.633H160.401Z"/>
<path d="M-6.99901 289.07C-6.99898 286.861 -5.20812 285.07 -2.99901 285.07H60.1524C62.3615 285.07 64.1524 283.28 64.1524 281.07V272.387C64.1523 270.691 63.0545 269.222 61.583 268.379C56.8662 265.677 53.6885 260.6 53.6885 254.781C53.6888 246.129 60.7158 239.115 69.3838 239.114C78.0519 239.114 85.0788 246.129 85.0791 254.781C85.0791 260.6 81.9015 265.677 77.1846 268.379C75.7132 269.222 74.6154 270.691 74.6152 272.387V281.07C74.6152 283.28 76.4061 285.07 78.6152 285.07H141.77C143.979 285.07 145.77 286.861 145.77 289.07V350.008C145.77 352.217 147.56 354.008 149.77 354.008H162.669C164.363 354.008 165.831 352.912 166.676 351.443C169.383 346.735 174.469 343.563 180.297 343.563C188.965 343.563 195.992 350.578 195.992 359.231C195.992 367.884 188.965 374.899 180.297 374.899C174.469 374.898 169.383 371.727 166.676 367.019C165.831 365.55 164.363 364.453 162.669 364.453H149.77C147.56 364.453 145.77 366.244 145.77 368.453V433.569C145.77 435.779 143.979 437.569 141.77 437.569H-2.999C-5.20813 437.569 -6.999 435.779 -6.999 433.569L-6.99901 289.07Z"/>
<path d="M478.493 -107.667C479.963 -107.667 481.288 -106.84 482.136 -105.639C485.735 -100.547 491.675 -97.2212 498.392 -97.2212C509.372 -97.2212 518.273 -106.106 518.273 -117.067C518.273 -128.027 509.372 -136.913 498.392 -136.913C491.675 -136.913 485.735 -133.586 482.136 -128.494C481.288 -127.293 479.963 -126.467 478.493 -126.467H476.232C474.023 -126.467 472.232 -128.258 472.232 -130.467V-187.227C472.232 -189.436 474.023 -191.227 476.232 -191.227L539.383 -191.227C541.593 -191.227 543.383 -189.436 543.383 -187.227V-187.075C543.383 -185.603 542.555 -184.276 541.351 -183.428C536.251 -179.836 532.92 -173.908 532.92 -167.204C532.92 -156.243 541.821 -147.358 552.8 -147.358C563.78 -147.358 572.681 -156.243 572.681 -167.204C572.681 -173.908 569.35 -179.835 564.251 -183.427C563.047 -184.275 562.219 -185.602 562.218 -187.074V-187.227C562.218 -189.436 564.009 -191.227 566.218 -191.227L621 -191.227C623.209 -191.227 625 -189.436 625 -187.227V-42.728C625 -40.5189 623.209 -38.7281 621 -38.728H562.033C559.824 -38.728 558.033 -36.9372 558.033 -34.728V-26.0425C558.033 -24.3466 559.131 -22.8778 560.602 -22.0347C565.319 -19.3324 568.497 -14.2552 568.497 -8.43701C568.497 0.215889 561.47 7.23073 552.801 7.23096C544.133 7.23096 537.106 0.216028 537.106 -8.43701C537.106 -14.2553 540.283 -19.3325 545 -22.0347C546.471 -22.8777 547.57 -24.3465 547.57 -26.0425V-34.728C547.57 -36.9371 545.779 -38.728 543.57 -38.728H476.232C474.023 -38.728 472.232 -40.5189 472.232 -42.728V-103.667C472.232 -105.876 474.023 -107.667 476.232 -107.667H478.493Z"/>
<path d="M317.356 51.101C318.826 51.101 320.151 51.9269 320.999 53.1273C324.598 58.2194 330.537 61.5463 337.254 61.5463C348.234 61.5462 357.135 52.6607 357.135 41.7006C357.135 30.7401 348.234 21.855 337.254 21.8549C330.537 21.8549 324.597 25.1805 320.999 30.2728C320.15 31.4733 318.825 32.3002 317.355 32.3002H315.092C312.883 32.3002 311.092 30.5093 311.092 28.3002V-28.4606C311.092 -30.6696 312.883 -32.4603 315.092 -32.4606H382.431C384.64 -32.4606 386.431 -34.2515 386.431 -36.4606V-45.1461C386.431 -46.8421 385.333 -48.3108 383.862 -49.1539C379.145 -51.8561 375.967 -56.9334 375.967 -62.7516C375.967 -71.4044 382.995 -78.4192 391.663 -78.4196C400.331 -78.4196 407.358 -71.4046 407.358 -62.7516C407.358 -56.9338 404.182 -51.8571 399.465 -49.1549C397.994 -48.3118 396.895 -46.8431 396.895 -45.1471V-36.4606C396.895 -34.2517 398.686 -32.4608 400.895 -32.4606H459.861C462.07 -32.4606 463.861 -30.6697 463.861 -28.4606V32.4769C463.861 34.6858 465.652 36.4767 467.861 36.4769H480.763C482.457 36.4768 483.925 35.3803 484.77 33.9115C487.477 29.2032 492.563 26.0318 498.391 26.0316C507.059 26.0316 514.086 33.0466 514.086 41.6996C514.086 50.3525 507.059 57.3675 498.391 57.3675C492.563 57.3673 487.477 54.1951 484.77 49.4867C483.925 48.0179 482.457 46.9224 480.763 46.9222H467.861C465.652 46.9225 463.861 48.7132 463.861 50.9222V116.038C463.861 118.248 462.07 120.038 459.861 120.038H403.144C402.004 120.038 401.081 119.115 401.081 117.975C401.081 116.503 401.909 115.176 403.113 114.328C408.213 110.736 411.543 104.808 411.543 98.1029C411.543 87.1426 402.642 78.2572 391.663 78.2572C380.683 78.2572 371.782 87.1426 371.782 98.1029C371.782 104.808 375.113 110.737 380.213 114.329C381.417 115.177 382.246 116.504 382.246 117.976C382.246 119.115 381.322 120.038 380.183 120.038H315.092C312.883 120.038 311.092 118.247 311.092 116.038V55.101C311.092 52.8918 312.883 51.101 315.092 51.101H317.356Z"/>
<path d="M321.541 -109.754C323.011 -109.754 324.337 -108.928 325.185 -107.728C328.784 -102.636 334.723 -99.309 341.44 -99.309C352.42 -99.3091 361.321 -108.195 361.321 -119.156C361.321 -130.116 352.419 -139.001 341.44 -139.001C334.723 -139.001 328.784 -135.675 325.185 -130.583C324.337 -129.383 323.011 -128.556 321.541 -128.556H315.092C312.883 -128.556 311.092 -130.347 311.092 -132.556V-189.316C311.092 -191.525 312.883 -193.316 315.092 -193.316L459.861 -193.316C462.07 -193.316 463.861 -191.525 463.861 -189.316V-126.288C463.861 -124.079 465.652 -122.289 467.861 -122.288H480.762C482.457 -122.288 483.925 -123.385 484.77 -124.854C487.477 -129.562 492.563 -132.734 498.391 -132.734C507.059 -132.734 514.086 -125.72 514.086 -117.067C514.086 -108.414 507.059 -101.399 498.391 -101.399C492.563 -101.399 487.477 -104.57 484.77 -109.279C483.926 -110.748 482.457 -111.844 480.763 -111.844H467.861C465.652 -111.844 463.861 -110.053 463.861 -107.844V-44.8168C463.861 -42.6076 462.07 -40.8168 459.861 -40.8168H403.144C402.004 -40.8168 401.081 -41.7406 401.081 -42.8803C401.081 -44.3523 401.909 -45.679 403.113 -46.5267C408.212 -50.1193 411.543 -56.047 411.543 -62.7514C411.543 -73.7117 402.642 -82.598 391.663 -82.598C380.683 -82.598 371.782 -73.7117 371.782 -62.7514C371.782 -56.0465 375.113 -50.1183 380.213 -46.5258C381.417 -45.678 382.246 -44.3514 382.246 -42.8793C382.246 -41.7402 381.322 -40.8168 380.183 -40.8168H315.092C312.883 -40.817 311.092 -42.6078 311.092 -44.8168V-105.754C311.092 -107.963 312.883 -109.754 315.092 -109.754H321.541Z"/>
<path d="M141.769 -195.405C143.978 -195.405 145.769 -193.614 145.769 -191.405V-46.9062C145.769 -44.6971 143.978 -42.9062 141.769 -42.9062H82.8018C80.5926 -42.9062 78.8018 -44.6971 78.8018 -46.9062V-47.0586C78.8018 -48.5307 79.6305 -49.8573 80.834 -50.7051C85.9337 -54.2976 89.2646 -60.2251 89.2646 -66.9297C89.2645 -77.8899 80.3642 -86.775 69.3848 -86.7754C58.405 -86.7754 49.504 -77.8901 49.5039 -66.9297C49.5039 -60.225 52.8347 -54.2976 57.9346 -50.7051C59.1379 -49.8573 59.9668 -48.5306 59.9668 -47.0586V-46.9062C59.9668 -44.6971 58.1759 -42.9062 55.9668 -42.9062H-3C-5.20914 -42.9062 -7 -44.6971 -7 -46.9062V-191.405C-7 -193.614 -5.20914 -195.405 -3 -195.405H141.769Z"/>
<path d="M230.523 7.23096C239.191 7.23077 246.218 0.215884 246.218 -8.43701C246.218 -14.2551 243.041 -19.3316 238.324 -22.0337C236.852 -22.8767 235.755 -24.3456 235.755 -26.0415V-36.8169C235.755 -39.026 237.545 -40.8169 239.755 -40.8169H300.814C303.023 -40.817 304.814 -42.6079 304.814 -44.8169V-189.316C304.814 -191.525 303.023 -193.316 300.814 -193.316H243.94C241.731 -193.316 239.94 -191.525 239.94 -189.316V-189.165C239.94 -187.692 240.769 -186.366 241.972 -185.518C247.073 -181.925 250.404 -175.997 250.404 -169.292C250.404 -158.332 241.503 -149.447 230.523 -149.447C219.543 -149.447 210.642 -158.332 210.642 -169.292C210.642 -175.997 213.973 -181.925 219.073 -185.517C220.276 -186.365 221.105 -187.692 221.105 -189.164V-189.316C221.105 -191.525 219.314 -193.316 217.105 -193.316H156.047C153.837 -193.316 152.047 -191.525 152.047 -189.316V-44.8169C152.047 -42.6078 153.837 -40.8169 156.047 -40.8169H221.291C223.5 -40.8168 225.291 -39.026 225.291 -36.8169V-26.0415C225.291 -24.3457 224.193 -22.8768 222.721 -22.0337C218.005 -19.3315 214.828 -14.2549 214.828 -8.43701C214.828 0.216002 221.855 7.23096 230.523 7.23096Z"/>
</mask>
<path d="M69.3828 -82.5978C78.0511 -82.5978 85.0781 -75.5828 85.0781 -66.9298C85.0781 -61.1116 81.9004 -56.0351 77.1836 -53.3331C75.7121 -52.4901 74.6144 -51.0211 74.6143 -49.3253V-38.5499C74.6143 -36.3408 76.4051 -34.5499 78.6143 -34.5499H141.769C143.978 -34.5499 145.769 -32.7591 145.769 -30.5499V32.4774C145.769 34.6866 147.559 36.4774 149.769 36.4774H162.669C164.363 36.4774 165.831 35.381 166.676 33.912C169.383 29.2036 174.469 26.0322 180.297 26.0321C188.965 26.0321 195.992 33.047 195.992 41.7001C195.992 50.3529 188.965 57.3671 180.297 57.3671C174.469 57.3669 169.384 54.1953 166.677 49.4872C165.832 48.0185 164.364 46.9227 162.67 46.9227H149.769C147.559 46.9227 145.769 48.7136 145.769 50.9227V113.949C145.769 116.158 143.978 117.949 141.769 117.949H82.8018C80.5926 117.949 78.8018 116.158 78.8018 113.949V113.796C78.8019 112.324 79.6306 110.998 80.834 110.15C85.934 106.558 89.2655 100.63 89.2656 93.9257C89.2656 82.9654 80.3643 74.0803 69.3848 74.08C58.4049 74.08 49.5039 82.9651 49.5039 93.9257C49.504 100.63 52.8348 106.558 57.9346 110.15C59.1378 110.998 59.9667 112.324 59.9668 113.796V113.949C59.9668 116.158 58.1759 117.949 55.9668 117.949H-3C-5.20914 117.949 -7 116.158 -7 113.949V-30.5499C-7 -32.7591 -5.20914 -34.5499 -3 -34.5499H60.1514C62.3605 -34.5499 64.1514 -36.3408 64.1514 -38.5499V-49.3253C64.1513 -51.0212 63.0535 -52.4901 61.582 -53.3331C56.8653 -56.0352 53.6875 -61.1117 53.6875 -66.9298C53.6875 -75.5828 60.7146 -82.5976 69.3828 -82.5978Z" fill="white"/>
<path d="M69.3848 78.2584C78.0528 78.2586 85.0799 85.2727 85.0801 93.9254C85.0801 99.7436 81.9024 104.821 77.1855 107.523C75.7141 108.366 74.6163 109.835 74.6162 111.531V122.305C74.6162 124.514 76.4071 126.305 78.6162 126.305H141.769C143.978 126.305 145.769 128.096 145.769 130.305V178.742C145.769 182.548 140.02 184.952 136.412 183.741C134.421 183.072 132.289 182.71 130.072 182.71C119.093 182.71 110.192 191.595 110.191 202.555C110.192 213.516 119.093 222.401 130.072 222.401C132.289 222.401 134.421 222.039 136.412 221.37C140.02 220.158 145.769 222.562 145.769 226.368V274.805C145.769 277.014 143.978 278.805 141.769 278.805H82.8018C80.5926 278.805 78.8018 277.014 78.8018 274.805V274.652C78.8018 273.18 79.6305 271.853 80.834 271.005C85.9337 267.413 89.2646 261.485 89.2646 254.781C89.2646 243.821 80.3643 234.936 69.3848 234.935C58.4049 234.935 49.5039 243.82 49.5039 254.781C49.504 261.486 52.8347 267.413 57.9346 271.005C59.1379 271.853 59.9668 273.18 59.9668 274.652V274.805C59.9668 277.014 58.1759 278.805 55.9668 278.805H-3C-5.20914 278.805 -7 277.014 -7 274.805V130.305C-6.99995 128.096 -5.20911 126.305 -3 126.305H60.1523C62.3615 126.305 64.1523 124.514 64.1523 122.305V111.53C64.1523 109.834 63.0545 108.365 61.583 107.522C56.8665 104.82 53.6895 99.7434 53.6895 93.9254C53.6897 85.2726 60.7166 78.2584 69.3848 78.2584Z" fill="white"/>
<path d="M221.106 130.461C221.106 131.934 220.277 133.26 219.074 134.108C213.974 137.701 210.643 143.628 210.643 150.333C210.643 161.293 219.544 170.178 230.524 170.178C241.503 170.178 250.404 161.293 250.405 150.333C250.405 143.627 247.073 137.699 241.972 134.107C240.768 133.259 239.94 131.933 239.94 130.461V130.306C239.94 128.097 241.731 126.306 243.94 126.306H300.815C303.024 126.306 304.815 128.097 304.815 130.306V191.08C304.815 192.226 303.886 193.155 302.74 193.155C301.27 193.155 299.944 192.328 299.096 191.128C295.497 186.036 289.559 182.71 282.842 182.71C271.862 182.71 262.961 191.595 262.961 202.555C262.961 213.516 271.862 222.401 282.842 222.401C289.559 222.401 295.497 219.074 299.096 213.982C299.944 212.782 301.27 211.956 302.74 211.956C303.886 211.956 304.815 212.885 304.815 214.031V274.805C304.815 277.014 303.024 278.805 300.815 278.805H239.755C237.546 278.805 235.755 280.596 235.755 282.805V291.49C235.755 293.186 236.854 294.655 238.325 295.498C243.042 298.2 246.219 303.277 246.219 309.095C246.219 317.748 239.192 324.763 230.524 324.763C221.856 324.763 214.828 317.748 214.828 309.095C214.828 303.277 218.006 298.2 222.723 295.498C224.194 294.655 225.292 293.186 225.292 291.49V282.805C225.292 280.596 223.501 278.805 221.292 278.805H156.047C153.838 278.805 152.047 277.014 152.047 274.805V211.779C152.047 209.57 150.256 207.779 148.047 207.779H147.7C146.006 207.779 144.538 208.875 143.694 210.343C140.987 215.052 135.902 218.224 130.074 218.224C121.405 218.224 114.378 211.209 114.378 202.556C114.378 193.903 121.405 186.888 130.074 186.888C135.902 186.888 140.988 190.06 143.695 194.768C144.539 196.237 146.007 197.334 147.701 197.334H148.047C150.256 197.334 152.047 195.543 152.047 193.334V130.306C152.047 128.097 153.838 126.306 156.047 126.306H217.106C219.315 126.306 221.106 128.097 221.106 130.306V130.461Z" fill="white"/>
<path d="M160.402 51.1005C161.872 51.1005 163.197 51.9274 164.046 53.1278C167.644 58.2197 173.583 61.5458 180.301 61.5458C191.28 61.5454 200.181 52.6602 200.181 41.7001C200.181 30.7399 191.28 21.8548 180.301 21.8544C173.583 21.8544 167.644 25.181 164.045 30.2733C163.196 31.4737 161.871 32.2997 160.401 32.2997H156.047C153.837 32.2997 152.047 30.5088 152.047 28.2997L152.047 -28.4611C152.047 -30.6702 153.837 -32.4611 156.047 -32.4611H217.105C219.314 -32.4611 221.105 -30.6702 221.105 -28.4611V-28.3077C221.105 -26.8358 220.276 -25.509 219.073 -24.6613C213.973 -21.0687 210.643 -15.1419 210.642 -8.43762C210.642 2.52289 219.543 11.4081 230.523 11.4081C241.503 11.408 250.404 2.52281 250.404 -8.43762C250.404 -15.1427 247.072 -21.0708 241.971 -24.6632C240.768 -25.511 239.939 -26.8376 239.939 -28.3097V-28.4611C239.939 -30.6702 241.73 -32.4611 243.939 -32.4611H300.814C303.023 -32.4609 304.814 -30.6701 304.814 -28.4611V32.4774C304.814 34.6865 306.605 36.4774 308.814 36.4774H319.622C321.316 36.4774 322.784 35.3809 323.629 33.912C326.336 29.2034 331.422 26.0321 337.251 26.0321C345.919 26.0324 352.946 33.0472 352.946 41.7001C352.946 50.3526 345.919 57.3667 337.251 57.3671C331.422 57.3671 326.336 54.1954 323.629 49.4872C322.784 48.0184 321.316 46.9227 319.622 46.9227H308.814C306.605 46.9227 304.814 48.7136 304.814 50.9227V116.038C304.814 118.247 303.023 120.038 300.814 120.038H239.754C237.545 120.038 235.754 121.829 235.754 124.038V132.723C235.754 134.419 236.851 135.888 238.323 136.731C243.04 139.433 246.218 144.51 246.218 150.329C246.218 158.982 239.191 165.997 230.523 165.997C221.855 165.997 214.828 158.982 214.828 150.329C214.828 144.511 218.005 139.434 222.721 136.732C224.193 135.889 225.291 134.42 225.291 132.724V124.038C225.291 121.829 223.5 120.038 221.291 120.038H156.047C153.838 120.038 152.047 118.247 152.047 116.038V55.1005C152.047 52.8913 153.837 51.1005 156.047 51.1005H160.402Z" fill="white"/>
<path d="M478.495 51.1005C479.965 51.1006 481.289 51.9275 482.137 53.1278C485.736 58.2198 491.675 61.5457 498.392 61.5458C509.372 61.5458 518.273 52.6605 518.273 41.7001C518.273 30.7396 509.372 21.8544 498.392 21.8544C491.675 21.8544 485.735 25.181 482.136 30.2733C481.288 31.4736 479.963 32.2997 478.493 32.2997H476.232C474.023 32.2997 472.232 30.5088 472.232 28.2997V-28.4611C472.232 -30.6702 474.023 -32.4611 476.232 -32.4611H539.383C541.593 -32.4611 543.383 -30.6702 543.383 -28.4611V-28.3097C543.383 -26.8375 542.555 -25.51 541.351 -24.6622C536.251 -21.0697 532.92 -15.1422 532.92 -8.43762C532.92 2.5228 541.821 11.4079 552.8 11.4081C563.78 11.4081 572.681 2.52289 572.681 -8.43762C572.681 -15.142 569.35 -21.0687 564.251 -24.6613C563.047 -25.509 562.219 -26.8358 562.218 -28.3077V-28.4611C562.218 -30.6702 564.009 -32.4611 566.218 -32.4611H621C623.209 -32.4609 625 -30.6701 625 -28.4611V116.038C625 118.247 623.209 120.038 621 120.038H562.033C559.824 120.038 558.033 121.829 558.033 124.038V132.724C558.033 134.419 559.131 135.888 560.602 136.731C565.319 139.434 568.497 144.511 568.497 150.329C568.497 158.982 561.469 165.997 552.801 165.997C544.133 165.997 537.106 158.982 537.106 150.329C537.106 144.511 540.283 139.434 545 136.731C546.471 135.888 547.57 134.419 547.57 132.723V124.038C547.57 121.829 545.779 120.038 543.57 120.038H476.232C474.023 120.038 472.232 118.247 472.232 116.038V55.1005C472.232 52.8913 474.023 51.1005 476.232 51.1005H478.495Z" fill="white"/>
<path d="M426.193 200.466C426.193 191.813 433.22 184.798 441.888 184.798C447.716 184.798 452.802 187.97 455.509 192.679C456.354 194.148 457.822 195.243 459.516 195.243H468.233C470.442 195.243 472.233 193.453 472.233 191.243V130.306C472.233 128.097 474.024 126.306 476.233 126.306H539.384C541.593 126.306 543.384 128.097 543.384 130.306V130.458C543.384 131.93 542.555 133.257 541.352 134.105C536.252 137.697 532.92 143.626 532.92 150.33C532.921 161.29 541.822 170.176 552.801 170.176C563.781 170.176 572.681 161.29 572.682 150.33C572.682 143.626 569.351 137.697 564.251 134.105C563.048 133.257 562.219 131.93 562.219 130.458V130.306C562.219 128.097 564.01 126.306 566.219 126.306H621C623.209 126.306 625 128.097 625 130.306V274.805C625 277.014 623.209 278.805 621 278.805H562.034C559.825 278.805 558.034 280.596 558.034 282.805V291.491C558.034 293.187 559.132 294.656 560.604 295.499C565.321 298.202 568.497 303.279 568.497 309.097C568.497 317.75 561.47 324.764 552.802 324.764C544.134 324.764 537.107 317.75 537.107 309.097C537.107 303.279 540.284 298.201 545.001 295.499C546.473 294.656 547.571 293.187 547.571 291.491V282.805C547.571 280.596 545.78 278.805 543.571 278.805H476.233C474.024 278.805 472.233 277.014 472.233 274.805V209.689C472.233 207.48 470.442 205.689 468.233 205.689H459.516C457.822 205.689 456.354 206.785 455.509 208.254C452.802 212.962 447.716 216.134 441.888 216.134C433.22 216.134 426.193 209.119 426.193 200.466Z" fill="white"/>
<path d="M478.493 368.633C479.963 368.633 481.288 369.459 482.136 370.659C485.735 375.752 491.675 379.078 498.392 379.078C509.372 379.078 518.273 370.193 518.273 359.233C518.273 348.272 509.372 339.387 498.392 339.387C491.675 339.387 485.735 342.713 482.136 347.805C481.288 349.005 479.963 349.832 478.493 349.832H476.232C474.023 349.832 472.232 348.041 472.232 345.832V289.071C472.232 286.862 474.023 285.071 476.232 285.071H539.383C541.593 285.071 543.383 286.862 543.383 289.071V289.225C543.383 290.697 542.555 292.023 541.351 292.871C536.251 296.464 532.92 302.391 532.92 309.096C532.92 320.056 541.821 328.941 552.8 328.942C563.78 328.942 572.681 320.056 572.681 309.096C572.681 302.391 569.351 296.464 564.251 292.871C563.047 292.023 562.218 290.697 562.218 289.225V289.071C562.218 286.862 564.009 285.071 566.218 285.071H621C623.209 285.072 625 286.862 625 289.071V433.57C625 435.779 623.209 437.57 621 437.57H476.232C474.023 437.57 472.232 435.78 472.232 433.57V372.633C472.232 370.424 474.023 368.633 476.232 368.633H478.493Z" fill="white"/>
<path d="M311.092 289.071C311.092 286.862 312.883 285.072 315.092 285.071H382.43C384.639 285.071 386.43 283.281 386.43 281.071V270.296C386.43 268.6 385.332 267.131 383.861 266.288C379.144 263.586 375.967 258.509 375.967 252.692C375.967 244.039 382.994 237.024 391.663 237.024C400.331 237.024 407.358 244.039 407.358 252.692C407.358 258.51 404.181 263.587 399.464 266.289C397.993 267.132 396.894 268.601 396.894 270.297V281.071C396.894 283.28 398.685 285.071 400.894 285.071H459.861C462.07 285.071 463.861 286.862 463.861 289.071V350.01C463.861 352.219 465.652 354.01 467.861 354.01H480.763C482.457 354.01 483.925 352.914 484.77 351.445C487.477 346.737 492.563 343.565 498.391 343.565C507.059 343.565 514.086 350.58 514.086 359.233C514.086 367.886 507.059 374.901 498.391 374.901C492.563 374.9 487.477 371.729 484.77 367.021C483.926 365.552 482.457 364.455 480.763 364.455H467.861C465.652 364.455 463.861 366.246 463.861 368.455V433.57C463.861 435.78 462.07 437.57 459.861 437.57H315.092C312.883 437.57 311.092 435.779 311.092 433.57V372.633C311.092 370.424 312.883 368.633 315.092 368.633H317.355C318.825 368.633 320.15 369.459 320.999 370.659C324.597 375.752 330.537 379.078 337.254 379.078C348.234 379.078 357.135 370.193 357.135 359.233C357.135 348.272 348.234 339.387 337.254 339.387C330.537 339.387 324.597 342.713 320.999 347.805C320.15 349.005 318.825 349.832 317.355 349.832H315.092C312.883 349.832 311.092 348.041 311.092 345.832V289.071Z" fill="white"/>
<path d="M160.401 368.633C161.871 368.633 163.196 369.459 164.045 370.659C167.644 375.752 173.583 379.078 180.301 379.078C191.28 379.078 200.181 370.193 200.181 359.233C200.181 348.272 191.28 339.387 180.301 339.387C173.583 339.387 167.644 342.713 164.045 347.805C163.196 349.005 161.871 349.832 160.401 349.832H156.047C153.837 349.832 152.047 348.041 152.047 345.832V289.071C152.047 286.862 153.837 285.071 156.047 285.071H217.105C219.314 285.071 221.105 286.862 221.105 289.071V289.225C221.105 290.697 220.276 292.023 219.073 292.871C213.973 296.464 210.642 302.391 210.642 309.096C210.642 320.056 219.543 328.942 230.523 328.942C241.503 328.941 250.404 320.056 250.404 309.096C250.404 302.391 247.072 296.463 241.971 292.87C240.768 292.023 239.939 290.696 239.939 289.224V289.071C239.939 286.862 241.73 285.071 243.939 285.071H300.814C303.023 285.072 304.814 286.862 304.814 289.071V350.009C304.814 352.218 306.605 354.009 308.814 354.009H319.623C321.317 354.009 322.785 352.913 323.63 351.444C326.337 346.736 331.423 343.564 337.252 343.564C345.92 343.564 352.947 350.579 352.947 359.232C352.947 367.884 345.92 374.899 337.252 374.9C331.423 374.9 326.337 371.728 323.63 367.02C322.785 365.551 321.317 364.454 319.623 364.454H308.814C306.605 364.454 304.814 366.245 304.814 368.454V433.57C304.814 435.779 303.023 437.57 300.814 437.57H156.047C153.837 437.57 152.047 435.78 152.047 433.57V372.633C152.047 370.424 153.837 368.633 156.047 368.633H160.401Z" fill="white"/>
<path d="M-6.99901 289.07C-6.99898 286.861 -5.20812 285.07 -2.99901 285.07H60.1524C62.3615 285.07 64.1524 283.28 64.1524 281.07V272.387C64.1523 270.691 63.0545 269.222 61.583 268.379C56.8662 265.677 53.6885 260.6 53.6885 254.781C53.6888 246.129 60.7158 239.115 69.3838 239.114C78.0519 239.114 85.0788 246.129 85.0791 254.781C85.0791 260.6 81.9015 265.677 77.1846 268.379C75.7132 269.222 74.6154 270.691 74.6152 272.387V281.07C74.6152 283.28 76.4061 285.07 78.6152 285.07H141.77C143.979 285.07 145.77 286.861 145.77 289.07V350.008C145.77 352.217 147.56 354.008 149.77 354.008H162.669C164.363 354.008 165.831 352.912 166.676 351.443C169.383 346.735 174.469 343.563 180.297 343.563C188.965 343.563 195.992 350.578 195.992 359.231C195.992 367.884 188.965 374.899 180.297 374.899C174.469 374.898 169.383 371.727 166.676 367.019C165.831 365.55 164.363 364.453 162.669 364.453H149.77C147.56 364.453 145.77 366.244 145.77 368.453V433.569C145.77 435.779 143.979 437.569 141.77 437.569H-2.999C-5.20813 437.569 -6.999 435.779 -6.999 433.569L-6.99901 289.07Z" fill="white"/>
<path d="M478.493 -107.667C479.963 -107.667 481.288 -106.84 482.136 -105.639C485.735 -100.547 491.675 -97.2212 498.392 -97.2212C509.372 -97.2212 518.273 -106.106 518.273 -117.067C518.273 -128.027 509.372 -136.913 498.392 -136.913C491.675 -136.913 485.735 -133.586 482.136 -128.494C481.288 -127.293 479.963 -126.467 478.493 -126.467H476.232C474.023 -126.467 472.232 -128.258 472.232 -130.467V-187.227C472.232 -189.436 474.023 -191.227 476.232 -191.227L539.383 -191.227C541.593 -191.227 543.383 -189.436 543.383 -187.227V-187.075C543.383 -185.603 542.555 -184.276 541.351 -183.428C536.251 -179.836 532.92 -173.908 532.92 -167.204C532.92 -156.243 541.821 -147.358 552.8 -147.358C563.78 -147.358 572.681 -156.243 572.681 -167.204C572.681 -173.908 569.35 -179.835 564.251 -183.427C563.047 -184.275 562.219 -185.602 562.218 -187.074V-187.227C562.218 -189.436 564.009 -191.227 566.218 -191.227L621 -191.227C623.209 -191.227 625 -189.436 625 -187.227V-42.728C625 -40.5189 623.209 -38.7281 621 -38.728H562.033C559.824 -38.728 558.033 -36.9372 558.033 -34.728V-26.0425C558.033 -24.3466 559.131 -22.8778 560.602 -22.0347C565.319 -19.3324 568.497 -14.2552 568.497 -8.43701C568.497 0.215889 561.47 7.23073 552.801 7.23096C544.133 7.23096 537.106 0.216028 537.106 -8.43701C537.106 -14.2553 540.283 -19.3325 545 -22.0347C546.471 -22.8777 547.57 -24.3465 547.57 -26.0425V-34.728C547.57 -36.9371 545.779 -38.728 543.57 -38.728H476.232C474.023 -38.728 472.232 -40.5189 472.232 -42.728V-103.667C472.232 -105.876 474.023 -107.667 476.232 -107.667H478.493Z" fill="white"/>
<path d="M317.356 51.101C318.826 51.101 320.151 51.9269 320.999 53.1273C324.598 58.2194 330.537 61.5463 337.254 61.5463C348.234 61.5462 357.135 52.6607 357.135 41.7006C357.135 30.7401 348.234 21.855 337.254 21.8549C330.537 21.8549 324.597 25.1805 320.999 30.2728C320.15 31.4733 318.825 32.3002 317.355 32.3002H315.092C312.883 32.3002 311.092 30.5093 311.092 28.3002V-28.4606C311.092 -30.6696 312.883 -32.4603 315.092 -32.4606H382.431C384.64 -32.4606 386.431 -34.2515 386.431 -36.4606V-45.1461C386.431 -46.8421 385.333 -48.3108 383.862 -49.1539C379.145 -51.8561 375.967 -56.9334 375.967 -62.7516C375.967 -71.4044 382.995 -78.4192 391.663 -78.4196C400.331 -78.4196 407.358 -71.4046 407.358 -62.7516C407.358 -56.9338 404.182 -51.8571 399.465 -49.1549C397.994 -48.3118 396.895 -46.8431 396.895 -45.1471V-36.4606C396.895 -34.2517 398.686 -32.4608 400.895 -32.4606H459.861C462.07 -32.4606 463.861 -30.6697 463.861 -28.4606V32.4769C463.861 34.6858 465.652 36.4767 467.861 36.4769H480.763C482.457 36.4768 483.925 35.3803 484.77 33.9115C487.477 29.2032 492.563 26.0318 498.391 26.0316C507.059 26.0316 514.086 33.0466 514.086 41.6996C514.086 50.3525 507.059 57.3675 498.391 57.3675C492.563 57.3673 487.477 54.1951 484.77 49.4867C483.925 48.0179 482.457 46.9224 480.763 46.9222H467.861C465.652 46.9225 463.861 48.7132 463.861 50.9222V116.038C463.861 118.248 462.07 120.038 459.861 120.038H403.144C402.004 120.038 401.081 119.115 401.081 117.975C401.081 116.503 401.909 115.176 403.113 114.328C408.213 110.736 411.543 104.808 411.543 98.1029C411.543 87.1426 402.642 78.2572 391.663 78.2572C380.683 78.2572 371.782 87.1426 371.782 98.1029C371.782 104.808 375.113 110.737 380.213 114.329C381.417 115.177 382.246 116.504 382.246 117.976C382.246 119.115 381.322 120.038 380.183 120.038H315.092C312.883 120.038 311.092 118.247 311.092 116.038V55.101C311.092 52.8918 312.883 51.101 315.092 51.101H317.356Z" fill="white"/>
<path d="M321.541 -109.754C323.011 -109.754 324.337 -108.928 325.185 -107.728C328.784 -102.636 334.723 -99.309 341.44 -99.309C352.42 -99.3091 361.321 -108.195 361.321 -119.156C361.321 -130.116 352.419 -139.001 341.44 -139.001C334.723 -139.001 328.784 -135.675 325.185 -130.583C324.337 -129.383 323.011 -128.556 321.541 -128.556H315.092C312.883 -128.556 311.092 -130.347 311.092 -132.556V-189.316C311.092 -191.525 312.883 -193.316 315.092 -193.316L459.861 -193.316C462.07 -193.316 463.861 -191.525 463.861 -189.316V-126.288C463.861 -124.079 465.652 -122.289 467.861 -122.288H480.762C482.457 -122.288 483.925 -123.385 484.77 -124.854C487.477 -129.562 492.563 -132.734 498.391 -132.734C507.059 -132.734 514.086 -125.72 514.086 -117.067C514.086 -108.414 507.059 -101.399 498.391 -101.399C492.563 -101.399 487.477 -104.57 484.77 -109.279C483.926 -110.748 482.457 -111.844 480.763 -111.844H467.861C465.652 -111.844 463.861 -110.053 463.861 -107.844V-44.8168C463.861 -42.6076 462.07 -40.8168 459.861 -40.8168H403.144C402.004 -40.8168 401.081 -41.7406 401.081 -42.8803C401.081 -44.3523 401.909 -45.679 403.113 -46.5267C408.212 -50.1193 411.543 -56.047 411.543 -62.7514C411.543 -73.7117 402.642 -82.598 391.663 -82.598C380.683 -82.598 371.782 -73.7117 371.782 -62.7514C371.782 -56.0465 375.113 -50.1183 380.213 -46.5258C381.417 -45.678 382.246 -44.3514 382.246 -42.8793C382.246 -41.7402 381.322 -40.8168 380.183 -40.8168H315.092C312.883 -40.817 311.092 -42.6078 311.092 -44.8168V-105.754C311.092 -107.963 312.883 -109.754 315.092 -109.754H321.541Z" fill="white"/>
<path d="M141.769 -195.405C143.978 -195.405 145.769 -193.614 145.769 -191.405V-46.9062C145.769 -44.6971 143.978 -42.9062 141.769 -42.9062H82.8018C80.5926 -42.9062 78.8018 -44.6971 78.8018 -46.9062V-47.0586C78.8018 -48.5307 79.6305 -49.8573 80.834 -50.7051C85.9337 -54.2976 89.2646 -60.2251 89.2646 -66.9297C89.2645 -77.8899 80.3642 -86.775 69.3848 -86.7754C58.405 -86.7754 49.504 -77.8901 49.5039 -66.9297C49.5039 -60.225 52.8347 -54.2976 57.9346 -50.7051C59.1379 -49.8573 59.9668 -48.5306 59.9668 -47.0586V-46.9062C59.9668 -44.6971 58.1759 -42.9062 55.9668 -42.9062H-3C-5.20914 -42.9062 -7 -44.6971 -7 -46.9062V-191.405C-7 -193.614 -5.20914 -195.405 -3 -195.405H141.769Z" fill="white"/>
<path d="M230.523 7.23096C239.191 7.23077 246.218 0.215884 246.218 -8.43701C246.218 -14.2551 243.041 -19.3316 238.324 -22.0337C236.852 -22.8767 235.755 -24.3456 235.755 -26.0415V-36.8169C235.755 -39.026 237.545 -40.8169 239.755 -40.8169H300.814C303.023 -40.817 304.814 -42.6079 304.814 -44.8169V-189.316C304.814 -191.525 303.023 -193.316 300.814 -193.316H243.94C241.731 -193.316 239.94 -191.525 239.94 -189.316V-189.165C239.94 -187.692 240.769 -186.366 241.972 -185.518C247.073 -181.925 250.404 -175.997 250.404 -169.292C250.404 -158.332 241.503 -149.447 230.523 -149.447C219.543 -149.447 210.642 -158.332 210.642 -169.292C210.642 -175.997 213.973 -181.925 219.073 -185.517C220.276 -186.365 221.105 -187.692 221.105 -189.164V-189.316C221.105 -191.525 219.314 -193.316 217.105 -193.316H156.047C153.837 -193.316 152.047 -191.525 152.047 -189.316V-44.8169C152.047 -42.6078 153.837 -40.8169 156.047 -40.8169H221.291C223.5 -40.8168 225.291 -39.026 225.291 -36.8169V-26.0415C225.291 -24.3457 224.193 -22.8768 222.721 -22.0337C218.005 -19.3315 214.828 -14.2549 214.828 -8.43701C214.828 0.216002 221.855 7.23096 230.523 7.23096Z" fill="white"/>
<path d="M69.3828 -82.5978C78.0511 -82.5978 85.0781 -75.5828 85.0781 -66.9298C85.0781 -61.1116 81.9004 -56.0351 77.1836 -53.3331C75.7121 -52.4901 74.6144 -51.0211 74.6143 -49.3253V-38.5499C74.6143 -36.3408 76.4051 -34.5499 78.6143 -34.5499H141.769C143.978 -34.5499 145.769 -32.7591 145.769 -30.5499V32.4774C145.769 34.6866 147.559 36.4774 149.769 36.4774H162.669C164.363 36.4774 165.831 35.381 166.676 33.912C169.383 29.2036 174.469 26.0322 180.297 26.0321C188.965 26.0321 195.992 33.047 195.992 41.7001C195.992 50.3529 188.965 57.3671 180.297 57.3671C174.469 57.3669 169.384 54.1953 166.677 49.4872C165.832 48.0185 164.364 46.9227 162.67 46.9227H149.769C147.559 46.9227 145.769 48.7136 145.769 50.9227V113.949C145.769 116.158 143.978 117.949 141.769 117.949H82.8018C80.5926 117.949 78.8018 116.158 78.8018 113.949V113.796C78.8019 112.324 79.6306 110.998 80.834 110.15C85.934 106.558 89.2655 100.63 89.2656 93.9257C89.2656 82.9654 80.3643 74.0803 69.3848 74.08C58.4049 74.08 49.5039 82.9651 49.5039 93.9257C49.504 100.63 52.8348 106.558 57.9346 110.15C59.1378 110.998 59.9667 112.324 59.9668 113.796V113.949C59.9668 116.158 58.1759 117.949 55.9668 117.949H-3C-5.20914 117.949 -7 116.158 -7 113.949V-30.5499C-7 -32.7591 -5.20914 -34.5499 -3 -34.5499H60.1514C62.3605 -34.5499 64.1514 -36.3408 64.1514 -38.5499V-49.3253C64.1513 -51.0212 63.0535 -52.4901 61.582 -53.3331C56.8653 -56.0352 53.6875 -61.1117 53.6875 -66.9298C53.6875 -75.5828 60.7146 -82.5976 69.3828 -82.5978Z" stroke="#78716C" stroke-opacity="0.1" stroke-width="2" mask="url(#path-1-inside-1_855_23892)"/>
<path d="M69.3848 78.2584C78.0528 78.2586 85.0799 85.2727 85.0801 93.9254C85.0801 99.7436 81.9024 104.821 77.1855 107.523C75.7141 108.366 74.6163 109.835 74.6162 111.531V122.305C74.6162 124.514 76.4071 126.305 78.6162 126.305H141.769C143.978 126.305 145.769 128.096 145.769 130.305V178.742C145.769 182.548 140.02 184.952 136.412 183.741C134.421 183.072 132.289 182.71 130.072 182.71C119.093 182.71 110.192 191.595 110.191 202.555C110.192 213.516 119.093 222.401 130.072 222.401C132.289 222.401 134.421 222.039 136.412 221.37C140.02 220.158 145.769 222.562 145.769 226.368V274.805C145.769 277.014 143.978 278.805 141.769 278.805H82.8018C80.5926 278.805 78.8018 277.014 78.8018 274.805V274.652C78.8018 273.18 79.6305 271.853 80.834 271.005C85.9337 267.413 89.2646 261.485 89.2646 254.781C89.2646 243.821 80.3643 234.936 69.3848 234.935C58.4049 234.935 49.5039 243.82 49.5039 254.781C49.504 261.486 52.8347 267.413 57.9346 271.005C59.1379 271.853 59.9668 273.18 59.9668 274.652V274.805C59.9668 277.014 58.1759 278.805 55.9668 278.805H-3C-5.20914 278.805 -7 277.014 -7 274.805V130.305C-6.99995 128.096 -5.20911 126.305 -3 126.305H60.1523C62.3615 126.305 64.1523 124.514 64.1523 122.305V111.53C64.1523 109.834 63.0545 108.365 61.583 107.522C56.8665 104.82 53.6895 99.7434 53.6895 93.9254C53.6897 85.2726 60.7166 78.2584 69.3848 78.2584Z" stroke="#78716C" stroke-opacity="0.1" stroke-width="2" mask="url(#path-1-inside-1_855_23892)"/>
<path d="M221.106 130.461C221.106 131.934 220.277 133.26 219.074 134.108C213.974 137.701 210.643 143.628 210.643 150.333C210.643 161.293 219.544 170.178 230.524 170.178C241.503 170.178 250.404 161.293 250.405 150.333C250.405 143.627 247.073 137.699 241.972 134.107C240.768 133.259 239.94 131.933 239.94 130.461V130.306C239.94 128.097 241.731 126.306 243.94 126.306H300.815C303.024 126.306 304.815 128.097 304.815 130.306V191.08C304.815 192.226 303.886 193.155 302.74 193.155C301.27 193.155 299.944 192.328 299.096 191.128C295.497 186.036 289.559 182.71 282.842 182.71C271.862 182.71 262.961 191.595 262.961 202.555C262.961 213.516 271.862 222.401 282.842 222.401C289.559 222.401 295.497 219.074 299.096 213.982C299.944 212.782 301.27 211.956 302.74 211.956C303.886 211.956 304.815 212.885 304.815 214.031V274.805C304.815 277.014 303.024 278.805 300.815 278.805H239.755C237.546 278.805 235.755 280.596 235.755 282.805V291.49C235.755 293.186 236.854 294.655 238.325 295.498C243.042 298.2 246.219 303.277 246.219 309.095C246.219 317.748 239.192 324.763 230.524 324.763C221.856 324.763 214.828 317.748 214.828 309.095C214.828 303.277 218.006 298.2 222.723 295.498C224.194 294.655 225.292 293.186 225.292 291.49V282.805C225.292 280.596 223.501 278.805 221.292 278.805H156.047C153.838 278.805 152.047 277.014 152.047 274.805V211.779C152.047 209.57 150.256 207.779 148.047 207.779H147.7C146.006 207.779 144.538 208.875 143.694 210.343C140.987 215.052 135.902 218.224 130.074 218.224C121.405 218.224 114.378 211.209 114.378 202.556C114.378 193.903 121.405 186.888 130.074 186.888C135.902 186.888 140.988 190.06 143.695 194.768C144.539 196.237 146.007 197.334 147.701 197.334H148.047C150.256 197.334 152.047 195.543 152.047 193.334V130.306C152.047 128.097 153.838 126.306 156.047 126.306H217.106C219.315 126.306 221.106 128.097 221.106 130.306V130.461Z" stroke="#78716C" stroke-opacity="0.1" stroke-width="2" mask="url(#path-1-inside-1_855_23892)"/>
<path d="M160.402 51.1005C161.872 51.1005 163.197 51.9274 164.046 53.1278C167.644 58.2197 173.583 61.5458 180.301 61.5458C191.28 61.5454 200.181 52.6602 200.181 41.7001C200.181 30.7399 191.28 21.8548 180.301 21.8544C173.583 21.8544 167.644 25.181 164.045 30.2733C163.196 31.4737 161.871 32.2997 160.401 32.2997H156.047C153.837 32.2997 152.047 30.5088 152.047 28.2997L152.047 -28.4611C152.047 -30.6702 153.837 -32.4611 156.047 -32.4611H217.105C219.314 -32.4611 221.105 -30.6702 221.105 -28.4611V-28.3077C221.105 -26.8358 220.276 -25.509 219.073 -24.6613C213.973 -21.0687 210.643 -15.1419 210.642 -8.43762C210.642 2.52289 219.543 11.4081 230.523 11.4081C241.503 11.408 250.404 2.52281 250.404 -8.43762C250.404 -15.1427 247.072 -21.0708 241.971 -24.6632C240.768 -25.511 239.939 -26.8376 239.939 -28.3097V-28.4611C239.939 -30.6702 241.73 -32.4611 243.939 -32.4611H300.814C303.023 -32.4609 304.814 -30.6701 304.814 -28.4611V32.4774C304.814 34.6865 306.605 36.4774 308.814 36.4774H319.622C321.316 36.4774 322.784 35.3809 323.629 33.912C326.336 29.2034 331.422 26.0321 337.251 26.0321C345.919 26.0324 352.946 33.0472 352.946 41.7001C352.946 50.3526 345.919 57.3667 337.251 57.3671C331.422 57.3671 326.336 54.1954 323.629 49.4872C322.784 48.0184 321.316 46.9227 319.622 46.9227H308.814C306.605 46.9227 304.814 48.7136 304.814 50.9227V116.038C304.814 118.247 303.023 120.038 300.814 120.038H239.754C237.545 120.038 235.754 121.829 235.754 124.038V132.723C235.754 134.419 236.851 135.888 238.323 136.731C243.04 139.433 246.218 144.51 246.218 150.329C246.218 158.982 239.191 165.997 230.523 165.997C221.855 165.997 214.828 158.982 214.828 150.329C214.828 144.511 218.005 139.434 222.721 136.732C224.193 135.889 225.291 134.42 225.291 132.724V124.038C225.291 121.829 223.5 120.038 221.291 120.038H156.047C153.838 120.038 152.047 118.247 152.047 116.038V55.1005C152.047 52.8913 153.837 51.1005 156.047 51.1005H160.402Z" stroke="#78716C" stroke-opacity="0.1" stroke-width="2" mask="url(#path-1-inside-1_855_23892)"/>
<path d="M478.495 51.1005C479.965 51.1006 481.289 51.9275 482.137 53.1278C485.736 58.2198 491.675 61.5457 498.392 61.5458C509.372 61.5458 518.273 52.6605 518.273 41.7001C518.273 30.7396 509.372 21.8544 498.392 21.8544C491.675 21.8544 485.735 25.181 482.136 30.2733C481.288 31.4736 479.963 32.2997 478.493 32.2997H476.232C474.023 32.2997 472.232 30.5088 472.232 28.2997V-28.4611C472.232 -30.6702 474.023 -32.4611 476.232 -32.4611H539.383C541.593 -32.4611 543.383 -30.6702 543.383 -28.4611V-28.3097C543.383 -26.8375 542.555 -25.51 541.351 -24.6622C536.251 -21.0697 532.92 -15.1422 532.92 -8.43762C532.92 2.5228 541.821 11.4079 552.8 11.4081C563.78 11.4081 572.681 2.52289 572.681 -8.43762C572.681 -15.142 569.35 -21.0687 564.251 -24.6613C563.047 -25.509 562.219 -26.8358 562.218 -28.3077V-28.4611C562.218 -30.6702 564.009 -32.4611 566.218 -32.4611H621C623.209 -32.4609 625 -30.6701 625 -28.4611V116.038C625 118.247 623.209 120.038 621 120.038H562.033C559.824 120.038 558.033 121.829 558.033 124.038V132.724C558.033 134.419 559.131 135.888 560.602 136.731C565.319 139.434 568.497 144.511 568.497 150.329C568.497 158.982 561.469 165.997 552.801 165.997C544.133 165.997 537.106 158.982 537.106 150.329C537.106 144.511 540.283 139.434 545 136.731C546.471 135.888 547.57 134.419 547.57 132.723V124.038C547.57 121.829 545.779 120.038 543.57 120.038H476.232C474.023 120.038 472.232 118.247 472.232 116.038V55.1005C472.232 52.8913 474.023 51.1005 476.232 51.1005H478.495Z" stroke="#78716C" stroke-opacity="0.1" stroke-width="2" mask="url(#path-1-inside-1_855_23892)"/>
<path d="M426.193 200.466C426.193 191.813 433.22 184.798 441.888 184.798C447.716 184.798 452.802 187.97 455.509 192.679C456.354 194.148 457.822 195.243 459.516 195.243H468.233C470.442 195.243 472.233 193.453 472.233 191.243V130.306C472.233 128.097 474.024 126.306 476.233 126.306H539.384C541.593 126.306 543.384 128.097 543.384 130.306V130.458C543.384 131.93 542.555 133.257 541.352 134.105C536.252 137.697 532.92 143.626 532.92 150.33C532.921 161.29 541.822 170.176 552.801 170.176C563.781 170.176 572.681 161.29 572.682 150.33C572.682 143.626 569.351 137.697 564.251 134.105C563.048 133.257 562.219 131.93 562.219 130.458V130.306C562.219 128.097 564.01 126.306 566.219 126.306H621C623.209 126.306 625 128.097 625 130.306V274.805C625 277.014 623.209 278.805 621 278.805H562.034C559.825 278.805 558.034 280.596 558.034 282.805V291.491C558.034 293.187 559.132 294.656 560.604 295.499C565.321 298.202 568.497 303.279 568.497 309.097C568.497 317.75 561.47 324.764 552.802 324.764C544.134 324.764 537.107 317.75 537.107 309.097C537.107 303.279 540.284 298.201 545.001 295.499C546.473 294.656 547.571 293.187 547.571 291.491V282.805C547.571 280.596 545.78 278.805 543.571 278.805H476.233C474.024 278.805 472.233 277.014 472.233 274.805V209.689C472.233 207.48 470.442 205.689 468.233 205.689H459.516C457.822 205.689 456.354 206.785 455.509 208.254C452.802 212.962 447.716 216.134 441.888 216.134C433.22 216.134 426.193 209.119 426.193 200.466Z" stroke="#78716C" stroke-opacity="0.1" stroke-width="2" mask="url(#path-1-inside-1_855_23892)"/>
<path d="M478.493 368.633C479.963 368.633 481.288 369.459 482.136 370.659C485.735 375.752 491.675 379.078 498.392 379.078C509.372 379.078 518.273 370.193 518.273 359.233C518.273 348.272 509.372 339.387 498.392 339.387C491.675 339.387 485.735 342.713 482.136 347.805C481.288 349.005 479.963 349.832 478.493 349.832H476.232C474.023 349.832 472.232 348.041 472.232 345.832V289.071C472.232 286.862 474.023 285.071 476.232 285.071H539.383C541.593 285.071 543.383 286.862 543.383 289.071V289.225C543.383 290.697 542.555 292.023 541.351 292.871C536.251 296.464 532.92 302.391 532.92 309.096C532.92 320.056 541.821 328.941 552.8 328.942C563.78 328.942 572.681 320.056 572.681 309.096C572.681 302.391 569.351 296.464 564.251 292.871C563.047 292.023 562.218 290.697 562.218 289.225V289.071C562.218 286.862 564.009 285.071 566.218 285.071H621C623.209 285.072 625 286.862 625 289.071V433.57C625 435.779 623.209 437.57 621 437.57H476.232C474.023 437.57 472.232 435.78 472.232 433.57V372.633C472.232 370.424 474.023 368.633 476.232 368.633H478.493Z" stroke="#78716C" stroke-opacity="0.1" stroke-width="2" mask="url(#path-1-inside-1_855_23892)"/>
<path d="M311.092 289.071C311.092 286.862 312.883 285.072 315.092 285.071H382.43C384.639 285.071 386.43 283.281 386.43 281.071V270.296C386.43 268.6 385.332 267.131 383.861 266.288C379.144 263.586 375.967 258.509 375.967 252.692C375.967 244.039 382.994 237.024 391.663 237.024C400.331 237.024 407.358 244.039 407.358 252.692C407.358 258.51 404.181 263.587 399.464 266.289C397.993 267.132 396.894 268.601 396.894 270.297V281.071C396.894 283.28 398.685 285.071 400.894 285.071H459.861C462.07 285.071 463.861 286.862 463.861 289.071V350.01C463.861 352.219 465.652 354.01 467.861 354.01H480.763C482.457 354.01 483.925 352.914 484.77 351.445C487.477 346.737 492.563 343.565 498.391 343.565C507.059 343.565 514.086 350.58 514.086 359.233C514.086 367.886 507.059 374.901 498.391 374.901C492.563 374.9 487.477 371.729 484.77 367.021C483.926 365.552 482.457 364.455 480.763 364.455H467.861C465.652 364.455 463.861 366.246 463.861 368.455V433.57C463.861 435.78 462.07 437.57 459.861 437.57H315.092C312.883 437.57 311.092 435.779 311.092 433.57V372.633C311.092 370.424 312.883 368.633 315.092 368.633H317.355C318.825 368.633 320.15 369.459 320.999 370.659C324.597 375.752 330.537 379.078 337.254 379.078C348.234 379.078 357.135 370.193 357.135 359.233C357.135 348.272 348.234 339.387 337.254 339.387C330.537 339.387 324.597 342.713 320.999 347.805C320.15 349.005 318.825 349.832 317.355 349.832H315.092C312.883 349.832 311.092 348.041 311.092 345.832V289.071Z" stroke="#78716C" stroke-opacity="0.1" stroke-width="2" mask="url(#path-1-inside-1_855_23892)"/>
<path d="M160.401 368.633C161.871 368.633 163.196 369.459 164.045 370.659C167.644 375.752 173.583 379.078 180.301 379.078C191.28 379.078 200.181 370.193 200.181 359.233C200.181 348.272 191.28 339.387 180.301 339.387C173.583 339.387 167.644 342.713 164.045 347.805C163.196 349.005 161.871 349.832 160.401 349.832H156.047C153.837 349.832 152.047 348.041 152.047 345.832V289.071C152.047 286.862 153.837 285.071 156.047 285.071H217.105C219.314 285.071 221.105 286.862 221.105 289.071V289.225C221.105 290.697 220.276 292.023 219.073 292.871C213.973 296.464 210.642 302.391 210.642 309.096C210.642 320.056 219.543 328.942 230.523 328.942C241.503 328.941 250.404 320.056 250.404 309.096C250.404 302.391 247.072 296.463 241.971 292.87C240.768 292.023 239.939 290.696 239.939 289.224V289.071C239.939 286.862 241.73 285.071 243.939 285.071H300.814C303.023 285.072 304.814 286.862 304.814 289.071V350.009C304.814 352.218 306.605 354.009 308.814 354.009H319.623C321.317 354.009 322.785 352.913 323.63 351.444C326.337 346.736 331.423 343.564 337.252 343.564C345.92 343.564 352.947 350.579 352.947 359.232C352.947 367.884 345.92 374.899 337.252 374.9C331.423 374.9 326.337 371.728 323.63 367.02C322.785 365.551 321.317 364.454 319.623 364.454H308.814C306.605 364.454 304.814 366.245 304.814 368.454V433.57C304.814 435.779 303.023 437.57 300.814 437.57H156.047C153.837 437.57 152.047 435.78 152.047 433.57V372.633C152.047 370.424 153.837 368.633 156.047 368.633H160.401Z" stroke="#78716C" stroke-opacity="0.1" stroke-width="2" mask="url(#path-1-inside-1_855_23892)"/>
<path d="M-6.99901 289.07C-6.99898 286.861 -5.20812 285.07 -2.99901 285.07H60.1524C62.3615 285.07 64.1524 283.28 64.1524 281.07V272.387C64.1523 270.691 63.0545 269.222 61.583 268.379C56.8662 265.677 53.6885 260.6 53.6885 254.781C53.6888 246.129 60.7158 239.115 69.3838 239.114C78.0519 239.114 85.0788 246.129 85.0791 254.781C85.0791 260.6 81.9015 265.677 77.1846 268.379C75.7132 269.222 74.6154 270.691 74.6152 272.387V281.07C74.6152 283.28 76.4061 285.07 78.6152 285.07H141.77C143.979 285.07 145.77 286.861 145.77 289.07V350.008C145.77 352.217 147.56 354.008 149.77 354.008H162.669C164.363 354.008 165.831 352.912 166.676 351.443C169.383 346.735 174.469 343.563 180.297 343.563C188.965 343.563 195.992 350.578 195.992 359.231C195.992 367.884 188.965 374.899 180.297 374.899C174.469 374.898 169.383 371.727 166.676 367.019C165.831 365.55 164.363 364.453 162.669 364.453H149.77C147.56 364.453 145.77 366.244 145.77 368.453V433.569C145.77 435.779 143.979 437.569 141.77 437.569H-2.999C-5.20813 437.569 -6.999 435.779 -6.999 433.569L-6.99901 289.07Z" stroke="#78716C" stroke-opacity="0.1" stroke-width="2" mask="url(#path-1-inside-1_855_23892)"/>
<path d="M478.493 -107.667C479.963 -107.667 481.288 -106.84 482.136 -105.639C485.735 -100.547 491.675 -97.2212 498.392 -97.2212C509.372 -97.2212 518.273 -106.106 518.273 -117.067C518.273 -128.027 509.372 -136.913 498.392 -136.913C491.675 -136.913 485.735 -133.586 482.136 -128.494C481.288 -127.293 479.963 -126.467 478.493 -126.467H476.232C474.023 -126.467 472.232 -128.258 472.232 -130.467V-187.227C472.232 -189.436 474.023 -191.227 476.232 -191.227L539.383 -191.227C541.593 -191.227 543.383 -189.436 543.383 -187.227V-187.075C543.383 -185.603 542.555 -184.276 541.351 -183.428C536.251 -179.836 532.92 -173.908 532.92 -167.204C532.92 -156.243 541.821 -147.358 552.8 -147.358C563.78 -147.358 572.681 -156.243 572.681 -167.204C572.681 -173.908 569.35 -179.835 564.251 -183.427C563.047 -184.275 562.219 -185.602 562.218 -187.074V-187.227C562.218 -189.436 564.009 -191.227 566.218 -191.227L621 -191.227C623.209 -191.227 625 -189.436 625 -187.227V-42.728C625 -40.5189 623.209 -38.7281 621 -38.728H562.033C559.824 -38.728 558.033 -36.9372 558.033 -34.728V-26.0425C558.033 -24.3466 559.131 -22.8778 560.602 -22.0347C565.319 -19.3324 568.497 -14.2552 568.497 -8.43701C568.497 0.215889 561.47 7.23073 552.801 7.23096C544.133 7.23096 537.106 0.216028 537.106 -8.43701C537.106 -14.2553 540.283 -19.3325 545 -22.0347C546.471 -22.8777 547.57 -24.3465 547.57 -26.0425V-34.728C547.57 -36.9371 545.779 -38.728 543.57 -38.728H476.232C474.023 -38.728 472.232 -40.5189 472.232 -42.728V-103.667C472.232 -105.876 474.023 -107.667 476.232 -107.667H478.493Z" stroke="#78716C" stroke-opacity="0.1" stroke-width="2" mask="url(#path-1-inside-1_855_23892)"/>
<path d="M317.356 51.101C318.826 51.101 320.151 51.9269 320.999 53.1273C324.598 58.2194 330.537 61.5463 337.254 61.5463C348.234 61.5462 357.135 52.6607 357.135 41.7006C357.135 30.7401 348.234 21.855 337.254 21.8549C330.537 21.8549 324.597 25.1805 320.999 30.2728C320.15 31.4733 318.825 32.3002 317.355 32.3002H315.092C312.883 32.3002 311.092 30.5093 311.092 28.3002V-28.4606C311.092 -30.6696 312.883 -32.4603 315.092 -32.4606H382.431C384.64 -32.4606 386.431 -34.2515 386.431 -36.4606V-45.1461C386.431 -46.8421 385.333 -48.3108 383.862 -49.1539C379.145 -51.8561 375.967 -56.9334 375.967 -62.7516C375.967 -71.4044 382.995 -78.4192 391.663 -78.4196C400.331 -78.4196 407.358 -71.4046 407.358 -62.7516C407.358 -56.9338 404.182 -51.8571 399.465 -49.1549C397.994 -48.3118 396.895 -46.8431 396.895 -45.1471V-36.4606C396.895 -34.2517 398.686 -32.4608 400.895 -32.4606H459.861C462.07 -32.4606 463.861 -30.6697 463.861 -28.4606V32.4769C463.861 34.6858 465.652 36.4767 467.861 36.4769H480.763C482.457 36.4768 483.925 35.3803 484.77 33.9115C487.477 29.2032 492.563 26.0318 498.391 26.0316C507.059 26.0316 514.086 33.0466 514.086 41.6996C514.086 50.3525 507.059 57.3675 498.391 57.3675C492.563 57.3673 487.477 54.1951 484.77 49.4867C483.925 48.0179 482.457 46.9224 480.763 46.9222H467.861C465.652 46.9225 463.861 48.7132 463.861 50.9222V116.038C463.861 118.248 462.07 120.038 459.861 120.038H403.144C402.004 120.038 401.081 119.115 401.081 117.975C401.081 116.503 401.909 115.176 403.113 114.328C408.213 110.736 411.543 104.808 411.543 98.1029C411.543 87.1426 402.642 78.2572 391.663 78.2572C380.683 78.2572 371.782 87.1426 371.782 98.1029C371.782 104.808 375.113 110.737 380.213 114.329C381.417 115.177 382.246 116.504 382.246 117.976C382.246 119.115 381.322 120.038 380.183 120.038H315.092C312.883 120.038 311.092 118.247 311.092 116.038V55.101C311.092 52.8918 312.883 51.101 315.092 51.101H317.356Z" stroke="#78716C" stroke-opacity="0.1" stroke-width="2" mask="url(#path-1-inside-1_855_23892)"/>
<path d="M321.541 -109.754C323.011 -109.754 324.337 -108.928 325.185 -107.728C328.784 -102.636 334.723 -99.309 341.44 -99.309C352.42 -99.3091 361.321 -108.195 361.321 -119.156C361.321 -130.116 352.419 -139.001 341.44 -139.001C334.723 -139.001 328.784 -135.675 325.185 -130.583C324.337 -129.383 323.011 -128.556 321.541 -128.556H315.092C312.883 -128.556 311.092 -130.347 311.092 -132.556V-189.316C311.092 -191.525 312.883 -193.316 315.092 -193.316L459.861 -193.316C462.07 -193.316 463.861 -191.525 463.861 -189.316V-126.288C463.861 -124.079 465.652 -122.289 467.861 -122.288H480.762C482.457 -122.288 483.925 -123.385 484.77 -124.854C487.477 -129.562 492.563 -132.734 498.391 -132.734C507.059 -132.734 514.086 -125.72 514.086 -117.067C514.086 -108.414 507.059 -101.399 498.391 -101.399C492.563 -101.399 487.477 -104.57 484.77 -109.279C483.926 -110.748 482.457 -111.844 480.763 -111.844H467.861C465.652 -111.844 463.861 -110.053 463.861 -107.844V-44.8168C463.861 -42.6076 462.07 -40.8168 459.861 -40.8168H403.144C402.004 -40.8168 401.081 -41.7406 401.081 -42.8803C401.081 -44.3523 401.909 -45.679 403.113 -46.5267C408.212 -50.1193 411.543 -56.047 411.543 -62.7514C411.543 -73.7117 402.642 -82.598 391.663 -82.598C380.683 -82.598 371.782 -73.7117 371.782 -62.7514C371.782 -56.0465 375.113 -50.1183 380.213 -46.5258C381.417 -45.678 382.246 -44.3514 382.246 -42.8793C382.246 -41.7402 381.322 -40.8168 380.183 -40.8168H315.092C312.883 -40.817 311.092 -42.6078 311.092 -44.8168V-105.754C311.092 -107.963 312.883 -109.754 315.092 -109.754H321.541Z" stroke="#78716C" stroke-opacity="0.1" stroke-width="2" mask="url(#path-1-inside-1_855_23892)"/>
<path d="M141.769 -195.405C143.978 -195.405 145.769 -193.614 145.769 -191.405V-46.9062C145.769 -44.6971 143.978 -42.9062 141.769 -42.9062H82.8018C80.5926 -42.9062 78.8018 -44.6971 78.8018 -46.9062V-47.0586C78.8018 -48.5307 79.6305 -49.8573 80.834 -50.7051C85.9337 -54.2976 89.2646 -60.2251 89.2646 -66.9297C89.2645 -77.8899 80.3642 -86.775 69.3848 -86.7754C58.405 -86.7754 49.504 -77.8901 49.5039 -66.9297C49.5039 -60.225 52.8347 -54.2976 57.9346 -50.7051C59.1379 -49.8573 59.9668 -48.5306 59.9668 -47.0586V-46.9062C59.9668 -44.6971 58.1759 -42.9062 55.9668 -42.9062H-3C-5.20914 -42.9062 -7 -44.6971 -7 -46.9062V-191.405C-7 -193.614 -5.20914 -195.405 -3 -195.405H141.769Z" stroke="#78716C" stroke-opacity="0.1" stroke-width="2" mask="url(#path-1-inside-1_855_23892)"/>
<path d="M230.523 7.23096C239.191 7.23077 246.218 0.215884 246.218 -8.43701C246.218 -14.2551 243.041 -19.3316 238.324 -22.0337C236.852 -22.8767 235.755 -24.3456 235.755 -26.0415V-36.8169C235.755 -39.026 237.545 -40.8169 239.755 -40.8169H300.814C303.023 -40.817 304.814 -42.6079 304.814 -44.8169V-189.316C304.814 -191.525 303.023 -193.316 300.814 -193.316H243.94C241.731 -193.316 239.94 -191.525 239.94 -189.316V-189.165C239.94 -187.692 240.769 -186.366 241.972 -185.518C247.073 -181.925 250.404 -175.997 250.404 -169.292C250.404 -158.332 241.503 -149.447 230.523 -149.447C219.543 -149.447 210.642 -158.332 210.642 -169.292C210.642 -175.997 213.973 -181.925 219.073 -185.517C220.276 -186.365 221.105 -187.692 221.105 -189.164V-189.316C221.105 -191.525 219.314 -193.316 217.105 -193.316H156.047C153.837 -193.316 152.047 -191.525 152.047 -189.316V-44.8169C152.047 -42.6078 153.837 -40.8169 156.047 -40.8169H221.291C223.5 -40.8168 225.291 -39.026 225.291 -36.8169V-26.0415C225.291 -24.3457 224.193 -22.8768 222.721 -22.0337C218.005 -19.3315 214.828 -14.2549 214.828 -8.43701C214.828 0.216002 221.855 7.23096 230.523 7.23096Z" stroke="#78716C" stroke-opacity="0.1" stroke-width="2" mask="url(#path-1-inside-1_855_23892)"/>
</g>
<g filter="url(#filter1_dddddddi_855_23892)">
<mask id="path-2-inside-2_855_23892" fill="white">
<path d="M527.113 218.835C526.298 220.887 523.976 221.891 521.924 221.079L519.998 220.317C518.63 219.776 517.702 218.518 517.351 217.089C515.905 211.188 511.714 206.054 505.626 203.645C495.645 199.697 484.347 204.572 480.391 214.536C476.435 224.499 481.32 235.778 491.301 239.727C497.391 242.136 503.97 241.259 509.073 237.947C510.305 237.148 511.841 236.867 513.207 237.407L515.129 238.167C517.185 238.981 518.191 241.308 517.375 243.363L496.955 294.797C496.14 296.849 493.818 297.853 491.766 297.041L438.327 275.9C436.271 275.087 435.268 272.754 436.082 270.699C436.625 269.332 437.883 268.406 439.312 268.057C445.226 266.615 450.372 262.431 452.786 256.351C456.742 246.388 451.857 235.109 441.876 231.16C431.895 227.212 420.595 232.088 416.64 242.051C414.227 248.127 415.103 254.692 418.417 259.786C419.22 261.02 419.503 262.559 418.959 263.928C418.145 265.981 415.819 266.995 413.766 266.183L360.329 245.043C358.273 244.23 357.267 241.902 358.082 239.847L380.007 184.623C380.823 182.568 379.817 180.242 377.761 179.428L366.178 174.845C364.604 174.222 362.837 174.701 361.508 175.749C357.351 179.027 351.605 180.066 346.326 177.978C338.446 174.86 334.59 165.957 337.713 158.091C340.836 150.225 349.755 146.375 357.635 149.492C362.911 151.579 366.383 156.261 367.165 161.489C367.416 163.166 368.376 164.727 369.953 165.351L381.539 169.936C383.592 170.748 385.914 169.744 386.729 167.693L410.169 108.651C410.984 106.6 413.306 105.596 415.358 106.408L472.61 129.058C474.663 129.87 476.986 128.866 477.8 126.814L480.88 119.056C481.506 117.478 481.025 115.707 479.972 114.375C476.693 110.227 475.655 104.496 477.746 99.2289C480.869 91.3628 489.789 87.5129 497.669 90.6304C505.549 93.748 509.405 102.652 506.282 110.518C504.19 115.788 499.496 119.254 494.256 120.031C492.58 120.279 491.02 121.239 490.395 122.813L487.315 130.568C486.499 132.623 487.506 134.95 489.562 135.764L546.795 158.407C548.851 159.221 549.857 161.547 549.041 163.602L527.113 218.835Z"/>
</mask>
<path d="M527.113 218.835C526.298 220.887 523.976 221.891 521.924 221.079L519.998 220.317C518.63 219.776 517.702 218.518 517.351 217.089C515.905 211.188 511.714 206.054 505.626 203.645C495.645 199.697 484.347 204.572 480.391 214.536C476.435 224.499 481.32 235.778 491.301 239.727C497.391 242.136 503.97 241.259 509.073 237.947C510.305 237.148 511.841 236.867 513.207 237.407L515.129 238.167C517.185 238.981 518.191 241.308 517.375 243.363L496.955 294.797C496.14 296.849 493.818 297.853 491.766 297.041L438.327 275.9C436.271 275.087 435.268 272.754 436.082 270.699C436.625 269.332 437.883 268.406 439.312 268.057C445.226 266.615 450.372 262.431 452.786 256.351C456.742 246.388 451.857 235.109 441.876 231.16C431.895 227.212 420.595 232.088 416.64 242.051C414.227 248.127 415.103 254.692 418.417 259.786C419.22 261.02 419.503 262.559 418.959 263.928C418.145 265.981 415.819 266.995 413.766 266.183L360.329 245.043C358.273 244.23 357.267 241.902 358.082 239.847L380.007 184.623C380.823 182.568 379.817 180.242 377.761 179.428L366.178 174.845C364.604 174.222 362.837 174.701 361.508 175.749C357.351 179.027 351.605 180.066 346.326 177.978C338.446 174.86 334.59 165.957 337.713 158.091C340.836 150.225 349.755 146.375 357.635 149.492C362.911 151.579 366.383 156.261 367.165 161.489C367.416 163.166 368.376 164.727 369.953 165.351L381.539 169.936C383.592 170.748 385.914 169.744 386.729 167.693L410.169 108.651C410.984 106.6 413.306 105.596 415.358 106.408L472.61 129.058C474.663 129.87 476.986 128.866 477.8 126.814L480.88 119.056C481.506 117.478 481.025 115.707 479.972 114.375C476.693 110.227 475.655 104.496 477.746 99.2289C480.869 91.3628 489.789 87.5129 497.669 90.6304C505.549 93.748 509.405 102.652 506.282 110.518C504.19 115.788 499.496 119.254 494.256 120.031C492.58 120.279 491.02 121.239 490.395 122.813L487.315 130.568C486.499 132.623 487.506 134.95 489.562 135.764L546.795 158.407C548.851 159.221 549.857 161.547 549.041 163.602L527.113 218.835Z" fill="#9A55F2"/>
<path d="M519.998 220.317L519.63 221.247L519.63 221.247L519.998 220.317ZM517.351 217.089L518.323 216.851L518.323 216.851L517.351 217.089ZM505.626 203.645L505.994 202.715L505.994 202.715L505.626 203.645ZM480.391 214.536L479.462 214.167L479.462 214.167L480.391 214.536ZM491.301 239.727L490.933 240.657L490.933 240.657L491.301 239.727ZM509.073 237.947L509.617 238.786L509.617 238.786L509.073 237.947ZM513.207 237.407L513.574 236.477L513.574 236.477L513.207 237.407ZM496.955 294.797L496.025 294.428L496.025 294.428L496.955 294.797ZM491.766 297.041L491.398 297.971L491.398 297.971L491.766 297.041ZM436.082 270.699L435.153 270.33L435.153 270.33L436.082 270.699ZM439.312 268.057L439.075 267.086L439.075 267.086L439.312 268.057ZM452.786 256.351L453.715 256.72L452.786 256.351ZM441.876 231.16L442.244 230.23L442.244 230.23L441.876 231.16ZM416.64 242.051L415.71 241.682L415.71 241.682L416.64 242.051ZM418.417 259.786L419.255 259.24L419.255 259.24L418.417 259.786ZM418.959 263.928L418.03 263.559L418.03 263.56L418.959 263.928ZM360.329 245.043L359.961 245.973L359.961 245.973L360.329 245.043ZM358.082 239.847L359.012 240.216L358.082 239.847ZM380.007 184.623L380.937 184.992L380.937 184.992L380.007 184.623ZM377.761 179.428L378.129 178.498L378.129 178.498L377.761 179.428ZM366.178 174.845L366.546 173.915L366.546 173.915L366.178 174.845ZM361.508 175.749L360.889 174.964L360.888 174.964L361.508 175.749ZM346.326 177.978L345.958 178.907L345.958 178.907L346.326 177.978ZM337.713 158.091L336.783 157.722L336.783 157.722L337.713 158.091ZM357.635 149.492L358.003 148.562L358.003 148.562L357.635 149.492ZM367.165 161.489L366.176 161.636L366.176 161.636L367.165 161.489ZM369.953 165.351L370.321 164.421L369.953 165.351ZM381.539 169.936L381.171 170.865L381.171 170.865L381.539 169.936ZM386.729 167.693L387.658 168.062L387.658 168.062L386.729 167.693ZM410.169 108.651L409.24 108.282L409.24 108.282L410.169 108.651ZM415.358 106.408L415.726 105.478L415.358 106.408ZM472.61 129.058L472.242 129.988L472.61 129.058ZM477.8 126.814L478.729 127.183L478.729 127.183L477.8 126.814ZM480.88 119.056L481.81 119.425L481.81 119.425L480.88 119.056ZM479.972 114.375L479.188 114.996L479.188 114.996L479.972 114.375ZM477.746 99.2289L476.816 98.8599L476.816 98.8599L477.746 99.2289ZM497.669 90.6304L498.037 89.7005L498.037 89.7005L497.669 90.6304ZM506.282 110.518L507.212 110.887L507.212 110.887L506.282 110.518ZM494.256 120.031L494.109 119.042L494.109 119.042L494.256 120.031ZM490.395 122.813L489.465 122.444L489.465 122.444L490.395 122.813ZM487.315 130.568L486.386 130.198L486.386 130.198L487.315 130.568ZM489.562 135.764L489.93 134.834L489.562 135.764ZM546.795 158.407L547.163 157.477L547.163 157.477L546.795 158.407ZM549.041 163.602L548.111 163.233L548.111 163.233L549.041 163.602ZM413.766 266.183L414.134 265.253L413.766 266.183ZM438.327 275.9L438.694 274.97L438.327 275.9ZM515.129 238.167L515.497 237.237L515.129 238.167ZM517.375 243.363L516.446 242.994L517.375 243.363ZM521.924 221.079L522.291 220.149L521.924 221.079ZM521.924 221.079L522.291 220.149L520.366 219.388L519.998 220.317L519.63 221.247L521.556 222.009L521.924 221.079ZM519.998 220.317L520.366 219.388C519.358 218.989 518.612 218.033 518.323 216.851L517.351 217.089L516.38 217.327C516.791 219.003 517.901 220.563 519.63 221.247L519.998 220.317ZM517.351 217.089L518.323 216.851C516.802 210.649 512.395 205.248 505.994 202.715L505.626 203.645L505.258 204.575C511.032 206.859 515.008 211.728 516.38 217.327L517.351 217.089ZM505.626 203.645L505.994 202.715C495.501 198.564 483.622 203.689 479.462 214.167L480.391 214.536L481.32 214.905C485.072 205.455 495.789 200.829 505.258 204.575L505.626 203.645ZM480.391 214.536L479.462 214.167C475.302 224.645 480.439 236.505 490.933 240.657L491.301 239.727L491.669 238.797C482.201 235.051 477.569 224.353 481.32 214.905L480.391 214.536ZM491.301 239.727L490.933 240.657C497.336 243.19 504.254 242.267 509.617 238.786L509.073 237.947L508.529 237.109C503.685 240.252 497.445 241.082 491.669 238.797L491.301 239.727ZM509.073 237.947L509.617 238.786C510.636 238.125 511.833 237.939 512.839 238.337L513.207 237.407L513.574 236.477C511.848 235.794 509.974 236.171 508.529 237.109L509.073 237.947ZM513.207 237.407L512.839 238.337L514.761 239.097L515.129 238.167L515.497 237.237L513.574 236.477L513.207 237.407ZM517.375 243.363L516.446 242.994L496.025 294.428L496.955 294.797L497.884 295.166L518.305 243.732L517.375 243.363ZM496.955 294.797L496.025 294.428C495.414 295.967 493.673 296.72 492.134 296.111L491.766 297.041L491.398 297.971C493.964 298.986 496.866 297.73 497.884 295.166L496.955 294.797ZM491.766 297.041L492.134 296.111L438.694 274.97L438.327 275.9L437.959 276.83L491.398 297.971L491.766 297.041ZM436.082 270.699L437.012 271.068C437.411 270.061 438.368 269.317 439.549 269.029L439.312 268.057L439.075 267.086C437.399 267.495 435.839 268.602 435.153 270.33L436.082 270.699ZM439.312 268.057L439.549 269.029C445.763 267.513 451.177 263.114 453.715 256.72L452.786 256.351L451.856 255.982C449.568 261.747 444.688 265.717 439.075 267.086L439.312 268.057ZM452.786 256.351L453.715 256.72C457.875 246.242 452.738 234.382 442.244 230.23L441.876 231.16L441.508 232.09C450.976 235.836 455.608 246.534 451.856 255.982L452.786 256.351ZM441.876 231.16L442.244 230.23C431.751 226.079 419.87 231.205 415.71 241.682L416.64 242.051L417.569 242.42C421.321 232.971 432.039 228.344 441.508 232.09L441.876 231.16ZM416.64 242.051L415.71 241.682C413.173 248.073 414.096 254.978 417.579 260.331L418.417 259.786L419.255 259.24C416.111 254.407 415.282 248.182 417.569 242.42L416.64 242.051ZM418.417 259.786L417.579 260.331C418.243 261.352 418.43 262.552 418.03 263.559L418.959 263.928L419.889 264.297C420.575 262.567 420.197 260.688 419.255 259.24L418.417 259.786ZM413.766 266.183L414.134 265.253L360.697 244.113L360.329 245.043L359.961 245.973L413.398 267.113L413.766 266.183ZM360.329 245.043L360.697 244.113C359.155 243.503 358.4 241.757 359.012 240.216L358.082 239.847L357.153 239.478C356.133 242.047 357.391 244.956 359.961 245.973L360.329 245.043ZM358.082 239.847L359.012 240.216L380.937 184.992L380.007 184.623L379.078 184.254L357.153 239.478L358.082 239.847ZM380.007 184.623L380.937 184.992C381.957 182.423 380.699 179.515 378.129 178.498L377.761 179.428L377.394 180.358C378.935 180.968 379.69 182.713 379.078 184.254L380.007 184.623ZM377.761 179.428L378.129 178.498L366.546 173.915L366.178 174.845L365.81 175.775L377.394 180.358L377.761 179.428ZM366.178 174.845L366.546 173.915C364.551 173.126 362.413 173.762 360.889 174.964L361.508 175.749L362.127 176.535C363.261 175.64 364.657 175.318 365.81 175.775L366.178 174.845ZM361.508 175.749L360.888 174.964C357 178.031 351.628 179 346.694 177.048L346.326 177.978L345.958 178.907C351.582 181.132 357.702 180.024 362.127 176.535L361.508 175.749ZM346.326 177.978L346.694 177.048C339.327 174.133 335.724 165.811 338.642 158.46L337.713 158.091L336.783 157.722C333.456 166.103 337.565 175.587 345.958 178.907L346.326 177.978ZM337.713 158.091L338.642 158.46C341.561 151.108 349.899 147.507 357.267 150.422L357.635 149.492L358.003 148.562C349.611 145.242 340.11 149.342 336.783 157.722L337.713 158.091ZM357.635 149.492L357.267 150.422C362.199 152.373 365.445 156.748 366.176 161.636L367.165 161.489L368.154 161.341C367.322 155.775 363.623 150.786 358.003 148.562L357.635 149.492ZM367.165 161.489L366.176 161.636C366.463 163.56 367.587 165.49 369.585 166.281L369.953 165.351L370.321 164.421C369.166 163.964 368.368 162.772 368.154 161.341L367.165 161.489ZM369.953 165.351L369.585 166.281L381.171 170.865L381.539 169.936L381.907 169.006L370.321 164.421L369.953 165.351ZM381.539 169.936L381.171 170.865C383.737 171.88 386.64 170.626 387.658 168.062L386.729 167.693L385.799 167.324C385.189 168.862 383.447 169.615 381.907 169.006L381.539 169.936ZM386.729 167.693L387.658 168.062L411.098 109.02L410.169 108.651L409.24 108.282L385.799 167.324L386.729 167.693ZM410.169 108.651L411.098 109.02C411.709 107.482 413.451 106.729 414.991 107.338L415.358 106.408L415.726 105.478C413.161 104.463 410.258 105.718 409.24 108.282L410.169 108.651ZM415.358 106.408L414.991 107.338L472.242 129.988L472.61 129.058L472.978 128.128L415.726 105.478L415.358 106.408ZM472.61 129.058L472.242 129.988C474.808 131.003 477.711 129.748 478.729 127.183L477.8 126.814L476.871 126.445C476.26 127.984 474.517 128.737 472.978 128.128L472.61 129.058ZM477.8 126.814L478.729 127.183L481.81 119.425L480.88 119.056L479.951 118.687L476.871 126.445L477.8 126.814ZM480.88 119.056L481.81 119.425C482.603 117.426 481.964 115.282 480.757 113.755L479.972 114.375L479.188 114.996C480.086 116.132 480.41 117.531 479.951 118.687L480.88 119.056ZM479.972 114.375L480.757 113.755C477.69 109.875 476.722 104.519 478.675 99.5979L477.746 99.2289L476.816 98.8599C474.588 104.472 475.696 110.578 479.188 114.996L479.972 114.375ZM477.746 99.2289L478.675 99.5979C481.594 92.2458 489.933 88.6454 497.301 91.5603L497.669 90.6304L498.037 89.7005C489.645 86.3805 480.144 90.4798 476.816 98.8599L477.746 99.2289ZM497.669 90.6304L497.301 91.5603C504.668 94.475 508.271 102.798 505.353 110.149L506.282 110.518L507.212 110.887C510.539 102.507 506.429 93.0211 498.037 89.7005L497.669 90.6304ZM506.282 110.518L505.353 110.149C503.398 115.073 499.011 118.315 494.109 119.042L494.256 120.031L494.402 121.02C499.98 120.193 504.982 116.503 507.212 110.887L506.282 110.518ZM494.256 120.031L494.109 119.042C492.187 119.327 490.258 120.449 489.465 122.444L490.395 122.813L491.324 123.182C491.782 122.028 492.974 121.232 494.402 121.02L494.256 120.031ZM490.395 122.813L489.465 122.444L486.386 130.198L487.315 130.568L488.245 130.937L491.324 123.182L490.395 122.813ZM487.315 130.568L486.386 130.198C485.366 132.767 486.624 135.677 489.194 136.694L489.562 135.764L489.93 134.834C488.387 134.224 487.633 132.478 488.245 130.937L487.315 130.568ZM489.562 135.764L489.194 136.694L546.427 159.337L546.795 158.407L547.163 157.477L489.93 134.834L489.562 135.764ZM546.795 158.407L546.427 159.337C547.969 159.947 548.723 161.692 548.111 163.233L549.041 163.602L549.97 163.971C550.99 161.402 549.732 158.494 547.163 157.477L546.795 158.407ZM549.041 163.602L548.111 163.233L526.183 218.466L527.113 218.835L528.042 219.204L549.97 163.971L549.041 163.602ZM418.959 263.928L418.03 263.56C417.418 265.102 415.67 265.861 414.134 265.253L413.766 266.183L413.398 267.113C415.967 268.129 418.873 266.859 419.889 264.297L418.959 263.928ZM438.327 275.9L438.694 274.97C437.155 274.361 436.4 272.611 437.012 271.067L436.082 270.699L435.153 270.33C434.135 272.896 435.387 275.812 437.959 276.83L438.327 275.9ZM515.129 238.167L514.761 239.097C516.303 239.707 517.058 241.453 516.446 242.994L517.375 243.363L518.305 243.732C519.325 241.163 518.067 238.254 515.497 237.237L515.129 238.167ZM521.924 221.079L521.556 222.009C524.121 223.024 527.024 221.769 528.042 219.204L527.113 218.835L526.183 218.466C525.572 220.005 523.831 220.758 522.291 220.149L521.924 221.079Z" fill="#DCCDFA" fill-opacity="0.36" mask="url(#path-2-inside-2_855_23892)"/>
</g>
</g>
<defs>
<filter id="filter0_dddddi_855_23892" x="-15" y="-196.405" width="648" height="653.976" filterUnits="userSpaceOnUse" color-interpolation-filters="sRGB">
<feFlood flood-opacity="0" result="BackgroundImageFix"/>
<feColorMatrix in="SourceAlpha" type="matrix" values="0 0 0 0 0 0 0 0 0 0 0 0 0 0 0 0 0 0 127 0" result="hardAlpha"/>
<feMorphology radius="1" operator="dilate" in="SourceAlpha" result="effect1_dropShadow_855_23892"/>
<feOffset/>
<feComposite in2="hardAlpha" operator="out"/>
<feColorMatrix type="matrix" values="0 0 0 0 0.203922 0 0 0 0 0.109804 0 0 0 0 0.321569 0 0 0 0.06 0"/>
<feBlend mode="normal" in2="BackgroundImageFix" result="effect1_dropShadow_855_23892"/>
<feColorMatrix in="SourceAlpha" type="matrix" values="0 0 0 0 0 0 0 0 0 0 0 0 0 0 0 0 0 0 127 0" result="hardAlpha"/>
<feMorphology radius="0.5" operator="dilate" in="SourceAlpha" result="effect2_dropShadow_855_23892"/>
<feOffset dy="1"/>
<feGaussianBlur stdDeviation="0.5"/>
<feComposite in2="hardAlpha" operator="out"/>
<feColorMatrix type="matrix" values="0 0 0 0 0.203922 0 0 0 0 0.25098 0 0 0 0 0.329412 0 0 0 0.02 0"/>
<feBlend mode="normal" in2="effect1_dropShadow_855_23892" result="effect2_dropShadow_855_23892"/>
<feColorMatrix in="SourceAlpha" type="matrix" values="0 0 0 0 0 0 0 0 0 0 0 0 0 0 0 0 0 0 127 0" result="hardAlpha"/>
<feMorphology radius="1.5" operator="erode" in="SourceAlpha" result="effect3_dropShadow_855_23892"/>
<feOffset dy="3"/>
<feGaussianBlur stdDeviation="1.5"/>
<feComposite in2="hardAlpha" operator="out"/>
<feColorMatrix type="matrix" values="0 0 0 0 0.203922 0 0 0 0 0.25098 0 0 0 0 0.329412 0 0 0 0.02 0"/>
<feBlend mode="normal" in2="effect2_dropShadow_855_23892" result="effect3_dropShadow_855_23892"/>
<feColorMatrix in="SourceAlpha" type="matrix" values="0 0 0 0 0 0 0 0 0 0 0 0 0 0 0 0 0 0 127 0" result="hardAlpha"/>
<feMorphology radius="4.5" operator="erode" in="SourceAlpha" result="effect4_dropShadow_855_23892"/>
<feOffset dy="6"/>
<feGaussianBlur stdDeviation="4.5"/>
<feComposite in2="hardAlpha" operator="out"/>
<feColorMatrix type="matrix" values="0 0 0 0 0.203922 0 0 0 0 0.25098 0 0 0 0 0.329412 0 0 0 0.04 0"/>
<feBlend mode="normal" in2="effect3_dropShadow_855_23892" result="effect4_dropShadow_855_23892"/>
<feColorMatrix in="SourceAlpha" type="matrix" values="0 0 0 0 0 0 0 0 0 0 0 0 0 0 0 0 0 0 127 0" result="hardAlpha"/>
<feMorphology radius="8" operator="erode" in="SourceAlpha" result="effect5_dropShadow_855_23892"/>
<feOffset dy="12"/>
<feGaussianBlur stdDeviation="8"/>
<feComposite in2="hardAlpha" operator="out"/>
<feColorMatrix type="matrix" values="0 0 0 0 0.203922 0 0 0 0 0.25098 0 0 0 0 0.329412 0 0 0 0.04 0"/>
<feBlend mode="normal" in2="effect4_dropShadow_855_23892" result="effect5_dropShadow_855_23892"/>
<feBlend mode="normal" in="SourceGraphic" in2="effect5_dropShadow_855_23892" result="shape"/>
<feColorMatrix in="SourceAlpha" type="matrix" values="0 0 0 0 0 0 0 0 0 0 0 0 0 0 0 0 0 0 127 0" result="hardAlpha"/>
<feOffset dy="-1"/>
<feGaussianBlur stdDeviation="2"/>
<feComposite in2="hardAlpha" operator="arithmetic" k2="-1" k3="1"/>
<feColorMatrix type="matrix" values="0 0 0 0 0.203922 0 0 0 0 0.25098 0 0 0 0 0.329412 0 0 0 0.04 0"/>
<feBlend mode="normal" in2="shape" result="effect6_innerShadow_855_23892"/>
</filter>
<filter id="filter1_dddddddi_855_23892" x="288.629" y="89.5483" width="308.695" height="303.774" filterUnits="userSpaceOnUse" color-interpolation-filters="sRGB">
<feFlood flood-opacity="0" result="BackgroundImageFix"/>
<feColorMatrix in="SourceAlpha" type="matrix" values="0 0 0 0 0 0 0 0 0 0 0 0 0 0 0 0 0 0 127 0" result="hardAlpha"/>
<feOffset/>
<feComposite in2="hardAlpha" operator="out"/>
<feColorMatrix type="matrix" values="0 0 0 0 0.203922 0 0 0 0 0.109804 0 0 0 0 0.321569 0 0 0 0.06 0"/>
<feBlend mode="normal" in2="BackgroundImageFix" result="effect1_dropShadow_855_23892"/>
<feColorMatrix in="SourceAlpha" type="matrix" values="0 0 0 0 0 0 0 0 0 0 0 0 0 0 0 0 0 0 127 0" result="hardAlpha"/>
<feOffset dy="1"/>
<feGaussianBlur stdDeviation="0.5"/>
<feComposite in2="hardAlpha" operator="out"/>
<feColorMatrix type="matrix" values="0 0 0 0 0.203922 0 0 0 0 0.109804 0 0 0 0 0.321569 0 0 0 0.06 0"/>
<feBlend mode="normal" in2="effect1_dropShadow_855_23892" result="effect2_dropShadow_855_23892"/>
<feColorMatrix in="SourceAlpha" type="matrix" values="0 0 0 0 0 0 0 0 0 0 0 0 0 0 0 0 0 0 127 0" result="hardAlpha"/>
<feOffset dy="3"/>
<feGaussianBlur stdDeviation="1.5"/>
<feComposite in2="hardAlpha" operator="out"/>
<feColorMatrix type="matrix" values="0 0 0 0 0.203922 0 0 0 0 0.109804 0 0 0 0 0.321569 0 0 0 0.04 0"/>
<feBlend mode="normal" in2="effect2_dropShadow_855_23892" result="effect3_dropShadow_855_23892"/>
<feColorMatrix in="SourceAlpha" type="matrix" values="0 0 0 0 0 0 0 0 0 0 0 0 0 0 0 0 0 0 127 0" result="hardAlpha"/>
<feOffset dy="6"/>
<feGaussianBlur stdDeviation="3"/>
<feComposite in2="hardAlpha" operator="out"/>
<feColorMatrix type="matrix" values="0 0 0 0 0.203922 0 0 0 0 0.109804 0 0 0 0 0.321569 0 0 0 0.06 0"/>
<feBlend mode="normal" in2="effect3_dropShadow_855_23892" result="effect4_dropShadow_855_23892"/>
<feColorMatrix in="SourceAlpha" type="matrix" values="0 0 0 0 0 0 0 0 0 0 0 0 0 0 0 0 0 0 127 0" result="hardAlpha"/>
<feOffset dy="12"/>
<feGaussianBlur stdDeviation="6"/>
<feComposite in2="hardAlpha" operator="out"/>
<feColorMatrix type="matrix" values="0 0 0 0 0.203922 0 0 0 0 0.109804 0 0 0 0 0.321569 0 0 0 0.06 0"/>
<feBlend mode="normal" in2="effect4_dropShadow_855_23892" result="effect5_dropShadow_855_23892"/>
<feColorMatrix in="SourceAlpha" type="matrix" values="0 0 0 0 0 0 0 0 0 0 0 0 0 0 0 0 0 0 127 0" result="hardAlpha"/>
<feOffset dy="24"/>
<feGaussianBlur stdDeviation="12"/>
<feComposite in2="hardAlpha" operator="out"/>
<feColorMatrix type="matrix" values="0 0 0 0 0.203922 0 0 0 0 0.109804 0 0 0 0 0.321569 0 0 0 0.06 0"/>
<feBlend mode="normal" in2="effect5_dropShadow_855_23892" result="effect6_dropShadow_855_23892"/>
<feColorMatrix in="SourceAlpha" type="matrix" values="0 0 0 0 0 0 0 0 0 0 0 0 0 0 0 0 0 0 127 0" result="hardAlpha"/>
<feOffset dy="48"/>
<feGaussianBlur stdDeviation="24"/>
<feComposite in2="hardAlpha" operator="out"/>
<feColorMatrix type="matrix" values="0 0 0 0 0.203922 0 0 0 0 0.109804 0 0 0 0 0.321569 0 0 0 0.04 0"/>
<feBlend mode="normal" in2="effect6_dropShadow_855_23892" result="effect7_dropShadow_855_23892"/>
<feBlend mode="normal" in="SourceGraphic" in2="effect7_dropShadow_855_23892" result="shape"/>
<feColorMatrix in="SourceAlpha" type="matrix" values="0 0 0 0 0 0 0 0 0 0 0 0 0 0 0 0 0 0 127 0" result="hardAlpha"/>
<feOffset dx="4" dy="4"/>
<feGaussianBlur stdDeviation="6"/>
<feComposite in2="hardAlpha" operator="arithmetic" k2="-1" k3="1"/>
<feColorMatrix type="matrix" values="0 0 0 0 1 0 0 0 0 1 0 0 0 0 1 0 0 0 0.25 0"/>
<feBlend mode="normal" in2="shape" result="effect8_innerShadow_855_23892"/>
</filter>
<clipPath id="clip0_855_23892">
<rect width="618" height="385" fill="white"/>
</clipPath>
</defs>
</svg>
