<svg width="618" height="385" viewBox="0 0 618 385" fill="none" xmlns="http://www.w3.org/2000/svg">
<g clip-path="url(#clip0_854_23700)">
<g opacity="0.4">
<path d="M-73 -1C-73 -5.41828 -69.4183 -9 -65 -9H227C231.418 -9 235 -5.41828 235 -1V77C235 81.4183 231.418 85 227 85H-65C-69.4183 85 -73 81.4183 -73 77V-1Z" fill="white"/>
<path d="M244 -1C244 -5.41828 247.582 -9 252 -9H544C548.418 -9 552 -5.41828 552 -1V77C552 81.4183 548.418 85 544 85H252C247.582 85 244 81.4183 244 77V-1Z" fill="white"/>
<path d="M561 -1C561 -5.41828 564.582 -9 569 -9H861C865.418 -9 869 -5.41828 869 -1V77C869 81.4183 865.418 85 861 85H569C564.582 85 561 81.4183 561 77V-1Z" fill="white"/>
<path d="M-211 103C-211 98.5817 -207.418 95 -203 95H89C93.4183 95 97 98.5817 97 103V180C97 184.418 93.4183 188 89 188H-203C-207.418 188 -211 184.418 -211 180V103Z" fill="white"/>
<path d="M106 103C106 98.5817 109.582 95 114 95H406C410.418 95 414 98.5817 414 103V180C414 184.418 410.418 188 406 188H114C109.582 188 106 184.418 106 180V103Z" fill="white"/>
<path d="M423 103C423 98.5817 426.582 95 431 95H723C727.418 95 731 98.5817 731 103V180C731 184.418 727.418 188 723 188H431C426.582 188 423 184.418 423 180V103Z" fill="white"/>
<path d="M-133 207C-133 202.582 -129.418 199 -125 199H167C171.418 199 175 202.582 175 207V284C175 288.418 171.418 292 167 292H-125C-129.418 292 -133 288.418 -133 284V207Z" fill="white"/>
<path d="M184 207C184 202.582 187.582 199 192 199H484C488.418 199 492 202.582 492 207V284C492 288.418 488.418 292 484 292H192C187.582 292 184 288.418 184 284V207Z" fill="white"/>
<path d="M501 207C501 202.582 504.582 199 509 199H801C805.418 199 809 202.582 809 207V284C809 288.418 805.418 292 801 292H509C504.582 292 501 288.418 501 284V207Z" fill="white"/>
<path d="M-1 310C-1 305.582 2.58172 302 7 302H299C303.418 302 307 305.582 307 310V388C307 392.418 303.418 396 299 396H7C2.58172 396 -1 392.418 -1 388V310Z" fill="white"/>
<path d="M316 310C316 305.582 319.582 302 324 302H616C620.418 302 624 305.582 624 310V388C624 392.418 620.418 396 616 396H324C319.582 396 316 392.418 316 388V310Z" fill="white"/>
</g>
<g filter="url(#filter0_dddd_854_23700)">
<path d="M17.3443 306.54C-13.0523 287.277 -38.7549 269.015 -43.9707 232.629C-49.3635 195.009 -35.2892 138.913 -11.3856 101.191C9.56883 68.1242 46.8485 33.4709 78.1878 20.5237C117.175 4.41719 153.353 16.1051 187.627 37.8244L17.3443 306.54Z" fill="#4E2087"/>
<g filter="url(#filter1_dii_854_23700)">
<ellipse cx="102.485" cy="172.18" rx="110.999" ry="158.907" transform="rotate(32.3621 102.485 172.18)" fill="#A67BED"/>
</g>
<ellipse cx="102.488" cy="172.181" rx="19.9787" ry="37.5446" transform="rotate(32.3621 102.488 172.181)" fill="#6921C4"/>
<path d="M144.482 105.91C155.192 112.697 160.445 126.17 160.042 142.747C159.64 159.302 153.585 178.763 141.921 197.17C130.257 215.576 115.244 229.361 100.446 236.793C85.6276 244.235 71.2016 245.237 60.4919 238.451C49.7822 231.664 44.5277 218.191 44.9304 201.613C45.3326 185.059 51.3876 165.597 63.0517 147.19C74.7157 128.784 89.7288 115 104.527 107.568C119.345 100.125 133.772 99.1231 144.482 105.91Z" stroke="#6921C4" stroke-width="2"/>
<path d="M162.275 77.8318C179.901 89.0014 189.336 109.614 190.199 134.09C191.062 158.56 183.34 186.783 166.776 212.922C150.212 239.062 127.988 258.094 105.492 267.762C82.9912 277.433 60.3232 277.702 42.697 266.533C25.0708 255.363 15.6356 234.75 14.7728 210.274C13.9103 185.804 21.6318 157.582 38.1962 131.442C54.7605 105.303 76.9844 86.2701 99.4801 76.6019C121.981 66.9316 144.649 66.6623 162.275 77.8318Z" stroke="#6921C4" stroke-width="2"/>
<line x1="371.912" y1="333.462" x2="102.478" y2="173.628" stroke="#341C52"/>
<line x1="394.866" y1="253.596" x2="102.598" y2="171.396" stroke="#341C52"/>
</g>
</g>
<defs>
<filter id="filter0_dddd_854_23700" x="-327.118" y="-24.9829" width="738.12" height="498.875" filterUnits="userSpaceOnUse" color-interpolation-filters="sRGB">
<feFlood flood-opacity="0" result="BackgroundImageFix"/>
<feColorMatrix in="SourceAlpha" type="matrix" values="0 0 0 0 0 0 0 0 0 0 0 0 0 0 0 0 0 0 127 0" result="hardAlpha"/>
<feOffset dx="-12" dy="4"/>
<feGaussianBlur stdDeviation="14"/>
<feColorMatrix type="matrix" values="0 0 0 0 0.305882 0 0 0 0 0.0784314 0 0 0 0 0.560784 0 0 0 0.25 0"/>
<feBlend mode="normal" in2="BackgroundImageFix" result="effect1_dropShadow_854_23700"/>
<feColorMatrix in="SourceAlpha" type="matrix" values="0 0 0 0 0 0 0 0 0 0 0 0 0 0 0 0 0 0 127 0" result="hardAlpha"/>
<feOffset dx="-50" dy="14"/>
<feGaussianBlur stdDeviation="26"/>
<feColorMatrix type="matrix" values="0 0 0 0 0.305882 0 0 0 0 0.0784314 0 0 0 0 0.560784 0 0 0 0.21 0"/>
<feBlend mode="normal" in2="effect1_dropShadow_854_23700" result="effect2_dropShadow_854_23700"/>
<feColorMatrix in="SourceAlpha" type="matrix" values="0 0 0 0 0 0 0 0 0 0 0 0 0 0 0 0 0 0 127 0" result="hardAlpha"/>
<feOffset dx="-112" dy="32"/>
<feGaussianBlur stdDeviation="35"/>
<feColorMatrix type="matrix" values="0 0 0 0 0.305882 0 0 0 0 0.0784314 0 0 0 0 0.560784 0 0 0 0.13 0"/>
<feBlend mode="normal" in2="effect2_dropShadow_854_23700" result="effect3_dropShadow_854_23700"/>
<feColorMatrix in="SourceAlpha" type="matrix" values="0 0 0 0 0 0 0 0 0 0 0 0 0 0 0 0 0 0 127 0" result="hardAlpha"/>
<feOffset dx="-199" dy="57"/>
<feGaussianBlur stdDeviation="41.5"/>
<feColorMatrix type="matrix" values="0 0 0 0 0.305882 0 0 0 0 0.0784314 0 0 0 0 0.560784 0 0 0 0.04 0"/>
<feBlend mode="normal" in2="effect3_dropShadow_854_23700" result="effect4_dropShadow_854_23700"/>
<feBlend mode="normal" in="SourceGraphic" in2="effect4_dropShadow_854_23700" result="shape"/>
</filter>
<filter id="filter1_dii_854_23700" x="-30.1084" y="19.356" width="261.186" height="303.649" filterUnits="userSpaceOnUse" color-interpolation-filters="sRGB">
<feFlood flood-opacity="0" result="BackgroundImageFix"/>
<feColorMatrix in="SourceAlpha" type="matrix" values="0 0 0 0 0 0 0 0 0 0 0 0 0 0 0 0 0 0 127 0" result="hardAlpha"/>
<feOffset dx="-2" dy="-2"/>
<feGaussianBlur stdDeviation="2"/>
<feComposite in2="hardAlpha" operator="out"/>
<feColorMatrix type="matrix" values="0 0 0 0 0 0 0 0 0 0 0 0 0 0 0 0 0 0 0.15 0"/>
<feBlend mode="normal" in2="BackgroundImageFix" result="effect1_dropShadow_854_23700"/>
<feBlend mode="normal" in="SourceGraphic" in2="effect1_dropShadow_854_23700" result="shape"/>
<feColorMatrix in="SourceAlpha" type="matrix" values="0 0 0 0 0 0 0 0 0 0 0 0 0 0 0 0 0 0 127 0" result="hardAlpha"/>
<feOffset dy="4"/>
<feGaussianBlur stdDeviation="2"/>
<feComposite in2="hardAlpha" operator="arithmetic" k2="-1" k3="1"/>
<feColorMatrix type="matrix" values="0 0 0 0 1 0 0 0 0 1 0 0 0 0 1 0 0 0 0.25 0"/>
<feBlend mode="normal" in2="shape" result="effect2_innerShadow_854_23700"/>
<feColorMatrix in="SourceAlpha" type="matrix" values="0 0 0 0 0 0 0 0 0 0 0 0 0 0 0 0 0 0 127 0" result="hardAlpha"/>
<feOffset dx="-4" dy="-4"/>
<feGaussianBlur stdDeviation="2"/>
<feComposite in2="hardAlpha" operator="arithmetic" k2="-1" k3="1"/>
<feColorMatrix type="matrix" values="0 0 0 0 0.411765 0 0 0 0 0.129412 0 0 0 0 0.768627 0 0 0 0.1 0"/>
<feBlend mode="normal" in2="effect2_innerShadow_854_23700" result="effect3_innerShadow_854_23700"/>
</filter>
<clipPath id="clip0_854_23700">
<rect width="618" height="385" fill="white"/>
</clipPath>
</defs>
</svg>
