<svg width="313" height="377" viewBox="0 0 313 377" fill="none" xmlns="http://www.w3.org/2000/svg">
<mask id="mask0_1299_26636" style="mask-type:luminance" maskUnits="userSpaceOnUse" x="29" y="0" width="281" height="320">
<rect x="29" width="281" height="320" fill="url(#paint0_linear_1299_26636)"/>
</mask>
<g mask="url(#mask0_1299_26636)">
<path d="M169 288L169 -127" stroke="#E7E5E4"/>
<path d="M169 352L169 246.997C169 233.963 175.35 221.746 186.019 214.257L254.981 165.848C265.649 158.36 272 146.143 272 133.109L272 -7" stroke="#E7E5E4"/>
<path d="M169 357V226.041C169 211.888 161.521 198.788 149.332 191.594L74.6682 147.525C62.4795 140.331 55.0001 127.231 55.0001 113.078L55.0001 -2" stroke="#E7E5E4"/>
</g>
<g filter="url(#filter0_dddd_1299_26636)">
<g filter="url(#filter1_dd_1299_26636)">
<ellipse cx="169.5" cy="290.5" rx="42.5" ry="41.5" fill="white"/>
<ellipse cx="169.5" cy="290.5" rx="42.5" ry="41.5" fill="url(#paint1_radial_1299_26636)"/>
<path d="M169.5 249.75C192.575 249.75 211.25 268.011 211.25 290.5C211.25 312.989 192.575 331.25 169.5 331.25C146.425 331.25 127.75 312.989 127.75 290.5C127.75 268.011 146.425 249.75 169.5 249.75Z" stroke="#5C5C5C" stroke-opacity="0.5" stroke-width="1.5"/>
<path d="M169.5 249.75C192.575 249.75 211.25 268.011 211.25 290.5C211.25 312.989 192.575 331.25 169.5 331.25C146.425 331.25 127.75 312.989 127.75 290.5C127.75 268.011 146.425 249.75 169.5 249.75Z" stroke="url(#paint2_linear_1299_26636)" stroke-width="1.5"/>
</g>
<g filter="url(#filter2_d_1299_26636)">
<ellipse cx="169.5" cy="290.715" rx="35.5964" ry="34.8342" fill="url(#paint3_radial_1299_26636)"/>
</g>
<ellipse cx="169.5" cy="290.5" rx="29.5558" ry="29.4585" fill="#7A33D6"/>
<path d="M183.091 283.834L169.5 276.093V305.337C181.236 301.036 183.451 289.21 183.091 283.834Z" fill="white"/>
<path d="M155.944 283.834L169.5 276.093V305.337C157.764 301.036 155.585 289.21 155.944 283.834Z" fill="#E7E5E4"/>
<g filter="url(#filter3_dd_1299_26636)">
<ellipse cx="169.5" cy="290.5" rx="42.5" ry="41.5" fill="url(#paint4_radial_1299_26636)" fill-opacity="0.6" shape-rendering="crispEdges"/>
<ellipse cx="169.5" cy="290.5" rx="42.5" ry="41.5" fill="url(#paint5_radial_1299_26636)" fill-opacity="0.6" shape-rendering="crispEdges"/>
<path d="M169.5 249.75C192.575 249.75 211.25 268.011 211.25 290.5C211.25 312.989 192.575 331.25 169.5 331.25C146.425 331.25 127.75 312.989 127.75 290.5C127.75 268.011 146.425 249.75 169.5 249.75Z" stroke="#5C5C5C" stroke-opacity="0.5" stroke-width="1.5" shape-rendering="crispEdges"/>
<path d="M169.5 249.75C192.575 249.75 211.25 268.011 211.25 290.5C211.25 312.989 192.575 331.25 169.5 331.25C146.425 331.25 127.75 312.989 127.75 290.5C127.75 268.011 146.425 249.75 169.5 249.75Z" stroke="url(#paint6_linear_1299_26636)" stroke-width="1.5" shape-rendering="crispEdges"/>
</g>
</g>
<g filter="url(#filter4_ddd_1299_26636)">
<path d="M10 41C10 36.5817 13.5817 33 18 33H79C83.4183 33 87 36.5817 87 41V49C87 53.4183 83.4183 57 79 57H18C13.5817 57 10 53.4183 10 49V41Z" fill="#FAFAF9"/>
<path d="M18 33.5H79C83.1421 33.5 86.5 36.8579 86.5 41V49C86.5 53.1421 83.1421 56.5 79 56.5H18C13.8579 56.5 10.5 53.1421 10.5 49V41C10.5 36.8579 13.8579 33.5 18 33.5Z" stroke="#78716C" stroke-opacity="0.1"/>
<circle opacity="0.1" cx="19.6253" cy="40.6251" r="0.958333" fill="black"/>
<circle opacity="0.1" cx="22.5423" cy="40.6251" r="0.958333" fill="black"/>
<circle opacity="0.1" cx="25.4583" cy="40.6251" r="0.958333" fill="black"/>
<circle opacity="0.1" cx="28.3753" cy="40.6251" r="0.958333" fill="black"/>
<circle opacity="0.5" cx="19.6253" cy="43.5418" r="0.958333" fill="black"/>
<circle opacity="0.5" cx="22.5423" cy="43.5418" r="0.958333" fill="black"/>
<circle opacity="0.5" cx="25.4583" cy="43.5418" r="0.958333" fill="black"/>
<circle opacity="0.5" cx="28.3753" cy="43.5418" r="0.958333" fill="black"/>
<circle cx="19.6253" cy="46.4583" r="0.958333" fill="black"/>
<circle cx="22.5423" cy="46.4583" r="0.958333" fill="black"/>
<circle cx="25.4583" cy="46.4583" r="0.958333" fill="black"/>
<circle cx="28.3753" cy="46.4583" r="0.958333" fill="black"/>
<circle opacity="0.1" cx="19.6253" cy="49.3751" r="0.958333" fill="black"/>
<circle opacity="0.1" cx="22.5423" cy="49.3751" r="0.958333" fill="black"/>
<circle opacity="0.1" cx="25.4583" cy="49.3751" r="0.958333" fill="black"/>
<circle opacity="0.1" cx="28.3753" cy="49.3751" r="0.958333" fill="black"/>
<path d="M38.6055 49V41.7246H43.6592V42.8428H39.8945V44.7568H43.376V45.8555H39.8945V47.8818H43.6592V49H38.6055ZM44.7918 49V41.7246H46.0809V47.8818H49.4549V49H44.7918ZM50.4898 49V41.7246H55.5436V42.8428H51.7789V44.7568H55.2604V45.8555H51.7789V47.8818H55.5436V49H50.4898ZM58.7318 49L56.1342 41.7246H57.5307L58.8441 45.5479C59.0395 46.1631 59.2689 46.9053 59.5473 47.8281C59.8207 46.9053 60.0453 46.1631 60.2357 45.5479L61.5053 41.7246H62.8871L60.3383 49H58.7318ZM62.174 49L64.7717 41.7246H66.3928L68.9807 49H67.5598L66.9787 47.2617H64.1564L63.5607 49H62.174ZM64.5178 46.2021H66.6271L66.2854 45.1768C66.0705 44.5078 65.8557 43.8096 65.5822 42.8916C65.3088 43.8096 65.0891 44.5078 64.8693 45.1768L64.5178 46.2021ZM68.4922 42.8428V41.7246H74.3076V42.8428H72.0518V49H70.7578V42.8428H68.4922ZM75.3426 49V41.7246H80.3963V42.8428H76.6316V44.7568H80.1131V45.8555H76.6316V47.8818H80.3963V49H75.3426Z" fill="#736D7B"/>
</g>
<g filter="url(#filter5_ddd_1299_26636)">
<path d="M122 69C122 64.5817 125.582 61 130 61H204C208.418 61 212 64.5817 212 69V77C212 81.4183 208.418 85 204 85H130C125.582 85 122 81.4183 122 77V69Z" fill="#FAFAF9"/>
<path d="M130 61.5H204C208.142 61.5 211.5 64.8579 211.5 69V77C211.5 81.1421 208.142 84.5 204 84.5H130C125.858 84.5 122.5 81.1421 122.5 77V69C122.5 64.8579 125.858 61.5 130 61.5Z" stroke="#78716C" stroke-opacity="0.1"/>
<g clip-path="url(#clip0_1299_26636)">
<mask id="mask1_1299_26636" style="mask-type:luminance" maskUnits="userSpaceOnUse" x="128" y="65" width="16" height="16">
<path d="M144 65H128V81H144V65Z" fill="white"/>
<path d="M134.891 71.8509C135.194 70.7164 136.806 70.7164 137.109 71.8509L138.577 76.3157C138.795 77.1332 138.612 78.0059 138.083 78.6666C137.549 79.3333 136.774 79.6666 136 79.6666C135.226 79.6666 134.451 79.3333 133.917 78.6666C133.388 78.0059 133.205 77.1332 133.423 76.3157L134.891 71.8509ZM131.407 73.0019C131.743 73.0361 132.005 73.3202 132.005 73.6653C132.005 74.0104 131.743 74.2945 131.407 74.3287L131.339 74.3319H131.335C130.966 74.3319 130.668 74.0335 130.668 73.6653C130.668 73.2971 130.966 72.9986 131.335 72.9986H131.339L131.407 73.0019ZM140.74 73.0019C141.076 73.0361 141.339 73.3202 141.339 73.6653C141.339 74.0104 141.076 74.2945 140.74 74.3287L140.672 74.3319H140.668C140.3 74.3319 140.001 74.0335 140.001 73.6653C140.001 73.2971 140.3 72.9986 140.668 72.9986H140.672L140.74 73.0019ZM132.233 69.8938C132.477 69.6498 132.863 69.6342 133.125 69.8476L133.176 69.8938L133.178 69.8964L133.225 69.9472C133.438 70.209 133.422 70.5951 133.178 70.8391C132.918 71.0994 132.496 71.0994 132.236 70.8391L132.233 70.8365L132.188 70.7857C131.974 70.5239 131.989 70.1379 132.233 69.8938ZM138.831 69.8938C139.091 69.6334 139.513 69.6335 139.773 69.8938C140.034 70.1541 140.034 70.5762 139.773 70.8365L139.771 70.8391C139.511 71.0994 139.088 71.0994 138.828 70.8391C138.568 70.5788 138.568 70.1568 138.828 69.8964L138.831 69.8938ZM136 68.3333C136.368 68.3333 136.667 68.6318 136.667 68.9999V69.0038C136.667 69.372 136.368 69.6705 136 69.6705C135.632 69.6705 135.333 69.372 135.333 69.0038V68.9999C135.333 68.6317 135.632 68.3333 136 68.3333Z" fill="black"/>
</mask>
<g mask="url(#mask1_1299_26636)">
<path fill-rule="evenodd" clip-rule="evenodd" d="M136 66.3333C140.05 66.3333 143.334 69.6165 143.334 73.6666C143.334 74.8841 143.037 76.0323 142.512 77.0429C142.304 77.4427 141.876 77.6665 141.425 77.6666H130.575C130.125 77.6665 129.696 77.4427 129.489 77.0429C128.964 76.0323 128.667 74.8841 128.667 73.6666C128.667 69.6165 131.95 66.3333 136 66.3333Z" fill="#A8A29E"/>
</g>
<path opacity="0.6" d="M134.891 71.8509C135.194 70.7164 136.806 70.7164 137.109 71.8509L138.577 76.3157C138.795 77.1332 138.612 78.0059 138.083 78.6666C137.549 79.3333 136.774 79.6666 136 79.6666C135.226 79.6666 134.451 79.3333 133.917 78.6666C133.388 78.0059 133.205 77.1332 133.423 76.3157L134.891 71.8509ZM131.407 73.0019C131.743 73.0361 132.005 73.3202 132.005 73.6653C132.005 74.0104 131.743 74.2945 131.407 74.3287L131.339 74.3319H131.335C130.966 74.3319 130.668 74.0335 130.668 73.6653C130.668 73.2971 130.966 72.9986 131.335 72.9986H131.339L131.407 73.0019ZM140.74 73.0019C141.076 73.0361 141.339 73.3202 141.339 73.6653C141.339 74.0104 141.076 74.2945 140.74 74.3287L140.672 74.3319H140.668C140.3 74.3319 140.001 74.0335 140.001 73.6653C140.001 73.2971 140.3 72.9986 140.668 72.9986H140.672L140.74 73.0019ZM132.233 69.8938C132.477 69.6498 132.863 69.6342 133.125 69.8476L133.176 69.8938L133.178 69.8964L133.225 69.9472C133.438 70.209 133.422 70.5951 133.178 70.8391C132.918 71.0994 132.496 71.0994 132.236 70.8391L132.233 70.8365L132.188 70.7857C131.974 70.5239 131.989 70.1379 132.233 69.8938ZM138.831 69.8938C139.091 69.6334 139.513 69.6335 139.773 69.8938C140.034 70.1541 140.034 70.5762 139.773 70.8365L139.771 70.8391C139.511 71.0994 139.088 71.0994 138.828 70.8391C138.568 70.5788 138.568 70.1568 138.828 69.8964L138.831 69.8938ZM136 68.3333C136.368 68.3333 136.667 68.6318 136.667 68.9999V69.0038C136.667 69.372 136.368 69.6705 136 69.6705C135.632 69.6705 135.333 69.372 135.333 69.0038V68.9999C135.333 68.6317 135.632 68.3333 136 68.3333Z" fill="#A8A29E"/>
</g>
<path d="M150.063 77L152.661 69.7246H154.282L156.87 77H155.449L154.868 75.2617H152.046L151.45 77H150.063ZM152.407 74.2021H154.517L154.175 73.1768C153.96 72.5078 153.745 71.8096 153.472 70.8916C153.198 71.8096 152.979 72.5078 152.759 73.1768L152.407 74.2021ZM160.224 77.1172C158.442 77.1172 157.28 76.0381 157.28 74.4854V69.7246H158.554V74.3828C158.554 75.3057 159.204 75.9746 160.224 75.9746C161.245 75.9746 161.889 75.3105 161.889 74.3828V69.7246H163.164V74.4854C163.164 76.0332 162.002 77.1172 160.224 77.1172ZM164.17 70.8428V69.7246H169.985V70.8428H167.729V77H166.435V70.8428H164.17ZM173.754 77.1172C171.806 77.1172 170.366 75.6328 170.366 73.3672C170.366 71.0869 171.806 69.6074 173.754 69.6074C175.703 69.6074 177.143 71.0869 177.143 73.3672C177.143 75.6377 175.703 77.1172 173.754 77.1172ZM173.754 75.96C174.941 75.96 175.839 75.0273 175.839 73.3672C175.839 71.7021 174.941 70.7646 173.754 70.7646C172.563 70.7646 171.664 71.7021 171.664 73.3672C171.664 75.0273 172.563 75.96 173.754 75.96ZM178.3 77V69.7246H180.155L181.571 73.5479C181.708 73.9531 181.943 74.6807 182.113 75.2471C182.284 74.6807 182.519 73.9531 182.651 73.5479L184.042 69.7246H185.907V77H184.638V73.2891C184.638 72.7764 184.662 71.9707 184.682 71.2236C184.423 72.0439 184.174 72.8447 184.018 73.2891L182.631 77H181.576L180.18 73.2891C180.029 72.8643 179.784 72.1123 179.53 71.3262C179.545 72.0439 179.57 72.8008 179.57 73.2891V77H178.3ZM186.776 77L189.374 69.7246H190.995L193.583 77H192.162L191.581 75.2617H188.759L188.163 77H186.776ZM189.12 74.2021H191.229L190.888 73.1768C190.673 72.5078 190.458 71.8096 190.185 70.8916C189.911 71.8096 189.691 72.5078 189.472 73.1768L189.12 74.2021ZM193.095 70.8428V69.7246H198.91V70.8428H196.654V77H195.36V70.8428H193.095ZM199.945 77V69.7246H204.999V70.8428H201.234V72.7568H204.715V73.8555H201.234V75.8818H204.999V77H199.945Z" fill="#736D7B"/>
</g>
<g filter="url(#filter6_ddd_1299_26636)">
<path d="M218 104C218 99.5817 221.582 96 226 96H295C299.418 96 303 99.5817 303 104V112C303 116.418 299.418 120 295 120H226C221.582 120 218 116.418 218 112V104Z" fill="#FAFAF9"/>
<path d="M226 96.5H295C299.142 96.5 302.5 99.8579 302.5 104V112C302.5 116.142 299.142 119.5 295 119.5H226C221.858 119.5 218.5 116.142 218.5 112V104C218.5 99.8579 221.858 96.5 226 96.5Z" stroke="#78716C" stroke-opacity="0.1"/>
<g clip-path="url(#clip1_1299_26636)">
<g opacity="0.6">
<mask id="mask2_1299_26636" style="mask-type:luminance" maskUnits="userSpaceOnUse" x="224" y="100" width="16" height="16">
<path d="M240 100H224V116H240V100Z" fill="white"/>
<path d="M234.733 104.333C236.226 104.333 236.974 104.333 237.544 104.624C238.046 104.879 238.454 105.287 238.709 105.789C239 106.359 239 107.107 239 108.6V110.733C239 112.226 239 112.974 238.709 113.544C238.454 114.046 238.046 114.454 237.544 114.71C236.974 115 236.226 115 234.733 115H232.6C231.106 115 230.359 115 229.789 114.71C229.287 114.454 228.879 114.046 228.623 113.544C228.333 112.974 228.333 112.226 228.333 110.733V108.6C228.333 107.107 228.333 106.359 228.623 105.789C228.879 105.287 229.287 104.879 229.789 104.624C230.359 104.333 231.106 104.333 232.6 104.333H234.733ZM237.138 107.529C236.877 107.268 236.455 107.268 236.195 107.529L233 110.724L231.804 109.529L231.754 109.483C231.492 109.269 231.106 109.285 230.862 109.529C230.601 109.789 230.601 110.211 230.862 110.471L232.528 112.138C232.789 112.398 233.211 112.398 233.471 112.138L237.138 108.471C237.398 108.211 237.398 107.789 237.138 107.529Z" fill="black"/>
</mask>
<g mask="url(#mask2_1299_26636)">
<path d="M230.182 101.105C231.624 100.718 232.345 100.524 232.971 100.657C233.522 100.774 234.022 101.063 234.399 101.481C234.828 101.957 235.02 102.679 235.407 104.121L235.959 106.182C236.053 106.531 236.135 106.839 236.204 107.112C236.581 106.916 237.057 106.976 237.373 107.293C237.764 107.683 237.764 108.316 237.373 108.707L233.707 112.373C233.316 112.764 232.683 112.764 232.292 112.373L231.667 111.748L230.882 111.959C229.439 112.346 228.718 112.54 228.092 112.407C227.541 112.29 227.041 112.001 226.664 111.582C226.236 111.107 226.043 110.385 225.656 108.942L225.104 106.882C224.718 105.44 224.524 104.718 224.657 104.092C224.774 103.541 225.063 103.041 225.481 102.664C225.957 102.236 226.679 102.043 228.121 101.657L230.182 101.105Z" fill="#A8A29E"/>
</g>
</g>
<mask id="mask3_1299_26636" style="mask-type:luminance" maskUnits="userSpaceOnUse" x="228" y="104" width="11" height="11">
<path d="M234.733 104.333C236.226 104.333 236.974 104.333 237.544 104.624C238.046 104.879 238.454 105.287 238.709 105.789C239 106.359 239 107.107 239 108.6V110.733C239 112.226 239 112.974 238.709 113.544C238.454 114.046 238.046 114.454 237.544 114.71C236.974 115 236.226 115 234.733 115H232.6C231.106 115 230.359 115 229.789 114.71C229.287 114.454 228.879 114.046 228.623 113.544C228.333 112.974 228.333 112.226 228.333 110.733V108.6C228.333 107.107 228.333 106.359 228.623 105.789C228.879 105.287 229.287 104.879 229.789 104.624C230.359 104.333 231.106 104.333 232.6 104.333H234.733ZM237.138 107.529C236.877 107.268 236.455 107.268 236.195 107.529L233 110.724L231.804 109.529L231.754 109.483C231.492 109.269 231.106 109.285 230.862 109.529C230.601 109.789 230.601 110.211 230.862 110.471L232.528 112.138C232.789 112.398 233.211 112.398 233.471 112.138L237.138 108.471C237.398 108.211 237.398 107.789 237.138 107.529Z" fill="white"/>
</mask>
<g mask="url(#mask3_1299_26636)">
<g filter="url(#filter7_f_1299_26636)">
<path d="M230.182 101.105C231.624 100.718 232.345 100.524 232.971 100.657C233.522 100.774 234.022 101.063 234.399 101.481C234.828 101.957 235.02 102.679 235.407 104.121L235.959 106.182C236.053 106.531 236.135 106.839 236.204 107.112C236.581 106.916 237.057 106.976 237.373 107.293C237.764 107.683 237.764 108.316 237.373 108.707L233.707 112.373C233.316 112.764 232.683 112.764 232.292 112.373L231.667 111.748L230.882 111.959C229.439 112.346 228.718 112.54 228.092 112.407C227.541 112.29 227.041 112.001 226.664 111.582C226.236 111.107 226.043 110.385 225.656 108.942L225.104 106.882C224.718 105.44 224.524 104.718 224.657 104.092C224.774 103.541 225.063 103.041 225.481 102.664C225.957 102.236 226.679 102.043 228.121 101.657L230.182 101.105Z" fill="#A8A29E"/>
</g>
</g>
<path d="M234.733 104.333C236.226 104.333 236.974 104.333 237.544 104.624C238.046 104.879 238.454 105.287 238.709 105.789C239 106.359 239 107.107 239 108.6V110.733C239 112.226 239 112.974 238.709 113.544C238.454 114.046 238.046 114.454 237.544 114.71C236.974 115 236.226 115 234.733 115H232.6C231.106 115 230.359 115 229.789 114.71C229.287 114.454 228.879 114.046 228.623 113.544C228.333 112.974 228.333 112.226 228.333 110.733V108.6C228.333 107.107 228.333 106.359 228.623 105.789C228.879 105.287 229.287 104.879 229.789 104.624C230.359 104.333 231.106 104.333 232.6 104.333H234.733ZM237.138 107.529C236.877 107.268 236.455 107.268 236.195 107.529L233 110.724L231.804 109.529L231.754 109.483C231.492 109.269 231.106 109.285 230.862 109.529C230.601 109.789 230.601 110.211 230.862 110.471L232.528 112.138C232.789 112.398 233.211 112.398 233.471 112.138L237.138 108.471C237.398 108.211 237.398 107.789 237.138 107.529Z" fill="#A8A29E"/>
<path d="M234.733 114.5V115H232.6V114.5H234.733ZM238.5 110.733V108.6C238.5 107.845 238.499 107.309 238.465 106.889C238.431 106.475 238.367 106.219 238.263 106.016C238.056 105.609 237.724 105.277 237.317 105.07C237.114 104.966 236.857 104.902 236.444 104.868C236.024 104.833 235.488 104.833 234.733 104.833H232.6C231.845 104.833 231.309 104.833 230.889 104.868C230.475 104.902 230.219 104.966 230.016 105.07C229.608 105.277 229.277 105.609 229.069 106.016C228.966 106.219 228.901 106.475 228.868 106.889C228.833 107.309 228.833 107.845 228.833 108.6V110.733C228.833 111.488 228.833 112.024 228.868 112.444C228.901 112.858 228.966 113.114 229.069 113.317C229.277 113.725 229.608 114.056 230.016 114.264C230.219 114.367 230.475 114.432 230.889 114.465C231.309 114.5 231.845 114.5 232.6 114.5V115L231.61 114.995C230.816 114.983 230.307 114.936 229.898 114.76L229.789 114.71C229.35 114.486 228.982 114.145 228.726 113.728L228.623 113.544C228.333 112.974 228.333 112.226 228.333 110.733V108.6C228.333 107.107 228.333 106.359 228.623 105.789C228.879 105.287 229.287 104.879 229.789 104.624C230.217 104.406 230.744 104.351 231.61 104.338L232.6 104.333H234.733C236.226 104.333 236.974 104.333 237.544 104.624C238.046 104.879 238.454 105.287 238.709 105.789C239 106.359 239 107.107 239 108.6V110.733C239 112.226 239 112.974 238.709 113.544L238.606 113.728C238.35 114.145 237.983 114.486 237.544 114.71L237.435 114.76C236.877 115 236.133 115 234.733 115V114.5C235.488 114.5 236.024 114.5 236.444 114.465C236.857 114.432 237.114 114.367 237.317 114.264C237.724 114.056 238.056 113.725 238.263 113.317C238.367 113.114 238.431 112.858 238.465 112.444C238.499 112.024 238.5 111.488 238.5 110.733Z" fill="#A8A29E"/>
</g>
<path d="M246.605 112V104.725H251.659V105.843H247.895V107.757H251.376V108.855H247.895V110.882H251.659V112H246.605ZM254.847 112L252.25 104.725H253.646L254.96 108.548C255.155 109.163 255.385 109.905 255.663 110.828C255.936 109.905 256.161 109.163 256.351 108.548L257.621 104.725H259.003L256.454 112H254.847ZM258.29 112L260.887 104.725H262.508L265.096 112H263.675L263.094 110.262H260.272L259.676 112H258.29ZM260.633 109.202H262.743L262.401 108.177C262.186 107.508 261.971 106.81 261.698 105.892C261.424 106.81 261.205 107.508 260.985 108.177L260.633 109.202ZM265.965 112V104.725H267.254V110.882H270.628V112H265.965ZM274.578 112.117C272.796 112.117 271.634 111.038 271.634 109.485V104.725H272.908V109.383C272.908 110.306 273.558 110.975 274.578 110.975C275.599 110.975 276.243 110.311 276.243 109.383V104.725H277.518V109.485C277.518 111.033 276.356 112.117 274.578 112.117ZM277.933 112L280.53 104.725H282.151L284.739 112H283.318L282.737 110.262H279.915L279.319 112H277.933ZM280.276 109.202H282.386L282.044 108.177C281.829 107.508 281.614 106.81 281.341 105.892C281.067 106.81 280.848 107.508 280.628 108.177L280.276 109.202ZM284.251 105.843V104.725H290.066V105.843H287.81V112H286.516V105.843H284.251ZM291.101 112V104.725H296.155V105.843H292.39V107.757H295.872V108.855H292.39V110.882H296.155V112H291.101Z" fill="#736D7B"/>
</g>
<g filter="url(#filter8_ddd_1299_26636)">
<path d="M52 149C52 144.582 55.5817 141 60 141H119C123.418 141 127 144.582 127 149V157C127 161.418 123.418 165 119 165H60C55.5817 165 52 161.418 52 157V149Z" fill="#FAFAF9"/>
<path d="M60 141.5H119C123.142 141.5 126.5 144.858 126.5 149V157C126.5 161.142 123.142 164.5 119 164.5H60C55.8579 164.5 52.5 161.142 52.5 157V149C52.5 144.858 55.8579 141.5 60 141.5Z" stroke="#78716C" stroke-opacity="0.1"/>
<g clip-path="url(#clip2_1299_26636)">
<mask id="mask4_1299_26636" style="mask-type:luminance" maskUnits="userSpaceOnUse" x="58" y="145" width="16" height="16">
<path d="M74 145H58V161H74V145Z" fill="white"/>
<path d="M62.747 153.667H64.6664V150.667C64.6664 150.114 65.1141 149.667 65.6664 149.667H66.3331C66.8853 149.667 67.3331 150.114 67.3331 150.667V153.667H69.2525C70.0909 153.667 70.5571 154.637 70.0333 155.291L66.7806 159.357C66.3803 159.858 65.6191 159.858 65.2189 159.357L61.9661 155.291C61.4423 154.637 61.9085 153.667 62.747 153.667Z" fill="black"/>
</mask>
<g mask="url(#mask4_1299_26636)">
<path fill-rule="evenodd" clip-rule="evenodd" d="M60.0443 151.235C60.4175 148.498 62.8028 146.333 65.6667 146.333C68.4973 146.333 70.7906 148.386 71.2605 151.053C72.8141 151.335 74 152.701 74 154.333C74 156.168 72.5015 157.667 70.6667 157.667H61.3333C59.4985 157.667 58 156.168 58 154.333C58 152.94 58.8457 151.727 60.0443 151.235Z" fill="#A8A29E"/>
</g>
<path opacity="0.6" d="M62.747 153.667H64.6664V150.667C64.6664 150.114 65.1141 149.667 65.6664 149.667H66.3331C66.8853 149.667 67.3331 150.114 67.3331 150.667V153.667H69.2525C70.0909 153.667 70.5571 154.637 70.0333 155.291L66.7806 159.357C66.3803 159.858 65.6191 159.858 65.2189 159.357L61.9661 155.291C61.4423 154.637 61.9085 153.667 62.747 153.667Z" fill="#A8A29E"/>
</g>
<path d="M80.0635 157L82.6611 149.725H84.2822L86.8701 157H85.4492L84.8682 155.262H82.0459L81.4502 157H80.0635ZM82.4072 154.202H84.5166L84.1748 153.177C83.96 152.508 83.7451 151.81 83.4717 150.892C83.1982 151.81 82.9785 152.508 82.7588 153.177L82.4072 154.202ZM90.2635 157.117C88.4617 157.117 87.3826 156.185 87.3826 154.627H88.6473C88.657 155.506 89.2625 156.028 90.2732 156.028C91.1814 156.028 91.782 155.618 91.782 154.979C91.782 154.466 91.4012 154.168 90.4295 153.943L89.6482 153.768C88.1932 153.436 87.5242 152.796 87.5242 151.775C87.5242 150.477 88.5936 149.607 90.2 149.607C91.826 149.607 92.8367 150.486 92.8807 151.932H91.6551C91.6014 151.165 91.0447 150.701 90.1951 150.701C89.3895 150.701 88.8182 151.116 88.8182 151.712C88.8182 152.2 89.1941 152.474 90.1414 152.693L90.8787 152.864C92.3875 153.201 93.0662 153.831 93.0662 154.9C93.0662 156.258 91.9871 157.117 90.2635 157.117ZM96.86 157.117C95.0582 157.117 93.9791 156.185 93.9791 154.627H95.2437C95.2535 155.506 95.859 156.028 96.8697 156.028C97.7779 156.028 98.3785 155.618 98.3785 154.979C98.3785 154.466 97.9977 154.168 97.026 153.943L96.2447 153.768C94.7896 153.436 94.1207 152.796 94.1207 151.775C94.1207 150.477 95.19 149.607 96.7965 149.607C98.4225 149.607 99.4332 150.486 99.4771 151.932H98.2516C98.1979 151.165 97.6412 150.701 96.7916 150.701C95.9859 150.701 95.4146 151.116 95.4146 151.712C95.4146 152.2 95.7906 152.474 96.7379 152.693L97.4752 152.864C98.984 153.201 99.6627 153.831 99.6627 154.9C99.6627 156.258 98.5836 157.117 96.86 157.117ZM103.74 157.117C101.957 157.117 100.795 156.038 100.795 154.485V149.725H102.07V154.383C102.07 155.306 102.719 155.975 103.74 155.975C104.76 155.975 105.405 155.311 105.405 154.383V149.725H106.679V154.485C106.679 156.033 105.517 157.117 103.74 157.117ZM108.066 157V149.725H110.903C112.504 149.725 113.505 150.623 113.505 152.049C113.505 153.04 112.987 153.768 112.123 154.119L113.642 157H112.221L110.854 154.354C110.844 154.354 110.834 154.354 110.82 154.354H109.355V157H108.066ZM109.355 153.289H110.839C111.698 153.289 112.236 152.811 112.236 152.049C112.236 151.292 111.698 150.818 110.829 150.818H109.355V153.289ZM114.711 157V149.725H119.765V150.843H116V152.757H119.481V153.855H116V155.882H119.765V157H114.711Z" fill="#736D7B"/>
</g>
<g filter="url(#filter9_ddd_1299_26636)">
<path d="M186 183C186 178.582 189.582 175 194 175H263C267.418 175 271 178.582 271 183V191C271 195.418 267.418 199 263 199H194C189.582 199 186 195.418 186 191V183Z" fill="#FAFAF9"/>
<path d="M194 175.5H263C267.142 175.5 270.5 178.858 270.5 183V191C270.5 195.142 267.142 198.5 263 198.5H194C189.858 198.5 186.5 195.142 186.5 191V183C186.5 178.858 189.858 175.5 194 175.5Z" stroke="#78716C" stroke-opacity="0.1"/>
<g clip-path="url(#clip3_1299_26636)">
<mask id="mask5_1299_26636" style="mask-type:luminance" maskUnits="userSpaceOnUse" x="192" y="179" width="16" height="16">
<path d="M208 179H192V195H208V179Z" fill="white"/>
<path d="M200.294 188.333C202.893 188.333 205 190.44 205 193.039C205 193.754 204.42 194.333 203.706 194.333H196.294C195.58 194.333 195 193.754 195 193.039C195 190.44 197.107 188.333 199.706 188.333H200.294ZM200 182.333C201.289 182.333 202.333 183.378 202.333 184.667C202.333 185.955 201.289 187 200 187C198.711 187 197.667 185.955 197.667 184.667C197.667 183.378 198.711 182.333 200 182.333Z" fill="black"/>
</mask>
<g mask="url(#mask5_1299_26636)">
<path opacity="0.6" fill-rule="evenodd" clip-rule="evenodd" d="M193.333 186.333C193.333 182.652 196.318 179.667 200 179.667C203.682 179.667 206.666 182.652 206.666 186.333C206.666 190.015 203.682 193 200 193C196.318 193 193.333 190.015 193.333 186.333Z" fill="#A8A29E"/>
</g>
<path d="M200.294 188.333C202.893 188.333 205 190.44 205 193.039C205 193.754 204.42 194.333 203.706 194.333H196.294C195.58 194.333 195 193.754 195 193.039C195 190.44 197.107 188.333 199.706 188.333H200.294ZM200 182.333C201.289 182.333 202.333 183.378 202.333 184.667C202.333 185.955 201.289 187 200 187C198.711 187 197.667 185.955 197.667 184.667C197.667 183.378 198.711 182.333 200 182.333Z" fill="#A8A29E"/>
</g>
<path d="M214.063 191L216.661 183.725H218.282L220.87 191H219.449L218.868 189.262H216.046L215.45 191H214.063ZM216.407 188.202H218.517L218.175 187.177C217.96 186.508 217.745 185.81 217.472 184.892C217.198 185.81 216.979 186.508 216.759 187.177L216.407 188.202ZM224.224 191.117C222.442 191.117 221.28 190.038 221.28 188.485V183.725H222.554V188.383C222.554 189.306 223.204 189.975 224.224 189.975C225.245 189.975 225.889 189.311 225.889 188.383V183.725H227.164V188.485C227.164 190.033 226.002 191.117 224.224 191.117ZM231.71 191.117C229.693 191.117 228.296 189.594 228.296 187.367C228.296 185.082 229.742 183.607 231.695 183.607C233.321 183.607 234.629 184.633 234.839 186.137H233.526C233.345 185.316 232.662 184.765 231.729 184.765C230.425 184.765 229.595 185.79 229.595 187.367C229.595 188.939 230.43 189.96 231.739 189.96C232.813 189.96 233.604 189.262 233.614 188.231H231.924V187.211H234.888V188.09C234.888 189.862 233.546 191.117 231.71 191.117ZM236.094 191V183.725H237.95L239.366 187.548C239.502 187.953 239.737 188.681 239.908 189.247C240.079 188.681 240.313 187.953 240.445 187.548L241.836 183.725H243.702V191H242.432V187.289C242.432 186.776 242.456 185.971 242.476 185.224C242.217 186.044 241.968 186.845 241.812 187.289L240.425 191H239.371L237.974 187.289C237.823 186.864 237.579 186.112 237.325 185.326C237.339 186.044 237.364 186.801 237.364 187.289V191H236.094ZM245.112 191V183.725H250.166V184.843H246.402V186.757H249.883V187.855H246.402V189.882H250.166V191H245.112ZM251.299 191V183.725H252.69L255.244 187.782C255.415 188.056 255.737 188.612 256.025 189.13C256.006 188.583 255.996 187.978 255.996 187.689V183.725H257.29V191H255.894L253.589 187.348C253.384 187.021 252.998 186.376 252.554 185.59C252.583 186.4 252.588 187.025 252.588 187.343V191H251.299ZM258.325 184.843V183.725H264.14V184.843H261.885V191H260.591V184.843H258.325Z" fill="#736D7B"/>
</g>
<defs>
<filter id="filter0_dddd_1299_26636" x="114" y="247" width="111" height="130" filterUnits="userSpaceOnUse" color-interpolation-filters="sRGB">
<feFlood flood-opacity="0" result="BackgroundImageFix"/>
<feColorMatrix in="SourceAlpha" type="matrix" values="0 0 0 0 0 0 0 0 0 0 0 0 0 0 0 0 0 0 127 0" result="hardAlpha"/>
<feOffset dy="2"/>
<feGaussianBlur stdDeviation="2"/>
<feColorMatrix type="matrix" values="0 0 0 0 0.494118 0 0 0 0 0.219608 0 0 0 0 0.823529 0 0 0 0.12 0"/>
<feBlend mode="normal" in2="BackgroundImageFix" result="effect1_dropShadow_1299_26636"/>
<feColorMatrix in="SourceAlpha" type="matrix" values="0 0 0 0 0 0 0 0 0 0 0 0 0 0 0 0 0 0 127 0" result="hardAlpha"/>
<feOffset dy="8"/>
<feGaussianBlur stdDeviation="4"/>
<feColorMatrix type="matrix" values="0 0 0 0 0.494118 0 0 0 0 0.219608 0 0 0 0 0.823529 0 0 0 0.1 0"/>
<feBlend mode="normal" in2="effect1_dropShadow_1299_26636" result="effect2_dropShadow_1299_26636"/>
<feColorMatrix in="SourceAlpha" type="matrix" values="0 0 0 0 0 0 0 0 0 0 0 0 0 0 0 0 0 0 127 0" result="hardAlpha"/>
<feOffset dy="18"/>
<feGaussianBlur stdDeviation="5.5"/>
<feColorMatrix type="matrix" values="0 0 0 0 0.494118 0 0 0 0 0.219608 0 0 0 0 0.823529 0 0 0 0.06 0"/>
<feBlend mode="normal" in2="effect2_dropShadow_1299_26636" result="effect3_dropShadow_1299_26636"/>
<feColorMatrix in="SourceAlpha" type="matrix" values="0 0 0 0 0 0 0 0 0 0 0 0 0 0 0 0 0 0 127 0" result="hardAlpha"/>
<feOffset dy="32"/>
<feGaussianBlur stdDeviation="6.5"/>
<feColorMatrix type="matrix" values="0 0 0 0 0.494118 0 0 0 0 0.219608 0 0 0 0 0.823529 0 0 0 0.02 0"/>
<feBlend mode="normal" in2="effect3_dropShadow_1299_26636" result="effect4_dropShadow_1299_26636"/>
<feBlend mode="normal" in="SourceGraphic" in2="effect4_dropShadow_1299_26636" result="shape"/>
</filter>
<filter id="filter1_dd_1299_26636" x="113" y="243" width="113" height="95" filterUnits="userSpaceOnUse" color-interpolation-filters="sRGB">
<feFlood flood-opacity="0" result="BackgroundImageFix"/>
<feColorMatrix in="SourceAlpha" type="matrix" values="0 0 0 0 0 0 0 0 0 0 0 0 0 0 0 0 0 0 127 0" result="hardAlpha"/>
<feMorphology radius="6" operator="erode" in="SourceAlpha" result="effect1_dropShadow_1299_26636"/>
<feOffset dx="8"/>
<feGaussianBlur stdDeviation="6"/>
<feComposite in2="hardAlpha" operator="out"/>
<feColorMatrix type="matrix" values="0 0 0 0 0.478431 0 0 0 0 0.2 0 0 0 0 0.839216 0 0 0 0.24 0"/>
<feBlend mode="normal" in2="BackgroundImageFix" result="effect1_dropShadow_1299_26636"/>
<feColorMatrix in="SourceAlpha" type="matrix" values="0 0 0 0 0 0 0 0 0 0 0 0 0 0 0 0 0 0 127 0" result="hardAlpha"/>
<feMorphology radius="6" operator="erode" in="SourceAlpha" result="effect2_dropShadow_1299_26636"/>
<feOffset dx="-8"/>
<feGaussianBlur stdDeviation="6"/>
<feComposite in2="hardAlpha" operator="out"/>
<feColorMatrix type="matrix" values="0 0 0 0 0.478431 0 0 0 0 0.2 0 0 0 0 0.839216 0 0 0 0.24 0"/>
<feBlend mode="normal" in2="effect1_dropShadow_1299_26636" result="effect2_dropShadow_1299_26636"/>
<feBlend mode="normal" in="SourceGraphic" in2="effect2_dropShadow_1299_26636" result="shape"/>
</filter>
<filter id="filter2_d_1299_26636" x="132.403" y="254.381" width="74.1934" height="72.6685" filterUnits="userSpaceOnUse" color-interpolation-filters="sRGB">
<feFlood flood-opacity="0" result="BackgroundImageFix"/>
<feColorMatrix in="SourceAlpha" type="matrix" values="0 0 0 0 0 0 0 0 0 0 0 0 0 0 0 0 0 0 127 0" result="hardAlpha"/>
<feMorphology radius="1.5" operator="dilate" in="SourceAlpha" result="effect1_dropShadow_1299_26636"/>
<feOffset/>
<feComposite in2="hardAlpha" operator="out"/>
<feColorMatrix type="matrix" values="0 0 0 0 0.360784 0 0 0 0 0.360784 0 0 0 0 0.360784 0 0 0 0.5 0"/>
<feBlend mode="normal" in2="BackgroundImageFix" result="effect1_dropShadow_1299_26636"/>
<feBlend mode="normal" in="SourceGraphic" in2="effect1_dropShadow_1299_26636" result="shape"/>
</filter>
<filter id="filter3_dd_1299_26636" x="113" y="243" width="113" height="95" filterUnits="userSpaceOnUse" color-interpolation-filters="sRGB">
<feFlood flood-opacity="0" result="BackgroundImageFix"/>
<feColorMatrix in="SourceAlpha" type="matrix" values="0 0 0 0 0 0 0 0 0 0 0 0 0 0 0 0 0 0 127 0" result="hardAlpha"/>
<feMorphology radius="6" operator="erode" in="SourceAlpha" result="effect1_dropShadow_1299_26636"/>
<feOffset dx="8"/>
<feGaussianBlur stdDeviation="6"/>
<feComposite in2="hardAlpha" operator="out"/>
<feColorMatrix type="matrix" values="0 0 0 0 0.478431 0 0 0 0 0.2 0 0 0 0 0.839216 0 0 0 0.2 0"/>
<feBlend mode="normal" in2="BackgroundImageFix" result="effect1_dropShadow_1299_26636"/>
<feColorMatrix in="SourceAlpha" type="matrix" values="0 0 0 0 0 0 0 0 0 0 0 0 0 0 0 0 0 0 127 0" result="hardAlpha"/>
<feMorphology radius="6" operator="erode" in="SourceAlpha" result="effect2_dropShadow_1299_26636"/>
<feOffset dx="-8"/>
<feGaussianBlur stdDeviation="6"/>
<feComposite in2="hardAlpha" operator="out"/>
<feColorMatrix type="matrix" values="0 0 0 0 0.478431 0 0 0 0 0.2 0 0 0 0 0.839216 0 0 0 0.2 0"/>
<feBlend mode="normal" in2="effect1_dropShadow_1299_26636" result="effect2_dropShadow_1299_26636"/>
<feBlend mode="normal" in="SourceGraphic" in2="effect2_dropShadow_1299_26636" result="shape"/>
</filter>
<filter id="filter4_ddd_1299_26636" x="0" y="31" width="97" height="53" filterUnits="userSpaceOnUse" color-interpolation-filters="sRGB">
<feFlood flood-opacity="0" result="BackgroundImageFix"/>
<feColorMatrix in="SourceAlpha" type="matrix" values="0 0 0 0 0 0 0 0 0 0 0 0 0 0 0 0 0 0 127 0" result="hardAlpha"/>
<feOffset dy="2"/>
<feGaussianBlur stdDeviation="2"/>
<feColorMatrix type="matrix" values="0 0 0 0 0 0 0 0 0 0 0 0 0 0 0 0 0 0 0.03 0"/>
<feBlend mode="normal" in2="BackgroundImageFix" result="effect1_dropShadow_1299_26636"/>
<feColorMatrix in="SourceAlpha" type="matrix" values="0 0 0 0 0 0 0 0 0 0 0 0 0 0 0 0 0 0 127 0" result="hardAlpha"/>
<feOffset dy="7"/>
<feGaussianBlur stdDeviation="3.5"/>
<feColorMatrix type="matrix" values="0 0 0 0 0 0 0 0 0 0 0 0 0 0 0 0 0 0 0.03 0"/>
<feBlend mode="normal" in2="effect1_dropShadow_1299_26636" result="effect2_dropShadow_1299_26636"/>
<feColorMatrix in="SourceAlpha" type="matrix" values="0 0 0 0 0 0 0 0 0 0 0 0 0 0 0 0 0 0 127 0" result="hardAlpha"/>
<feOffset dy="17"/>
<feGaussianBlur stdDeviation="5"/>
<feColorMatrix type="matrix" values="0 0 0 0 0 0 0 0 0 0 0 0 0 0 0 0 0 0 0.02 0"/>
<feBlend mode="normal" in2="effect2_dropShadow_1299_26636" result="effect3_dropShadow_1299_26636"/>
<feBlend mode="normal" in="SourceGraphic" in2="effect3_dropShadow_1299_26636" result="shape"/>
</filter>
<filter id="filter5_ddd_1299_26636" x="112" y="59" width="110" height="53" filterUnits="userSpaceOnUse" color-interpolation-filters="sRGB">
<feFlood flood-opacity="0" result="BackgroundImageFix"/>
<feColorMatrix in="SourceAlpha" type="matrix" values="0 0 0 0 0 0 0 0 0 0 0 0 0 0 0 0 0 0 127 0" result="hardAlpha"/>
<feOffset dy="2"/>
<feGaussianBlur stdDeviation="2"/>
<feColorMatrix type="matrix" values="0 0 0 0 0 0 0 0 0 0 0 0 0 0 0 0 0 0 0.03 0"/>
<feBlend mode="normal" in2="BackgroundImageFix" result="effect1_dropShadow_1299_26636"/>
<feColorMatrix in="SourceAlpha" type="matrix" values="0 0 0 0 0 0 0 0 0 0 0 0 0 0 0 0 0 0 127 0" result="hardAlpha"/>
<feOffset dy="7"/>
<feGaussianBlur stdDeviation="3.5"/>
<feColorMatrix type="matrix" values="0 0 0 0 0 0 0 0 0 0 0 0 0 0 0 0 0 0 0.03 0"/>
<feBlend mode="normal" in2="effect1_dropShadow_1299_26636" result="effect2_dropShadow_1299_26636"/>
<feColorMatrix in="SourceAlpha" type="matrix" values="0 0 0 0 0 0 0 0 0 0 0 0 0 0 0 0 0 0 127 0" result="hardAlpha"/>
<feOffset dy="17"/>
<feGaussianBlur stdDeviation="5"/>
<feColorMatrix type="matrix" values="0 0 0 0 0 0 0 0 0 0 0 0 0 0 0 0 0 0 0.02 0"/>
<feBlend mode="normal" in2="effect2_dropShadow_1299_26636" result="effect3_dropShadow_1299_26636"/>
<feBlend mode="normal" in="SourceGraphic" in2="effect3_dropShadow_1299_26636" result="shape"/>
</filter>
<filter id="filter6_ddd_1299_26636" x="208" y="94" width="105" height="53" filterUnits="userSpaceOnUse" color-interpolation-filters="sRGB">
<feFlood flood-opacity="0" result="BackgroundImageFix"/>
<feColorMatrix in="SourceAlpha" type="matrix" values="0 0 0 0 0 0 0 0 0 0 0 0 0 0 0 0 0 0 127 0" result="hardAlpha"/>
<feOffset dy="2"/>
<feGaussianBlur stdDeviation="2"/>
<feColorMatrix type="matrix" values="0 0 0 0 0 0 0 0 0 0 0 0 0 0 0 0 0 0 0.03 0"/>
<feBlend mode="normal" in2="BackgroundImageFix" result="effect1_dropShadow_1299_26636"/>
<feColorMatrix in="SourceAlpha" type="matrix" values="0 0 0 0 0 0 0 0 0 0 0 0 0 0 0 0 0 0 127 0" result="hardAlpha"/>
<feOffset dy="7"/>
<feGaussianBlur stdDeviation="3.5"/>
<feColorMatrix type="matrix" values="0 0 0 0 0 0 0 0 0 0 0 0 0 0 0 0 0 0 0.03 0"/>
<feBlend mode="normal" in2="effect1_dropShadow_1299_26636" result="effect2_dropShadow_1299_26636"/>
<feColorMatrix in="SourceAlpha" type="matrix" values="0 0 0 0 0 0 0 0 0 0 0 0 0 0 0 0 0 0 127 0" result="hardAlpha"/>
<feOffset dy="17"/>
<feGaussianBlur stdDeviation="5"/>
<feColorMatrix type="matrix" values="0 0 0 0 0 0 0 0 0 0 0 0 0 0 0 0 0 0 0.02 0"/>
<feBlend mode="normal" in2="effect2_dropShadow_1299_26636" result="effect3_dropShadow_1299_26636"/>
<feBlend mode="normal" in="SourceGraphic" in2="effect3_dropShadow_1299_26636" result="shape"/>
</filter>
<filter id="filter7_f_1299_26636" x="220.615" y="96.6155" width="21.0508" height="20.0508" filterUnits="userSpaceOnUse" color-interpolation-filters="sRGB">
<feFlood flood-opacity="0" result="BackgroundImageFix"/>
<feBlend mode="normal" in="SourceGraphic" in2="BackgroundImageFix" result="shape"/>
<feGaussianBlur stdDeviation="2" result="effect1_foregroundBlur_1299_26636"/>
</filter>
<filter id="filter8_ddd_1299_26636" x="42" y="139" width="95" height="53" filterUnits="userSpaceOnUse" color-interpolation-filters="sRGB">
<feFlood flood-opacity="0" result="BackgroundImageFix"/>
<feColorMatrix in="SourceAlpha" type="matrix" values="0 0 0 0 0 0 0 0 0 0 0 0 0 0 0 0 0 0 127 0" result="hardAlpha"/>
<feOffset dy="2"/>
<feGaussianBlur stdDeviation="2"/>
<feColorMatrix type="matrix" values="0 0 0 0 0 0 0 0 0 0 0 0 0 0 0 0 0 0 0.03 0"/>
<feBlend mode="normal" in2="BackgroundImageFix" result="effect1_dropShadow_1299_26636"/>
<feColorMatrix in="SourceAlpha" type="matrix" values="0 0 0 0 0 0 0 0 0 0 0 0 0 0 0 0 0 0 127 0" result="hardAlpha"/>
<feOffset dy="7"/>
<feGaussianBlur stdDeviation="3.5"/>
<feColorMatrix type="matrix" values="0 0 0 0 0 0 0 0 0 0 0 0 0 0 0 0 0 0 0.03 0"/>
<feBlend mode="normal" in2="effect1_dropShadow_1299_26636" result="effect2_dropShadow_1299_26636"/>
<feColorMatrix in="SourceAlpha" type="matrix" values="0 0 0 0 0 0 0 0 0 0 0 0 0 0 0 0 0 0 127 0" result="hardAlpha"/>
<feOffset dy="17"/>
<feGaussianBlur stdDeviation="5"/>
<feColorMatrix type="matrix" values="0 0 0 0 0 0 0 0 0 0 0 0 0 0 0 0 0 0 0.02 0"/>
<feBlend mode="normal" in2="effect2_dropShadow_1299_26636" result="effect3_dropShadow_1299_26636"/>
<feBlend mode="normal" in="SourceGraphic" in2="effect3_dropShadow_1299_26636" result="shape"/>
</filter>
<filter id="filter9_ddd_1299_26636" x="176" y="173" width="105" height="53" filterUnits="userSpaceOnUse" color-interpolation-filters="sRGB">
<feFlood flood-opacity="0" result="BackgroundImageFix"/>
<feColorMatrix in="SourceAlpha" type="matrix" values="0 0 0 0 0 0 0 0 0 0 0 0 0 0 0 0 0 0 127 0" result="hardAlpha"/>
<feOffset dy="2"/>
<feGaussianBlur stdDeviation="2"/>
<feColorMatrix type="matrix" values="0 0 0 0 0 0 0 0 0 0 0 0 0 0 0 0 0 0 0.03 0"/>
<feBlend mode="normal" in2="BackgroundImageFix" result="effect1_dropShadow_1299_26636"/>
<feColorMatrix in="SourceAlpha" type="matrix" values="0 0 0 0 0 0 0 0 0 0 0 0 0 0 0 0 0 0 127 0" result="hardAlpha"/>
<feOffset dy="7"/>
<feGaussianBlur stdDeviation="3.5"/>
<feColorMatrix type="matrix" values="0 0 0 0 0 0 0 0 0 0 0 0 0 0 0 0 0 0 0.03 0"/>
<feBlend mode="normal" in2="effect1_dropShadow_1299_26636" result="effect2_dropShadow_1299_26636"/>
<feColorMatrix in="SourceAlpha" type="matrix" values="0 0 0 0 0 0 0 0 0 0 0 0 0 0 0 0 0 0 127 0" result="hardAlpha"/>
<feOffset dy="17"/>
<feGaussianBlur stdDeviation="5"/>
<feColorMatrix type="matrix" values="0 0 0 0 0 0 0 0 0 0 0 0 0 0 0 0 0 0 0.02 0"/>
<feBlend mode="normal" in2="effect2_dropShadow_1299_26636" result="effect3_dropShadow_1299_26636"/>
<feBlend mode="normal" in="SourceGraphic" in2="effect3_dropShadow_1299_26636" result="shape"/>
</filter>
<linearGradient id="paint0_linear_1299_26636" x1="169.5" y1="0" x2="169.5" y2="320" gradientUnits="userSpaceOnUse">
<stop/>
<stop offset="0.362745" stop-color="white"/>
</linearGradient>
<radialGradient id="paint1_radial_1299_26636" cx="0" cy="0" r="1" gradientUnits="userSpaceOnUse" gradientTransform="translate(169.5 290.557) rotate(90) scale(41.4435 41.6704)">
<stop offset="0.6" stop-color="#7B7B7B" stop-opacity="0"/>
<stop offset="1" stop-color="#D1D1D1" stop-opacity="0.1"/>
</radialGradient>
<linearGradient id="paint2_linear_1299_26636" x1="212" y1="290.5" x2="127" y2="290.5" gradientUnits="userSpaceOnUse">
<stop stop-color="#7A33D6"/>
<stop offset="0.25" stop-color="#7A33D6" stop-opacity="0"/>
<stop offset="0.75" stop-color="#7A33D6" stop-opacity="0"/>
<stop offset="1" stop-color="#7A33D6"/>
</linearGradient>
<radialGradient id="paint3_radial_1299_26636" cx="0" cy="0" r="1" gradientUnits="userSpaceOnUse" gradientTransform="translate(169.5 290.763) rotate(90) scale(34.7867 34.9016)">
<stop offset="0.6" stop-color="#7B7B7B" stop-opacity="0"/>
<stop offset="1" stop-color="#D1D1D1" stop-opacity="0.1"/>
</radialGradient>
<radialGradient id="paint4_radial_1299_26636" cx="0" cy="0" r="1" gradientUnits="userSpaceOnUse" gradientTransform="translate(127 290.285) scale(44.4416 64.3812)">
<stop stop-color="#7A33D6"/>
<stop offset="1" stop-color="#7A33D6" stop-opacity="0"/>
</radialGradient>
<radialGradient id="paint5_radial_1299_26636" cx="0" cy="0" r="1" gradientUnits="userSpaceOnUse" gradientTransform="translate(212 290.285) rotate(-180) scale(40.5584 58.7557)">
<stop stop-color="#7A33D6"/>
<stop offset="1" stop-color="#7A33D6" stop-opacity="0"/>
</radialGradient>
<linearGradient id="paint6_linear_1299_26636" x1="212" y1="290.5" x2="127" y2="290.5" gradientUnits="userSpaceOnUse">
<stop stop-color="#7A33D6"/>
<stop offset="0.35" stop-color="#7A33D6" stop-opacity="0"/>
<stop offset="0.65" stop-color="#7A33D6" stop-opacity="0"/>
<stop offset="1" stop-color="#7A33D6"/>
</linearGradient>
<clipPath id="clip0_1299_26636">
<rect width="16" height="16" fill="white" transform="translate(128 65)"/>
</clipPath>
<clipPath id="clip1_1299_26636">
<rect width="16" height="16" fill="white" transform="translate(224 100)"/>
</clipPath>
<clipPath id="clip2_1299_26636">
<rect width="16" height="16" fill="white" transform="translate(58 145)"/>
</clipPath>
<clipPath id="clip3_1299_26636">
<rect width="16" height="16" fill="white" transform="translate(192 179)"/>
</clipPath>
</defs>
</svg>
