<svg width="296" height="338" viewBox="0 0 296 338" fill="none" xmlns="http://www.w3.org/2000/svg">
<mask id="mask0_1299_26638" style="mask-type:luminance" maskUnits="userSpaceOnUse" x="12" y="0" width="260" height="320">
<rect x="12" width="260" height="320" fill="url(#paint0_linear_1299_26638)"/>
</mask>
<g mask="url(#mask0_1299_26638)">
<path d="M152 288L152 -127" stroke="#E7E5E4"/>
<path d="M152 352L152 246.997C152 233.963 158.35 221.746 169.019 214.257L237.981 165.848C248.649 158.36 255 146.143 255 133.109L255 -7" stroke="#E7E5E4"/>
<path d="M152 357V226.041C152 211.888 144.521 198.788 132.332 191.594L57.6682 147.525C45.4795 140.331 38.0001 127.231 38.0001 113.078L38.0001 -2" stroke="#E7E5E4"/>
</g>
<g filter="url(#filter0_dd_1299_26638)">
<ellipse cx="152.5" cy="290.5" rx="42.5" ry="41.5" fill="white"/>
<ellipse cx="152.5" cy="290.5" rx="42.5" ry="41.5" fill="url(#paint1_radial_1299_26638)"/>
<path d="M152.5 249.75C175.575 249.75 194.25 268.011 194.25 290.5C194.25 312.989 175.575 331.25 152.5 331.25C129.425 331.25 110.75 312.989 110.75 290.5C110.75 268.011 129.425 249.75 152.5 249.75Z" stroke="#5C5C5C" stroke-opacity="0.5" stroke-width="1.5"/>
<path d="M152.5 249.75C175.575 249.75 194.25 268.011 194.25 290.5C194.25 312.989 175.575 331.25 152.5 331.25C129.425 331.25 110.75 312.989 110.75 290.5C110.75 268.011 129.425 249.75 152.5 249.75Z" stroke="url(#paint2_linear_1299_26638)" stroke-width="1.5"/>
</g>
<g filter="url(#filter1_d_1299_26638)">
<ellipse cx="152.5" cy="290.715" rx="35.5964" ry="34.8342" fill="url(#paint3_radial_1299_26638)"/>
</g>
<ellipse cx="152.5" cy="290.5" rx="29.5558" ry="29.4585" fill="#7A33D6"/>
<path d="M166.091 283.834L152.5 276.093V305.337C164.236 301.036 166.451 289.21 166.091 283.834Z" fill="white"/>
<path d="M138.944 283.834L152.5 276.093V305.337C140.764 301.036 138.585 289.21 138.944 283.834Z" fill="#E7E5E4"/>
<g filter="url(#filter2_ddd_1299_26638)">
<path d="M10 41C10 36.5817 13.5817 33 18 33H79C83.4183 33 87 36.5817 87 41V49C87 53.4183 83.4183 57 79 57H18C13.5817 57 10 53.4183 10 49V41Z" fill="#FAFAF9"/>
<path d="M18 33.5H79C83.1421 33.5 86.5 36.8579 86.5 41V49C86.5 53.1421 83.1421 56.5 79 56.5H18C13.8579 56.5 10.5 53.1421 10.5 49V41C10.5 36.8579 13.8579 33.5 18 33.5Z" stroke="#78716C" stroke-opacity="0.1"/>
<circle opacity="0.1" cx="19.6253" cy="40.6251" r="0.958333" fill="black"/>
<circle opacity="0.1" cx="22.5423" cy="40.6251" r="0.958333" fill="black"/>
<circle opacity="0.1" cx="25.4583" cy="40.6251" r="0.958333" fill="black"/>
<circle opacity="0.1" cx="28.3753" cy="40.6251" r="0.958333" fill="black"/>
<circle opacity="0.5" cx="19.6253" cy="43.5418" r="0.958333" fill="black"/>
<circle opacity="0.5" cx="22.5423" cy="43.5418" r="0.958333" fill="black"/>
<circle opacity="0.5" cx="25.4583" cy="43.5418" r="0.958333" fill="black"/>
<circle opacity="0.5" cx="28.3753" cy="43.5418" r="0.958333" fill="black"/>
<circle cx="19.6253" cy="46.4583" r="0.958333" fill="black"/>
<circle cx="22.5423" cy="46.4583" r="0.958333" fill="black"/>
<circle cx="25.4583" cy="46.4583" r="0.958333" fill="black"/>
<circle cx="28.3753" cy="46.4583" r="0.958333" fill="black"/>
<circle opacity="0.1" cx="19.6253" cy="49.3751" r="0.958333" fill="black"/>
<circle opacity="0.1" cx="22.5423" cy="49.3751" r="0.958333" fill="black"/>
<circle opacity="0.1" cx="25.4583" cy="49.3751" r="0.958333" fill="black"/>
<circle opacity="0.1" cx="28.3753" cy="49.3751" r="0.958333" fill="black"/>
<path d="M38.6055 49V41.7246H43.6592V42.8428H39.8945V44.7568H43.376V45.8555H39.8945V47.8818H43.6592V49H38.6055ZM44.7918 49V41.7246H46.0809V47.8818H49.4549V49H44.7918ZM50.4898 49V41.7246H55.5436V42.8428H51.7789V44.7568H55.2604V45.8555H51.7789V47.8818H55.5436V49H50.4898ZM58.7318 49L56.1342 41.7246H57.5307L58.8441 45.5479C59.0395 46.1631 59.2689 46.9053 59.5473 47.8281C59.8207 46.9053 60.0453 46.1631 60.2357 45.5479L61.5053 41.7246H62.8871L60.3383 49H58.7318ZM62.174 49L64.7717 41.7246H66.3928L68.9807 49H67.5598L66.9787 47.2617H64.1564L63.5607 49H62.174ZM64.5178 46.2021H66.6271L66.2854 45.1768C66.0705 44.5078 65.8557 43.8096 65.5822 42.8916C65.3088 43.8096 65.0891 44.5078 64.8693 45.1768L64.5178 46.2021ZM68.4922 42.8428V41.7246H74.3076V42.8428H72.0518V49H70.7578V42.8428H68.4922ZM75.3426 49V41.7246H80.3963V42.8428H76.6316V44.7568H80.1131V45.8555H76.6316V47.8818H80.3963V49H75.3426Z" fill="#736D7B"/>
</g>
<g filter="url(#filter3_ddd_1299_26638)">
<path d="M105 69C105 64.5817 108.582 61 113 61H187C191.418 61 195 64.5817 195 69V77C195 81.4183 191.418 85 187 85H113C108.582 85 105 81.4183 105 77V69Z" fill="#FAFAF9"/>
<path d="M113 61.5H187C191.142 61.5 194.5 64.8579 194.5 69V77C194.5 81.1421 191.142 84.5 187 84.5H113C108.858 84.5 105.5 81.1421 105.5 77V69C105.5 64.8579 108.858 61.5 113 61.5Z" stroke="#78716C" stroke-opacity="0.1"/>
<g clip-path="url(#clip0_1299_26638)">
<mask id="mask1_1299_26638" style="mask-type:luminance" maskUnits="userSpaceOnUse" x="111" y="65" width="16" height="16">
<path d="M127 65H111V81H127V65Z" fill="white"/>
<path d="M117.891 71.8509C118.194 70.7164 119.806 70.7164 120.109 71.8509L121.577 76.3157C121.795 77.1332 121.612 78.0059 121.083 78.6666C120.549 79.3333 119.774 79.6666 119 79.6666C118.226 79.6666 117.451 79.3333 116.917 78.6666C116.388 78.0059 116.205 77.1332 116.423 76.3157L117.891 71.8509ZM114.407 73.0019C114.743 73.0361 115.005 73.3202 115.005 73.6653C115.005 74.0104 114.743 74.2945 114.407 74.3287L114.339 74.3319H114.335C113.966 74.3319 113.668 74.0335 113.668 73.6653C113.668 73.2971 113.966 72.9986 114.335 72.9986H114.339L114.407 73.0019ZM123.74 73.0019C124.076 73.0361 124.339 73.3202 124.339 73.6653C124.339 74.0104 124.076 74.2945 123.74 74.3287L123.672 74.3319H123.668C123.3 74.3319 123.001 74.0335 123.001 73.6653C123.001 73.2971 123.3 72.9986 123.668 72.9986H123.672L123.74 73.0019ZM115.233 69.8938C115.477 69.6498 115.863 69.6342 116.125 69.8476L116.176 69.8938L116.178 69.8964L116.225 69.9472C116.438 70.209 116.422 70.5951 116.178 70.8391C115.918 71.0994 115.496 71.0994 115.236 70.8391L115.233 70.8365L115.188 70.7857C114.974 70.5239 114.989 70.1379 115.233 69.8938ZM121.831 69.8938C122.091 69.6334 122.513 69.6335 122.773 69.8938C123.034 70.1541 123.034 70.5762 122.773 70.8365L122.771 70.8391C122.511 71.0994 122.088 71.0994 121.828 70.8391C121.568 70.5788 121.568 70.1568 121.828 69.8964L121.831 69.8938ZM119 68.3333C119.368 68.3333 119.667 68.6318 119.667 68.9999V69.0038C119.667 69.372 119.368 69.6705 119 69.6705C118.632 69.6705 118.333 69.372 118.333 69.0038V68.9999C118.333 68.6317 118.632 68.3333 119 68.3333Z" fill="black"/>
</mask>
<g mask="url(#mask1_1299_26638)">
<path fill-rule="evenodd" clip-rule="evenodd" d="M119 66.3333C123.05 66.3333 126.334 69.6165 126.334 73.6666C126.334 74.8841 126.037 76.0323 125.512 77.0429C125.304 77.4427 124.876 77.6665 124.425 77.6666H113.575C113.125 77.6665 112.696 77.4427 112.489 77.0429C111.964 76.0323 111.667 74.8841 111.667 73.6666C111.667 69.6165 114.95 66.3333 119 66.3333Z" fill="#A8A29E"/>
</g>
<path opacity="0.6" d="M117.891 71.8509C118.194 70.7164 119.806 70.7164 120.109 71.8509L121.577 76.3157C121.795 77.1332 121.612 78.0059 121.083 78.6666C120.549 79.3333 119.774 79.6666 119 79.6666C118.226 79.6666 117.451 79.3333 116.917 78.6666C116.388 78.0059 116.205 77.1332 116.423 76.3157L117.891 71.8509ZM114.407 73.0019C114.743 73.0361 115.005 73.3202 115.005 73.6653C115.005 74.0104 114.743 74.2945 114.407 74.3287L114.339 74.3319H114.335C113.966 74.3319 113.668 74.0335 113.668 73.6653C113.668 73.2971 113.966 72.9986 114.335 72.9986H114.339L114.407 73.0019ZM123.74 73.0019C124.076 73.0361 124.339 73.3202 124.339 73.6653C124.339 74.0104 124.076 74.2945 123.74 74.3287L123.672 74.3319H123.668C123.3 74.3319 123.001 74.0335 123.001 73.6653C123.001 73.2971 123.3 72.9986 123.668 72.9986H123.672L123.74 73.0019ZM115.233 69.8938C115.477 69.6498 115.863 69.6342 116.125 69.8476L116.176 69.8938L116.178 69.8964L116.225 69.9472C116.438 70.209 116.422 70.5951 116.178 70.8391C115.918 71.0994 115.496 71.0994 115.236 70.8391L115.233 70.8365L115.188 70.7857C114.974 70.5239 114.989 70.1379 115.233 69.8938ZM121.831 69.8938C122.091 69.6334 122.513 69.6335 122.773 69.8938C123.034 70.1541 123.034 70.5762 122.773 70.8365L122.771 70.8391C122.511 71.0994 122.088 71.0994 121.828 70.8391C121.568 70.5788 121.568 70.1568 121.828 69.8964L121.831 69.8938ZM119 68.3333C119.368 68.3333 119.667 68.6318 119.667 68.9999V69.0038C119.667 69.372 119.368 69.6705 119 69.6705C118.632 69.6705 118.333 69.372 118.333 69.0038V68.9999C118.333 68.6317 118.632 68.3333 119 68.3333Z" fill="#A8A29E"/>
</g>
<path d="M133.063 77L135.661 69.7246H137.282L139.87 77H138.449L137.868 75.2617H135.046L134.45 77H133.063ZM135.407 74.2021H137.517L137.175 73.1768C136.96 72.5078 136.745 71.8096 136.472 70.8916C136.198 71.8096 135.979 72.5078 135.759 73.1768L135.407 74.2021ZM143.224 77.1172C141.442 77.1172 140.28 76.0381 140.28 74.4854V69.7246H141.554V74.3828C141.554 75.3057 142.204 75.9746 143.224 75.9746C144.245 75.9746 144.889 75.3105 144.889 74.3828V69.7246H146.164V74.4854C146.164 76.0332 145.002 77.1172 143.224 77.1172ZM147.17 70.8428V69.7246H152.985V70.8428H150.729V77H149.435V70.8428H147.17ZM156.754 77.1172C154.806 77.1172 153.366 75.6328 153.366 73.3672C153.366 71.0869 154.806 69.6074 156.754 69.6074C158.703 69.6074 160.143 71.0869 160.143 73.3672C160.143 75.6377 158.703 77.1172 156.754 77.1172ZM156.754 75.96C157.941 75.96 158.839 75.0273 158.839 73.3672C158.839 71.7021 157.941 70.7646 156.754 70.7646C155.563 70.7646 154.664 71.7021 154.664 73.3672C154.664 75.0273 155.563 75.96 156.754 75.96ZM161.3 77V69.7246H163.155L164.571 73.5479C164.708 73.9531 164.943 74.6807 165.113 75.2471C165.284 74.6807 165.519 73.9531 165.651 73.5479L167.042 69.7246H168.907V77H167.638V73.2891C167.638 72.7764 167.662 71.9707 167.682 71.2236C167.423 72.0439 167.174 72.8447 167.018 73.2891L165.631 77H164.576L163.18 73.2891C163.029 72.8643 162.784 72.1123 162.53 71.3262C162.545 72.0439 162.57 72.8008 162.57 73.2891V77H161.3ZM169.776 77L172.374 69.7246H173.995L176.583 77H175.162L174.581 75.2617H171.759L171.163 77H169.776ZM172.12 74.2021H174.229L173.888 73.1768C173.673 72.5078 173.458 71.8096 173.185 70.8916C172.911 71.8096 172.691 72.5078 172.472 73.1768L172.12 74.2021ZM176.095 70.8428V69.7246H181.91V70.8428H179.654V77H178.36V70.8428H176.095ZM182.945 77V69.7246H187.999V70.8428H184.234V72.7568H187.715V73.8555H184.234V75.8818H187.999V77H182.945Z" fill="#736D7B"/>
</g>
<g filter="url(#filter4_ddd_1299_26638)">
<path d="M201 104C201 99.5817 204.582 96 209 96H278C282.418 96 286 99.5817 286 104V112C286 116.418 282.418 120 278 120H209C204.582 120 201 116.418 201 112V104Z" fill="#FAFAF9"/>
<path d="M209 96.5H278C282.142 96.5 285.5 99.8579 285.5 104V112C285.5 116.142 282.142 119.5 278 119.5H209C204.858 119.5 201.5 116.142 201.5 112V104C201.5 99.8579 204.858 96.5 209 96.5Z" stroke="#78716C" stroke-opacity="0.1"/>
<g clip-path="url(#clip1_1299_26638)">
<g opacity="0.6">
<mask id="mask2_1299_26638" style="mask-type:luminance" maskUnits="userSpaceOnUse" x="207" y="100" width="16" height="16">
<path d="M223 100H207V116H223V100Z" fill="white"/>
<path d="M217.733 104.333C219.226 104.333 219.974 104.333 220.544 104.624C221.046 104.879 221.454 105.287 221.709 105.789C222 106.359 222 107.107 222 108.6V110.733C222 112.226 222 112.974 221.709 113.544C221.454 114.046 221.046 114.454 220.544 114.71C219.974 115 219.226 115 217.733 115H215.6C214.106 115 213.359 115 212.789 114.71C212.287 114.454 211.879 114.046 211.623 113.544C211.333 112.974 211.333 112.226 211.333 110.733V108.6C211.333 107.107 211.333 106.359 211.623 105.789C211.879 105.287 212.287 104.879 212.789 104.624C213.359 104.333 214.106 104.333 215.6 104.333H217.733ZM220.138 107.529C219.877 107.268 219.455 107.268 219.195 107.529L216 110.724L214.804 109.529L214.754 109.483C214.492 109.269 214.106 109.285 213.862 109.529C213.601 109.789 213.601 110.211 213.862 110.471L215.528 112.138C215.789 112.398 216.211 112.398 216.471 112.138L220.138 108.471C220.398 108.211 220.398 107.789 220.138 107.529Z" fill="black"/>
</mask>
<g mask="url(#mask2_1299_26638)">
<path d="M213.182 101.105C214.624 100.718 215.345 100.524 215.971 100.657C216.522 100.774 217.022 101.063 217.399 101.481C217.828 101.957 218.02 102.679 218.407 104.121L218.959 106.182C219.053 106.531 219.135 106.839 219.204 107.112C219.581 106.916 220.057 106.976 220.373 107.293C220.764 107.683 220.764 108.316 220.373 108.707L216.707 112.373C216.316 112.764 215.683 112.764 215.292 112.373L214.667 111.748L213.882 111.959C212.439 112.346 211.718 112.54 211.092 112.407C210.541 112.29 210.041 112.001 209.664 111.582C209.236 111.107 209.043 110.385 208.656 108.942L208.104 106.882C207.718 105.44 207.524 104.718 207.657 104.092C207.774 103.541 208.063 103.041 208.481 102.664C208.957 102.236 209.679 102.043 211.121 101.657L213.182 101.105Z" fill="#A8A29E"/>
</g>
</g>
<mask id="mask3_1299_26638" style="mask-type:luminance" maskUnits="userSpaceOnUse" x="211" y="104" width="11" height="11">
<path d="M217.733 104.333C219.226 104.333 219.974 104.333 220.544 104.624C221.046 104.879 221.454 105.287 221.709 105.789C222 106.359 222 107.107 222 108.6V110.733C222 112.226 222 112.974 221.709 113.544C221.454 114.046 221.046 114.454 220.544 114.71C219.974 115 219.226 115 217.733 115H215.6C214.106 115 213.359 115 212.789 114.71C212.287 114.454 211.879 114.046 211.623 113.544C211.333 112.974 211.333 112.226 211.333 110.733V108.6C211.333 107.107 211.333 106.359 211.623 105.789C211.879 105.287 212.287 104.879 212.789 104.624C213.359 104.333 214.106 104.333 215.6 104.333H217.733ZM220.138 107.529C219.877 107.268 219.455 107.268 219.195 107.529L216 110.724L214.804 109.529L214.754 109.483C214.492 109.269 214.106 109.285 213.862 109.529C213.601 109.789 213.601 110.211 213.862 110.471L215.528 112.138C215.789 112.398 216.211 112.398 216.471 112.138L220.138 108.471C220.398 108.211 220.398 107.789 220.138 107.529Z" fill="white"/>
</mask>
<g mask="url(#mask3_1299_26638)">
<g filter="url(#filter5_f_1299_26638)">
<path d="M213.182 101.105C214.624 100.718 215.345 100.524 215.971 100.657C216.522 100.774 217.022 101.063 217.399 101.481C217.828 101.957 218.02 102.679 218.407 104.121L218.959 106.182C219.053 106.531 219.135 106.839 219.204 107.112C219.581 106.916 220.057 106.976 220.373 107.293C220.764 107.683 220.764 108.316 220.373 108.707L216.707 112.373C216.316 112.764 215.683 112.764 215.292 112.373L214.667 111.748L213.882 111.959C212.439 112.346 211.718 112.54 211.092 112.407C210.541 112.29 210.041 112.001 209.664 111.582C209.236 111.107 209.043 110.385 208.656 108.942L208.104 106.882C207.718 105.44 207.524 104.718 207.657 104.092C207.774 103.541 208.063 103.041 208.481 102.664C208.957 102.236 209.679 102.043 211.121 101.657L213.182 101.105Z" fill="#A8A29E"/>
</g>
</g>
<path d="M217.733 104.333C219.226 104.333 219.974 104.333 220.544 104.624C221.046 104.879 221.454 105.287 221.709 105.789C222 106.359 222 107.107 222 108.6V110.733C222 112.226 222 112.974 221.709 113.544C221.454 114.046 221.046 114.454 220.544 114.71C219.974 115 219.226 115 217.733 115H215.6C214.106 115 213.359 115 212.789 114.71C212.287 114.454 211.879 114.046 211.623 113.544C211.333 112.974 211.333 112.226 211.333 110.733V108.6C211.333 107.107 211.333 106.359 211.623 105.789C211.879 105.287 212.287 104.879 212.789 104.624C213.359 104.333 214.106 104.333 215.6 104.333H217.733ZM220.138 107.529C219.877 107.268 219.455 107.268 219.195 107.529L216 110.724L214.804 109.529L214.754 109.483C214.492 109.269 214.106 109.285 213.862 109.529C213.601 109.789 213.601 110.211 213.862 110.471L215.528 112.138C215.789 112.398 216.211 112.398 216.471 112.138L220.138 108.471C220.398 108.211 220.398 107.789 220.138 107.529Z" fill="#A8A29E"/>
<path d="M217.733 114.5V115H215.6V114.5H217.733ZM221.5 110.733V108.6C221.5 107.845 221.499 107.309 221.465 106.889C221.431 106.475 221.367 106.219 221.263 106.016C221.056 105.609 220.724 105.277 220.317 105.07C220.114 104.966 219.857 104.902 219.444 104.868C219.024 104.833 218.488 104.833 217.733 104.833H215.6C214.845 104.833 214.309 104.833 213.889 104.868C213.475 104.902 213.219 104.966 213.016 105.07C212.608 105.277 212.277 105.609 212.069 106.016C211.966 106.219 211.901 106.475 211.868 106.889C211.833 107.309 211.833 107.845 211.833 108.6V110.733C211.833 111.488 211.833 112.024 211.868 112.444C211.901 112.858 211.966 113.114 212.069 113.317C212.277 113.725 212.608 114.056 213.016 114.264C213.219 114.367 213.475 114.432 213.889 114.465C214.309 114.5 214.845 114.5 215.6 114.5V115L214.61 114.995C213.816 114.983 213.307 114.936 212.898 114.76L212.789 114.71C212.35 114.486 211.982 114.145 211.726 113.728L211.623 113.544C211.333 112.974 211.333 112.226 211.333 110.733V108.6C211.333 107.107 211.333 106.359 211.623 105.789C211.879 105.287 212.287 104.879 212.789 104.624C213.217 104.406 213.744 104.351 214.61 104.338L215.6 104.333H217.733C219.226 104.333 219.974 104.333 220.544 104.624C221.046 104.879 221.454 105.287 221.709 105.789C222 106.359 222 107.107 222 108.6V110.733C222 112.226 222 112.974 221.709 113.544L221.606 113.728C221.35 114.145 220.983 114.486 220.544 114.71L220.435 114.76C219.877 115 219.133 115 217.733 115V114.5C218.488 114.5 219.024 114.5 219.444 114.465C219.857 114.432 220.114 114.367 220.317 114.264C220.724 114.056 221.056 113.725 221.263 113.317C221.367 113.114 221.431 112.858 221.465 112.444C221.499 112.024 221.5 111.488 221.5 110.733Z" fill="#A8A29E"/>
</g>
<path d="M229.605 112V104.725H234.659V105.843H230.895V107.757H234.376V108.855H230.895V110.882H234.659V112H229.605ZM237.847 112L235.25 104.725H236.646L237.96 108.548C238.155 109.163 238.385 109.905 238.663 110.828C238.936 109.905 239.161 109.163 239.351 108.548L240.621 104.725H242.003L239.454 112H237.847ZM241.29 112L243.887 104.725H245.508L248.096 112H246.675L246.094 110.262H243.272L242.676 112H241.29ZM243.633 109.202H245.743L245.401 108.177C245.186 107.508 244.971 106.81 244.698 105.892C244.424 106.81 244.205 107.508 243.985 108.177L243.633 109.202ZM248.965 112V104.725H250.254V110.882H253.628V112H248.965ZM257.578 112.117C255.796 112.117 254.634 111.038 254.634 109.485V104.725H255.908V109.383C255.908 110.306 256.558 110.975 257.578 110.975C258.599 110.975 259.243 110.311 259.243 109.383V104.725H260.518V109.485C260.518 111.033 259.356 112.117 257.578 112.117ZM260.933 112L263.53 104.725H265.151L267.739 112H266.318L265.737 110.262H262.915L262.319 112H260.933ZM263.276 109.202H265.386L265.044 108.177C264.829 107.508 264.614 106.81 264.341 105.892C264.067 106.81 263.848 107.508 263.628 108.177L263.276 109.202ZM267.251 105.843V104.725H273.066V105.843H270.81V112H269.516V105.843H267.251ZM274.101 112V104.725H279.155V105.843H275.39V107.757H278.872V108.855H275.39V110.882H279.155V112H274.101Z" fill="#736D7B"/>
</g>
<g filter="url(#filter6_ddd_1299_26638)">
<path d="M35 149C35 144.582 38.5817 141 43 141H102C106.418 141 110 144.582 110 149V157C110 161.418 106.418 165 102 165H43C38.5817 165 35 161.418 35 157V149Z" fill="#FAFAF9"/>
<path d="M43 141.5H102C106.142 141.5 109.5 144.858 109.5 149V157C109.5 161.142 106.142 164.5 102 164.5H43C38.8579 164.5 35.5 161.142 35.5 157V149C35.5 144.858 38.8579 141.5 43 141.5Z" stroke="#78716C" stroke-opacity="0.1"/>
<g clip-path="url(#clip2_1299_26638)">
<mask id="mask4_1299_26638" style="mask-type:luminance" maskUnits="userSpaceOnUse" x="41" y="145" width="16" height="16">
<path d="M57 145H41V161H57V145Z" fill="white"/>
<path d="M45.747 153.667H47.6664V150.667C47.6664 150.114 48.1141 149.667 48.6664 149.667H49.3331C49.8853 149.667 50.3331 150.114 50.3331 150.667V153.667H52.2525C53.0909 153.667 53.5571 154.637 53.0333 155.291L49.7806 159.357C49.3803 159.858 48.6191 159.858 48.2189 159.357L44.9661 155.291C44.4423 154.637 44.9085 153.667 45.747 153.667Z" fill="black"/>
</mask>
<g mask="url(#mask4_1299_26638)">
<path fill-rule="evenodd" clip-rule="evenodd" d="M43.0443 151.235C43.4175 148.498 45.8028 146.333 48.6667 146.333C51.4973 146.333 53.7906 148.386 54.2605 151.053C55.8141 151.335 57 152.701 57 154.333C57 156.168 55.5015 157.667 53.6667 157.667H44.3333C42.4985 157.667 41 156.168 41 154.333C41 152.94 41.8457 151.727 43.0443 151.235Z" fill="#A8A29E"/>
</g>
<path opacity="0.6" d="M45.747 153.667H47.6664V150.667C47.6664 150.114 48.1141 149.667 48.6664 149.667H49.3331C49.8853 149.667 50.3331 150.114 50.3331 150.667V153.667H52.2525C53.0909 153.667 53.5571 154.637 53.0333 155.291L49.7806 159.357C49.3803 159.858 48.6191 159.858 48.2189 159.357L44.9661 155.291C44.4423 154.637 44.9085 153.667 45.747 153.667Z" fill="#A8A29E"/>
</g>
<path d="M63.0635 157L65.6611 149.725H67.2822L69.8701 157H68.4492L67.8682 155.262H65.0459L64.4502 157H63.0635ZM65.4072 154.202H67.5166L67.1748 153.177C66.96 152.508 66.7451 151.81 66.4717 150.892C66.1982 151.81 65.9785 152.508 65.7588 153.177L65.4072 154.202ZM73.2635 157.117C71.4617 157.117 70.3826 156.185 70.3826 154.627H71.6473C71.657 155.506 72.2625 156.028 73.2732 156.028C74.1814 156.028 74.782 155.618 74.782 154.979C74.782 154.466 74.4012 154.168 73.4295 153.943L72.6482 153.768C71.1932 153.436 70.5242 152.796 70.5242 151.775C70.5242 150.477 71.5936 149.607 73.2 149.607C74.826 149.607 75.8367 150.486 75.8807 151.932H74.6551C74.6014 151.165 74.0447 150.701 73.1951 150.701C72.3895 150.701 71.8182 151.116 71.8182 151.712C71.8182 152.2 72.1941 152.474 73.1414 152.693L73.8787 152.864C75.3875 153.201 76.0662 153.831 76.0662 154.9C76.0662 156.258 74.9871 157.117 73.2635 157.117ZM79.86 157.117C78.0582 157.117 76.9791 156.185 76.9791 154.627H78.2437C78.2535 155.506 78.859 156.028 79.8697 156.028C80.7779 156.028 81.3785 155.618 81.3785 154.979C81.3785 154.466 80.9977 154.168 80.026 153.943L79.2447 153.768C77.7896 153.436 77.1207 152.796 77.1207 151.775C77.1207 150.477 78.19 149.607 79.7965 149.607C81.4225 149.607 82.4332 150.486 82.4771 151.932H81.2516C81.1979 151.165 80.6412 150.701 79.7916 150.701C78.9859 150.701 78.4146 151.116 78.4146 151.712C78.4146 152.2 78.7906 152.474 79.7379 152.693L80.4752 152.864C81.984 153.201 82.6627 153.831 82.6627 154.9C82.6627 156.258 81.5836 157.117 79.86 157.117ZM86.7396 157.117C84.9574 157.117 83.7953 156.038 83.7953 154.485V149.725H85.0697V154.383C85.0697 155.306 85.7191 155.975 86.7396 155.975C87.7602 155.975 88.4047 155.311 88.4047 154.383V149.725H89.6791V154.485C89.6791 156.033 88.517 157.117 86.7396 157.117ZM91.0656 157V149.725H93.9025C95.5041 149.725 96.5051 150.623 96.5051 152.049C96.5051 153.04 95.9875 153.768 95.1232 154.119L96.6418 157H95.2209L93.8537 154.354C93.8439 154.354 93.8342 154.354 93.8195 154.354H92.3547V157H91.0656ZM92.3547 153.289H93.8391C94.6984 153.289 95.2355 152.811 95.2355 152.049C95.2355 151.292 94.6984 150.818 93.8293 150.818H92.3547V153.289ZM97.7109 157V149.725H102.765V150.843H99V152.757H102.481V153.855H99V155.882H102.765V157H97.7109Z" fill="#736D7B"/>
</g>
<g filter="url(#filter7_ddd_1299_26638)">
<path d="M169 183C169 178.582 172.582 175 177 175H246C250.418 175 254 178.582 254 183V191C254 195.418 250.418 199 246 199H177C172.582 199 169 195.418 169 191V183Z" fill="#FAFAF9"/>
<path d="M177 175.5H246C250.142 175.5 253.5 178.858 253.5 183V191C253.5 195.142 250.142 198.5 246 198.5H177C172.858 198.5 169.5 195.142 169.5 191V183C169.5 178.858 172.858 175.5 177 175.5Z" stroke="#78716C" stroke-opacity="0.1"/>
<g clip-path="url(#clip3_1299_26638)">
<mask id="mask5_1299_26638" style="mask-type:luminance" maskUnits="userSpaceOnUse" x="175" y="179" width="16" height="16">
<path d="M191 179H175V195H191V179Z" fill="white"/>
<path d="M183.294 188.333C185.893 188.333 188 190.44 188 193.039C188 193.754 187.42 194.333 186.706 194.333H179.294C178.58 194.333 178 193.754 178 193.039C178 190.44 180.107 188.333 182.706 188.333H183.294ZM183 182.333C184.289 182.333 185.333 183.378 185.333 184.667C185.333 185.955 184.289 187 183 187C181.711 187 180.667 185.955 180.667 184.667C180.667 183.378 181.711 182.333 183 182.333Z" fill="black"/>
</mask>
<g mask="url(#mask5_1299_26638)">
<path opacity="0.6" fill-rule="evenodd" clip-rule="evenodd" d="M176.333 186.333C176.333 182.652 179.318 179.667 183 179.667C186.682 179.667 189.666 182.652 189.666 186.333C189.666 190.015 186.682 193 183 193C179.318 193 176.333 190.015 176.333 186.333Z" fill="#A8A29E"/>
</g>
<path d="M183.294 188.333C185.893 188.333 188 190.44 188 193.039C188 193.754 187.42 194.333 186.706 194.333H179.294C178.58 194.333 178 193.754 178 193.039C178 190.44 180.107 188.333 182.706 188.333H183.294ZM183 182.333C184.289 182.333 185.333 183.378 185.333 184.667C185.333 185.955 184.289 187 183 187C181.711 187 180.667 185.955 180.667 184.667C180.667 183.378 181.711 182.333 183 182.333Z" fill="#A8A29E"/>
</g>
<path d="M197.063 191L199.661 183.725H201.282L203.87 191H202.449L201.868 189.262H199.046L198.45 191H197.063ZM199.407 188.202H201.517L201.175 187.177C200.96 186.508 200.745 185.81 200.472 184.892C200.198 185.81 199.979 186.508 199.759 187.177L199.407 188.202ZM207.224 191.117C205.442 191.117 204.28 190.038 204.28 188.485V183.725H205.554V188.383C205.554 189.306 206.204 189.975 207.224 189.975C208.245 189.975 208.889 189.311 208.889 188.383V183.725H210.164V188.485C210.164 190.033 209.002 191.117 207.224 191.117ZM214.71 191.117C212.693 191.117 211.296 189.594 211.296 187.367C211.296 185.082 212.742 183.607 214.695 183.607C216.321 183.607 217.629 184.633 217.839 186.137H216.526C216.345 185.316 215.662 184.765 214.729 184.765C213.425 184.765 212.595 185.79 212.595 187.367C212.595 188.939 213.43 189.96 214.739 189.96C215.813 189.96 216.604 189.262 216.614 188.231H214.924V187.211H217.888V188.09C217.888 189.862 216.546 191.117 214.71 191.117ZM219.094 191V183.725H220.95L222.366 187.548C222.502 187.953 222.737 188.681 222.908 189.247C223.079 188.681 223.313 187.953 223.445 187.548L224.836 183.725H226.702V191H225.432V187.289C225.432 186.776 225.456 185.971 225.476 185.224C225.217 186.044 224.968 186.845 224.812 187.289L223.425 191H222.371L220.974 187.289C220.823 186.864 220.579 186.112 220.325 185.326C220.339 186.044 220.364 186.801 220.364 187.289V191H219.094ZM228.112 191V183.725H233.166V184.843H229.402V186.757H232.883V187.855H229.402V189.882H233.166V191H228.112ZM234.299 191V183.725H235.69L238.244 187.782C238.415 188.056 238.737 188.612 239.025 189.13C239.006 188.583 238.996 187.978 238.996 187.689V183.725H240.29V191H238.894L236.589 187.348C236.384 187.021 235.998 186.376 235.554 185.59C235.583 186.4 235.588 187.025 235.588 187.343V191H234.299ZM241.325 184.843V183.725H247.14V184.843H244.885V191H243.591V184.843H241.325Z" fill="#736D7B"/>
</g>
<defs>
<filter id="filter0_dd_1299_26638" x="96" y="243" width="113" height="95" filterUnits="userSpaceOnUse" color-interpolation-filters="sRGB">
<feFlood flood-opacity="0" result="BackgroundImageFix"/>
<feColorMatrix in="SourceAlpha" type="matrix" values="0 0 0 0 0 0 0 0 0 0 0 0 0 0 0 0 0 0 127 0" result="hardAlpha"/>
<feMorphology radius="6" operator="erode" in="SourceAlpha" result="effect1_dropShadow_1299_26638"/>
<feOffset dx="8"/>
<feGaussianBlur stdDeviation="6"/>
<feComposite in2="hardAlpha" operator="out"/>
<feColorMatrix type="matrix" values="0 0 0 0 0.478431 0 0 0 0 0.2 0 0 0 0 0.839216 0 0 0 0.24 0"/>
<feBlend mode="normal" in2="BackgroundImageFix" result="effect1_dropShadow_1299_26638"/>
<feColorMatrix in="SourceAlpha" type="matrix" values="0 0 0 0 0 0 0 0 0 0 0 0 0 0 0 0 0 0 127 0" result="hardAlpha"/>
<feMorphology radius="6" operator="erode" in="SourceAlpha" result="effect2_dropShadow_1299_26638"/>
<feOffset dx="-8"/>
<feGaussianBlur stdDeviation="6"/>
<feComposite in2="hardAlpha" operator="out"/>
<feColorMatrix type="matrix" values="0 0 0 0 0.478431 0 0 0 0 0.2 0 0 0 0 0.839216 0 0 0 0.24 0"/>
<feBlend mode="normal" in2="effect1_dropShadow_1299_26638" result="effect2_dropShadow_1299_26638"/>
<feBlend mode="normal" in="SourceGraphic" in2="effect2_dropShadow_1299_26638" result="shape"/>
</filter>
<filter id="filter1_d_1299_26638" x="115.403" y="254.381" width="74.1934" height="72.6685" filterUnits="userSpaceOnUse" color-interpolation-filters="sRGB">
<feFlood flood-opacity="0" result="BackgroundImageFix"/>
<feColorMatrix in="SourceAlpha" type="matrix" values="0 0 0 0 0 0 0 0 0 0 0 0 0 0 0 0 0 0 127 0" result="hardAlpha"/>
<feMorphology radius="1.5" operator="dilate" in="SourceAlpha" result="effect1_dropShadow_1299_26638"/>
<feOffset/>
<feComposite in2="hardAlpha" operator="out"/>
<feColorMatrix type="matrix" values="0 0 0 0 0.360784 0 0 0 0 0.360784 0 0 0 0 0.360784 0 0 0 0.5 0"/>
<feBlend mode="normal" in2="BackgroundImageFix" result="effect1_dropShadow_1299_26638"/>
<feBlend mode="normal" in="SourceGraphic" in2="effect1_dropShadow_1299_26638" result="shape"/>
</filter>
<filter id="filter2_ddd_1299_26638" x="0" y="31" width="97" height="53" filterUnits="userSpaceOnUse" color-interpolation-filters="sRGB">
<feFlood flood-opacity="0" result="BackgroundImageFix"/>
<feColorMatrix in="SourceAlpha" type="matrix" values="0 0 0 0 0 0 0 0 0 0 0 0 0 0 0 0 0 0 127 0" result="hardAlpha"/>
<feOffset dy="2"/>
<feGaussianBlur stdDeviation="2"/>
<feColorMatrix type="matrix" values="0 0 0 0 0 0 0 0 0 0 0 0 0 0 0 0 0 0 0.03 0"/>
<feBlend mode="normal" in2="BackgroundImageFix" result="effect1_dropShadow_1299_26638"/>
<feColorMatrix in="SourceAlpha" type="matrix" values="0 0 0 0 0 0 0 0 0 0 0 0 0 0 0 0 0 0 127 0" result="hardAlpha"/>
<feOffset dy="7"/>
<feGaussianBlur stdDeviation="3.5"/>
<feColorMatrix type="matrix" values="0 0 0 0 0 0 0 0 0 0 0 0 0 0 0 0 0 0 0.03 0"/>
<feBlend mode="normal" in2="effect1_dropShadow_1299_26638" result="effect2_dropShadow_1299_26638"/>
<feColorMatrix in="SourceAlpha" type="matrix" values="0 0 0 0 0 0 0 0 0 0 0 0 0 0 0 0 0 0 127 0" result="hardAlpha"/>
<feOffset dy="17"/>
<feGaussianBlur stdDeviation="5"/>
<feColorMatrix type="matrix" values="0 0 0 0 0 0 0 0 0 0 0 0 0 0 0 0 0 0 0.02 0"/>
<feBlend mode="normal" in2="effect2_dropShadow_1299_26638" result="effect3_dropShadow_1299_26638"/>
<feBlend mode="normal" in="SourceGraphic" in2="effect3_dropShadow_1299_26638" result="shape"/>
</filter>
<filter id="filter3_ddd_1299_26638" x="95" y="59" width="110" height="53" filterUnits="userSpaceOnUse" color-interpolation-filters="sRGB">
<feFlood flood-opacity="0" result="BackgroundImageFix"/>
<feColorMatrix in="SourceAlpha" type="matrix" values="0 0 0 0 0 0 0 0 0 0 0 0 0 0 0 0 0 0 127 0" result="hardAlpha"/>
<feOffset dy="2"/>
<feGaussianBlur stdDeviation="2"/>
<feColorMatrix type="matrix" values="0 0 0 0 0 0 0 0 0 0 0 0 0 0 0 0 0 0 0.03 0"/>
<feBlend mode="normal" in2="BackgroundImageFix" result="effect1_dropShadow_1299_26638"/>
<feColorMatrix in="SourceAlpha" type="matrix" values="0 0 0 0 0 0 0 0 0 0 0 0 0 0 0 0 0 0 127 0" result="hardAlpha"/>
<feOffset dy="7"/>
<feGaussianBlur stdDeviation="3.5"/>
<feColorMatrix type="matrix" values="0 0 0 0 0 0 0 0 0 0 0 0 0 0 0 0 0 0 0.03 0"/>
<feBlend mode="normal" in2="effect1_dropShadow_1299_26638" result="effect2_dropShadow_1299_26638"/>
<feColorMatrix in="SourceAlpha" type="matrix" values="0 0 0 0 0 0 0 0 0 0 0 0 0 0 0 0 0 0 127 0" result="hardAlpha"/>
<feOffset dy="17"/>
<feGaussianBlur stdDeviation="5"/>
<feColorMatrix type="matrix" values="0 0 0 0 0 0 0 0 0 0 0 0 0 0 0 0 0 0 0.02 0"/>
<feBlend mode="normal" in2="effect2_dropShadow_1299_26638" result="effect3_dropShadow_1299_26638"/>
<feBlend mode="normal" in="SourceGraphic" in2="effect3_dropShadow_1299_26638" result="shape"/>
</filter>
<filter id="filter4_ddd_1299_26638" x="191" y="94" width="105" height="53" filterUnits="userSpaceOnUse" color-interpolation-filters="sRGB">
<feFlood flood-opacity="0" result="BackgroundImageFix"/>
<feColorMatrix in="SourceAlpha" type="matrix" values="0 0 0 0 0 0 0 0 0 0 0 0 0 0 0 0 0 0 127 0" result="hardAlpha"/>
<feOffset dy="2"/>
<feGaussianBlur stdDeviation="2"/>
<feColorMatrix type="matrix" values="0 0 0 0 0 0 0 0 0 0 0 0 0 0 0 0 0 0 0.03 0"/>
<feBlend mode="normal" in2="BackgroundImageFix" result="effect1_dropShadow_1299_26638"/>
<feColorMatrix in="SourceAlpha" type="matrix" values="0 0 0 0 0 0 0 0 0 0 0 0 0 0 0 0 0 0 127 0" result="hardAlpha"/>
<feOffset dy="7"/>
<feGaussianBlur stdDeviation="3.5"/>
<feColorMatrix type="matrix" values="0 0 0 0 0 0 0 0 0 0 0 0 0 0 0 0 0 0 0.03 0"/>
<feBlend mode="normal" in2="effect1_dropShadow_1299_26638" result="effect2_dropShadow_1299_26638"/>
<feColorMatrix in="SourceAlpha" type="matrix" values="0 0 0 0 0 0 0 0 0 0 0 0 0 0 0 0 0 0 127 0" result="hardAlpha"/>
<feOffset dy="17"/>
<feGaussianBlur stdDeviation="5"/>
<feColorMatrix type="matrix" values="0 0 0 0 0 0 0 0 0 0 0 0 0 0 0 0 0 0 0.02 0"/>
<feBlend mode="normal" in2="effect2_dropShadow_1299_26638" result="effect3_dropShadow_1299_26638"/>
<feBlend mode="normal" in="SourceGraphic" in2="effect3_dropShadow_1299_26638" result="shape"/>
</filter>
<filter id="filter5_f_1299_26638" x="203.615" y="96.6155" width="21.0508" height="20.0508" filterUnits="userSpaceOnUse" color-interpolation-filters="sRGB">
<feFlood flood-opacity="0" result="BackgroundImageFix"/>
<feBlend mode="normal" in="SourceGraphic" in2="BackgroundImageFix" result="shape"/>
<feGaussianBlur stdDeviation="2" result="effect1_foregroundBlur_1299_26638"/>
</filter>
<filter id="filter6_ddd_1299_26638" x="25" y="139" width="95" height="53" filterUnits="userSpaceOnUse" color-interpolation-filters="sRGB">
<feFlood flood-opacity="0" result="BackgroundImageFix"/>
<feColorMatrix in="SourceAlpha" type="matrix" values="0 0 0 0 0 0 0 0 0 0 0 0 0 0 0 0 0 0 127 0" result="hardAlpha"/>
<feOffset dy="2"/>
<feGaussianBlur stdDeviation="2"/>
<feColorMatrix type="matrix" values="0 0 0 0 0 0 0 0 0 0 0 0 0 0 0 0 0 0 0.03 0"/>
<feBlend mode="normal" in2="BackgroundImageFix" result="effect1_dropShadow_1299_26638"/>
<feColorMatrix in="SourceAlpha" type="matrix" values="0 0 0 0 0 0 0 0 0 0 0 0 0 0 0 0 0 0 127 0" result="hardAlpha"/>
<feOffset dy="7"/>
<feGaussianBlur stdDeviation="3.5"/>
<feColorMatrix type="matrix" values="0 0 0 0 0 0 0 0 0 0 0 0 0 0 0 0 0 0 0.03 0"/>
<feBlend mode="normal" in2="effect1_dropShadow_1299_26638" result="effect2_dropShadow_1299_26638"/>
<feColorMatrix in="SourceAlpha" type="matrix" values="0 0 0 0 0 0 0 0 0 0 0 0 0 0 0 0 0 0 127 0" result="hardAlpha"/>
<feOffset dy="17"/>
<feGaussianBlur stdDeviation="5"/>
<feColorMatrix type="matrix" values="0 0 0 0 0 0 0 0 0 0 0 0 0 0 0 0 0 0 0.02 0"/>
<feBlend mode="normal" in2="effect2_dropShadow_1299_26638" result="effect3_dropShadow_1299_26638"/>
<feBlend mode="normal" in="SourceGraphic" in2="effect3_dropShadow_1299_26638" result="shape"/>
</filter>
<filter id="filter7_ddd_1299_26638" x="159" y="173" width="105" height="53" filterUnits="userSpaceOnUse" color-interpolation-filters="sRGB">
<feFlood flood-opacity="0" result="BackgroundImageFix"/>
<feColorMatrix in="SourceAlpha" type="matrix" values="0 0 0 0 0 0 0 0 0 0 0 0 0 0 0 0 0 0 127 0" result="hardAlpha"/>
<feOffset dy="2"/>
<feGaussianBlur stdDeviation="2"/>
<feColorMatrix type="matrix" values="0 0 0 0 0 0 0 0 0 0 0 0 0 0 0 0 0 0 0.03 0"/>
<feBlend mode="normal" in2="BackgroundImageFix" result="effect1_dropShadow_1299_26638"/>
<feColorMatrix in="SourceAlpha" type="matrix" values="0 0 0 0 0 0 0 0 0 0 0 0 0 0 0 0 0 0 127 0" result="hardAlpha"/>
<feOffset dy="7"/>
<feGaussianBlur stdDeviation="3.5"/>
<feColorMatrix type="matrix" values="0 0 0 0 0 0 0 0 0 0 0 0 0 0 0 0 0 0 0.03 0"/>
<feBlend mode="normal" in2="effect1_dropShadow_1299_26638" result="effect2_dropShadow_1299_26638"/>
<feColorMatrix in="SourceAlpha" type="matrix" values="0 0 0 0 0 0 0 0 0 0 0 0 0 0 0 0 0 0 127 0" result="hardAlpha"/>
<feOffset dy="17"/>
<feGaussianBlur stdDeviation="5"/>
<feColorMatrix type="matrix" values="0 0 0 0 0 0 0 0 0 0 0 0 0 0 0 0 0 0 0.02 0"/>
<feBlend mode="normal" in2="effect2_dropShadow_1299_26638" result="effect3_dropShadow_1299_26638"/>
<feBlend mode="normal" in="SourceGraphic" in2="effect3_dropShadow_1299_26638" result="shape"/>
</filter>
<linearGradient id="paint0_linear_1299_26638" x1="142" y1="0" x2="142" y2="320" gradientUnits="userSpaceOnUse">
<stop/>
<stop offset="0.362745" stop-color="white"/>
</linearGradient>
<radialGradient id="paint1_radial_1299_26638" cx="0" cy="0" r="1" gradientUnits="userSpaceOnUse" gradientTransform="translate(152.5 290.557) rotate(90) scale(41.4435 41.6704)">
<stop offset="0.6" stop-color="#7B7B7B" stop-opacity="0"/>
<stop offset="1" stop-color="#D1D1D1" stop-opacity="0.1"/>
</radialGradient>
<linearGradient id="paint2_linear_1299_26638" x1="195" y1="290.5" x2="110" y2="290.5" gradientUnits="userSpaceOnUse">
<stop stop-color="#7A33D6"/>
<stop offset="0.25" stop-color="#7A33D6" stop-opacity="0"/>
<stop offset="0.75" stop-color="#7A33D6" stop-opacity="0"/>
<stop offset="1" stop-color="#7A33D6"/>
</linearGradient>
<radialGradient id="paint3_radial_1299_26638" cx="0" cy="0" r="1" gradientUnits="userSpaceOnUse" gradientTransform="translate(152.5 290.763) rotate(90) scale(34.7867 34.9016)">
<stop offset="0.6" stop-color="#7B7B7B" stop-opacity="0"/>
<stop offset="1" stop-color="#D1D1D1" stop-opacity="0.1"/>
</radialGradient>
<clipPath id="clip0_1299_26638">
<rect width="16" height="16" fill="white" transform="translate(111 65)"/>
</clipPath>
<clipPath id="clip1_1299_26638">
<rect width="16" height="16" fill="white" transform="translate(207 100)"/>
</clipPath>
<clipPath id="clip2_1299_26638">
<rect width="16" height="16" fill="white" transform="translate(41 145)"/>
</clipPath>
<clipPath id="clip3_1299_26638">
<rect width="16" height="16" fill="white" transform="translate(175 179)"/>
</clipPath>
</defs>
</svg>
