<svg width="426" height="591" viewBox="0 0 426 591" fill="none" xmlns="http://www.w3.org/2000/svg">
<path d="M0 646H4.63148C23.4092 646 38.6315 630.777 38.6315 612V507.012C38.6315 488.235 53.8538 473.012 72.6315 473.012H358.636C377.414 473.012 392.636 488.235 392.636 507.012V612.636C392.636 631.062 407.574 646 426 646" stroke="#EBEBEB"/>
<path d="M0 353.012H24.6315C43.4092 353.012 58.6315 368.234 58.6315 387.012V392C58.6315 410.777 73.8538 426 92.6315 426H338.636C357.414 426 372.636 410.777 372.636 392V387.012C372.636 368.234 387.859 353.012 406.636 353.012H426" stroke="#EBEBEB"/>
<path d="M0 473.012H426" stroke="#EBEBEB"/>
<mask id="mask0_978_6410" style="mask-type:luminance" maskUnits="userSpaceOnUse" x="34" y="0" width="358" height="345">
<rect x="34" width="358" height="345" fill="url(#paint0_linear_978_6410)"/>
</mask>
<g mask="url(#mask0_978_6410)">
<path d="M212.911 413L212.911 -2" stroke="#E7E5E4"/>
<path d="M213.911 458L213.911 332.899C213.911 310.689 225.426 290.067 244.334 278.414L333.488 223.47C352.396 211.818 363.911 191.196 363.911 168.986L363.911 -1" stroke="#E7E5E4"/>
<path d="M212.911 458V290.468C212.911 272.58 202.964 256.176 187.103 247.906L82.3226 193.275C61.1738 182.248 47.9112 160.376 47.9112 136.525L47.9112 -1" stroke="#E7E5E4"/>
</g>
<g filter="url(#filter0_dddd_978_6410)">
<g filter="url(#filter1_dd_978_6410)">
<ellipse cx="213.25" cy="433.5" rx="98.5" ry="96.5" fill="white"/>
<ellipse cx="213.25" cy="433.5" rx="98.5" ry="96.5" fill="url(#paint1_radial_978_6410)"/>
<path d="M213.25 337.75C267.25 337.75 311 380.633 311 433.5C311 486.367 267.25 529.25 213.25 529.25C159.25 529.25 115.5 486.367 115.5 433.5C115.5 380.633 159.25 337.75 213.25 337.75Z" stroke="#5C5C5C" stroke-opacity="0.5" stroke-width="1.5"/>
<path d="M213.25 337.75C267.25 337.75 311 380.633 311 433.5C311 486.367 267.25 529.25 213.25 529.25C159.25 529.25 115.5 486.367 115.5 433.5C115.5 380.633 159.25 337.75 213.25 337.75Z" stroke="url(#paint2_linear_978_6410)" stroke-width="1.5"/>
</g>
<g filter="url(#filter2_d_978_6410)">
<ellipse cx="213.25" cy="434" rx="82.5" ry="81" fill="url(#paint3_radial_978_6410)"/>
</g>
<circle cx="213.25" cy="433.5" r="68.5" fill="#7A33D6"/>
<path d="M244.751 418L213.251 400V468C240.451 458 245.584 430.5 244.751 418Z" fill="white"/>
<path d="M181.833 418L213.251 400V468C186.051 458 181 430.5 181.833 418Z" fill="#E7E5E4"/>
<g filter="url(#filter3_dd_978_6410)">
<ellipse cx="213.25" cy="433.5" rx="98.5" ry="96.5" fill="url(#paint4_radial_978_6410)" fill-opacity="0.6" shape-rendering="crispEdges"/>
<ellipse cx="213.25" cy="433.5" rx="98.5" ry="96.5" fill="url(#paint5_radial_978_6410)" fill-opacity="0.6" shape-rendering="crispEdges"/>
<path d="M213.25 337.75C267.25 337.75 311 380.633 311 433.5C311 486.367 267.25 529.25 213.25 529.25C159.25 529.25 115.5 486.367 115.5 433.5C115.5 380.633 159.25 337.75 213.25 337.75Z" stroke="#5C5C5C" stroke-opacity="0.5" stroke-width="1.5" shape-rendering="crispEdges"/>
<path d="M213.25 337.75C267.25 337.75 311 380.633 311 433.5C311 486.367 267.25 529.25 213.25 529.25C159.25 529.25 115.5 486.367 115.5 433.5C115.5 380.633 159.25 337.75 213.25 337.75Z" stroke="url(#paint6_linear_978_6410)" stroke-width="1.5" shape-rendering="crispEdges"/>
</g>
</g>
<g filter="url(#filter4_ddd_978_6410)">
<path d="M33 57C33 52.5817 36.5817 49 41 49H116C120.418 49 124 52.5817 124 57V69C124 73.4183 120.418 77 116 77H41C36.5817 77 33 73.4183 33 69V57Z" fill="#F5F5F4"/>
<path opacity="0.6" fill-rule="evenodd" clip-rule="evenodd" d="M48.5989 58.8103C52.0843 55.4885 56.1465 55.8879 56.4884 55.9286C56.7941 55.9649 57.0351 56.2059 57.0716 56.5116C57.1124 56.8529 57.5117 60.9159 54.1899 64.4012C52.1836 66.5063 49.9437 67.2162 49.1842 67.4246C48.9531 67.4881 48.7058 67.4227 48.5363 67.2531L45.7471 64.4639C45.5777 64.2945 45.5122 64.0471 45.5756 63.816C45.7841 63.0566 46.4938 60.8167 48.5989 58.8103Z" fill="#A8A29E"/>
<path d="M49.1565 58.3135C48.9694 58.469 48.7833 58.6344 48.5989 58.8102C47.175 60.1673 46.3895 61.6313 45.9657 62.6717C45.4405 62.663 44.9852 62.7103 44.6273 62.7705C44.3515 62.8169 44.1352 62.8707 43.9914 62.9116C43.9196 62.932 43.8661 62.9491 43.8325 62.9604C43.8158 62.966 43.804 62.9701 43.7975 62.9725L43.7916 62.9746C43.5195 63.0777 43.2117 62.9923 43.0316 62.7634C42.8511 62.534 42.8408 62.2138 43.0063 61.9732L45.0114 59.0593C45.4343 58.4619 45.9503 58.1453 46.5606 58.0455C47.1121 57.9553 47.7021 58.0529 48.2438 58.1501L49.1565 58.3135Z" fill="#A8A29E"/>
<path d="M52.4444 61.8888C53.1804 61.8888 53.7777 61.2919 53.7777 60.5555C53.7777 59.8191 53.1804 59.2222 52.4444 59.2222C51.7084 59.2222 51.111 59.8191 51.111 60.5555C51.111 61.2919 51.7084 61.8888 52.4444 61.8888Z" fill="#A8A29E"/>
<path fill-rule="evenodd" clip-rule="evenodd" d="M44.3686 65.7826C44.5923 65.6701 44.863 65.7137 45.04 65.8908L47.1094 67.9607C47.2864 68.1377 47.33 68.4083 47.2175 68.632C46.8703 69.3222 46.1581 69.8082 45.3207 69.8082H43.7726C43.452 69.8082 43.1921 69.5483 43.1921 69.2277V67.6797C43.1921 66.8419 43.6784 66.1298 44.3686 65.7826Z" fill="#A8A29E"/>
<path d="M50.3283 67.0345C50.3369 67.5597 50.2896 68.0149 50.2294 68.3727C50.183 68.6485 50.1292 68.8648 50.0884 69.0086C50.068 69.0805 50.0509 69.134 50.0396 69.1676C50.034 69.1843 50.0298 69.1961 50.0275 69.2026L50.0254 69.2085C49.9223 69.4806 50.0077 69.7884 50.2365 69.9685C50.466 70.149 50.7862 70.1592 51.0267 69.9938L53.9334 67.9939L53.9408 67.9887C54.5382 67.5658 54.8548 67.0498 54.9545 66.4395C55.0447 65.8879 54.9471 65.298 54.8499 64.7562L54.6865 63.8438C54.531 64.0308 54.3657 64.2168 54.1898 64.4013C52.8327 65.8252 51.3687 66.6108 50.3283 67.0345Z" fill="#A8A29E"/>
<path d="M65.1279 67V58.24H70.2759V59.392H66.3999V61.876H69.8559V63.016H66.3999V65.848H70.2759V67H65.1279ZM72.5033 67V58.24H73.7993V65.812H77.6273V67H72.5033ZM79.5186 67V58.24H84.6666V59.392H80.7906V61.876H84.2466V63.016H80.7906V65.848H84.6666V67H79.5186ZM88.3219 67L86.1019 58.24H87.4339L88.8379 64.072C88.9259 64.416 89.0019 64.76 89.0659 65.104C89.1379 65.44 89.1899 65.704 89.2219 65.896C89.2539 65.704 89.2979 65.44 89.3539 65.104C89.4179 64.76 89.4939 64.412 89.5819 64.06L90.9739 58.24H92.2699L90.0379 67H88.3219ZM93.2972 67L95.5292 58.24H97.2332L99.4652 67H98.1572L97.6292 64.78H95.1452L94.6172 67H93.2972ZM95.3852 63.712H97.3772L96.7772 61.18C96.6732 60.732 96.5852 60.344 96.5132 60.016C96.4492 59.68 96.4052 59.452 96.3812 59.332C96.3572 59.452 96.3132 59.68 96.2492 60.016C96.1852 60.344 96.0972 60.728 95.9852 61.168L95.3852 63.712ZM102.929 67V59.428H100.589V58.228H106.565V59.428H104.225V67H102.929ZM108.3 67V58.24H113.448V59.392H109.572V61.876H113.028V63.016H109.572V65.848H113.448V67H108.3Z" fill="#736D7B"/>
</g>
<g filter="url(#filter5_ddd_978_6410)">
<path d="M188 95C188 90.5817 191.582 87 196 87H278C282.418 87 286 90.5817 286 95V107C286 111.418 282.418 115 278 115H196C191.582 115 188 111.418 188 107V95Z" fill="#F5F5F4"/>
<g clip-path="url(#clip0_978_6410)">
<mask id="mask1_978_6410" style="mask-type:luminance" maskUnits="userSpaceOnUse" x="197" y="93" width="16" height="16">
<path d="M213 93H197V109H213V93Z" fill="white"/>
<path d="M203.891 99.8511C204.194 98.7166 205.806 98.7166 206.109 99.8511L207.577 104.316C207.795 105.133 207.612 106.006 207.083 106.667C206.549 107.333 205.774 107.667 205 107.667C204.226 107.667 203.451 107.333 202.917 106.667C202.388 106.006 202.205 105.133 202.423 104.316L203.891 99.8511ZM200.407 101.002C200.743 101.036 201.005 101.32 201.005 101.665C201.005 102.011 200.743 102.295 200.407 102.329L200.338 102.332H200.335C199.966 102.332 199.668 102.034 199.668 101.665C199.668 101.297 199.966 100.999 200.335 100.999H200.338L200.407 101.002ZM209.74 101.002C210.076 101.036 210.338 101.32 210.338 101.665C210.338 102.011 210.076 102.295 209.74 102.329L209.672 102.332H209.668C209.3 102.332 209.001 102.034 209.001 101.665C209.001 101.297 209.3 100.999 209.668 100.999H209.672L209.74 101.002ZM201.233 97.894C201.477 97.65 201.863 97.6344 202.125 97.8478L202.176 97.894L202.178 97.8966L202.225 97.9474C202.438 98.2093 202.422 98.5954 202.178 98.8394C201.918 99.0996 201.496 99.0997 201.236 98.8394L201.233 98.8367L201.187 98.786C200.974 98.5241 200.989 98.1382 201.233 97.894ZM207.831 97.894C208.091 97.6337 208.513 97.6337 208.773 97.894C209.034 98.1544 209.034 98.5764 208.773 98.8367L208.771 98.8394C208.51 99.0997 208.088 99.0996 207.828 98.8394C207.568 98.579 207.568 98.157 207.828 97.8966L207.831 97.894ZM205 96.3335C205.368 96.3335 205.667 96.632 205.667 97.0002V97.0041C205.667 97.3722 205.368 97.6707 205 97.6707C204.632 97.6707 204.333 97.3723 204.333 97.0041V97.0002C204.333 96.632 204.632 96.3335 205 96.3335Z" fill="black"/>
</mask>
<g mask="url(#mask1_978_6410)">
<path fill-rule="evenodd" clip-rule="evenodd" d="M205 94.3335C209.05 94.3335 212.333 97.6167 212.333 101.667C212.333 102.884 212.037 104.033 211.512 105.043C211.304 105.443 210.876 105.667 210.425 105.667H199.575C199.124 105.667 198.696 105.443 198.488 105.043C197.963 104.033 197.667 102.884 197.667 101.667C197.667 97.6167 200.95 94.3335 205 94.3335Z" fill="#A8A29E"/>
</g>
<path opacity="0.6" d="M203.891 99.8511C204.194 98.7166 205.806 98.7166 206.109 99.8511L207.577 104.316C207.795 105.133 207.612 106.006 207.083 106.667C206.549 107.333 205.774 107.667 205 107.667C204.226 107.667 203.451 107.333 202.917 106.667C202.388 106.006 202.205 105.133 202.423 104.316L203.891 99.8511ZM200.407 101.002C200.743 101.036 201.005 101.32 201.005 101.665C201.005 102.011 200.743 102.295 200.407 102.329L200.338 102.332H200.335C199.966 102.332 199.668 102.034 199.668 101.665C199.668 101.297 199.966 100.999 200.335 100.999H200.338L200.407 101.002ZM209.74 101.002C210.076 101.036 210.338 101.32 210.338 101.665C210.338 102.011 210.076 102.295 209.74 102.329L209.672 102.332H209.668C209.3 102.332 209.001 102.034 209.001 101.665C209.001 101.297 209.3 100.999 209.668 100.999H209.672L209.74 101.002ZM201.233 97.894C201.477 97.65 201.863 97.6344 202.125 97.8478L202.176 97.894L202.178 97.8966L202.225 97.9474C202.438 98.2093 202.422 98.5954 202.178 98.8394C201.918 99.0996 201.496 99.0997 201.236 98.8394L201.233 98.8367L201.187 98.786C200.974 98.5241 200.989 98.1382 201.233 97.894ZM207.831 97.894C208.091 97.6337 208.513 97.6337 208.773 97.894C209.034 98.1544 209.034 98.5764 208.773 98.8367L208.771 98.8394C208.51 99.0997 208.088 99.0996 207.828 98.8394C207.568 98.579 207.568 98.157 207.828 97.8966L207.831 97.894ZM205 96.3335C205.368 96.3335 205.667 96.632 205.667 97.0002V97.0041C205.667 97.3722 205.368 97.6707 205 97.6707C204.632 97.6707 204.333 97.3723 204.333 97.0041V97.0002C204.333 96.632 204.632 96.3335 205 96.3335Z" fill="#A8A29E"/>
</g>
<path d="M219.516 105L221.748 96.24H223.452L225.684 105H224.376L223.848 102.78H221.364L220.836 105H219.516ZM221.604 101.712H223.596L222.996 99.18C222.892 98.732 222.804 98.344 222.732 98.016C222.668 97.68 222.624 97.452 222.6 97.332C222.576 97.452 222.532 97.68 222.468 98.016C222.404 98.344 222.316 98.728 222.204 99.168L221.604 101.712ZM229.795 105.12C228.955 105.12 228.307 104.892 227.851 104.436C227.395 103.972 227.167 103.344 227.167 102.552V96.24H228.463V102.552C228.463 102.992 228.571 103.34 228.787 103.596C229.011 103.852 229.347 103.98 229.795 103.98C230.235 103.98 230.567 103.852 230.791 103.596C231.015 103.34 231.127 102.992 231.127 102.552V96.24H232.423V102.552C232.423 103.344 232.195 103.972 231.739 104.436C231.283 104.892 230.635 105.12 229.795 105.12ZM236.343 105V97.428H234.003V96.228H239.979V97.428H237.639V105H236.343ZM244.186 105.12C243.642 105.12 243.17 105.02 242.77 104.82C242.378 104.612 242.074 104.316 241.858 103.932C241.65 103.54 241.546 103.084 241.546 102.564V98.676C241.546 98.148 241.65 97.692 241.858 97.308C242.074 96.924 242.378 96.632 242.77 96.432C243.17 96.224 243.642 96.12 244.186 96.12C244.73 96.12 245.198 96.224 245.59 96.432C245.99 96.632 246.294 96.924 246.502 97.308C246.718 97.692 246.826 98.144 246.826 98.664V102.564C246.826 103.084 246.718 103.54 246.502 103.932C246.294 104.316 245.99 104.612 245.59 104.82C245.198 105.02 244.73 105.12 244.186 105.12ZM244.186 103.968C244.626 103.968 244.958 103.848 245.182 103.608C245.414 103.36 245.53 103.012 245.53 102.564V98.676C245.53 98.22 245.414 97.872 245.182 97.632C244.958 97.392 244.626 97.272 244.186 97.272C243.754 97.272 243.422 97.392 243.19 97.632C242.958 97.872 242.842 98.22 242.842 98.676V102.564C242.842 103.012 242.958 103.36 243.19 103.608C243.422 103.848 243.754 103.968 244.186 103.968ZM248.573 105V96.24H250.169L251.045 99.048C251.133 99.312 251.209 99.568 251.273 99.816C251.337 100.056 251.381 100.236 251.405 100.356C251.437 100.236 251.481 100.056 251.537 99.816C251.601 99.568 251.673 99.312 251.753 99.048L252.593 96.24H254.189V105H252.965V102.048C252.965 101.672 252.973 101.256 252.989 100.8C253.013 100.336 253.045 99.872 253.085 99.408C253.125 98.936 253.165 98.488 253.205 98.064C253.245 97.632 253.281 97.256 253.313 96.936L252.017 101.196H250.769L249.449 96.936C249.489 97.248 249.529 97.612 249.569 98.028C249.609 98.436 249.645 98.872 249.677 99.336C249.709 99.8 249.737 100.268 249.761 100.74C249.785 101.204 249.797 101.64 249.797 102.048V105H248.573ZM255.493 105L257.725 96.24H259.429L261.661 105H260.353L259.825 102.78H257.341L256.813 105H255.493ZM257.581 101.712H259.573L258.973 99.18C258.869 98.732 258.781 98.344 258.709 98.016C258.645 97.68 258.601 97.452 258.577 97.332C258.553 97.452 258.509 97.68 258.445 98.016C258.381 98.344 258.293 98.728 258.181 99.168L257.581 101.712ZM265.124 105V97.428H262.784V96.228H268.76V97.428H266.42V105H265.124ZM270.495 105V96.24H275.643V97.392H271.767V99.876H275.223V101.016H271.767V103.848H275.643V105H270.495Z" fill="#736D7B"/>
</g>
<g filter="url(#filter6_ddd_978_6410)">
<path d="M303 157C303 152.582 306.582 149 311 149H393C397.418 149 401 152.582 401 157V169C401 173.418 397.418 177 393 177H311C306.582 177 303 173.418 303 169V157Z" fill="#F5F5F4"/>
<g clip-path="url(#clip1_978_6410)">
<g opacity="0.6">
<mask id="mask2_978_6410" style="mask-type:luminance" maskUnits="userSpaceOnUse" x="312" y="155" width="16" height="16">
<path d="M328 155H312V171H328V155Z" fill="white"/>
<path d="M322.733 159.333C324.227 159.333 324.974 159.333 325.544 159.624C326.046 159.88 326.454 160.288 326.71 160.789C327 161.36 327 162.107 327 163.6V165.733C327 167.227 327 167.974 326.71 168.544C326.454 169.046 326.046 169.454 325.544 169.71C324.974 170 324.227 170 322.733 170H320.6C319.107 170 318.359 170 317.789 169.71C317.287 169.454 316.879 169.046 316.624 168.544C316.333 167.974 316.333 167.227 316.333 165.733V163.6C316.333 162.107 316.333 161.36 316.624 160.789C316.879 160.288 317.287 159.88 317.789 159.624C318.359 159.333 319.107 159.333 320.6 159.333H322.733ZM325.138 162.529C324.878 162.268 324.456 162.268 324.195 162.529L321 165.724L319.805 164.529L319.754 164.483C319.492 164.27 319.106 164.285 318.862 164.529C318.602 164.789 318.602 165.211 318.862 165.471L320.529 167.138C320.789 167.399 321.211 167.399 321.471 167.138L325.138 163.471C325.398 163.211 325.398 162.789 325.138 162.529Z" fill="black"/>
</mask>
<g mask="url(#mask2_978_6410)">
<path d="M318.182 156.105C319.624 155.718 320.346 155.525 320.972 155.658C321.523 155.775 322.023 156.063 322.4 156.482C322.828 156.958 323.021 157.679 323.407 159.122L323.959 161.182C324.053 161.532 324.135 161.839 324.204 162.113C324.581 161.916 325.057 161.977 325.374 162.293C325.764 162.683 325.764 163.316 325.374 163.707L321.707 167.374C321.316 167.764 320.683 167.764 320.293 167.374L319.668 166.749L318.882 166.96C317.44 167.346 316.718 167.54 316.092 167.407C315.541 167.29 315.041 167.001 314.664 166.583C314.236 166.107 314.043 165.385 313.657 163.943L313.105 161.882C312.718 160.44 312.524 159.719 312.657 159.092C312.774 158.542 313.063 158.041 313.482 157.665C313.957 157.236 314.679 157.043 316.122 156.657L318.182 156.105Z" fill="#A8A29E"/>
</g>
</g>
<mask id="mask3_978_6410" style="mask-type:luminance" maskUnits="userSpaceOnUse" x="316" y="159" width="11" height="11">
<path d="M322.733 159.333C324.227 159.333 324.974 159.333 325.544 159.624C326.046 159.88 326.454 160.288 326.71 160.789C327 161.36 327 162.107 327 163.6V165.733C327 167.227 327 167.974 326.71 168.544C326.454 169.046 326.046 169.454 325.544 169.71C324.974 170 324.227 170 322.733 170H320.6C319.107 170 318.359 170 317.789 169.71C317.287 169.454 316.879 169.046 316.624 168.544C316.333 167.974 316.333 167.227 316.333 165.733V163.6C316.333 162.107 316.333 161.36 316.624 160.789C316.879 160.288 317.287 159.88 317.789 159.624C318.359 159.333 319.107 159.333 320.6 159.333H322.733ZM325.138 162.529C324.878 162.268 324.456 162.268 324.195 162.529L321 165.724L319.805 164.529L319.754 164.483C319.492 164.27 319.106 164.285 318.862 164.529C318.602 164.789 318.602 165.211 318.862 165.471L320.529 167.138C320.789 167.399 321.211 167.399 321.471 167.138L325.138 163.471C325.398 163.211 325.398 162.789 325.138 162.529Z" fill="white"/>
</mask>
<g mask="url(#mask3_978_6410)">
<g filter="url(#filter7_f_978_6410)">
<path d="M318.182 156.105C319.624 155.718 320.346 155.525 320.972 155.658C321.523 155.775 322.023 156.063 322.4 156.482C322.828 156.958 323.021 157.679 323.407 159.122L323.959 161.182C324.053 161.532 324.135 161.839 324.204 162.113C324.581 161.916 325.057 161.977 325.374 162.293C325.764 162.683 325.764 163.316 325.374 163.707L321.707 167.374C321.316 167.764 320.683 167.764 320.293 167.374L319.668 166.749L318.882 166.96C317.44 167.346 316.718 167.54 316.092 167.407C315.541 167.29 315.041 167.001 314.664 166.583C314.236 166.107 314.043 165.385 313.657 163.943L313.105 161.882C312.718 160.44 312.524 159.719 312.657 159.092C312.774 158.542 313.063 158.041 313.482 157.665C313.957 157.236 314.679 157.043 316.122 156.657L318.182 156.105Z" fill="#A8A29E"/>
</g>
</g>
<path d="M322.733 159.333C324.227 159.333 324.974 159.333 325.544 159.624C326.046 159.88 326.454 160.288 326.71 160.789C327 161.36 327 162.107 327 163.6V165.733C327 167.227 327 167.974 326.71 168.544C326.454 169.046 326.046 169.454 325.544 169.71C324.974 170 324.227 170 322.733 170H320.6C319.107 170 318.359 170 317.789 169.71C317.287 169.454 316.879 169.046 316.624 168.544C316.333 167.974 316.333 167.227 316.333 165.733V163.6C316.333 162.107 316.333 161.36 316.624 160.789C316.879 160.288 317.287 159.88 317.789 159.624C318.359 159.333 319.107 159.333 320.6 159.333H322.733ZM325.138 162.529C324.878 162.268 324.456 162.268 324.195 162.529L321 165.724L319.805 164.529L319.754 164.483C319.492 164.27 319.106 164.285 318.862 164.529C318.602 164.789 318.602 165.211 318.862 165.471L320.529 167.138C320.789 167.399 321.211 167.399 321.471 167.138L325.138 163.471C325.398 163.211 325.398 162.789 325.138 162.529Z" fill="#A8A29E"/>
<path d="M322.733 169.5V170H320.6V169.5H322.733ZM326.5 165.733V163.6C326.5 162.845 326.5 162.309 326.465 161.889C326.432 161.476 326.367 161.219 326.264 161.016C326.056 160.609 325.725 160.278 325.317 160.07C325.114 159.966 324.858 159.902 324.444 159.868C324.024 159.834 323.488 159.833 322.733 159.833H320.6C319.845 159.833 319.309 159.834 318.889 159.868C318.476 159.902 318.219 159.966 318.016 160.07C317.609 160.278 317.277 160.609 317.07 161.016C316.966 161.219 316.902 161.476 316.868 161.889C316.834 162.309 316.833 162.845 316.833 163.6V165.733C316.833 166.488 316.834 167.025 316.868 167.444C316.902 167.858 316.966 168.114 317.07 168.317C317.277 168.725 317.609 169.056 318.016 169.264C318.219 169.367 318.476 169.432 318.889 169.466C319.309 169.5 319.845 169.5 320.6 169.5V170L319.611 169.996C318.816 169.983 318.307 169.936 317.898 169.761L317.789 169.71C317.35 169.486 316.983 169.146 316.727 168.728L316.624 168.544C316.333 167.974 316.333 167.227 316.333 165.733V163.6C316.333 162.107 316.333 161.36 316.624 160.789C316.879 160.288 317.287 159.88 317.789 159.624C318.217 159.406 318.744 159.352 319.611 159.338L320.6 159.333H322.733C324.227 159.333 324.974 159.333 325.544 159.624C326.046 159.88 326.454 160.288 326.71 160.789C327 161.36 327 162.107 327 163.6V165.733C327 167.227 327 167.974 326.71 168.544L326.607 168.728C326.351 169.146 325.983 169.486 325.544 169.71L325.435 169.761C324.877 170 324.133 170 322.733 170V169.5C323.488 169.5 324.024 169.5 324.444 169.466C324.858 169.432 325.114 169.367 325.317 169.264C325.725 169.056 326.056 168.725 326.264 168.317C326.367 168.114 326.432 167.858 326.465 167.444C326.5 167.025 326.5 166.488 326.5 165.733Z" fill="#A8A29E"/>
</g>
<path d="M335.128 167V158.24H340.276V159.392H336.4V161.876H339.856V163.016H336.4V165.848H340.276V167H335.128ZM343.931 167L341.711 158.24H343.043L344.447 164.072C344.535 164.416 344.611 164.76 344.675 165.104C344.747 165.44 344.799 165.704 344.831 165.896C344.863 165.704 344.907 165.44 344.963 165.104C345.027 164.76 345.103 164.412 345.191 164.06L346.583 158.24H347.879L345.647 167H343.931ZM348.907 167L351.139 158.24H352.843L355.075 167H353.767L353.239 164.78H350.755L350.227 167H348.907ZM350.995 163.712H352.987L352.387 161.18C352.283 160.732 352.195 160.344 352.123 160.016C352.059 159.68 352.015 159.452 351.991 159.332C351.967 159.452 351.923 159.68 351.859 160.016C351.795 160.344 351.707 160.728 351.595 161.168L350.995 163.712ZM356.894 167V158.24H358.19V165.812H362.018V167H356.894ZM366.381 167.12C365.541 167.12 364.893 166.892 364.437 166.436C363.981 165.972 363.753 165.344 363.753 164.552V158.24H365.049V164.552C365.049 164.992 365.157 165.34 365.373 165.596C365.597 165.852 365.933 165.98 366.381 165.98C366.821 165.98 367.153 165.852 367.377 165.596C367.601 165.34 367.713 164.992 367.713 164.552V158.24H369.009V164.552C369.009 165.344 368.781 165.972 368.325 166.436C367.869 166.892 367.221 167.12 366.381 167.12ZM370.493 167L372.725 158.24H374.429L376.661 167H375.353L374.825 164.78H372.341L371.813 167H370.493ZM372.581 163.712H374.573L373.973 161.18C373.869 160.732 373.781 160.344 373.709 160.016C373.645 159.68 373.601 159.452 373.577 159.332C373.553 159.452 373.509 159.68 373.445 160.016C373.381 160.344 373.293 160.728 373.181 161.168L372.581 163.712ZM380.124 167V159.428H377.784V158.228H383.76V159.428H381.42V167H380.124ZM385.495 167V158.24H390.643V159.392H386.767V161.876H390.223V163.016H386.767V165.848H390.643V167H385.495Z" fill="#736D7B"/>
</g>
<g filter="url(#filter8_ddd_978_6410)">
<path d="M45.9999 194C45.9999 189.582 49.5817 186 53.9999 186H122C126.418 186 130 189.582 130 194V206C130 210.418 126.418 214 122 214H53.9999C49.5817 214 45.9999 210.418 45.9999 206V194Z" fill="#F5F5F4"/>
<g clip-path="url(#clip2_978_6410)">
<mask id="mask4_978_6410" style="mask-type:luminance" maskUnits="userSpaceOnUse" x="55" y="192" width="16" height="16">
<path d="M70.9999 192H54.9999V208H70.9999V192Z" fill="white"/>
<path d="M59.7473 200.667H61.6667V197.667C61.6667 197.114 62.1144 196.667 62.6667 196.667H63.3334C63.8856 196.667 64.3334 197.114 64.3334 197.667V200.667H66.2528C67.0912 200.667 67.5574 201.636 67.0336 202.291L63.7809 206.357C63.3806 206.858 62.6194 206.858 62.2192 206.357L58.9664 202.291C58.4426 201.636 58.9088 200.667 59.7473 200.667Z" fill="black"/>
</mask>
<g mask="url(#mask4_978_6410)">
<path fill-rule="evenodd" clip-rule="evenodd" d="M57.0443 198.235C57.4175 195.498 59.8028 193.333 62.6666 193.333C65.4972 193.333 67.7905 195.386 68.2604 198.053C69.814 198.335 70.9999 199.701 70.9999 201.333C70.9999 203.168 69.5015 204.667 67.6666 204.667H58.3333C56.4984 204.667 54.9999 203.168 54.9999 201.333C54.9999 199.94 55.8456 198.727 57.0443 198.235Z" fill="#A8A29E"/>
</g>
<path opacity="0.6" d="M59.7473 200.667H61.6667V197.667C61.6667 197.114 62.1144 196.667 62.6667 196.667H63.3334C63.8856 196.667 64.3334 197.114 64.3334 197.667V200.667H66.2528C67.0912 200.667 67.5574 201.636 67.0336 202.291L63.7809 206.357C63.3806 206.858 62.6194 206.858 62.2192 206.357L58.9664 202.291C58.4426 201.636 58.9088 200.667 59.7473 200.667Z" fill="#A8A29E"/>
</g>
<path d="M77.5159 204L79.7479 195.24H81.4519L83.6839 204H82.3759L81.8479 201.78H79.3639L78.8359 204H77.5159ZM79.6039 200.712H81.5959L80.9959 198.18C80.8919 197.732 80.8039 197.344 80.7319 197.016C80.6679 196.68 80.6239 196.452 80.5999 196.332C80.5759 196.452 80.5319 196.68 80.4679 197.016C80.4039 197.344 80.3159 197.728 80.2039 198.168L79.6039 200.712ZM87.8313 204.12C87.2393 204.12 86.7313 204.024 86.3073 203.832C85.8833 203.632 85.5553 203.352 85.3233 202.992C85.0913 202.624 84.9753 202.188 84.9753 201.684H86.2593C86.2593 202.084 86.3993 202.4 86.6793 202.632C86.9593 202.856 87.3473 202.968 87.8433 202.968C88.3073 202.968 88.6713 202.856 88.9353 202.632C89.1993 202.408 89.3313 202.1 89.3313 201.708C89.3313 201.38 89.2393 201.096 89.0553 200.856C88.8793 200.616 88.6233 200.452 88.2873 200.364L87.1833 200.04C86.5433 199.856 86.0473 199.544 85.6953 199.104C85.3513 198.656 85.1793 198.124 85.1793 197.508C85.1793 197.028 85.2873 196.608 85.5033 196.248C85.7193 195.888 86.0273 195.608 86.4273 195.408C86.8273 195.208 87.2993 195.108 87.8433 195.108C88.6433 195.108 89.2833 195.324 89.7633 195.756C90.2513 196.188 90.4993 196.768 90.5073 197.496H89.2113C89.2113 197.112 89.0873 196.812 88.8393 196.596C88.5993 196.372 88.2593 196.26 87.8193 196.26C87.3953 196.26 87.0633 196.364 86.8233 196.572C86.5833 196.772 86.4633 197.056 86.4633 197.424C86.4633 197.752 86.5513 198.036 86.7273 198.276C86.9113 198.516 87.1713 198.684 87.5073 198.78L88.6233 199.116C89.2633 199.292 89.7553 199.604 90.0993 200.052C90.4433 200.5 90.6153 201.036 90.6153 201.66C90.6153 202.148 90.4993 202.58 90.2673 202.956C90.0353 203.324 89.7113 203.612 89.2953 203.82C88.8793 204.02 88.3913 204.12 87.8313 204.12ZM95.0266 204.12C94.4346 204.12 93.9266 204.024 93.5026 203.832C93.0786 203.632 92.7506 203.352 92.5186 202.992C92.2866 202.624 92.1706 202.188 92.1706 201.684H93.4546C93.4546 202.084 93.5946 202.4 93.8746 202.632C94.1546 202.856 94.5426 202.968 95.0386 202.968C95.5026 202.968 95.8666 202.856 96.1306 202.632C96.3946 202.408 96.5266 202.1 96.5266 201.708C96.5266 201.38 96.4346 201.096 96.2506 200.856C96.0746 200.616 95.8186 200.452 95.4826 200.364L94.3786 200.04C93.7386 199.856 93.2426 199.544 92.8906 199.104C92.5466 198.656 92.3746 198.124 92.3746 197.508C92.3746 197.028 92.4826 196.608 92.6986 196.248C92.9146 195.888 93.2226 195.608 93.6226 195.408C94.0226 195.208 94.4946 195.108 95.0386 195.108C95.8386 195.108 96.4786 195.324 96.9586 195.756C97.4466 196.188 97.6946 196.768 97.7026 197.496H96.4066C96.4066 197.112 96.2826 196.812 96.0346 196.596C95.7946 196.372 95.4546 196.26 95.0146 196.26C94.5906 196.26 94.2586 196.364 94.0186 196.572C93.7786 196.772 93.6586 197.056 93.6586 197.424C93.6586 197.752 93.7466 198.036 93.9226 198.276C94.1066 198.516 94.3666 198.684 94.7026 198.78L95.8186 199.116C96.4586 199.292 96.9506 199.604 97.2946 200.052C97.6386 200.5 97.8106 201.036 97.8106 201.66C97.8106 202.148 97.6946 202.58 97.4626 202.956C97.2306 203.324 96.9066 203.612 96.4906 203.82C96.0746 204.02 95.5866 204.12 95.0266 204.12ZM102.186 204.12C101.346 204.12 100.698 203.892 100.242 203.436C99.7859 202.972 99.5579 202.344 99.5579 201.552V195.24H100.854V201.552C100.854 201.992 100.962 202.34 101.178 202.596C101.402 202.852 101.738 202.98 102.186 202.98C102.626 202.98 102.958 202.852 103.182 202.596C103.406 202.34 103.518 201.992 103.518 201.552V195.24H104.814V201.552C104.814 202.344 104.586 202.972 104.13 203.436C103.674 203.892 103.026 204.12 102.186 204.12ZM106.789 204V195.24H109.537C110.089 195.24 110.569 195.348 110.977 195.564C111.385 195.772 111.701 196.068 111.925 196.452C112.157 196.836 112.273 197.288 112.273 197.808C112.273 198.392 112.121 198.9 111.817 199.332C111.521 199.756 111.117 200.056 110.605 200.232L112.393 204H110.917L109.321 200.4H108.085V204H106.789ZM108.085 199.26H109.537C109.969 199.26 110.313 199.132 110.569 198.876C110.825 198.612 110.953 198.264 110.953 197.832C110.953 197.384 110.825 197.032 110.569 196.776C110.313 196.52 109.969 196.392 109.537 196.392H108.085V199.26ZM114.105 204V195.24H119.253V196.392H115.377V198.876H118.833V200.016H115.377V202.848H119.253V204H114.105Z" fill="#736D7B"/>
</g>
<g filter="url(#filter9_ddd_978_6410)">
<path d="M243 251C243 246.582 246.582 243 251 243H326C330.418 243 334 246.582 334 251V263C334 267.418 330.418 271 326 271H251C246.582 271 243 267.418 243 263V251Z" fill="#F5F5F4"/>
<g clip-path="url(#clip3_978_6410)">
<mask id="mask5_978_6410" style="mask-type:luminance" maskUnits="userSpaceOnUse" x="252" y="249" width="16" height="16">
<path d="M268 249H252V265H268V249Z" fill="white"/>
<path d="M260.294 258.333C262.893 258.334 265 260.44 265 263.039C265 263.754 264.42 264.333 263.706 264.333H256.294C255.579 264.333 255 263.754 255 263.039C255 260.44 257.107 258.334 259.706 258.333H260.294ZM260 252.333C261.289 252.333 262.333 253.378 262.333 254.667C262.333 255.955 261.289 257 260 257C258.711 257 257.667 255.955 257.667 254.667C257.667 253.378 258.711 252.333 260 252.333Z" fill="black"/>
</mask>
<g mask="url(#mask5_978_6410)">
<path opacity="0.6" fill-rule="evenodd" clip-rule="evenodd" d="M253.333 256.333C253.333 252.651 256.318 249.667 260 249.667C263.682 249.667 266.667 252.651 266.667 256.333C266.667 260.015 263.682 263 260 263C256.318 263 253.333 260.015 253.333 256.333Z" fill="#A8A29E"/>
</g>
<path d="M260.294 258.333C262.893 258.334 265 260.44 265 263.039C265 263.754 264.42 264.333 263.706 264.333H256.294C255.579 264.333 255 263.754 255 263.039C255 260.44 257.107 258.334 259.706 258.333H260.294ZM260 252.333C261.289 252.333 262.333 253.378 262.333 254.667C262.333 255.955 261.289 257 260 257C258.711 257 257.667 255.955 257.667 254.667C257.667 253.378 258.711 252.333 260 252.333Z" fill="#A8A29E"/>
</g>
<path d="M274.516 261L276.748 252.24H278.452L280.684 261H279.376L278.848 258.78H276.364L275.836 261H274.516ZM276.604 257.712H278.596L277.996 255.18C277.892 254.732 277.804 254.344 277.732 254.016C277.668 253.68 277.624 253.452 277.6 253.332C277.576 253.452 277.532 253.68 277.468 254.016C277.404 254.344 277.316 254.728 277.204 255.168L276.604 257.712ZM284.795 261.12C283.955 261.12 283.307 260.892 282.851 260.436C282.395 259.972 282.167 259.344 282.167 258.552V252.24H283.463V258.552C283.463 258.992 283.571 259.34 283.787 259.596C284.011 259.852 284.347 259.98 284.795 259.98C285.235 259.98 285.567 259.852 285.791 259.596C286.015 259.34 286.127 258.992 286.127 258.552V252.24H287.423V258.552C287.423 259.344 287.195 259.972 286.739 260.436C286.283 260.892 285.635 261.12 284.795 261.12ZM292.039 261.12C291.495 261.12 291.019 261.02 290.611 260.82C290.211 260.612 289.899 260.316 289.675 259.932C289.459 259.54 289.351 259.084 289.351 258.564V254.676C289.351 254.148 289.459 253.692 289.675 253.308C289.899 252.924 290.211 252.632 290.611 252.432C291.019 252.224 291.495 252.12 292.039 252.12C292.583 252.12 293.055 252.224 293.455 252.432C293.855 252.64 294.163 252.936 294.379 253.32C294.603 253.696 294.715 254.148 294.715 254.676H293.419C293.419 254.22 293.299 253.872 293.059 253.632C292.819 253.392 292.479 253.272 292.039 253.272C291.599 253.272 291.255 253.392 291.007 253.632C290.767 253.872 290.647 254.216 290.647 254.664V258.564C290.647 259.012 290.767 259.36 291.007 259.608C291.255 259.856 291.599 259.98 292.039 259.98C292.479 259.98 292.819 259.856 293.059 259.608C293.299 259.36 293.419 259.012 293.419 258.564V257.58H291.787V256.44H294.715V258.564C294.715 259.084 294.603 259.536 294.379 259.92C294.163 260.304 293.855 260.6 293.455 260.808C293.055 261.016 292.583 261.12 292.039 261.12ZM296.378 261V252.24H297.974L298.85 255.048C298.938 255.312 299.014 255.568 299.078 255.816C299.142 256.056 299.186 256.236 299.21 256.356C299.242 256.236 299.286 256.056 299.342 255.816C299.406 255.568 299.478 255.312 299.558 255.048L300.398 252.24H301.994V261H300.77V258.048C300.77 257.672 300.778 257.256 300.794 256.8C300.818 256.336 300.85 255.872 300.89 255.408C300.93 254.936 300.97 254.488 301.01 254.064C301.05 253.632 301.086 253.256 301.118 252.936L299.822 257.196H298.574L297.254 252.936C297.294 253.248 297.334 253.612 297.374 254.028C297.414 254.436 297.45 254.872 297.482 255.336C297.514 255.8 297.542 256.268 297.566 256.74C297.59 257.204 297.602 257.64 297.602 258.048V261H296.378ZM303.909 261V252.24H309.057V253.392H305.181V255.876H308.637V257.016H305.181V259.848H309.057V261H303.909ZM310.949 261V252.24H312.581L315.137 259.524C315.121 259.292 315.101 259.016 315.077 258.696C315.053 258.376 315.033 258.044 315.017 257.7C315.009 257.356 315.005 257.044 315.005 256.764V252.24H316.205V261H314.573L312.029 253.716C312.045 253.924 312.061 254.184 312.077 254.496C312.101 254.808 312.117 255.132 312.125 255.468C312.141 255.804 312.149 256.116 312.149 256.404V261H310.949ZM320.124 261V253.428H317.784V252.228H323.76V253.428H321.42V261H320.124Z" fill="#736D7B"/>
</g>
<defs>
<filter id="filter0_dddd_978_6410" x="101.75" y="335" width="223" height="240" filterUnits="userSpaceOnUse" color-interpolation-filters="sRGB">
<feFlood flood-opacity="0" result="BackgroundImageFix"/>
<feColorMatrix in="SourceAlpha" type="matrix" values="0 0 0 0 0 0 0 0 0 0 0 0 0 0 0 0 0 0 127 0" result="hardAlpha"/>
<feOffset dy="2"/>
<feGaussianBlur stdDeviation="2"/>
<feColorMatrix type="matrix" values="0 0 0 0 0.494118 0 0 0 0 0.219608 0 0 0 0 0.823529 0 0 0 0.12 0"/>
<feBlend mode="normal" in2="BackgroundImageFix" result="effect1_dropShadow_978_6410"/>
<feColorMatrix in="SourceAlpha" type="matrix" values="0 0 0 0 0 0 0 0 0 0 0 0 0 0 0 0 0 0 127 0" result="hardAlpha"/>
<feOffset dy="8"/>
<feGaussianBlur stdDeviation="4"/>
<feColorMatrix type="matrix" values="0 0 0 0 0.494118 0 0 0 0 0.219608 0 0 0 0 0.823529 0 0 0 0.1 0"/>
<feBlend mode="normal" in2="effect1_dropShadow_978_6410" result="effect2_dropShadow_978_6410"/>
<feColorMatrix in="SourceAlpha" type="matrix" values="0 0 0 0 0 0 0 0 0 0 0 0 0 0 0 0 0 0 127 0" result="hardAlpha"/>
<feOffset dy="18"/>
<feGaussianBlur stdDeviation="5.5"/>
<feColorMatrix type="matrix" values="0 0 0 0 0.494118 0 0 0 0 0.219608 0 0 0 0 0.823529 0 0 0 0.06 0"/>
<feBlend mode="normal" in2="effect2_dropShadow_978_6410" result="effect3_dropShadow_978_6410"/>
<feColorMatrix in="SourceAlpha" type="matrix" values="0 0 0 0 0 0 0 0 0 0 0 0 0 0 0 0 0 0 127 0" result="hardAlpha"/>
<feOffset dy="32"/>
<feGaussianBlur stdDeviation="6.5"/>
<feColorMatrix type="matrix" values="0 0 0 0 0.494118 0 0 0 0 0.219608 0 0 0 0 0.823529 0 0 0 0.02 0"/>
<feBlend mode="normal" in2="effect3_dropShadow_978_6410" result="effect4_dropShadow_978_6410"/>
<feBlend mode="normal" in="SourceGraphic" in2="effect4_dropShadow_978_6410" result="shape"/>
</filter>
<filter id="filter1_dd_978_6410" x="100.75" y="331" width="225" height="205" filterUnits="userSpaceOnUse" color-interpolation-filters="sRGB">
<feFlood flood-opacity="0" result="BackgroundImageFix"/>
<feColorMatrix in="SourceAlpha" type="matrix" values="0 0 0 0 0 0 0 0 0 0 0 0 0 0 0 0 0 0 127 0" result="hardAlpha"/>
<feMorphology radius="6" operator="erode" in="SourceAlpha" result="effect1_dropShadow_978_6410"/>
<feOffset dx="8"/>
<feGaussianBlur stdDeviation="6"/>
<feComposite in2="hardAlpha" operator="out"/>
<feColorMatrix type="matrix" values="0 0 0 0 0.478431 0 0 0 0 0.2 0 0 0 0 0.839216 0 0 0 0.4 0"/>
<feBlend mode="normal" in2="BackgroundImageFix" result="effect1_dropShadow_978_6410"/>
<feColorMatrix in="SourceAlpha" type="matrix" values="0 0 0 0 0 0 0 0 0 0 0 0 0 0 0 0 0 0 127 0" result="hardAlpha"/>
<feMorphology radius="6" operator="erode" in="SourceAlpha" result="effect2_dropShadow_978_6410"/>
<feOffset dx="-8"/>
<feGaussianBlur stdDeviation="6"/>
<feComposite in2="hardAlpha" operator="out"/>
<feColorMatrix type="matrix" values="0 0 0 0 0.478431 0 0 0 0 0.2 0 0 0 0 0.839216 0 0 0 0.4 0"/>
<feBlend mode="normal" in2="effect1_dropShadow_978_6410" result="effect2_dropShadow_978_6410"/>
<feBlend mode="normal" in="SourceGraphic" in2="effect2_dropShadow_978_6410" result="shape"/>
</filter>
<filter id="filter2_d_978_6410" x="129.25" y="351.5" width="168" height="165" filterUnits="userSpaceOnUse" color-interpolation-filters="sRGB">
<feFlood flood-opacity="0" result="BackgroundImageFix"/>
<feColorMatrix in="SourceAlpha" type="matrix" values="0 0 0 0 0 0 0 0 0 0 0 0 0 0 0 0 0 0 127 0" result="hardAlpha"/>
<feMorphology radius="1.5" operator="dilate" in="SourceAlpha" result="effect1_dropShadow_978_6410"/>
<feOffset/>
<feComposite in2="hardAlpha" operator="out"/>
<feColorMatrix type="matrix" values="0 0 0 0 0.360784 0 0 0 0 0.360784 0 0 0 0 0.360784 0 0 0 0.5 0"/>
<feBlend mode="normal" in2="BackgroundImageFix" result="effect1_dropShadow_978_6410"/>
<feBlend mode="normal" in="SourceGraphic" in2="effect1_dropShadow_978_6410" result="shape"/>
</filter>
<filter id="filter3_dd_978_6410" x="100.75" y="331" width="225" height="205" filterUnits="userSpaceOnUse" color-interpolation-filters="sRGB">
<feFlood flood-opacity="0" result="BackgroundImageFix"/>
<feColorMatrix in="SourceAlpha" type="matrix" values="0 0 0 0 0 0 0 0 0 0 0 0 0 0 0 0 0 0 127 0" result="hardAlpha"/>
<feMorphology radius="6" operator="erode" in="SourceAlpha" result="effect1_dropShadow_978_6410"/>
<feOffset dx="8"/>
<feGaussianBlur stdDeviation="6"/>
<feComposite in2="hardAlpha" operator="out"/>
<feColorMatrix type="matrix" values="0 0 0 0 0.478431 0 0 0 0 0.2 0 0 0 0 0.839216 0 0 0 0.2 0"/>
<feBlend mode="normal" in2="BackgroundImageFix" result="effect1_dropShadow_978_6410"/>
<feColorMatrix in="SourceAlpha" type="matrix" values="0 0 0 0 0 0 0 0 0 0 0 0 0 0 0 0 0 0 127 0" result="hardAlpha"/>
<feMorphology radius="6" operator="erode" in="SourceAlpha" result="effect2_dropShadow_978_6410"/>
<feOffset dx="-8"/>
<feGaussianBlur stdDeviation="6"/>
<feComposite in2="hardAlpha" operator="out"/>
<feColorMatrix type="matrix" values="0 0 0 0 0.478431 0 0 0 0 0.2 0 0 0 0 0.839216 0 0 0 0.2 0"/>
<feBlend mode="normal" in2="effect1_dropShadow_978_6410" result="effect2_dropShadow_978_6410"/>
<feBlend mode="normal" in="SourceGraphic" in2="effect2_dropShadow_978_6410" result="shape"/>
</filter>
<filter id="filter4_ddd_978_6410" x="23" y="47" width="111" height="57" filterUnits="userSpaceOnUse" color-interpolation-filters="sRGB">
<feFlood flood-opacity="0" result="BackgroundImageFix"/>
<feColorMatrix in="SourceAlpha" type="matrix" values="0 0 0 0 0 0 0 0 0 0 0 0 0 0 0 0 0 0 127 0" result="hardAlpha"/>
<feOffset dy="2"/>
<feGaussianBlur stdDeviation="2"/>
<feColorMatrix type="matrix" values="0 0 0 0 0 0 0 0 0 0 0 0 0 0 0 0 0 0 0.03 0"/>
<feBlend mode="normal" in2="BackgroundImageFix" result="effect1_dropShadow_978_6410"/>
<feColorMatrix in="SourceAlpha" type="matrix" values="0 0 0 0 0 0 0 0 0 0 0 0 0 0 0 0 0 0 127 0" result="hardAlpha"/>
<feOffset dy="7"/>
<feGaussianBlur stdDeviation="3.5"/>
<feColorMatrix type="matrix" values="0 0 0 0 0 0 0 0 0 0 0 0 0 0 0 0 0 0 0.03 0"/>
<feBlend mode="normal" in2="effect1_dropShadow_978_6410" result="effect2_dropShadow_978_6410"/>
<feColorMatrix in="SourceAlpha" type="matrix" values="0 0 0 0 0 0 0 0 0 0 0 0 0 0 0 0 0 0 127 0" result="hardAlpha"/>
<feOffset dy="17"/>
<feGaussianBlur stdDeviation="5"/>
<feColorMatrix type="matrix" values="0 0 0 0 0 0 0 0 0 0 0 0 0 0 0 0 0 0 0.02 0"/>
<feBlend mode="normal" in2="effect2_dropShadow_978_6410" result="effect3_dropShadow_978_6410"/>
<feBlend mode="normal" in="SourceGraphic" in2="effect3_dropShadow_978_6410" result="shape"/>
</filter>
<filter id="filter5_ddd_978_6410" x="178" y="85" width="118" height="57" filterUnits="userSpaceOnUse" color-interpolation-filters="sRGB">
<feFlood flood-opacity="0" result="BackgroundImageFix"/>
<feColorMatrix in="SourceAlpha" type="matrix" values="0 0 0 0 0 0 0 0 0 0 0 0 0 0 0 0 0 0 127 0" result="hardAlpha"/>
<feOffset dy="2"/>
<feGaussianBlur stdDeviation="2"/>
<feColorMatrix type="matrix" values="0 0 0 0 0 0 0 0 0 0 0 0 0 0 0 0 0 0 0.03 0"/>
<feBlend mode="normal" in2="BackgroundImageFix" result="effect1_dropShadow_978_6410"/>
<feColorMatrix in="SourceAlpha" type="matrix" values="0 0 0 0 0 0 0 0 0 0 0 0 0 0 0 0 0 0 127 0" result="hardAlpha"/>
<feOffset dy="7"/>
<feGaussianBlur stdDeviation="3.5"/>
<feColorMatrix type="matrix" values="0 0 0 0 0 0 0 0 0 0 0 0 0 0 0 0 0 0 0.03 0"/>
<feBlend mode="normal" in2="effect1_dropShadow_978_6410" result="effect2_dropShadow_978_6410"/>
<feColorMatrix in="SourceAlpha" type="matrix" values="0 0 0 0 0 0 0 0 0 0 0 0 0 0 0 0 0 0 127 0" result="hardAlpha"/>
<feOffset dy="17"/>
<feGaussianBlur stdDeviation="5"/>
<feColorMatrix type="matrix" values="0 0 0 0 0 0 0 0 0 0 0 0 0 0 0 0 0 0 0.02 0"/>
<feBlend mode="normal" in2="effect2_dropShadow_978_6410" result="effect3_dropShadow_978_6410"/>
<feBlend mode="normal" in="SourceGraphic" in2="effect3_dropShadow_978_6410" result="shape"/>
</filter>
<filter id="filter6_ddd_978_6410" x="293" y="147" width="118" height="57" filterUnits="userSpaceOnUse" color-interpolation-filters="sRGB">
<feFlood flood-opacity="0" result="BackgroundImageFix"/>
<feColorMatrix in="SourceAlpha" type="matrix" values="0 0 0 0 0 0 0 0 0 0 0 0 0 0 0 0 0 0 127 0" result="hardAlpha"/>
<feOffset dy="2"/>
<feGaussianBlur stdDeviation="2"/>
<feColorMatrix type="matrix" values="0 0 0 0 0 0 0 0 0 0 0 0 0 0 0 0 0 0 0.03 0"/>
<feBlend mode="normal" in2="BackgroundImageFix" result="effect1_dropShadow_978_6410"/>
<feColorMatrix in="SourceAlpha" type="matrix" values="0 0 0 0 0 0 0 0 0 0 0 0 0 0 0 0 0 0 127 0" result="hardAlpha"/>
<feOffset dy="7"/>
<feGaussianBlur stdDeviation="3.5"/>
<feColorMatrix type="matrix" values="0 0 0 0 0 0 0 0 0 0 0 0 0 0 0 0 0 0 0.03 0"/>
<feBlend mode="normal" in2="effect1_dropShadow_978_6410" result="effect2_dropShadow_978_6410"/>
<feColorMatrix in="SourceAlpha" type="matrix" values="0 0 0 0 0 0 0 0 0 0 0 0 0 0 0 0 0 0 127 0" result="hardAlpha"/>
<feOffset dy="17"/>
<feGaussianBlur stdDeviation="5"/>
<feColorMatrix type="matrix" values="0 0 0 0 0 0 0 0 0 0 0 0 0 0 0 0 0 0 0.02 0"/>
<feBlend mode="normal" in2="effect2_dropShadow_978_6410" result="effect3_dropShadow_978_6410"/>
<feBlend mode="normal" in="SourceGraphic" in2="effect3_dropShadow_978_6410" result="shape"/>
</filter>
<filter id="filter7_f_978_6410" x="308.616" y="151.616" width="21.0508" height="20.0508" filterUnits="userSpaceOnUse" color-interpolation-filters="sRGB">
<feFlood flood-opacity="0" result="BackgroundImageFix"/>
<feBlend mode="normal" in="SourceGraphic" in2="BackgroundImageFix" result="shape"/>
<feGaussianBlur stdDeviation="2" result="effect1_foregroundBlur_978_6410"/>
</filter>
<filter id="filter8_ddd_978_6410" x="35.9999" y="184" width="104" height="57" filterUnits="userSpaceOnUse" color-interpolation-filters="sRGB">
<feFlood flood-opacity="0" result="BackgroundImageFix"/>
<feColorMatrix in="SourceAlpha" type="matrix" values="0 0 0 0 0 0 0 0 0 0 0 0 0 0 0 0 0 0 127 0" result="hardAlpha"/>
<feOffset dy="2"/>
<feGaussianBlur stdDeviation="2"/>
<feColorMatrix type="matrix" values="0 0 0 0 0 0 0 0 0 0 0 0 0 0 0 0 0 0 0.03 0"/>
<feBlend mode="normal" in2="BackgroundImageFix" result="effect1_dropShadow_978_6410"/>
<feColorMatrix in="SourceAlpha" type="matrix" values="0 0 0 0 0 0 0 0 0 0 0 0 0 0 0 0 0 0 127 0" result="hardAlpha"/>
<feOffset dy="7"/>
<feGaussianBlur stdDeviation="3.5"/>
<feColorMatrix type="matrix" values="0 0 0 0 0 0 0 0 0 0 0 0 0 0 0 0 0 0 0.03 0"/>
<feBlend mode="normal" in2="effect1_dropShadow_978_6410" result="effect2_dropShadow_978_6410"/>
<feColorMatrix in="SourceAlpha" type="matrix" values="0 0 0 0 0 0 0 0 0 0 0 0 0 0 0 0 0 0 127 0" result="hardAlpha"/>
<feOffset dy="17"/>
<feGaussianBlur stdDeviation="5"/>
<feColorMatrix type="matrix" values="0 0 0 0 0 0 0 0 0 0 0 0 0 0 0 0 0 0 0.02 0"/>
<feBlend mode="normal" in2="effect2_dropShadow_978_6410" result="effect3_dropShadow_978_6410"/>
<feBlend mode="normal" in="SourceGraphic" in2="effect3_dropShadow_978_6410" result="shape"/>
</filter>
<filter id="filter9_ddd_978_6410" x="233" y="241" width="111" height="57" filterUnits="userSpaceOnUse" color-interpolation-filters="sRGB">
<feFlood flood-opacity="0" result="BackgroundImageFix"/>
<feColorMatrix in="SourceAlpha" type="matrix" values="0 0 0 0 0 0 0 0 0 0 0 0 0 0 0 0 0 0 127 0" result="hardAlpha"/>
<feOffset dy="2"/>
<feGaussianBlur stdDeviation="2"/>
<feColorMatrix type="matrix" values="0 0 0 0 0 0 0 0 0 0 0 0 0 0 0 0 0 0 0.03 0"/>
<feBlend mode="normal" in2="BackgroundImageFix" result="effect1_dropShadow_978_6410"/>
<feColorMatrix in="SourceAlpha" type="matrix" values="0 0 0 0 0 0 0 0 0 0 0 0 0 0 0 0 0 0 127 0" result="hardAlpha"/>
<feOffset dy="7"/>
<feGaussianBlur stdDeviation="3.5"/>
<feColorMatrix type="matrix" values="0 0 0 0 0 0 0 0 0 0 0 0 0 0 0 0 0 0 0.03 0"/>
<feBlend mode="normal" in2="effect1_dropShadow_978_6410" result="effect2_dropShadow_978_6410"/>
<feColorMatrix in="SourceAlpha" type="matrix" values="0 0 0 0 0 0 0 0 0 0 0 0 0 0 0 0 0 0 127 0" result="hardAlpha"/>
<feOffset dy="17"/>
<feGaussianBlur stdDeviation="5"/>
<feColorMatrix type="matrix" values="0 0 0 0 0 0 0 0 0 0 0 0 0 0 0 0 0 0 0.02 0"/>
<feBlend mode="normal" in2="effect2_dropShadow_978_6410" result="effect3_dropShadow_978_6410"/>
<feBlend mode="normal" in="SourceGraphic" in2="effect3_dropShadow_978_6410" result="shape"/>
</filter>
<linearGradient id="paint0_linear_978_6410" x1="213" y1="0" x2="213" y2="345" gradientUnits="userSpaceOnUse">
<stop/>
<stop offset="0.362745" stop-color="white"/>
</linearGradient>
<radialGradient id="paint1_radial_978_6410" cx="0" cy="0" r="1" gradientUnits="userSpaceOnUse" gradientTransform="translate(213.25 433.631) rotate(90) scale(96.3685 96.5773)">
<stop offset="0.6" stop-color="#7B7B7B" stop-opacity="0"/>
<stop offset="1" stop-color="#D1D1D1" stop-opacity="0.1"/>
</radialGradient>
<linearGradient id="paint2_linear_978_6410" x1="311.75" y1="433.5" x2="114.75" y2="433.5" gradientUnits="userSpaceOnUse">
<stop stop-color="#7A33D6"/>
<stop offset="0.35" stop-color="#7A33D6" stop-opacity="0"/>
<stop offset="0.65" stop-color="#7A33D6" stop-opacity="0"/>
<stop offset="1" stop-color="#7A33D6"/>
</linearGradient>
<radialGradient id="paint3_radial_978_6410" cx="0" cy="0" r="1" gradientUnits="userSpaceOnUse" gradientTransform="translate(213.25 434.11) rotate(90) scale(80.8897 80.8897)">
<stop offset="0.6" stop-color="#7B7B7B" stop-opacity="0"/>
<stop offset="1" stop-color="#D1D1D1" stop-opacity="0.1"/>
</radialGradient>
<radialGradient id="paint4_radial_978_6410" cx="0" cy="0" r="1" gradientUnits="userSpaceOnUse" gradientTransform="translate(114.75 433) scale(103 149.706)">
<stop stop-color="#7A33D6"/>
<stop offset="1" stop-color="#7A33D6" stop-opacity="0"/>
</radialGradient>
<radialGradient id="paint5_radial_978_6410" cx="0" cy="0" r="1" gradientUnits="userSpaceOnUse" gradientTransform="translate(311.75 433) rotate(-180) scale(94 136.625)">
<stop stop-color="#7A33D6"/>
<stop offset="1" stop-color="#7A33D6" stop-opacity="0"/>
</radialGradient>
<linearGradient id="paint6_linear_978_6410" x1="311.75" y1="433.5" x2="114.75" y2="433.5" gradientUnits="userSpaceOnUse">
<stop stop-color="#7A33D6"/>
<stop offset="0.35" stop-color="#7A33D6" stop-opacity="0"/>
<stop offset="0.65" stop-color="#7A33D6" stop-opacity="0"/>
<stop offset="1" stop-color="#7A33D6"/>
</linearGradient>
<clipPath id="clip0_978_6410">
<rect width="16" height="16" fill="white" transform="translate(197 93)"/>
</clipPath>
<clipPath id="clip1_978_6410">
<rect width="16" height="16" fill="white" transform="translate(312 155)"/>
</clipPath>
<clipPath id="clip2_978_6410">
<rect width="16" height="16" fill="white" transform="translate(54.9999 192)"/>
</clipPath>
<clipPath id="clip3_978_6410">
<rect width="16" height="16" fill="white" transform="translate(252 249)"/>
</clipPath>
</defs>
</svg>
