<svg width="432" height="321" viewBox="0 0 432 321" fill="none" xmlns="http://www.w3.org/2000/svg">
<g clip-path="url(#clip0_1069_13678)">
<path d="M280.726 323.843L280.726 99.7905L389.972 161.905L389.972 323.843H280.726Z" fill="url(#paint0_linear_1069_13678)" stroke="#DCCDFA" stroke-opacity="0.36"/>
<path d="M497.761 323.843V99.0659L389.972 161.562V323.843H497.761Z" fill="url(#paint1_linear_1069_13678)" stroke="#DCCDFA" stroke-opacity="0.36"/>
<path d="M283.891 104.272C279.791 101.991 279.768 96.1242 283.85 93.8294L386.304 36.239C388.129 35.2132 390.361 35.2102 392.193 36.2312L494.993 93.5092C499.085 95.7894 499.113 101.643 495.042 103.944L392.928 161.645C391.102 162.677 388.866 162.683 387.029 161.661L283.891 104.272Z" fill="url(#paint2_linear_1069_13678)"/>
<path d="M284.097 94.2644L386.551 36.6732C388.224 35.733 390.27 35.7304 391.95 36.6662L494.749 93.9444C498.5 96.0346 498.526 101.401 494.795 103.509L392.68 161.211C391.006 162.157 388.956 162.162 387.273 161.226L284.134 103.836C280.376 101.745 280.355 96.368 284.097 94.2644Z" stroke="#DCCDFA" stroke-opacity="0.36"/>
<path d="M388.763 83.4629C397.392 83.4241 405.968 83.4342 412.753 83.5537C416.145 83.6135 419.086 83.7001 421.36 83.8213C423.307 83.925 424.725 84.0531 425.523 84.2002V99.2549C425.523 101.283 424.549 103.26 422.695 105.104C420.839 106.951 418.128 108.638 414.737 110.064C407.959 112.917 398.56 114.693 388.152 114.693C377.744 114.693 368.345 112.917 361.566 110.064C358.176 108.638 355.465 106.951 353.608 105.104C351.754 103.26 350.78 101.283 350.78 99.2549V99.0762C350.78 98.9597 350.779 98.7887 350.779 98.5713V83.8125C355.39 83.7925 372.19 83.5375 388.763 83.4629Z" fill="url(#paint3_linear_1069_13678)" stroke="url(#paint4_linear_1069_13678)"/>
<path d="M388.15 67.877C398.558 67.877 407.958 69.6531 414.736 72.5059C418.126 73.9326 420.837 75.6191 422.693 77.4658C424.548 79.3108 425.522 81.2872 425.522 83.3154C425.522 85.3437 424.548 87.3201 422.693 89.165C420.837 91.0118 418.126 92.6982 414.736 94.125C407.958 96.9777 398.558 98.7539 388.15 98.7539C377.742 98.7539 368.343 96.9778 361.564 94.125C358.174 92.6982 355.463 91.0118 353.607 89.165C351.753 87.3201 350.778 85.3437 350.778 83.3154C350.778 81.2872 351.753 79.3108 353.607 77.4658C355.464 75.6191 358.174 73.9326 361.564 72.5059C368.343 69.6531 377.742 67.877 388.15 67.877Z" fill="url(#paint5_linear_1069_13678)" stroke="url(#paint6_linear_1069_13678)"/>
<path d="M30.1909 337.278V197.059L139.437 259.173V337.278H30.1909Z" fill="url(#paint7_linear_1069_13678)" stroke="#DCCDFA" stroke-opacity="0.36"/>
<path d="M247.227 327.603V196.334L139.437 258.83V327.603H247.227Z" fill="url(#paint8_linear_1069_13678)" stroke="#DCCDFA" stroke-opacity="0.36"/>
<path d="M33.3557 201.54C29.2553 199.259 29.2324 193.392 33.3148 191.098L135.769 133.507C137.594 132.481 139.826 132.478 141.658 133.499L244.457 190.777C248.55 193.057 248.578 198.912 244.507 201.212L142.393 258.913C140.567 259.945 138.331 259.951 136.494 258.929L33.3557 201.54Z" fill="url(#paint9_linear_1069_13678)"/>
<path d="M33.5614 191.532L136.016 133.941C137.689 133.001 139.735 132.998 141.414 133.934L244.214 191.213C247.965 193.303 247.991 198.669 244.259 200.778L142.145 258.479C140.471 259.425 138.421 259.43 136.738 258.494L33.599 201.105C29.8408 199.013 29.8197 193.636 33.5614 191.532Z" stroke="#DCCDFA" stroke-opacity="0.36"/>
<path d="M138.956 182.716C147.586 182.677 156.162 182.688 162.946 182.807C166.339 182.867 169.28 182.954 171.554 183.075C173.5 183.178 174.919 183.306 175.717 183.454V198.508C175.717 200.537 174.743 202.513 172.889 204.358C171.033 206.205 168.321 207.891 164.931 209.318C158.152 212.171 148.753 213.947 138.346 213.947C127.938 213.947 118.538 212.171 111.76 209.318C108.37 207.891 105.658 206.205 103.802 204.358C101.948 202.513 100.974 200.537 100.974 198.508V198.33C100.974 198.213 100.973 198.042 100.973 197.825V183.066C105.583 183.046 122.383 182.791 138.956 182.716Z" fill="url(#paint10_linear_1069_13678)" stroke="url(#paint11_linear_1069_13678)"/>
<path d="M138.344 167.131C148.752 167.131 158.151 168.907 164.93 171.76C168.32 173.187 171.031 174.873 172.887 176.72C174.741 178.565 175.716 180.541 175.716 182.569C175.716 184.598 174.741 186.574 172.887 188.419C171.031 190.266 168.32 191.952 164.93 193.379C158.151 196.232 148.752 198.008 138.344 198.008C127.936 198.008 118.536 196.232 111.758 193.379C108.368 191.952 105.657 190.266 103.801 188.419C101.947 186.574 100.972 184.598 100.972 182.569C100.972 180.541 101.947 178.565 103.801 176.72C105.657 174.873 108.368 173.187 111.758 171.76C118.536 168.907 127.936 167.131 138.344 167.131Z" fill="url(#paint12_linear_1069_13678)" stroke="url(#paint13_linear_1069_13678)"/>
<g filter="url(#filter0_i_1069_13678)">
<path d="M156.551 177.771C156.551 182.874 148.073 187.011 137.615 187.011C127.158 187.011 118.68 182.874 118.68 177.771C118.68 177.771 118.679 154.878 118.68 154.861C118.68 154.861 120.696 162.379 137.811 162.379C154.925 162.379 156.551 155.14 156.551 155.14L156.551 177.771Z" fill="url(#paint14_linear_1069_13678)"/>
</g>
<path d="M119.18 156.783C119.687 157.454 120.436 158.245 121.537 159.028C124.288 160.984 129.182 162.879 137.811 162.879C146.434 162.879 151.232 161.056 153.889 159.167C154.887 158.458 155.576 157.743 156.051 157.12V177.771C156.051 180.025 154.163 182.207 150.785 183.856C147.441 185.488 142.785 186.511 137.615 186.511C132.446 186.511 127.79 185.488 124.445 183.856C121.067 182.207 119.18 180.025 119.18 177.771V156.783Z" stroke="url(#paint15_linear_1069_13678)"/>
<path d="M137.615 146.121C142.785 146.121 147.441 147.145 150.785 148.777C154.163 150.425 156.051 152.607 156.051 154.861C156.051 157.115 154.163 159.297 150.785 160.946C147.441 162.578 142.785 163.601 137.615 163.601C132.446 163.601 127.79 162.578 124.445 160.946C121.067 159.297 119.18 157.115 119.18 154.861C119.18 152.607 121.067 150.425 124.445 148.777C127.79 147.145 132.445 146.121 137.615 146.121Z" fill="url(#paint16_linear_1069_13678)" stroke="url(#paint17_linear_1069_13678)"/>
<g filter="url(#filter1_i_1069_13678)">
<path d="M406.358 78.5174C406.358 83.6208 397.88 87.7579 387.422 87.7579C376.964 87.7579 368.487 83.6208 368.487 78.5174C368.487 78.5174 368.486 55.6249 368.487 55.6074C368.487 55.6074 370.502 63.1257 387.617 63.1257C404.732 63.1257 406.358 55.8871 406.358 55.8871L406.358 78.5174Z" fill="url(#paint18_linear_1069_13678)"/>
</g>
<path d="M368.986 57.5293C369.494 58.2006 370.243 58.9914 371.344 59.7744C374.095 61.7307 378.989 63.626 387.617 63.626C396.241 63.626 401.039 61.8025 403.695 59.9141C404.693 59.2047 405.383 58.4892 405.857 57.8662V78.5176C405.857 80.7714 403.97 82.9541 400.592 84.6025C397.247 86.2346 392.591 87.2578 387.422 87.2578C382.252 87.2578 377.597 86.2347 374.252 84.6025C370.874 82.9541 368.986 80.7714 368.986 78.5176V57.5293Z" stroke="url(#paint19_linear_1069_13678)"/>
<path d="M387.422 46.8667C392.592 46.8667 397.247 47.8908 400.592 49.5229C403.97 51.1714 405.857 53.3532 405.857 55.6069C405.857 57.8608 403.97 60.0434 400.592 61.6919C397.247 63.324 392.592 64.3472 387.422 64.3472C382.252 64.3472 377.597 63.324 374.252 61.6919C370.874 60.0434 368.986 57.8608 368.986 55.6069C368.986 53.3532 370.874 51.1714 374.252 49.5229C377.597 47.8908 382.252 46.8667 387.422 46.8667Z" fill="url(#paint20_linear_1069_13678)" stroke="url(#paint21_linear_1069_13678)"/>
<path d="M137.5 152.5C137.5 152.5 128.472 49.3634 232.5 15.0003C336.529 -19.3628 387.422 54.3367 387.422 54.3367" stroke="url(#paint22_linear_1069_13678)" stroke-width="4" stroke-linecap="round"/>
<g filter="url(#filter2_df_1069_13678)">
<ellipse cx="387.786" cy="54.6987" rx="2.54946" ry="2.53606" fill="white" fill-opacity="0.7" shape-rendering="crispEdges"/>
</g>
<g filter="url(#filter3_df_1069_13678)">
<ellipse cx="137.549" cy="152.926" rx="2.54946" ry="2.53606" fill="white" fill-opacity="0.7" shape-rendering="crispEdges"/>
</g>
<rect y="164" width="432" height="157" fill="url(#paint23_linear_1069_13678)"/>
</g>
<defs>
<filter id="filter0_i_1069_13678" x="118.68" y="154.861" width="37.8711" height="36.1504" filterUnits="userSpaceOnUse" color-interpolation-filters="sRGB">
<feFlood flood-opacity="0" result="BackgroundImageFix"/>
<feBlend mode="normal" in="SourceGraphic" in2="BackgroundImageFix" result="shape"/>
<feColorMatrix in="SourceAlpha" type="matrix" values="0 0 0 0 0 0 0 0 0 0 0 0 0 0 0 0 0 0 127 0" result="hardAlpha"/>
<feOffset dy="4"/>
<feGaussianBlur stdDeviation="4.5"/>
<feComposite in2="hardAlpha" operator="arithmetic" k2="-1" k3="1"/>
<feColorMatrix type="matrix" values="0 0 0 0 1 0 0 0 0 1 0 0 0 0 1 0 0 0 0.25 0"/>
<feBlend mode="normal" in2="shape" result="effect1_innerShadow_1069_13678"/>
</filter>
<filter id="filter1_i_1069_13678" x="368.486" y="55.6074" width="37.8711" height="36.1504" filterUnits="userSpaceOnUse" color-interpolation-filters="sRGB">
<feFlood flood-opacity="0" result="BackgroundImageFix"/>
<feBlend mode="normal" in="SourceGraphic" in2="BackgroundImageFix" result="shape"/>
<feColorMatrix in="SourceAlpha" type="matrix" values="0 0 0 0 0 0 0 0 0 0 0 0 0 0 0 0 0 0 127 0" result="hardAlpha"/>
<feOffset dy="4"/>
<feGaussianBlur stdDeviation="4.5"/>
<feComposite in2="hardAlpha" operator="arithmetic" k2="-1" k3="1"/>
<feColorMatrix type="matrix" values="0 0 0 0 1 0 0 0 0 1 0 0 0 0 1 0 0 0 0.25 0"/>
<feBlend mode="normal" in2="shape" result="effect1_innerShadow_1069_13678"/>
</filter>
<filter id="filter2_df_1069_13678" x="373.237" y="40.1626" width="29.0991" height="29.0723" filterUnits="userSpaceOnUse" color-interpolation-filters="sRGB">
<feFlood flood-opacity="0" result="BackgroundImageFix"/>
<feColorMatrix in="SourceAlpha" type="matrix" values="0 0 0 0 0 0 0 0 0 0 0 0 0 0 0 0 0 0 127 0" result="hardAlpha"/>
<feOffset/>
<feGaussianBlur stdDeviation="6"/>
<feComposite in2="hardAlpha" operator="out"/>
<feColorMatrix type="matrix" values="0 0 0 0 1 0 0 0 0 1 0 0 0 0 1 0 0 0 1 0"/>
<feBlend mode="normal" in2="BackgroundImageFix" result="effect1_dropShadow_1069_13678"/>
<feBlend mode="normal" in="SourceGraphic" in2="effect1_dropShadow_1069_13678" result="shape"/>
<feGaussianBlur stdDeviation="2" result="effect2_foregroundBlur_1069_13678"/>
</filter>
<filter id="filter3_df_1069_13678" x="123" y="138.39" width="29.0991" height="29.0723" filterUnits="userSpaceOnUse" color-interpolation-filters="sRGB">
<feFlood flood-opacity="0" result="BackgroundImageFix"/>
<feColorMatrix in="SourceAlpha" type="matrix" values="0 0 0 0 0 0 0 0 0 0 0 0 0 0 0 0 0 0 127 0" result="hardAlpha"/>
<feOffset/>
<feGaussianBlur stdDeviation="6"/>
<feComposite in2="hardAlpha" operator="out"/>
<feColorMatrix type="matrix" values="0 0 0 0 1 0 0 0 0 1 0 0 0 0 1 0 0 0 1 0"/>
<feBlend mode="normal" in2="BackgroundImageFix" result="effect1_dropShadow_1069_13678"/>
<feBlend mode="normal" in="SourceGraphic" in2="effect1_dropShadow_1069_13678" result="shape"/>
<feGaussianBlur stdDeviation="2" result="effect2_foregroundBlur_1069_13678"/>
</filter>
<linearGradient id="paint0_linear_1069_13678" x1="389.972" y1="158.836" x2="280.726" y2="158.836" gradientUnits="userSpaceOnUse">
<stop stop-color="#7A33D6"/>
<stop offset="1" stop-color="#9A55F2"/>
</linearGradient>
<linearGradient id="paint1_linear_1069_13678" x1="497.761" y1="158.473" x2="389.972" y2="158.473" gradientUnits="userSpaceOnUse">
<stop stop-color="#7A33D6"/>
<stop offset="1" stop-color="#6921C4"/>
</linearGradient>
<linearGradient id="paint2_linear_1069_13678" x1="389.607" y1="35.6738" x2="389.607" y2="163.907" gradientUnits="userSpaceOnUse">
<stop stop-color="#A67BED"/>
<stop offset="1" stop-color="#9A55F2"/>
</linearGradient>
<linearGradient id="paint3_linear_1069_13678" x1="388.149" y1="83.3159" x2="388.149" y2="115.193" gradientUnits="userSpaceOnUse">
<stop stop-color="#9A55F2"/>
<stop offset="1" stop-color="#6921C4"/>
</linearGradient>
<linearGradient id="paint4_linear_1069_13678" x1="388.149" y1="83.3159" x2="388.149" y2="115.193" gradientUnits="userSpaceOnUse">
<stop stop-color="#DCCDFA" stop-opacity="0.36"/>
<stop offset="0.817308" stop-color="#9A55F2" stop-opacity="0.1"/>
</linearGradient>
<linearGradient id="paint5_linear_1069_13678" x1="388.15" y1="67.377" x2="388.15" y2="99.2541" gradientUnits="userSpaceOnUse">
<stop stop-color="#9A55F2"/>
<stop offset="1" stop-color="#7A33D6"/>
</linearGradient>
<linearGradient id="paint6_linear_1069_13678" x1="388.15" y1="67.377" x2="388.15" y2="99.2541" gradientUnits="userSpaceOnUse">
<stop stop-color="#DCCDFA" stop-opacity="0.36"/>
<stop offset="0.279741" stop-color="#9A55F2" stop-opacity="0.1"/>
<stop offset="0.557029" stop-color="#DCCDFA" stop-opacity="0.36"/>
</linearGradient>
<linearGradient id="paint7_linear_1069_13678" x1="139.437" y1="256.104" x2="30.1909" y2="256.104" gradientUnits="userSpaceOnUse">
<stop stop-color="#7A33D6"/>
<stop offset="1" stop-color="#9A55F2"/>
</linearGradient>
<linearGradient id="paint8_linear_1069_13678" x1="247.227" y1="255.741" x2="139.437" y2="255.741" gradientUnits="userSpaceOnUse">
<stop stop-color="#7A33D6"/>
<stop offset="1" stop-color="#6921C4"/>
</linearGradient>
<linearGradient id="paint9_linear_1069_13678" x1="139.072" y1="132.942" x2="139.072" y2="261.175" gradientUnits="userSpaceOnUse">
<stop stop-color="#A67BED"/>
<stop offset="1" stop-color="#9A55F2"/>
</linearGradient>
<linearGradient id="paint10_linear_1069_13678" x1="138.343" y1="182.569" x2="138.343" y2="214.447" gradientUnits="userSpaceOnUse">
<stop stop-color="#9A55F2"/>
<stop offset="1" stop-color="#6921C4"/>
</linearGradient>
<linearGradient id="paint11_linear_1069_13678" x1="138.343" y1="182.569" x2="138.343" y2="214.447" gradientUnits="userSpaceOnUse">
<stop stop-color="#DCCDFA" stop-opacity="0.36"/>
<stop offset="0.817308" stop-color="#9A55F2" stop-opacity="0.1"/>
</linearGradient>
<linearGradient id="paint12_linear_1069_13678" x1="138.344" y1="166.631" x2="138.344" y2="198.508" gradientUnits="userSpaceOnUse">
<stop stop-color="#9A55F2"/>
<stop offset="1" stop-color="#7A33D6"/>
</linearGradient>
<linearGradient id="paint13_linear_1069_13678" x1="138.344" y1="166.631" x2="138.344" y2="198.508" gradientUnits="userSpaceOnUse">
<stop stop-color="#DCCDFA" stop-opacity="0.36"/>
<stop offset="0.279741" stop-color="#9A55F2" stop-opacity="0.1"/>
<stop offset="0.557029" stop-color="#DCCDFA" stop-opacity="0.36"/>
</linearGradient>
<linearGradient id="paint14_linear_1069_13678" x1="137.614" y1="154.861" x2="137.614" y2="187.374" gradientUnits="userSpaceOnUse">
<stop stop-color="#C3A5FA"/>
<stop offset="1" stop-color="#9A55F2"/>
</linearGradient>
<linearGradient id="paint15_linear_1069_13678" x1="137.614" y1="154.861" x2="137.614" y2="187.374" gradientUnits="userSpaceOnUse">
<stop stop-color="#C3A5FA"/>
<stop offset="0.817308" stop-color="#9A55F2"/>
</linearGradient>
<linearGradient id="paint16_linear_1069_13678" x1="137.615" y1="145.621" x2="137.615" y2="164.102" gradientUnits="userSpaceOnUse">
<stop stop-color="#C3A5FA"/>
<stop offset="1" stop-color="#A67BED"/>
</linearGradient>
<linearGradient id="paint17_linear_1069_13678" x1="137.615" y1="145.621" x2="137.615" y2="164.102" gradientUnits="userSpaceOnUse">
<stop stop-color="#C3A5FA"/>
<stop offset="0.279741" stop-color="#C3A5FA" stop-opacity="0.16"/>
<stop offset="0.625" stop-color="#C3A5FA"/>
<stop offset="1" stop-color="#DCCDFA" stop-opacity="0.36"/>
</linearGradient>
<linearGradient id="paint18_linear_1069_13678" x1="387.421" y1="55.6075" x2="387.421" y2="88.1203" gradientUnits="userSpaceOnUse">
<stop stop-color="#C3A5FA"/>
<stop offset="1" stop-color="#9A55F2"/>
</linearGradient>
<linearGradient id="paint19_linear_1069_13678" x1="387.421" y1="55.6075" x2="387.421" y2="88.1203" gradientUnits="userSpaceOnUse">
<stop stop-color="#C3A5FA"/>
<stop offset="0.817308" stop-color="#9A55F2"/>
</linearGradient>
<linearGradient id="paint20_linear_1069_13678" x1="387.422" y1="46.3667" x2="387.422" y2="64.8476" gradientUnits="userSpaceOnUse">
<stop stop-color="#C3A5FA"/>
<stop offset="1" stop-color="#A67BED"/>
</linearGradient>
<linearGradient id="paint21_linear_1069_13678" x1="387.422" y1="46.3667" x2="387.422" y2="64.8476" gradientUnits="userSpaceOnUse">
<stop stop-color="#C3A5FA"/>
<stop offset="0.279741" stop-color="#C3A5FA" stop-opacity="0.16"/>
<stop offset="0.625" stop-color="#C3A5FA"/>
<stop offset="1" stop-color="#DCCDFA" stop-opacity="0.36"/>
</linearGradient>
<linearGradient id="paint22_linear_1069_13678" x1="238.856" y1="12.9266" x2="262.288" y2="96.783" gradientUnits="userSpaceOnUse">
<stop stop-color="#E9242A"/>
<stop offset="1" stop-color="#9A55F2" stop-opacity="0.1"/>
</linearGradient>
<linearGradient id="paint23_linear_1069_13678" x1="216" y1="164" x2="216" y2="321" gradientUnits="userSpaceOnUse">
<stop stop-color="#DCCDFA" stop-opacity="0"/>
<stop offset="1" stop-color="#DCCDFA" stop-opacity="0.36"/>
</linearGradient>
<clipPath id="clip0_1069_13678">
<rect width="432" height="321" fill="white"/>
</clipPath>
</defs>
</svg>
