<svg width="88" height="32" viewBox="0 0 88 32" fill="none" xmlns="http://www.w3.org/2000/svg">
<path d="M9.41472 21.7889C12.3248 21.7889 13.8355 20.0605 13.8378 17.0284V14.5108H11.0345V17.2179C11.0345 18.5711 10.4398 19.0582 9.49731 19.0574C8.55482 19.0567 7.96158 18.5688 7.96309 17.2149L7.97142 6.98316C7.97142 5.62999 8.56539 5.11627 9.50864 5.11704C10.4519 5.1178 11.0444 5.63229 11.0429 6.98622V9.01597H13.8461V7.17572C13.8461 4.14365 12.3414 2.4107 9.43137 2.40766C6.52132 2.40461 5.01065 4.13603 5.00837 7.1681L5 17.0208C4.99773 20.0529 6.50467 21.7866 9.41472 21.7889Z" fill="black"/>
<path d="M18.0956 18.1419H21.7322L22.2413 21.5796H25.2325L22.2307 2.62921H17.8926L14.8621 21.5743H17.5834L18.0956 18.1419ZM19.9139 5.99005L21.3337 15.5733H18.4774L19.9139 5.99005Z" fill="black"/>
<path d="M29.1773 8.19105L31.3745 21.5918H34.1777L36.237 8.00536L36.2256 21.5933H39.0288L39.0447 2.64291H34.9217L32.8897 16.0939L30.7184 2.6391H26.5954L26.5795 21.5896H29.166L29.1773 8.19105Z" fill="black"/>
<path d="M45.468 21.8468C48.378 21.8468 49.8887 20.1184 49.891 17.0863L49.9031 2.65966H47.0999L47.0878 17.2758C47.0878 18.629 46.4938 19.1161 45.5505 19.1153C44.6073 19.1146 44.0148 18.6267 44.0163 17.2736L44.0284 2.65662H41.0646L41.0525 17.0841C41.0487 20.1108 42.5579 21.8445 45.468 21.8468Z" fill="black"/>
<path d="M54.5602 7.88739L58.24 21.6139H61.2849L61.3008 2.66345H58.6605L58.6507 14.0033L55.6155 2.66649H51.8971L51.8812 21.6169H54.5488L54.5602 7.88739Z" fill="black"/>
<path d="M72.5251 16.9433L72.5334 7.3615C72.5334 4.33019 71.0825 2.67715 68.1187 2.67487L63.4297 2.67108L63.4138 21.6215L68.102 21.6253C71.0666 21.6253 72.5228 19.9753 72.5251 16.9433ZM66.38 18.9136L66.3912 5.37969H68.0619C69.0051 5.37969 69.5703 5.86828 69.5688 7.22145L69.5605 17.0742C69.5605 18.4273 68.993 18.9144 68.0498 18.9136H66.38Z" fill="black"/>
<path d="M76.8624 18.1921H80.4991L81.0082 21.6306H83.9993L80.9976 2.68018H76.6594L73.6289 21.6253H76.3502L76.8624 18.1921ZM78.6807 6.04027L80.1006 15.6235H77.2443L78.6807 6.04027Z" fill="black"/>
<path d="M84 24.5721H5.00061V29.5913H84V24.5721Z" fill="black"/>
</svg>
