<svg width="156" height="30" viewBox="0 0 156 30" fill="none" xmlns="http://www.w3.org/2000/svg">
<path fill-rule="evenodd" clip-rule="evenodd" d="M35.7109 3.75C29.4595 3.75 24.4338 8.82472 24.4338 15C24.4338 21.2364 29.5208 26.25 35.7109 26.25C41.9624 26.25 46.988 21.1753 46.988 15C46.988 8.76358 41.9624 3.75 35.7109 3.75ZM35.7109 21.7867C31.9723 21.7867 28.9079 18.7296 28.9079 15C28.9079 11.2704 31.9723 8.21331 35.7109 8.21331C39.4495 8.21331 42.514 11.2704 42.514 15C42.4527 18.7296 39.4495 21.7867 35.7109 21.7867Z" fill="#152A94"/>
<path d="M67.6972 25.8376H69.8431C70.5176 25.8376 71.0081 25.2287 70.9467 24.6199L68.1877 5.0149C68.1264 4.46693 67.6359 4.10162 67.0841 4.10162H64.5703C64.0798 4.10162 63.6506 4.40605 63.528 4.83224L60.0332 15.4871L56.5384 4.83224C56.4158 4.40605 55.9866 4.10162 55.4961 4.10162H52.9823C52.4305 4.10162 52.0014 4.52782 51.8787 5.0149L49.1197 24.6199C48.9971 25.2896 49.5489 25.8376 50.2233 25.8376H52.3692C52.921 25.8376 53.3502 25.4114 53.4728 24.9243L55.0056 14.0868L57.7647 22.4889L58.5004 24.8025C58.9909 26.2638 61.0755 26.2638 61.566 24.8025L62.3018 22.4889L65.0608 14.0868L66.5936 24.9243C66.6549 25.4114 67.1454 25.8376 67.6972 25.8376ZM79.557 4.83429L73.1254 24.4942C72.8804 25.2269 73.4316 25.8985 74.1667 25.8985H76.433C76.9231 25.8985 77.3518 25.5932 77.4744 25.1658L79.0057 20.4645H85.8048L87.3361 25.1658C87.4586 25.5932 87.8874 25.8985 88.3774 25.8985H90.6438C91.3788 25.8985 91.9301 25.1658 91.6851 24.4942L85.2535 4.83429C85.131 4.4069 84.7022 4.10162 84.2122 4.10162H80.537C80.1082 4.10162 79.6795 4.4069 79.557 4.83429ZM80.4145 16.1296L82.3746 10.024L84.3347 16.1296H80.4145ZM139.385 24.8025V17.1919H146.946V24.8025C146.946 25.4114 147.43 25.8985 148.035 25.8985H150.212C150.817 25.8985 151.301 25.4114 151.301 24.8025V5.19755C151.301 4.5887 150.817 4.10162 150.212 4.10162H148.035C147.43 4.10162 146.946 4.5887 146.946 5.19755V12.8082H139.385V5.19755C139.385 4.5887 138.901 4.10162 138.296 4.10162H136.179C135.574 4.10162 135.09 4.5887 135.09 5.19755V24.8025C135.09 25.4114 135.574 25.8985 136.179 25.8985H138.357C138.901 25.8985 139.385 25.4114 139.385 24.8025Z" fill="#152A94"/>
<path fill-rule="evenodd" clip-rule="evenodd" d="M19.9916 20.3812C18.648 21.3593 16.938 21.9095 15.0448 21.665C11.9911 21.2982 9.54822 18.7917 9.24286 15.735C8.81535 11.6391 11.9911 8.21562 15.9608 8.21562C17.4877 8.21562 18.8923 8.70468 19.9916 9.56055C20.4191 9.86622 21.0299 9.80509 21.4574 9.43829L23.0453 7.84882C23.5338 7.35975 23.4728 6.56501 22.9231 6.19821C20.9077 4.60874 18.3427 3.69174 15.5333 3.75288C9.79251 3.93628 5.02886 8.58242 4.72349 14.2678C4.29598 20.8091 9.48715 26.25 15.9608 26.25C18.587 26.25 21.0299 25.333 22.9231 23.8046C23.4728 23.3767 23.4728 22.582 23.0453 22.0929L21.4574 20.5034C21.0299 20.0755 20.4191 20.0144 19.9916 20.3812ZM128.181 20.3812C126.838 21.3593 125.128 21.9095 123.234 21.665C120.181 21.2982 117.738 18.7917 117.433 15.735C117.005 11.6391 120.181 8.21562 124.151 8.21562C125.677 8.21562 127.082 8.70468 128.181 9.56055C128.609 9.86622 129.22 9.80509 129.647 9.43829L131.235 7.84882C131.724 7.35975 131.662 6.56501 131.113 6.19821C129.097 4.60874 126.532 3.69174 123.723 3.75288C117.982 3.93628 113.219 8.58242 112.913 14.2678C112.486 20.8091 117.677 26.25 124.151 26.25C126.777 26.25 129.22 25.333 131.113 23.8046C131.662 23.3767 131.662 22.582 131.235 22.0929L129.647 20.5034C129.281 20.0755 128.67 20.0144 128.181 20.3812Z" fill="#152A94"/>
<path d="M106.137 17.8008C108.855 16.7657 110.707 14.1477 110.707 11.1034C110.646 7.20676 107.311 4.10162 103.358 4.10162H96.3797C95.7621 4.10162 95.2681 4.5887 95.2681 5.19755V24.8025C95.2681 25.4114 95.7621 25.8985 96.3797 25.8985H98.603C99.2206 25.8985 99.7146 25.4114 99.7146 24.8025V18.2878H101.197L106.508 25.4723C106.693 25.7767 107.064 25.8985 107.373 25.8985H110.028C110.955 25.8985 111.449 24.8634 110.893 24.1937L106.137 17.8008ZM103.482 13.965H99.5911V8.54623H103.482C105.026 8.54623 106.261 9.76394 106.261 11.2861C106.261 12.8082 105.026 13.965 103.482 13.965Z" fill="#152A94"/>
</svg>
