<svg width="171" height="30" viewBox="0 0 171 30" fill="none" xmlns="http://www.w3.org/2000/svg">
<g clip-path="url(#clip0_1359_14754)">
<path fill-rule="evenodd" clip-rule="evenodd" d="M162.952 0.845825C173.003 7.8186 168.808 23.9987 158.066 25.7486C171.861 25.7598 176.34 7.09844 162.952 0.845825Z" fill="#FAA61A"/>
<path fill-rule="evenodd" clip-rule="evenodd" d="M152.249 0.740392C164.234 -1.02075 169.147 13.7504 163.903 20.5751C172.581 11.8502 165.637 -3.55814 152.249 0.740392Z" fill="#007AC1"/>
<path fill-rule="evenodd" clip-rule="evenodd" d="M145.172 7.94873C151.082 -0.7807 163.357 4.62163 164.587 13.4453C165.997 2.53967 151.587 -3.5043 145.172 7.94873Z" fill="#009D54"/>
<path fill-rule="evenodd" clip-rule="evenodd" d="M144.882 14.4773C146.317 5.41358 158.14 4.46458 162.399 10.8316C158.918 1.81277 145.111 2.91433 144.882 14.4773Z" fill="#CB2032"/>
<path d="M0 9.64929H4.80534L8.81017 20.1376L12.7161 9.64929H17.4337V25.6768H13.8134V14.4234L9.37008 25.6768H7.72407L3.25828 14.4234V25.6768H0V9.64929Z" fill="#231F20"/>
<path d="M27.2446 24.2634C26.4103 25.4995 25.1713 25.9281 23.7772 25.9281C21.4948 25.9281 19.7836 24.7906 19.7836 22.4461C19.7836 19.469 22.5696 18.6681 25.1061 18.6681H27.2131C27.2131 17.0909 27.0602 16.0298 25.2163 16.0298C24.1842 16.0298 23.1655 16.5009 22.8125 17.5396L20.321 16.456C21.09 14.3426 23.4691 13.6763 25.5873 13.6763C28.4296 13.6763 30.4264 14.8923 30.4264 18.0332V25.6745H27.2446V24.2634ZM25.9606 20.5863C24.798 20.5863 22.9654 20.6738 22.9654 22.251C22.9654 23.2919 23.7434 23.6621 24.6878 23.6621C25.9606 23.6621 27.2108 22.9936 27.2108 21.5712V20.5863H25.9606Z" fill="#231F20"/>
<path d="M33.2349 13.9523H36.4931V15.8121C37.2509 14.3673 38.852 13.6763 40.4642 13.6763C43.2076 13.6763 44.3814 15.6573 44.3814 18.2082V25.6745H41.1231V18.6793C41.1231 17.2233 40.4642 16.3259 38.9509 16.3259C37.3386 16.3259 36.4931 17.3557 36.4931 18.9082V25.6745H33.2349V13.95V13.9523Z" fill="#231F20"/>
<path d="M53.8954 24.2634C53.0612 25.4995 51.8222 25.9281 50.428 25.9281C48.1457 25.9281 46.4344 24.7906 46.4344 22.4461C46.4344 19.469 49.2205 18.6681 51.757 18.6681H53.8639C53.8639 17.0909 53.711 16.0298 51.8672 16.0298C50.835 16.0298 49.8164 16.5009 49.4634 17.5396L46.9719 16.456C47.7409 14.3426 50.12 13.6763 52.2382 13.6763C55.0805 13.6763 57.0773 14.8923 57.0773 18.0332V25.6745H53.8954V24.2634ZM52.6115 20.5863C51.4489 20.5863 49.6163 20.6738 49.6163 22.251C49.6163 23.2919 50.3943 23.6621 51.3387 23.6621C52.6115 23.6621 53.8617 22.9936 53.8617 21.5712V20.5863H52.6115Z" fill="#231F20"/>
<path d="M62.1569 26.0604C62.6516 27.254 63.9019 27.6264 65.1206 27.6264C67.0185 27.6264 68.0731 26.7178 68.0731 24.7592V22.9846C67.3041 24.2993 65.8244 25.163 64.2976 25.163C60.9629 25.163 59.173 22.5135 59.173 19.404C59.173 16.2945 61.136 13.6786 64.428 13.6786C65.9526 13.6786 67.2703 14.2597 68.0708 15.7045V13.9523H71.3066V24.757C71.3066 28.5776 68.5633 30 65.1184 30C62.9125 30 60.4772 29.4189 59.6002 27.1754L62.1569 26.0582V26.0604ZM68.1585 19.3816C68.1585 17.5531 67.2703 16.1509 65.305 16.1509C63.3397 16.1509 62.4965 17.6944 62.4965 19.5565C62.4965 21.2526 63.4297 22.7199 65.3387 22.7199C67.2478 22.7199 68.1585 21.1876 68.1585 19.3816Z" fill="#231F20"/>
<path d="M84.9468 23.1686C84.0361 25.2819 81.72 25.9281 79.7119 25.9281C75.8285 25.9281 73.4697 23.5298 73.4697 19.7764C73.4697 16.2631 75.9725 13.6786 79.5366 13.6786C81.8189 13.6786 83.8697 14.7285 84.7489 16.8756C85.2436 18.0803 85.2436 19.3165 85.2436 20.5437H76.773C76.8607 22.3497 77.7714 23.6195 79.6917 23.6195C80.9644 23.6195 81.9291 23.292 82.5452 22.1096L84.949 23.1708L84.9468 23.1686ZM82.073 18.5492C81.9853 16.9406 81.2073 15.9221 79.5815 15.9221C77.9558 15.9221 77.0248 17.0393 76.8157 18.5492H82.0708H82.073Z" fill="#231F20"/>
<path d="M87.8003 9.64929H97.9822V11.6415H90.2896V16.5234H96.5655V18.4819H90.2896V23.6823H98.3644V25.6746H87.7981V9.64929H87.8003Z" fill="#231F20"/>
<path d="M100.944 13.9411H103.28V15.8032C103.982 14.3471 105.54 13.7234 107.132 13.7234C109.985 13.7234 111.323 15.7493 111.323 18.4527V25.679H108.987V18.52C108.987 16.714 108.13 15.6843 106.331 15.6843C104.433 15.6843 103.28 16.8329 103.28 18.6726V25.679H100.944V13.9433V13.9411Z" fill="#231F20"/>
<path d="M116.032 26.3229C116.646 27.6914 118.173 28.1401 119.553 28.1401C121.714 28.1401 123.219 27.0453 123.219 24.7794V23.0497C122.396 24.4294 120.738 25.2505 119.149 25.2505C115.845 25.2505 113.894 22.657 113.894 19.5902C113.894 16.5233 116.023 13.7234 119.27 13.7234C120.862 13.7234 122.398 14.3584 123.221 15.7605V13.9433H125.537V24.8467C125.537 28.4161 122.848 29.9798 119.502 29.9798C117.329 29.9798 115.189 29.3225 114.19 27.1328L116.034 26.3229H116.032ZM123.284 19.3815C123.284 17.2255 122.088 15.5609 119.805 15.5609C117.401 15.5609 116.273 17.4005 116.273 19.6014C116.273 21.5824 117.579 23.4109 119.686 23.4109C122.011 23.4109 123.286 21.6048 123.286 19.3815H123.284Z" fill="#231F20"/>
<path d="M129.789 9.15796C130.567 9.15796 131.237 9.75922 131.237 10.5691C131.237 11.379 130.578 11.9803 129.789 11.9803C129 11.9803 128.341 11.3566 128.341 10.5691C128.341 9.78165 129 9.15796 129.789 9.15796ZM128.66 13.9747H130.976V25.6768H128.66V13.9747Z" fill="#231F20"/>
<path d="M134.541 13.9411H136.877V15.8032C137.578 14.3471 139.137 13.7234 140.729 13.7234C143.582 13.7234 144.92 15.7493 144.92 18.4527V25.679H142.584V18.52C142.584 16.714 141.727 15.6843 139.928 15.6843C138.03 15.6843 136.877 16.8329 136.877 18.6726V25.679H134.541V13.9433V13.9411Z" fill="#231F20"/>
<path d="M158.363 23.0497C157.331 25.0419 155.489 25.8967 153.382 25.8967C149.674 25.8967 147.49 23.2696 147.49 19.8527C147.49 16.4359 149.708 13.7213 153.175 13.7213C157.29 13.7213 158.594 16.6333 158.594 20.2902H149.872C149.872 22.4462 151.023 24.0884 153.274 24.0884C154.711 24.0884 155.808 23.4087 156.433 22.2286L158.365 23.0497H158.363ZM156.278 18.6255C156.157 16.732 155.17 15.4936 153.26 15.4936C151.351 15.4936 150.2 16.8621 149.935 18.6255H156.276H156.278Z" fill="#231F20"/>
</g>
<defs>
<clipPath id="clip0_1359_14754">
<rect width="171" height="30" fill="white"/>
</clipPath>
</defs>
</svg>
