<svg width="125" height="32" viewBox="0 0 125 32" fill="none" xmlns="http://www.w3.org/2000/svg">
<g clip-path="url(#clip0_1356_14695)">
<path d="M12.7276 9.59191C12.127 8.89131 11.5265 8.29076 10.6257 7.89041C9.72497 7.49006 8.52392 7.28986 7.12267 7.28986C5.52127 7.28986 4.12007 7.38996 2.91902 7.59011C1.71797 7.79031 0.917275 7.99046 0.216675 8.19066V25.5058H3.21927V10.3926C3.31937 10.3926 3.41947 10.2925 3.71972 10.2925C4.01997 10.2925 4.32022 10.1924 4.62047 10.1924C4.92072 10.1924 5.32108 10.1924 5.62133 10.0923H6.72232C7.62312 10.0923 8.32372 10.1924 8.92422 10.3926C9.52477 10.6928 10.0252 10.9931 10.3255 11.4935C10.6257 11.994 10.926 12.5945 11.0261 13.3952C11.1262 14.1959 11.2262 15.0967 11.2262 16.1976V25.6058H14.2288V15.497C14.2288 14.2959 14.1287 13.195 13.9286 12.1941C13.7284 11.1933 13.3281 10.2925 12.7276 9.59191Z" fill="#1046A8"/>
<path d="M25.839 7.18982C24.8381 7.18982 23.8372 7.39002 22.8364 7.79037C21.8355 8.19072 21.0348 8.79122 20.2341 9.59192C19.5335 10.3926 18.933 11.3935 18.4325 12.5946C17.9321 13.7956 17.7319 14.9967 17.7319 16.5981C17.7319 17.9993 17.9321 19.3004 18.1323 20.3013C18.4325 21.5023 19.0331 22.5032 19.7337 23.3039C20.4343 24.2047 21.4352 24.8052 22.5361 25.3056C23.7372 25.8061 25.0383 26.0063 26.6397 26.0063C27.8407 26.0063 28.9417 25.9062 29.9426 25.706C30.9434 25.4058 31.6441 25.2056 32.0444 25.0054L31.644 22.303C31.3438 22.5032 30.7432 22.7034 29.9425 22.9036C29.2419 23.1038 28.241 23.2038 27.1401 23.2038C25.1383 23.2038 23.637 22.8035 22.7362 21.8026C21.8355 20.8018 21.2349 19.5006 21.1349 17.599H33.3455V16.3979C33.3455 13.2952 32.745 10.9932 31.4439 9.49192C30.1428 7.99062 28.2411 7.18982 25.839 7.18982ZM21.335 14.5963C21.335 13.9957 21.5352 13.6955 21.7354 13.095C21.9356 12.4944 22.2358 11.994 22.6362 11.4936C23.0365 11.0932 23.4369 10.6929 24.0374 10.3926C24.5378 10.0924 25.2384 9.99227 25.939 9.99227C27.2402 9.99227 28.241 10.4927 28.9417 11.3935C29.7424 12.2943 30.0426 13.195 30.0426 14.5963H21.335Z" fill="#1046A8"/>
<path d="M54.4639 24.1045C54.9643 24.7051 55.5649 25.2055 56.3655 25.5057C57.1662 25.806 58.1671 26.0061 59.3681 26.0061C60.4691 26.0061 61.3699 25.806 62.1706 25.6058C62.9713 25.4056 63.5718 25.2054 63.8721 25.0052L63.2715 22.3029C63.0714 22.403 62.671 22.6031 62.0705 22.8033C61.57 23.0035 60.4691 23.1036 59.4682 23.1036C58.8677 23.1036 58.4674 23.0035 58.067 22.9034C57.6666 22.8033 57.3664 22.503 57.0661 22.2028C56.7659 21.8024 56.5657 21.4021 56.4656 20.8016C56.3655 20.201 56.2654 19.5004 56.2654 18.5996V10.5926H63.2715V7.59004H56.1653V1.98529L53.1627 2.58584V18.5998C53.1627 19.8008 53.2628 20.9018 53.463 21.8026C53.6632 22.7033 53.9635 23.504 54.4639 24.1045Z" fill="#1046A8"/>
<path d="M79.6859 9.59189C79.1854 8.89129 78.2846 8.29074 77.3838 7.89039C76.383 7.49004 75.4822 7.28984 74.081 7.28984C73.4804 7.28984 72.7798 7.38994 72.0792 7.49004C71.4787 7.59014 70.8782 7.79029 70.2776 7.99044V0.784241L67.275 1.38479V25.706H70.0775V10.793C70.1776 10.6929 70.2776 10.6929 70.5779 10.5928C70.8782 10.4927 71.1785 10.4927 71.4787 10.3926C71.879 10.2925 72.1793 10.1924 72.5797 10.1924C72.98 10.0923 73.6806 10.0923 73.9809 10.0923C74.8816 10.0923 75.282 10.1924 75.8825 10.3926C76.4831 10.6928 76.9835 10.9931 77.2837 11.4935C77.584 11.994 77.8843 12.5945 77.9843 13.3952C78.0844 14.1959 78.1845 15.0967 78.1845 16.1976V25.6058H81.1871V15.497C81.1871 14.2959 81.087 13.195 80.8869 12.1941C80.6867 11.1933 80.2864 10.2925 79.6859 9.59189Z" fill="#1046A8"/>
<path d="M88.2934 7.59015H85.2908V25.6059H88.2934V7.59015Z" fill="#1046A8"/>
<path d="M86.8921 0.183777C86.2916 0.183777 85.7912 0.383927 85.3908 0.784277C84.9905 1.08453 84.7903 1.68508 84.7903 2.28558C84.7903 2.88608 84.9904 3.38653 85.3908 3.78688C85.7912 4.18723 86.2916 4.38738 86.8921 4.38738C87.4927 4.38738 87.9931 4.18723 88.3934 3.78688C88.7938 3.48663 88.994 2.88608 88.994 2.28558C88.994 1.68508 88.7938 1.18463 88.3934 0.784277C87.993 0.383927 87.4927 0.183777 86.8921 0.183777Z" fill="#1046A8"/>
<path d="M104.708 9.59191C104.107 8.89131 103.307 8.29076 102.406 7.89041C101.505 7.49006 99.8035 7.28986 98.4022 7.28986C96.8008 7.28986 96.2003 7.38996 94.9992 7.59011C93.7982 7.79031 92.9975 7.99046 92.2969 8.19066H92.1968V25.5058H95.1994V10.3926C95.2995 10.3926 95.4996 10.2925 95.7999 10.2925C96.0001 10.2925 96.3004 10.1924 96.6006 10.1924C97.001 10.1924 97.3012 10.0923 97.7016 10.0923H98.3021C99.2029 10.0923 100.304 10.1924 100.904 10.3926C101.505 10.6928 102.005 10.9931 102.306 11.4935C102.606 11.994 102.906 12.5945 103.006 13.3952C103.106 14.1959 103.206 15.0967 103.206 16.1976V25.6058H106.209V15.497C106.209 14.2959 106.109 13.195 105.909 12.1941C105.709 11.1933 105.308 10.2925 104.708 9.59191Z" fill="#1046A8"/>
<path d="M123.124 23.0036C122.523 22.0027 121.723 21.1019 121.022 20.2012C120.221 19.3004 119.521 18.4997 118.72 17.699C117.919 16.8983 117.219 16.1977 116.518 15.6972C117.119 15.0967 117.719 14.3961 118.52 13.7956C119.22 13.095 119.821 12.3944 120.522 11.6938C121.122 10.9932 121.823 10.2926 122.423 9.59194C123.024 8.89134 123.624 8.29079 124.125 7.69029H120.321C119.921 8.19069 119.421 8.79124 118.82 9.39179C118.32 10.0924 117.619 10.6929 117.018 11.3935L115.017 13.3953C114.316 13.9958 113.816 14.5963 113.215 15.1969V0.784241L110.213 1.38479V25.6059H113.215V16.9984C113.916 17.3987 114.516 17.9992 115.217 18.5998C115.917 19.2003 116.618 19.9009 117.319 20.7016C118.019 21.5023 118.72 22.303 119.32 23.1037C120.021 24.0044 120.522 24.8052 121.022 25.6058H124.825C124.325 24.8051 123.824 23.9043 123.124 23.0036Z" fill="#1046A8"/>
<path d="M69.7773 30.31C63.5719 30.9105 57.6668 30.4101 52.7625 26.3065C49.4596 23.6041 47.1576 19.8008 44.6554 16.4979L50.8608 7.59018H47.558L42.8539 14.296C39.8512 10.6929 36.6485 7.08973 32.7451 4.48748C28.1411 1.48488 22.6363 1.38478 17.5318 2.48573C16.3308 2.68588 14.7294 4.08708 16.9313 3.58668C27.7407 1.38473 35.0471 8.89128 41.0523 16.7982L34.947 25.6059H38.2499L42.8539 19.1002C43.5545 20.001 44.2551 20.9018 44.8556 21.8026C47.3578 25.1055 49.9601 28.1081 53.7634 30.0098C58.2673 32.2117 63.5719 32.0115 68.3761 31.5111C69.1768 31.411 71.8792 30.1098 69.7773 30.31Z" fill="#1046A8"/>
</g>
<defs>
<clipPath id="clip0_1356_14695">
<rect width="125" height="32" fill="white"/>
</clipPath>
</defs>
</svg>
