<svg width="130" height="30" viewBox="0 0 130 30" fill="none" xmlns="http://www.w3.org/2000/svg">
<g clip-path="url(#clip0_1460_30186)">
<path fill-rule="evenodd" clip-rule="evenodd" d="M127.549 8.85938H127.208V9.28594H127.549C127.708 9.28594 127.81 9.21281 127.81 9.07688C127.81 8.9325 127.714 8.85938 127.549 8.85938ZM126.788 8.46375H127.558C127.977 8.46375 128.255 8.69719 128.255 9.06188C128.256 9.16334 128.231 9.26328 128.182 9.35132C128.133 9.43936 128.062 9.51228 127.977 9.5625L128.278 10.0069V10.095H127.842L127.549 9.6675H127.208V10.095H126.788V8.46375ZM128.935 9.30938C128.935 8.4375 128.365 7.77656 127.492 7.77656C126.635 7.77656 126.065 8.40563 126.065 9.30938C126.065 10.1719 126.635 10.8431 127.492 10.8431C128.365 10.8431 128.935 10.1813 128.935 9.30938ZM129.293 9.30938C129.293 10.3341 128.62 11.1909 127.494 11.1909C126.377 11.1909 125.71 10.3284 125.71 9.30938C125.71 8.28563 126.375 7.42875 127.494 7.42875C128.62 7.43063 129.293 8.28469 129.293 9.30938ZM28.4242 12.9572L24.9497 15.0019L28.4242 17.0409C28.6319 17.1613 28.8143 17.3231 28.9606 17.5169C29.107 17.7108 29.2145 17.9327 29.2768 18.1698C29.3391 18.407 29.3549 18.6545 29.3234 18.898C29.2919 19.1415 29.2137 19.3761 29.0933 19.5881C28.846 20.0161 28.4459 20.3269 27.9788 20.454C27.5117 20.5811 27.015 20.5142 26.5951 20.2678L20.3724 16.6116C19.9736 16.3797 19.6762 15.9988 19.5415 15.5475C19.4806 15.352 19.4526 15.1471 19.4588 14.9419C19.4633 14.7947 19.4842 14.6484 19.5224 14.5013C19.647 14.0466 19.9379 13.6388 20.3697 13.3819L26.5906 9.73031C27.0108 9.48301 27.5085 9.41617 27.9762 9.54423C28.4438 9.67229 28.8438 9.98497 29.0897 10.4147C29.5997 11.3053 29.3015 12.4416 28.4242 12.9572ZM25.1342 22.8656L18.9161 19.2159C18.595 19.0253 18.2252 18.9402 17.8561 18.9722C17.3986 19.0035 16.9696 19.2124 16.6555 19.5568C16.3414 19.9013 16.1655 20.3556 16.1633 20.8284V28.1372C16.1633 29.1684 16.9788 30.0009 17.9924 30.0009C19.0051 30.0009 19.8233 29.1666 19.8233 28.1372V24.0497L23.3051 26.0944C23.7246 26.3431 24.2222 26.4112 24.6901 26.2839C25.1579 26.1567 25.5583 25.8444 25.8042 25.4147C26.3088 24.5241 26.0115 23.3813 25.1342 22.8656ZM17.9579 15.7172L15.3724 18.3441C15.2836 18.4288 15.1687 18.4786 15.0479 18.4847H14.2888C14.1684 18.4776 14.0541 18.4279 13.9651 18.3441L11.3797 15.7172C11.2993 15.6273 11.252 15.5112 11.2461 15.3891V14.6147C11.2521 14.4915 11.2993 14.3742 11.3797 14.2828L13.9633 11.655C14.0526 11.5721 14.1669 11.5234 14.287 11.5172H15.0479C15.1683 11.5228 15.2831 11.5715 15.3724 11.655L17.9579 14.2828C18.0382 14.3742 18.0854 14.4915 18.0915 14.6147V15.3891C18.0915 15.4922 18.0324 15.6422 17.9579 15.7172ZM15.8915 14.9878C15.8832 14.8644 15.8349 14.7475 15.7542 14.6559L15.0061 13.8966C14.9162 13.8139 14.8017 13.7653 14.6815 13.7588H14.6515C14.5321 13.7655 14.4186 13.8141 14.3297 13.8966L13.5815 14.6559C13.5026 14.7481 13.4565 14.8651 13.4506 14.9878V15.0178C13.4506 15.1238 13.5079 15.2709 13.5815 15.3459L14.3297 16.1072C14.4042 16.1822 14.5479 16.2459 14.6515 16.2459H14.6815C14.8018 16.2388 14.9162 16.1899 15.0061 16.1072L15.7542 15.3459C15.8352 15.2561 15.8837 15.1402 15.8915 15.0178V14.9878ZM4.20332 7.13063L10.4233 10.785C10.7588 10.9819 11.1297 11.0588 11.4851 11.0288C11.9428 10.9964 12.3717 10.7868 12.6857 10.442C12.9998 10.0972 13.176 9.64274 13.1788 9.16969V1.86188C13.1788 0.834375 12.3588 0 11.3497 0C10.337 0 9.51878 0.834375 9.51878 1.86188V5.95125L6.03423 3.90188C5.61433 3.65434 5.11686 3.58706 4.64927 3.71459C4.18167 3.84211 3.78149 4.1542 3.53514 4.58344C3.41471 4.79545 3.33642 5.03007 3.30484 5.27362C3.27327 5.51717 3.28904 5.76476 3.35124 6.00195C3.41344 6.23915 3.52082 6.46119 3.66711 6.65514C3.81341 6.84908 3.99569 7.0101 4.20332 7.13063ZM17.8561 11.0288C18.2124 11.0588 18.5833 10.9819 18.9161 10.785L25.1342 7.13156C25.3417 7.01092 25.5239 6.84894 25.6702 6.65503C25.8165 6.46113 25.9239 6.23917 25.9862 6.00207C26.0486 5.76497 26.0646 5.51745 26.0334 5.27391C26.0021 5.03037 25.9242 4.79566 25.8042 4.58344C25.5577 4.15438 25.1575 3.84246 24.69 3.71495C24.2225 3.58745 23.7251 3.65458 23.3051 3.90188L19.8233 5.95125V1.86188C19.8233 0.834375 19.0051 0 17.9924 0C16.9788 0 16.1633 0.834375 16.1633 1.86188V9.16875C16.1606 10.1503 16.907 10.9566 17.8561 11.0278V11.0288ZM11.4851 18.9713C11.1154 18.9389 10.7449 19.024 10.4233 19.215L4.20332 22.8647C3.99584 22.9856 3.8137 23.1478 3.66748 23.3419C3.52126 23.536 3.41387 23.7581 3.35154 23.9953C3.28922 24.2325 3.27319 24.4801 3.30439 24.7238C3.3356 24.9674 3.41341 25.2023 3.53332 25.4147C3.78028 25.8433 4.18066 26.1546 4.64815 26.2816C5.11564 26.4085 5.61279 26.341 6.03241 26.0934L9.51696 24.0488V28.1363C9.51696 29.1675 10.3351 30 11.3479 30C12.357 30 13.177 29.1656 13.177 28.1363V20.8284C13.1754 20.3556 13.0001 19.901 12.6863 19.5564C12.3724 19.2117 11.9435 19.0026 11.4861 18.9713H11.4851ZM9.79878 15.5475C9.85833 15.3517 9.88598 15.147 9.8806 14.9419C9.87043 14.6224 9.7806 14.311 9.61977 14.0378C9.45894 13.7645 9.23254 13.5386 8.96241 13.3819L2.74787 9.73125C1.8706 9.2175 0.751505 9.52219 0.248778 10.4156C-0.259404 11.3063 0.0415055 12.4425 0.918778 12.9581L4.39241 15.0028L0.91696 17.0419C0.709204 17.1622 0.526766 17.3239 0.3803 17.5177C0.233833 17.7115 0.126272 17.9334 0.0638984 18.1706C0.00152478 18.4077 -0.0144119 18.6553 0.0170189 18.8988C0.0484498 19.1424 0.126618 19.377 0.24696 19.5891C0.493934 20.0176 0.894247 20.329 1.36168 20.4561C1.82911 20.5832 2.32626 20.516 2.74605 20.2688L8.96241 16.6125C9.38423 16.3688 9.66787 15.9816 9.79878 15.5475ZM86.9515 4.62656H86.7797C86.757 4.62656 86.7351 4.62938 86.7124 4.63125C86.6906 4.62938 86.6697 4.62656 86.646 4.62656C86.2051 4.62656 85.7751 4.67906 85.3742 4.81406C84.9729 4.9421 84.6132 5.18106 84.3342 5.505L84.3324 5.50219V5.50688C84.0397 5.83688 83.8488 6.23156 83.7297 6.68063C83.6133 7.13063 83.5651 7.63781 83.5606 8.21625V9.33375H82.3506C82.1531 9.33199 81.9629 9.41084 81.8216 9.55309C81.6802 9.69535 81.5992 9.88947 81.596 10.0931C81.594 10.3072 81.6729 10.5137 81.8161 10.6688C81.9602 10.8198 82.1536 10.91 82.3588 10.9219H83.5606V20.0109L83.5588 20.0325C83.5588 20.2463 83.6451 20.4422 83.787 20.5828C83.927 20.7206 84.1242 20.8022 84.3379 20.8022C84.5357 20.8012 84.725 20.7195 84.8646 20.5749C85.0041 20.4303 85.0824 20.2346 85.0824 20.0306V10.9172H86.3833C86.5872 10.9078 86.7802 10.8198 86.9242 10.6706C86.9967 10.5963 87.0543 10.508 87.0934 10.4106C87.1326 10.3132 87.1526 10.2088 87.1524 10.1034V10.0734C87.1488 9.66375 86.8115 9.32906 86.3924 9.32906H85.0815V8.21625C85.0906 7.72406 85.1406 7.35563 85.2124 7.08844C85.2824 6.81844 85.3797 6.64969 85.4651 6.54469C85.5681 6.43541 85.6964 6.35506 85.8379 6.31125C86.0179 6.25125 86.2679 6.21469 86.6051 6.21469H86.6451C86.6642 6.21469 86.6861 6.21 86.7051 6.21C86.7279 6.21 86.7506 6.21469 86.7751 6.21469H86.9451C87.377 6.21469 87.7242 5.85844 87.7242 5.42063C87.7251 5.31586 87.7057 5.21198 87.6671 5.11506C87.6285 5.01814 87.5716 4.93012 87.4996 4.85618C87.4277 4.78223 87.3421 4.72383 87.248 4.6844C87.1539 4.64498 87.0531 4.62531 86.9515 4.62656ZM113.783 10.5216C113.857 10.449 113.915 10.362 113.956 10.2657C113.996 10.1695 114.018 10.0658 114.019 9.96094C114.018 9.85828 113.997 9.7569 113.956 9.66328C113.915 9.56966 113.856 9.48585 113.782 9.41719H113.783C113.782 9.41344 113.779 9.41344 113.779 9.41344C113.779 9.40875 113.775 9.40875 113.775 9.40875H113.772C113.631 9.26301 113.439 9.18081 113.239 9.18C113.037 9.18224 112.843 9.26604 112.701 9.41344L106.711 15.3534V5.37188C106.711 4.9425 106.357 4.59094 105.922 4.59094C105.822 4.59082 105.723 4.61114 105.631 4.65072C105.539 4.69031 105.455 4.74837 105.384 4.82156C105.241 4.96704 105.16 5.16475 105.157 5.37188V19.9875C105.158 20.0898 105.179 20.191 105.218 20.2851C105.257 20.3792 105.313 20.4644 105.384 20.5359C105.528 20.6821 105.721 20.7648 105.922 20.7666C106.357 20.7666 106.711 20.4197 106.711 19.9903V17.5763L108.661 15.5944L112.637 20.4759C112.711 20.5884 112.812 20.6653 112.914 20.7066C113.029 20.7497 113.142 20.7666 113.241 20.7666C113.421 20.7702 113.596 20.7118 113.741 20.6006L113.75 20.5941L113.76 20.5838C113.837 20.5076 113.9 20.4163 113.943 20.315C113.986 20.2137 114.009 20.1046 114.011 19.9941C114.009 19.804 113.942 19.6207 113.822 19.4766V19.4747L109.773 14.4684L113.779 10.5253H113.783V10.5225V10.5216ZM102.968 9.51656C103.11 9.65719 103.197 9.85781 103.197 10.0753V19.9875C103.196 20.0895 103.176 20.1904 103.138 20.2843C103.099 20.3783 103.043 20.4635 102.972 20.535C102.828 20.6814 102.634 20.7641 102.432 20.7656C102.229 20.764 102.036 20.6813 101.892 20.535C101.82 20.464 101.763 20.379 101.724 20.285C101.685 20.1909 101.665 20.0898 101.664 19.9875V19.0209C100.701 20.0803 99.3461 20.7656 97.8479 20.7656C97.1363 20.765 96.4323 20.6141 95.7794 20.3223C95.1265 20.0304 94.5385 19.6038 94.0515 19.0688C93.0484 17.9802 92.4913 16.5345 92.4961 15.0328C92.4961 13.4681 93.087 12.0338 94.0515 10.9941C94.5389 10.4598 95.1271 10.0341 95.78 9.74289C96.4329 9.45172 97.1366 9.30132 97.8479 9.30094C99.3461 9.30094 100.701 9.96563 101.664 11.0203V10.0772C101.664 9.9739 101.684 9.87161 101.722 9.77632C101.761 9.68103 101.818 9.59468 101.889 9.52235C101.961 9.45002 102.046 9.39317 102.139 9.35514C102.232 9.31712 102.331 9.29869 102.432 9.30094C102.635 9.30094 102.828 9.38063 102.968 9.51656ZM101.664 15.0328C101.664 13.8609 101.23 12.8109 100.535 12.0516C99.8415 11.2959 98.8879 10.8366 97.8479 10.8347C96.8151 10.8347 95.8661 11.2959 95.1642 12.0516C94.4295 12.8588 94.0228 13.9257 94.0279 15.0328C94.0279 16.2038 94.4688 17.2453 95.1642 17.9981C95.8615 18.7509 96.8133 19.2038 97.8479 19.2038C98.352 19.2028 98.8506 19.0955 99.313 18.8885C99.7755 18.6815 100.192 18.3791 100.537 18C101.268 17.1968 101.672 16.1344 101.664 15.0328ZM40.0151 14.7544C39.3961 14.4563 38.6942 14.2388 37.9951 14.0016C37.3506 13.7794 36.6979 13.5919 36.2315 13.3434C35.997 13.2159 35.8142 13.0809 35.6951 12.9291C35.5751 12.7861 35.5104 12.6025 35.5133 12.4134C35.5151 12.1266 35.5951 11.8959 35.7333 11.6888C35.9433 11.3831 36.2951 11.1431 36.6788 10.9903C37.0579 10.8347 37.4697 10.7616 37.7642 10.7616C38.6333 10.7634 39.1824 11.0569 39.6042 11.3634C39.8115 11.5163 39.9879 11.6738 40.1551 11.8013C40.2397 11.8678 40.3197 11.9288 40.4133 11.9738C40.5006 12.0169 40.6042 12.0534 40.717 12.0534C40.7888 12.0534 40.8588 12.0403 40.9242 12.0122C40.9923 11.9838 41.0553 11.9439 41.1106 11.8941C41.1672 11.8395 41.214 11.7751 41.2488 11.7038C41.2777 11.6328 41.2929 11.5567 41.2933 11.4797C41.2898 11.3426 41.2532 11.2086 41.187 11.0897C41.0706 10.8759 40.8924 10.6706 40.6661 10.4634C40.2867 10.129 39.8615 9.85414 39.4042 9.64781C38.9233 9.42844 38.4088 9.27938 37.9188 9.27938C36.7806 9.27938 35.8315 9.54188 35.1424 10.0256C34.7824 10.2788 34.4661 10.5544 34.2442 10.9359C34.017 11.3184 33.8897 11.79 33.8733 12.405V12.4875C33.8706 13.0828 34.0597 13.575 34.3561 13.9603C34.8051 14.5406 35.4733 14.8856 36.1288 15.1322C36.7806 15.3778 37.4361 15.5241 37.847 15.6647C38.4279 15.8606 39.0442 16.0744 39.4961 16.3566C39.7206 16.5009 39.9006 16.6566 40.0233 16.8272C40.1415 17.0016 40.2097 17.1834 40.2142 17.4113V17.4291C40.2124 17.7609 40.117 18.0197 39.9579 18.2419C39.7179 18.5747 39.3215 18.8156 38.9006 18.9713C38.5343 19.1032 38.1503 19.1753 37.7624 19.185C36.7697 19.185 36.107 18.9413 35.6233 18.6975C35.3815 18.5747 35.187 18.4538 35.0088 18.3506C34.9263 18.3012 34.8407 18.2576 34.7524 18.2203C34.6651 18.1829 34.5716 18.1631 34.477 18.1622C34.411 18.1623 34.3457 18.175 34.2842 18.1997C34.2216 18.2262 34.164 18.264 34.1142 18.3113C34.0468 18.3758 33.9908 18.4519 33.9488 18.5363C33.9095 18.6191 33.8893 18.7102 33.8897 18.8025C33.8897 18.9563 33.9442 19.0941 34.0261 19.2216C34.1506 19.4044 34.3351 19.5666 34.5633 19.7306C34.8015 19.8919 35.0833 20.0494 35.407 20.2069C36.1297 20.5538 37.0542 20.7356 37.7579 20.7459H37.7597C38.8533 20.7459 39.7961 20.49 40.5915 19.8947V19.8919H40.5933C41.3715 19.2966 41.8542 18.4106 41.8542 17.4094C41.8542 16.8591 41.727 16.3931 41.507 16.0125C41.1724 15.4359 40.6297 15.0544 40.0151 14.7544ZM90.1115 4.59C90.0112 4.58999 89.9119 4.61036 89.8193 4.64993C89.7266 4.6895 89.6424 4.7475 89.5715 4.82063C89.5003 4.89233 89.4435 4.97788 89.4045 5.07233C89.3655 5.16679 89.345 5.26828 89.3442 5.37094V19.9866C89.3443 20.0891 89.3644 20.1905 89.4035 20.2848C89.4425 20.379 89.4997 20.4641 89.5715 20.535C89.7158 20.681 89.9094 20.7636 90.1115 20.7656C90.5461 20.7656 90.8979 20.4188 90.8997 19.9894V5.37094C90.8979 4.93969 90.5479 4.59 90.1115 4.59ZM125.377 14.6634V14.7413C125.377 14.9569 125.282 15.1509 125.137 15.2784C124.989 15.4087 124.801 15.4793 124.607 15.4772H116.011C116.229 17.6119 117.906 19.1897 119.904 19.2038H120.411C121.072 19.2066 121.716 18.9731 122.284 18.5897C122.854 18.202 123.334 17.6891 123.69 17.0878C123.757 16.9694 123.855 16.8729 123.973 16.8094C124.089 16.7468 124.218 16.7153 124.349 16.7179C124.48 16.7205 124.608 16.7572 124.722 16.8244L124.731 16.8291L124.739 16.8356C124.845 16.9112 124.932 17.0119 124.993 17.1293C125.054 17.2468 125.087 17.3775 125.089 17.5106C125.089 17.6484 125.052 17.7872 124.981 17.9138L124.978 17.9184L124.976 17.9203C124.484 18.7205 123.832 19.4025 123.062 19.92C122.282 20.4356 121.38 20.7609 120.411 20.7609H119.896C119.176 20.7557 118.465 20.6029 117.803 20.3116C117.141 20.0203 116.542 19.5963 116.041 19.0641C115.022 17.992 114.453 16.5504 114.455 15.0497C114.455 13.4616 115.063 12.0234 116.053 10.9809C116.559 10.4473 117.163 10.0234 117.831 9.7342C118.498 9.44503 119.214 9.29645 119.938 9.29719C121.39 9.29719 122.695 9.88594 123.662 10.8478C124.629 11.8097 125.26 13.1475 125.372 14.6503L125.377 14.6634ZM123.698 13.9256C123.262 12.1266 121.71 10.8459 119.938 10.8478C118.122 10.8478 116.592 12.1013 116.117 13.9256H123.698ZM48.1833 9.32063C47.0335 9.32117 45.9248 9.76143 45.0715 10.5563V10.1034C45.0723 9.9001 44.9963 9.70441 44.8597 9.55781C44.7908 9.48401 44.7082 9.42524 44.6168 9.38498C44.5255 9.34472 44.4272 9.32379 44.3279 9.32344C44.2256 9.32218 44.1242 9.34211 44.0295 9.38205C43.9349 9.42199 43.849 9.48112 43.777 9.55594C43.6382 9.70226 43.5605 9.89879 43.5606 10.1034V20.2219L43.5924 20.2547L43.5951 20.2584C43.607 20.2959 43.6239 20.3316 43.6451 20.3644C43.7497 20.5519 43.9206 20.6944 44.1333 20.7572L44.1624 20.7666H44.3279C44.4409 20.7661 44.5526 20.7406 44.6551 20.6916C44.7473 20.6446 44.8276 20.5763 44.8897 20.4919H44.8915C44.9006 20.4825 44.9024 20.4731 44.9106 20.4638C44.9523 20.4125 44.9871 20.3557 45.0142 20.295C45.0361 20.235 45.0506 20.1769 45.0615 20.1338L45.0679 20.1056V14.0297C45.087 13.1901 45.4229 12.3913 46.0042 11.8031C46.582 11.2107 47.364 10.8786 48.1788 10.8797C49.0415 10.8797 49.8106 11.2341 50.3688 11.8031C50.9279 12.3731 51.267 13.1559 51.267 14.0203V19.9875C51.267 20.205 51.3579 20.4075 51.4961 20.5453C51.6416 20.6861 51.8337 20.7645 52.0333 20.7645C52.2329 20.7645 52.425 20.6861 52.5706 20.5453C52.6434 20.4732 52.7013 20.3865 52.7407 20.2907C52.7801 20.1948 52.8001 20.0916 52.7997 19.9875V14.0203C52.8061 11.4469 50.7388 9.32531 48.1833 9.32063ZM63.4179 11.0006C64.42 12.0881 64.9777 13.5317 64.9751 15.0319C64.9765 16.5316 64.419 17.9745 63.4179 19.0622C62.4579 20.1056 61.116 20.7638 59.6233 20.7638C58.1442 20.7638 56.8006 20.1038 55.8361 19.0613C54.8339 17.9739 54.275 16.5311 54.275 15.0309C54.275 13.5308 54.8339 12.088 55.8361 11.0006C56.8006 9.95906 58.1451 9.29906 59.6233 9.29906C61.116 9.30094 62.4579 9.95906 63.4179 11.0006ZM63.4388 15.0319C63.4388 13.8722 62.9997 12.8194 62.3024 12.06C61.6015 11.2988 60.6542 10.8347 59.6215 10.8347C58.5915 10.8347 57.6397 11.3006 56.9406 12.06C56.2075 12.8645 55.8009 13.9279 55.8042 15.0319C55.7999 16.1319 56.2069 17.1912 56.9406 17.9897C57.6406 18.7472 58.5915 19.2038 59.6224 19.2038C60.6515 19.2038 61.6051 18.7463 62.3024 17.9897C63.0359 17.1915 63.4429 16.1315 63.4388 15.0319ZM79.9788 9.38813L79.9742 9.38531L79.9706 9.38344C79.8837 9.34433 79.79 9.32361 79.6951 9.3225C79.5465 9.32487 79.4013 9.36894 79.2751 9.45C79.1431 9.53393 79.0388 9.65716 78.9761 9.80344V9.80813L76.0488 17.9569L73.7942 12.4959L73.7897 12.4931C73.7254 12.3461 73.6192 12.2228 73.4851 12.1397C73.3563 12.0557 73.2069 12.0112 73.0544 12.0115C72.902 12.0119 72.7527 12.057 72.6242 12.1416C72.4918 12.2247 72.3869 12.3473 72.3233 12.4931L72.3215 12.4959L70.0615 17.9616L67.1224 9.81469H67.1206C67.07 9.66443 66.9712 9.53646 66.8406 9.45188C66.7127 9.36923 66.5652 9.32447 66.4142 9.3225C66.3152 9.32251 66.2171 9.34324 66.126 9.38344H66.1215L66.1179 9.38719C65.9857 9.45032 65.8738 9.55112 65.7953 9.67769C65.7169 9.80427 65.6752 9.95134 65.6751 10.1016C65.6751 10.1963 65.6933 10.2909 65.7297 10.3856L69.3479 20.2734V20.2781C69.3777 20.358 69.4208 20.4319 69.4751 20.4966C69.5229 20.5506 69.5803 20.5945 69.6442 20.6259C69.657 20.6363 69.6742 20.6541 69.7042 20.6709C69.7373 20.6907 69.7737 20.7037 69.8115 20.7094C69.8751 20.7309 69.9624 20.7638 70.077 20.7638C70.2224 20.7638 70.3588 20.7094 70.4815 20.6297C70.6047 20.5474 70.6997 20.4274 70.7533 20.2866L70.7615 20.28L73.0506 14.7131L75.3415 20.2566H75.3433C75.396 20.4056 75.4897 20.5191 75.596 20.6016C75.7097 20.6878 75.837 20.7422 75.9706 20.7638H76.066C76.157 20.7638 76.2461 20.7459 76.3206 20.7169C76.3904 20.6893 76.4559 20.6514 76.5151 20.6044C76.6385 20.5075 76.7345 20.3783 76.7933 20.2303V20.2266L80.3879 10.3819C80.461 10.1941 80.459 9.98413 80.3823 9.79789C80.3056 9.61164 80.1605 9.46431 79.9788 9.38813Z" fill="black"/>
</g>
<defs>
<clipPath id="clip0_1460_30186">
<rect width="130" height="30" fill="white"/>
</clipPath>
</defs>
</svg>
