<svg width="150" height="30" viewBox="0 0 150 30" fill="none" xmlns="http://www.w3.org/2000/svg">
<path d="M61.0542 21.0399V11.4524H62.736V19.5594H67.3294V21.0399H61.0542Z" fill="#FF6200"/>
<path d="M77.3213 21.0399L76.6171 19.2H72.0748L71.3705 21.0399H69.5306L73.2967 11.4524H75.3952L79.1612 21.0399H77.3213ZM74.3459 12.8754L72.5492 17.7195H76.1426L74.3459 12.8754Z" fill="#FF6200"/>
<path d="M100.602 21.0399L98.7339 13.9679L96.8796 21.0399H95.0827L92.3373 11.4524H94.2202L96.0889 18.8408L98.0725 11.4524H99.4093L101.393 18.8408L103.247 11.4524H105.13L102.399 21.0399H100.602Z" fill="#FF6200"/>
<path d="M108.437 21.0399V11.4524H110.119V21.0399H108.437Z" fill="#FF6200"/>
<path d="M121.184 21.0399L116.181 14.054V21.0399H114.5V11.4524H116.224L121.126 18.2514V11.4524H122.808V21.0399H121.184Z" fill="#FF6200"/>
<path d="M126.821 21.0399V11.4524H130.386C133.376 11.4524 135.402 13.436 135.402 16.2533C135.402 19.0707 133.376 21.0399 130.386 21.0399H126.821ZM128.503 19.5594H130.386C132.47 19.5594 133.677 18.0645 133.677 16.2533C133.677 14.399 132.527 12.9329 130.386 12.9329H128.503V19.5594Z" fill="#FF6200"/>
<path d="M53.1828 11.2943C50.4439 11.2943 48.2236 13.5146 48.2236 16.2534C48.2236 18.9923 50.4439 21.2126 53.1828 21.2126C55.9216 21.2126 58.1419 18.9923 58.1419 16.2534C58.1419 13.5146 55.9218 11.2943 53.1828 11.2943ZM53.1828 19.538C51.3687 19.538 49.8982 18.0674 49.8982 16.2534C49.8982 14.4395 51.3688 12.9689 53.1828 12.9689C54.9967 12.9689 56.4673 14.4395 56.4673 16.2534C56.4673 18.0674 54.9969 19.538 53.1828 19.538Z" fill="#FF6200"/>
<path d="M88.3558 18.0312L88.3417 18.0086L88.333 17.9946L87.8845 17.2739H87.8831L87.7946 17.1321C88.7369 16.7813 89.5387 15.9024 89.5387 14.4567C89.5387 12.6887 88.3025 11.4525 86.405 11.4525H82.1935V21.0401H83.8753V17.4609H84.4922H85.5427H86.1596L88.2869 21.0401H90.2275L88.3558 18.0312ZM83.8753 15.9801V12.9329H86.1751C87.1238 12.9329 87.8138 13.5366 87.8138 14.4566C87.8138 15.3765 87.1238 15.9801 86.1751 15.9801H83.8753Z" fill="#FF6200"/>
<path d="M42.4085 15.2759C41.273 14.9883 40.2955 14.744 40.2955 13.9967C40.2955 13.2779 40.9279 12.8036 41.9197 12.8036C42.8699 12.8036 43.8301 13.1159 44.5637 13.7796L45.6206 12.6927L45.6569 12.6455C44.7656 11.783 43.5583 11.3087 42.0634 11.3087C39.9647 11.3087 38.5705 12.5304 38.5705 14.1116C38.5705 16.1382 40.4104 16.5981 41.9771 16.9863C43.1414 17.2881 44.162 17.5469 44.162 18.4094C44.162 19.0419 43.6157 19.7174 42.2359 19.7174C41.0137 19.7174 40.0447 19.2003 39.382 18.5735L38.2832 19.7036C39.1313 20.6009 40.4059 21.2126 42.164 21.2126C44.7514 21.2126 45.8725 19.847 45.8725 18.2514C45.8726 16.1672 43.9897 15.6783 42.4085 15.2759Z" fill="#FF6200"/>
<path d="M142.063 15.2759C140.928 14.9883 139.95 14.744 139.95 13.9967C139.95 13.2779 140.583 12.8036 141.574 12.8036C142.525 12.8036 143.485 13.1159 144.218 13.7796L145.275 12.6927L145.312 12.6455C144.42 11.783 143.213 11.3087 141.718 11.3087C139.619 11.3087 138.225 12.5304 138.225 14.1116C138.225 16.1382 140.065 16.5981 141.632 16.9863C142.796 17.2881 143.817 17.5469 143.817 18.4094C143.817 19.0419 143.27 19.7174 141.891 19.7174C140.668 19.7174 139.699 19.2003 139.037 18.5735L137.938 19.7036C138.786 20.6009 140.061 21.2126 141.819 21.2126C144.406 21.2126 145.527 19.847 145.527 18.2514C145.527 16.1672 143.644 15.6783 142.063 15.2759Z" fill="#FF6200"/>
<path d="M147.33 12.2588H147.123V12.615H147.006V11.7344H147.298C147.397 11.7344 147.473 11.757 147.527 11.8022C147.58 11.8473 147.607 11.913 147.607 11.9993C147.607 12.0542 147.592 12.1019 147.562 12.1427C147.532 12.1835 147.491 12.2139 147.438 12.234L147.645 12.6078V12.615H147.521L147.33 12.2588ZM147.123 12.1638H147.301C147.359 12.1638 147.405 12.1488 147.439 12.119C147.473 12.0891 147.49 12.0491 147.49 11.999C147.49 11.9444 147.474 11.9027 147.441 11.8736C147.409 11.8445 147.362 11.8298 147.301 11.8293H147.123V12.1638Z" fill="#FF6200"/>
<path d="M147.274 12.951C146.857 12.951 146.517 12.6113 146.517 12.1937C146.517 11.7761 146.857 11.4363 147.274 11.4363C147.692 11.4363 148.032 11.7761 148.032 12.1937C148.031 12.6113 147.692 12.951 147.274 12.951ZM147.274 11.544C146.916 11.544 146.625 11.8355 146.625 12.1937C146.625 12.5519 146.916 12.8433 147.274 12.8433C147.632 12.8433 147.924 12.5519 147.924 12.1937C147.924 11.8355 147.632 11.544 147.274 11.544Z" fill="#FF6200"/>
<path d="M21.0645 26.0964H20.6971V27.116H20.5473V26.0964H20.1807V25.9731H21.0645V26.0964Z" fill="#FF6200"/>
<path d="M21.4287 25.9731L21.8024 26.9055L22.176 25.9731H22.3715V27.116H22.2207V26.6709L22.2348 26.1906L21.8597 27.116H21.7443L21.3699 26.1929L21.3848 26.6709V27.116H21.234V25.9731H21.4287Z" fill="#FF6200"/>
<path d="M15.7786 14.4975C15.8656 14.4743 15.9499 14.451 16.0366 14.426C17.9413 13.889 19.7941 13.145 21.6352 12.3744C23.4376 11.6202 25.2204 10.7144 26.7865 9.43966C28.3938 8.13211 29.6866 6.43831 30.4002 4.33786C30.5007 4.04551 30.7062 3.62386 30.7258 3.30316C28.2231 6.72541 18.2949 7.07866 18.2949 7.07866L20.6377 4.92931C11.2191 4.94716 4.6465 8.94496 1.63525 11.0831C5.4889 11.4965 8.97745 13.1288 11.7087 15.5865C13.0525 15.1704 14.4243 14.8698 15.7786 14.4975Z" fill="#FF6200"/>
<path d="M31.3489 14.1613C31.3489 14.1613 22.188 13.4607 12.6721 16.5249C13.9347 17.8438 14.9988 19.3525 15.8142 21.0067C20.8176 18.2217 27.7554 14.6635 31.3489 14.1613Z" fill="#FF6200"/>
<path d="M16.4414 22.4365C17.0224 23.9305 17.4121 25.5198 17.5738 27.1753L26.2945 18.2062L16.4414 22.4365Z" fill="#FF6200"/>
</svg>
