<svg width="119" height="32" viewBox="0 0 119 32" fill="none" xmlns="http://www.w3.org/2000/svg">
<g clip-path="url(#clip0_1357_14705)">
<path d="M10.3092 11.0602C9.19094 10.6302 7.78399 10.4259 6.97387 9.51465C6.41759 8.87443 6.60645 7.73193 7.29636 7.23009C8.17011 6.52714 9.55393 6.61008 10.6365 7.07068C11.2092 7.30736 11.7868 7.67444 12.3595 8.17192L14.4579 3.79598C13.452 3.22604 12.4028 2.79135 11.3103 2.49672C8.44778 1.69911 5.13231 1.85278 3.03214 4.01332C1.15688 5.85526 0.626406 9.42675 1.60751 11.7944C2.21356 13.16 3.2585 14.0541 4.5915 14.6247C5.65893 15.0884 7.05377 15.5171 8.06159 15.9529C9.02516 16.3526 9.77583 16.9295 9.74611 18.0105C9.70295 19.324 8.63175 20.1085 7.19046 20.0681C6.43484 20.0681 5.67441 19.8894 4.90436 19.5271C4.13428 19.1649 3.3546 18.6142 2.56529 17.8704L0.303223 22.3864C2.49308 24.0044 4.87065 24.8159 7.43591 24.8159C9.64708 24.817 11.7114 24.2288 13.2354 22.797C15.6167 20.6412 16.0069 15.9581 14.0969 13.4993C13.298 12.4802 12.037 11.664 10.314 11.0554L10.3092 11.0602ZM97.4997 17.4697C96.2146 14.8277 94.9297 12.1857 93.6398 9.54374C90.4634 9.5486 87.2866 9.55343 84.1153 9.55824V11.4902C83.0034 10.1958 81.6318 9.54374 80.0002 9.54374C78.9943 9.54374 78.0656 9.74662 77.2137 10.1572C76.3618 10.5677 75.6252 11.128 75.0045 11.8428C74.3834 12.5577 73.8974 13.398 73.5366 14.3592C73.4497 14.5911 73.3729 14.8277 73.3102 15.0692C73.2477 14.8036 73.1753 14.5476 73.0935 14.3012C72.752 13.2821 72.2612 12.4176 71.6115 11.7124C70.2052 10.182 68.2428 9.54328 66.0957 9.54374C63.9419 9.5388 61.9393 10.1886 60.4985 11.6882C60.1661 12.0312 59.868 12.4128 59.6128 12.833V9.54374H56.8408V5.13886H51.9699V9.54374H44.722V11.4613C43.5907 10.1861 42.1661 9.54374 40.4431 9.54374C39.4229 9.54374 38.4892 9.74662 37.6467 10.1572C36.8045 10.5677 36.0778 11.1231 35.4666 11.8283C35.0864 12.2678 34.7591 12.7557 34.4801 13.287V9.27812C34.2825 9.23947 34.1093 9.22015 33.9553 9.22015H33.5367C32.5307 9.22015 31.6549 9.45199 30.8991 9.92051C30.1436 10.389 29.5082 11.0604 28.9885 11.9346V9.53412H21.7643V5.12921H16.8937V9.53412H15.2814V13.8521H16.8937V24.6616H21.7643V13.8521H24.1178V24.6616H28.9885V17.9141C28.9885 16.5424 29.2723 15.4991 29.8356 14.7843C30.3986 14.0694 31.2456 13.712 32.3767 13.712C32.9976 13.712 33.5798 13.8279 34.1285 14.0646C34.095 14.1419 34.066 14.224 34.0372 14.3061C33.6955 15.2479 33.5272 16.2477 33.5272 17.2958C33.5272 18.4212 33.7003 19.4596 34.0517 20.4111C34.7201 22.2386 35.9837 23.7427 37.7237 24.5408C38.566 24.932 39.4902 25.1252 40.4961 25.1252C42.2721 25.1252 43.6822 24.4296 44.722 23.0386V24.6664H49.6213V13.8569H51.9747V24.6664H56.8454V13.8569H59.0979C59.0546 13.968 59.0064 14.0743 58.9681 14.1902C58.6069 15.1707 58.4289 16.2719 58.4289 17.4938C58.4289 18.7158 58.6165 19.7446 58.9919 20.6961C59.3672 21.6476 59.9014 22.4688 60.5947 23.1545C61.2877 23.8404 62.1157 24.3717 63.0831 24.7437C64.0502 25.1155 65.1189 25.2991 66.2836 25.2991C70.0855 25.2991 72.4634 23.6231 73.4163 20.2662C73.4451 20.3483 73.4691 20.4305 73.4979 20.5077C73.8301 21.4109 74.297 22.1886 74.8985 22.8357C76.1504 24.1819 77.8731 24.9055 79.7595 24.8934C81.0025 24.9073 82.0873 24.6084 83.0852 23.879C83.4172 23.6423 83.7638 23.343 84.12 22.9807V24.3814C84.12 25.468 83.8456 26.3182 83.3019 26.9268C82.7532 27.5352 81.9684 27.8396 80.9482 27.8396C79.7452 27.8396 78.9751 27.3517 78.6335 26.3808H73.1419C73.286 27.1826 73.57 27.9218 74.0035 28.5979C77.4129 34.0359 88.3032 32.8438 88.8606 25.8159C88.9521 25.1687 88.9955 24.4344 88.9955 23.6134V11.5095L94.8432 22.6136L90.136 31.9354H95.5988C99.3575 24.473 103.116 17.006 106.875 9.54373H101.254C100.007 12.1857 98.7558 14.8277 97.5094 17.4697L97.4997 17.4697ZM44.6304 18.6385C44.1561 19.8186 43.0276 20.6883 41.7377 20.6671C39.9362 20.7129 38.5421 19.0596 38.5902 17.2958C38.5637 15.5552 39.9724 13.9718 41.7377 14.0115C44.0093 13.9531 45.5228 16.6362 44.6304 18.6385ZM64.3919 13.5236C64.8685 13.1034 65.4797 12.8958 66.2352 12.8958C66.9912 12.8958 67.5637 13.1131 68.0644 13.5526C68.5647 13.9922 68.8969 14.5717 69.0604 15.2962H63.4921C63.6172 14.5331 63.9204 13.9438 64.3919 13.5236ZM68.709 20.2711C68.17 21.1839 67.3711 21.6428 66.3124 21.6428C64.3389 21.6428 63.3526 20.527 63.3526 18.2956H73.0312C73.084 18.996 73.2143 19.6528 73.4163 20.2662H68.709V20.2711ZM84.1057 18.5419C83.6383 19.7364 82.5084 20.6038 81.2131 20.585C79.4113 20.631 78.0174 18.9777 78.0656 17.2137C78.0422 15.4861 79.4855 13.9062 81.218 13.9003C82.9754 13.8891 84.4 15.5043 84.3701 17.2427C84.3701 17.716 84.2837 18.1362 84.1153 18.5419L84.1057 18.5419ZM117.98 10.452C117.404 9.71751 116.579 9.33968 115.593 9.14306C116.156 8.79532 116.57 8.37027 116.839 7.87281C117.594 6.52546 117.332 4.00332 116.18 3.06217C115.785 2.69512 115.285 2.42945 114.688 2.26525V0H112.484V2.05273H111.083V0H108.879V2.05273H107.151V17.2333H108.879V19.3874H111.083V17.2333H112.484V19.3874H114.688V17.1511C115.02 17.1028 115.338 17.04 115.636 16.9483C118.424 16.2934 119.557 12.7571 117.98 10.452ZM114 6.39966C114 7.51538 113.302 8.07083 111.901 8.07083H111.078V4.72367H111.901C113.302 4.72367 114 5.27913 114 6.39485V6.39966ZM114.067 13.7895C113.582 14.1589 112.002 14.1996 111.078 14.1711V10.9495C112.005 10.9216 113.58 10.9611 114.067 11.3311C114.924 11.7802 114.929 13.3403 114.067 13.7895Z" fill="black"/>
</g>
<defs>
<clipPath id="clip0_1357_14705">
<rect width="119" height="32" fill="white"/>
</clipPath>
</defs>
</svg>
