<svg width="85" height="32" viewBox="0 0 85 32" fill="none" xmlns="http://www.w3.org/2000/svg">
<path d="M17.2013 10.5946H16.8255C15.8442 10.5946 15.2346 11.2023 15.2346 12.1803V20.0481C15.2346 23.7784 14.096 25.2999 11.3047 25.2999C8.51338 25.2999 7.3748 23.7714 7.3748 20.0246V12.1803C7.3748 11.2023 6.76518 10.5946 5.78399 10.5946H5.40799C4.42675 10.5946 3.81714 11.2023 3.81714 12.1803V20.0481C3.81714 25.7305 6.33638 28.6117 11.3047 28.6117C16.273 28.6117 18.7921 25.7305 18.7921 20.0481V12.1803C18.7921 11.2023 18.1825 10.5946 17.2013 10.5946Z" fill="black"/>
<path d="M23.2881 15.3693H22.9767C21.9711 15.3693 21.3466 16.0006 21.3466 17.0165V26.9648C21.3466 27.9808 21.9711 28.6121 22.9767 28.6121H23.2881C24.2936 28.6121 24.9182 27.9808 24.9182 26.9648V17.0165C24.9182 16.0006 24.2936 15.3693 23.2881 15.3693Z" fill="#FA4616"/>
<path d="M27.6017 9.21049C25.3291 8.84496 23.5356 7.04903 23.1706 4.77319C23.1637 4.73023 23.1082 4.73023 23.1013 4.77319C22.7363 7.04903 20.9428 8.84496 18.6701 9.21049C18.6272 9.2174 18.6272 9.27309 18.6701 9.27999C20.9428 9.64547 22.7363 11.4415 23.1013 13.7173C23.1082 13.7603 23.1637 13.7603 23.1706 13.7173C23.5356 11.4415 25.3291 9.64547 27.6017 9.27999C27.6447 9.27309 27.6447 9.2174 27.6017 9.21049ZM25.3689 9.26265C24.2325 9.44538 23.3358 10.3433 23.1533 11.4813C23.1499 11.5028 23.1221 11.5028 23.1186 11.4813C22.9361 10.3433 22.0394 9.44538 20.903 9.26265C20.8816 9.25916 20.8816 9.23132 20.903 9.22789C22.0394 9.0451 22.9361 8.14714 23.1186 7.00923C23.1221 6.98773 23.1499 6.98773 23.1533 7.00923C23.3358 8.14714 24.2325 9.0451 25.3689 9.22789C25.3903 9.23132 25.3903 9.25916 25.3689 9.26265Z" fill="#FA4616"/>
<path d="M28.9631 5.65745C27.8267 5.84019 26.9301 6.73817 26.7475 7.87613C26.7441 7.89758 26.7163 7.89758 26.7129 7.87613C26.5303 6.73817 25.6336 5.84019 24.4973 5.65745C24.4758 5.65401 24.4758 5.62616 24.4973 5.62271C25.6336 5.43994 26.5303 4.54198 26.7129 3.40404C26.7163 3.38257 26.7441 3.38257 26.7475 3.40404C26.9301 4.54198 27.8267 5.43994 28.9631 5.62271C28.9845 5.62616 28.9845 5.65401 28.9631 5.65745Z" fill="#FA4616"/>
<path d="M32.7275 10.5946H29.2608C28.2691 10.5946 27.653 11.2088 27.653 12.1973V27.009C27.653 27.9976 28.2691 28.6117 29.2608 28.6117H29.6408C30.6325 28.6117 31.2486 27.9976 31.2486 27.009V23.503H32.7512C38.7671 23.503 41.221 21.6331 41.221 17.0488C41.221 12.4645 38.7602 10.5946 32.7275 10.5946ZM37.5779 17.0015C37.5779 19.3599 36.4557 20.1557 33.131 20.1557H31.2486V13.8708H33.131C36.4557 13.8708 37.5779 14.6607 37.5779 17.0015Z" fill="black"/>
<path d="M54.5739 13.9283H54.2889C53.2972 13.9283 52.6812 14.5425 52.6812 15.531V15.5331C51.6626 14.3574 50.0851 13.6681 48.2818 13.6681C46.4447 13.6681 44.7835 14.3409 43.604 15.5628C42.3194 16.8934 41.6404 18.8138 41.6404 21.1163C41.6404 23.4288 42.3234 25.3603 43.6155 26.702C44.8017 27.9335 46.4673 28.6118 48.3056 28.6118C50.0746 28.6118 51.6639 27.9138 52.6824 26.7552C52.6825 26.7564 52.6825 27.0892 52.6825 27.0904C52.7156 28.0312 53.3247 28.6118 54.2889 28.6118H54.5739C55.5657 28.6118 56.1818 27.9977 56.1818 27.0093V15.531C56.1818 14.5425 55.5657 13.9283 54.5739 13.9283ZM52.7524 21.1163C52.7524 23.8209 51.3032 25.5012 48.9704 25.5012C46.6083 25.5012 45.141 23.8209 45.141 21.1163C45.141 18.426 46.5901 16.755 48.9229 16.755C51.2492 16.755 52.7524 18.467 52.7524 21.1163Z" fill="black"/>
<path d="M75.2736 13.6823C73.412 13.6823 72.0833 14.4215 71.2518 15.353V12.1983C71.2518 11.2092 70.6355 10.5946 69.6429 10.5946H69.3578C68.3657 10.5946 67.7489 11.2092 67.7489 12.1983V27.0081C67.7489 27.9972 68.3657 28.6117 69.3578 28.6117H69.6429C70.6355 28.6117 71.2518 27.9972 71.2518 27.0081V21.064C71.2518 17.2587 73.0726 16.8186 74.4421 16.8186C76.7421 16.8186 77.6799 17.9595 77.6799 20.7563V27.0081C77.6799 27.9972 78.2967 28.6117 79.2888 28.6117H79.574C80.5666 28.6117 81.1828 27.9972 81.1828 27.0081V20.5431C81.1828 15.9264 79.2502 13.6823 75.2736 13.6823Z" fill="black"/>
<path d="M66.7418 26.7991C66.6926 26.3224 66.4063 25.6414 65.043 25.6414C63.4313 25.6414 62.6641 25.1407 62.6641 22.2955V16.8186H65.0665C66.0574 16.8186 66.6731 16.2585 66.6731 15.3571C66.6731 14.4703 66.0574 13.9192 65.0665 13.9192H62.6669V12.1983C62.6669 11.2092 62.0467 10.5946 61.0485 10.5946H60.7617C59.7635 10.5946 59.1431 11.2092 59.1431 12.1983V13.9192H58.5908C57.7171 13.9192 57.1743 14.4703 57.1743 15.3571C57.1743 16.2585 57.7899 16.8186 58.7806 16.8186H59.1431V22.6034C59.1431 26.8149 60.7868 28.6117 64.6398 28.6117C64.6459 28.6117 64.6521 28.6116 64.6582 28.6114C64.8825 28.6112 65.1224 28.6077 65.3668 28.586C65.8527 28.5401 66.2201 28.3694 66.4589 28.0781C66.6966 27.7882 66.7916 27.2789 66.7418 26.7991Z" fill="black"/>
</svg>
