<svg width="147" height="30" viewBox="0 0 147 30" fill="none" xmlns="http://www.w3.org/2000/svg">
<path d="M46.5353 11.8407V18.7438H45.1286C43.256 18.7438 41.7169 17.0134 41.7169 15.1091C41.7991 11.9047 42.1736 8.29297 37.8165 7.89471C37.7434 14.07 36.7158 22.1907 45.124 22.6943H46.1516C45.9432 23.4083 45.5128 24.037 44.923 24.4887C44.3322 24.9362 43.6129 25.1802 42.8724 25.1845C41.8893 25.2597 40.9708 25.7045 40.301 26.4297C39.6103 27.1678 39.225 28.1413 39.2232 29.1534C54.1716 30.5679 49.4537 17.5261 50.1844 7.91302C49.2034 7.98284 48.2842 8.41898 47.6085 9.13526C46.9237 9.86947 46.5404 10.8356 46.5353 11.8407Z" fill="#0451BF"/>
<path d="M143.236 15.2968C143.072 5.56009 128.763 5.56009 128.621 15.2968C128.434 21.2203 135.71 24.8687 140.263 21.2706C140.628 21.715 141.084 22.0743 141.601 22.3235C142.118 22.5705 142.683 22.6987 143.255 22.6988V15.2968H143.236ZM135.929 18.7529C135.48 18.7502 135.037 18.6585 134.624 18.4834C134.211 18.3082 133.836 18.0528 133.522 17.7321C132.881 17.0838 132.521 16.2092 132.517 15.2968C132.54 10.7786 139.318 10.7832 139.341 15.2968C139.337 16.2092 138.976 17.0838 138.336 17.7321C138.021 18.0539 137.645 18.3099 137.23 18.4851C136.815 18.6603 136.37 18.7514 135.92 18.7529H135.929Z" fill="#0451BF"/>
<path d="M90.7914 11.8407C95.2536 11.8635 95.2536 18.7071 90.7914 18.7529C86.3293 18.7987 86.3247 11.8635 90.7914 11.8407ZM90.7914 7.89014C81.1683 8.05951 81.1683 22.5386 90.7914 22.7034C100.41 22.5341 100.405 8.05493 90.7914 7.89014Z" fill="#0451BF"/>
<path d="M58.7982 11.8407C63.2649 11.8635 63.2604 18.7071 58.7982 18.7529C54.3361 18.7987 54.3361 11.8635 58.7982 11.8407ZM58.7982 7.89014C49.1797 8.05951 49.1797 22.5386 58.7982 22.7034C68.4213 22.5341 68.4213 8.05493 58.7982 7.89014Z" fill="#0451BF"/>
<path d="M82.1138 15.2968C81.9493 5.56009 67.6403 5.56009 67.4759 15.2968C67.3343 20.7488 73.5411 24.4841 78.2088 21.8291C78.1817 22.7182 77.8123 23.5622 77.1779 24.1844C76.5436 24.8065 75.6937 25.1583 74.8062 25.1662C73.8124 25.2318 72.8811 25.6756 72.2029 26.4067C71.5125 27.1535 71.1305 28.1352 71.1342 29.1533C76.4915 29.6706 81.7986 28.1737 82.0955 21.8291L82.1138 15.2968ZM74.8062 18.7529C73.8999 18.7473 73.0328 18.3818 72.3948 17.7367C71.7547 17.0861 71.3941 16.2104 71.39 15.2968C71.39 10.7786 78.1951 10.7832 78.2179 15.2968C78.2146 16.2092 77.8537 17.0838 77.2132 17.7321C76.8977 18.0537 76.5217 18.3095 76.107 18.4848C75.6923 18.66 75.2471 18.7511 74.7971 18.7529H74.8062Z" fill="#0451BF"/>
<path d="M107.991 12.2938C108.17 12.3991 108.485 12.6372 108.485 12.6372C108.402 12.5777 108.325 12.509 108.247 12.4449C108.937 13.0424 109.777 13.4404 110.676 13.596C111.574 13.7517 112.498 13.6591 113.349 13.3284C111.522 6.11401 100.885 6.22388 99.1904 13.4703L107.745 18.4142C107.156 18.6937 106.5 18.7986 105.854 18.7163C105.208 18.6331 104.598 18.3681 104.096 17.9518L104.329 18.1487C103.641 17.5522 102.806 17.1537 101.911 16.9957C101.015 16.8377 100.094 16.9261 99.2452 17.2515C101.072 24.4658 111.709 24.356 113.404 17.105L104.835 12.1748C105.332 11.9375 105.878 11.8244 106.428 11.8451C106.978 11.8658 107.514 12.0198 107.991 12.2938Z" fill="#0451BF"/>
<path d="M127.242 15.2877C127.24 13.3278 126.467 11.4479 125.091 10.0554C124.415 9.36969 123.61 8.82524 122.722 8.45357C121.835 8.0819 120.883 7.8904 119.921 7.89017H118.514V0.89093C117.52 0.962664 116.591 1.41117 115.916 2.14521C115.238 2.88131 114.86 3.84474 114.856 4.84603V22.6989C115.846 22.6301 116.774 22.1866 117.45 21.4583C118.129 20.7267 118.509 19.7659 118.514 18.7667V11.8361H119.921C120.827 11.8418 121.694 12.2072 122.332 12.8523C122.972 13.5012 123.333 14.3754 123.337 15.2877C123.228 18.492 122.995 22.4883 127.238 22.6943V15.2877H127.242Z" fill="#0451BF"/>
<path d="M16.0081 4.81857C13.588 4.80929 11.2195 5.51984 9.20242 6.8603C7.18537 8.20075 5.61041 10.1108 4.67689 12.3488C3.7496 14.5805 3.50634 17.0384 3.97811 19.4092C4.44988 21.78 5.61532 23.9563 7.32586 25.6606C8.60713 26.9391 10.1547 27.9178 11.8577 28.5263C13.5606 29.1349 15.3768 29.3584 17.1761 29.1808C18.9754 29.0032 20.7132 28.4288 22.2649 27.4989C23.8167 26.569 25.1441 25.3066 26.1518 23.8021C27.7202 21.4551 28.4257 18.6346 28.1474 15.8236C27.8691 13.0126 26.6244 10.386 24.6264 8.39372C22.3348 6.11201 19.2383 4.82748 16.0081 4.81857ZM25.316 17.0135C25.3235 19.1666 24.5859 21.2558 23.2287 22.925C21.8716 24.5941 19.979 25.74 17.8735 26.1672C15.7679 26.5945 13.5797 26.2768 11.6816 25.2681C9.78361 24.2595 8.29326 22.6225 7.46454 20.6359C6.63583 18.6494 6.52003 16.4363 7.13688 14.3737C7.75373 12.3112 9.06506 10.5269 10.8474 9.32479C12.6298 8.12272 14.7728 7.57731 16.9114 7.78148C19.0501 7.98566 21.0519 8.92679 22.5757 10.4445C23.4421 11.3042 24.1303 12.3272 24.6006 13.4546C25.0709 14.582 25.314 15.7915 25.316 17.0135Z" fill="#0451BF"/>
<path d="M21.0548 12.2389C21.056 12.0928 21.0182 11.9489 20.9452 11.8224C20.8712 11.6955 20.7658 11.5899 20.6392 11.5157L18.8717 10.4949C18.7434 10.4227 18.5987 10.3848 18.4515 10.3848C18.3044 10.3848 18.1597 10.4227 18.0313 10.4949L15.9624 11.6896L13.8889 10.4949C13.7615 10.4244 13.6187 10.3867 13.4733 10.385C13.3265 10.3872 13.1823 10.4249 13.0531 10.4949L11.2856 11.5157C11.2021 11.5667 11.1266 11.6299 11.0618 11.7034L11.0253 11.7583C10.9568 11.8521 10.91 11.96 10.8883 12.0741C10.8654 12.1874 10.8654 12.3042 10.8883 12.4175C10.9133 12.5322 10.9632 12.6401 11.0344 12.7333C11.1012 12.8281 11.1887 12.9064 11.2902 12.9622L15.5468 15.4204C15.6743 15.4926 15.8182 15.5306 15.9647 15.5306C16.1111 15.5306 16.2551 15.4926 16.3826 15.4204L20.6621 12.9576C20.7875 12.8839 20.8926 12.7801 20.9681 12.6555C21.0404 12.5287 21.0782 12.385 21.0777 12.2389H21.0548Z" fill="#0451BF"/>
<path d="M21.845 15.0084L17.5883 17.4621C17.4644 17.5361 17.3608 17.6399 17.2869 17.7642C17.2138 17.8909 17.1744 18.0344 17.1727 18.1807V23.0605C17.1732 23.1705 17.1949 23.2793 17.2367 23.381C17.2775 23.482 17.3381 23.5738 17.4148 23.651C17.4922 23.7297 17.5847 23.7918 17.6868 23.8335C17.7889 23.8752 17.8983 23.8957 18.0085 23.8937C18.1544 23.8949 18.2979 23.8569 18.4241 23.7838L20.2053 22.7447C20.3317 22.6722 20.4372 22.5681 20.5113 22.4425C20.5851 22.3144 20.6244 22.1693 20.6255 22.0214V19.6868L22.6945 18.492C22.8209 18.4196 22.9263 18.3155 23.0005 18.1899C23.0728 18.0631 23.1106 17.9194 23.1101 17.7733V15.7317C23.1109 15.5851 23.0728 15.4408 22.9998 15.3138C22.9268 15.1867 22.8214 15.0813 22.6945 15.0084C22.5663 14.9359 22.4215 14.8981 22.2743 14.8986C22.1285 14.898 21.9852 14.9359 21.8587 15.0084H21.845Z" fill="#0451BF"/>
<path d="M14.4279 17.2973L10.1575 14.8436C10.0518 14.7846 9.93532 14.7473 9.81501 14.7338C9.69254 14.7251 9.56962 14.7422 9.4542 14.7841C9.3393 14.8248 9.23481 14.8905 9.14819 14.9764C9.06453 15.0648 8.99931 15.1691 8.95637 15.2831C8.92383 15.3742 8.90684 15.4701 8.90613 15.5669V17.604C8.9056 17.7501 8.9434 17.8937 9.01575 18.0205C9.09176 18.1459 9.19671 18.251 9.32175 18.3272L11.4044 19.5403V21.9024C11.4053 22.0486 11.4447 22.192 11.5184 22.3181C11.5922 22.4443 11.6978 22.5488 11.8246 22.6211L13.5921 23.6419C13.7196 23.7141 13.8635 23.752 14.01 23.752C14.1564 23.752 14.3004 23.7141 14.4279 23.6419C14.5544 23.5681 14.6597 23.4627 14.7333 23.3359C14.807 23.2091 14.8465 23.0653 14.8481 22.9186V18.0205C14.8469 17.8726 14.8076 17.7275 14.7339 17.5994C14.6597 17.4738 14.5543 17.3697 14.4279 17.2973Z" fill="#0451BF"/>
</svg>
