<svg xmlns="http://www.w3.org/2000/svg" version="1.1" xmlns:xlink="http://www.w3.org/1999/xlink" width="546" height="546"><svg width="546" height="546" viewBox="0 0 546 546" fill="none" xmlns="http://www.w3.org/2000/svg">
<path d="M405.466 150.997C486.471 142.62 527 207.044 527 207.044C504.9 162.326 459.398 131.583 407.008 131.583C332.997 131.583 272.788 192.896 272.788 268.29C272.788 343.684 332.997 404.983 407.008 404.983C435.5 404.994 463.23 395.775 486.045 378.708V344.136C475.997 355.092 463.784 363.843 450.179 369.835C436.575 375.827 421.874 378.93 407.008 378.947C347.171 378.947 298.411 329.336 298.411 268.356C298.411 207.376 345.829 157.154 405.466 150.997Z" fill="#4E2087"></path>
<path d="M406.198 419.703C424.442 419.726 442.584 416.991 460.011 411.592C434.763 426.433 406.042 434.341 376.756 434.513C347.47 434.685 318.658 427.116 293.237 412.572C267.817 398.028 246.691 377.026 231.998 351.691C217.305 326.357 209.566 297.59 209.566 268.303C209.566 239.016 217.305 210.25 231.998 184.915C246.691 159.581 267.817 138.578 293.237 124.034C318.658 109.491 347.47 101.922 376.756 102.094C406.042 102.266 434.763 110.173 460.011 125.015C442.586 119.608 424.442 116.874 406.198 116.904C314.448 116.904 239.985 184.718 239.985 268.303C239.985 351.888 314.409 419.703 406.198 419.703Z" fill="#4E2087"></path>
<path d="M261.593 471.362C155.576 454.169 75.0757 369.786 75.0757 268.277C75.0757 166.767 155.576 82.4113 261.593 65.2183C171.732 96.7986 108.026 175.796 108.026 268.277C108.026 360.757 171.732 439.781 261.593 471.362Z" fill="#4E2087"></path>
<path d="M182.915 464.833C86.1259 448.185 12.6201 366.528 12.6201 268.277C12.6201 170.025 86.1259 88.3949 182.915 71.7471C100.872 102.33 42.7112 178.775 42.7112 268.277C42.7112 357.779 100.872 434.263 182.915 464.833Z" fill="#4E2087"></path>
<path d="M372.795 449.501C386.925 449.52 401.022 448.14 414.88 445.379C389.803 456.774 362.576 462.668 335.032 462.666C228.244 462.666 141.348 375.477 141.348 268.29C141.348 161.103 228.244 73.9146 334.992 73.9146C362.557 73.923 389.802 79.8164 414.907 91.2006C401.025 88.4539 386.906 87.0777 372.755 87.0919C263.574 87.0919 174.736 168.376 174.736 268.29C174.736 368.204 263.614 449.501 372.795 449.501Z" fill="#4E2087"></path>
</svg><style>@media (prefers-color-scheme: light) { :root { filter: none; } }
@media (prefers-color-scheme: dark) { :root { filter: contrast(0.5405405405405405) brightness(3); } }
</style></svg>