<svg width="88" height="28" viewBox="0 0 88 28" fill="none" xmlns="http://www.w3.org/2000/svg">
<g clip-path="url(#clip0_624_14706)">
<path d="M30.1795 7.5063C30.1795 7.41205 30.259 7.33833 30.3474 7.33833H30.9099C31.0041 7.33833 31.0924 7.41205 31.0924 7.5063V8.09234C31.0924 8.17184 31.0041 8.24557 30.9099 8.24557H30.3474C30.259 8.24557 30.1795 8.17184 30.1795 8.09234V7.5063ZM4.80022 19.8543L6.35219 15.5371L7.47126 12.7276L8.56382 15.5371L10.0775 19.8543H4.80022ZM9.10274 11.2964C8.88482 10.8282 8.78174 10.5661 8.10735 10.5661H6.81454C6.21967 10.5661 6.01646 10.8282 5.83977 11.2964C5.70135 11.6704 0.282715 25.594 0.282715 25.594C0.282715 25.594 0.282716 26.0563 0.803963 26.0563H2.18807C2.49435 26.0563 2.63276 25.7265 2.63276 25.7265L4.13467 21.6036H10.8108L12.295 25.7265C12.295 25.7265 12.4275 26.0563 12.7485 26.0563H14.0679C14.6304 26.0563 14.6303 25.594 14.6303 25.594C14.6303 25.594 9.24999 11.6704 9.10274 11.2964ZM55.3792 24.1598H51.9248V18.8678H55.3792C57.0136 18.8678 57.9942 19.9869 57.9942 21.5447C57.9942 23.1644 57.0136 24.1598 55.3792 24.1598ZM51.9248 12.4538H55.1229C56.5601 12.4538 57.473 13.4433 57.473 14.8274C57.473 16.1231 56.5601 17.089 55.1229 17.089H51.9248V12.4538ZM57.6644 17.8724C58.916 17.3659 59.6935 16.1231 59.6935 14.5623C59.6935 11.9914 57.794 10.5661 55.1229 10.5661H50.4082C49.8398 10.5661 49.7072 11.1669 49.7072 11.2964V25.3967C49.7072 25.5939 49.7073 26.0563 50.4082 26.0563H55.2466C57.9943 26.0563 60.2118 24.6133 60.2118 21.6036C60.2118 19.9869 59.2812 18.4143 57.6644 17.8724ZM46.032 22.7021C45.8553 22.3869 45.5785 22.5196 45.4047 22.7021C44.7451 23.294 43.1843 24.2746 41.0845 24.2746C37.6832 24.2746 35.3302 21.5447 35.3302 18.2022C35.3302 15.01 37.5506 12.3537 40.955 12.3537C42.7749 12.3537 44.0795 13.0545 44.8481 13.5758C45.4047 13.9115 45.5284 13.9115 45.8553 13.5758C46.032 13.243 46.3029 12.7924 46.3029 12.7924C46.3029 12.7924 46.6269 12.3537 46.3029 12.1269C45.5284 11.6263 43.7409 10.3746 40.955 10.3746C36.4434 10.3746 33.1126 13.7642 33.1126 18.2022C33.1126 22.7021 36.299 26.2301 40.955 26.2301C43.9617 26.2301 45.8553 24.8018 46.6269 24.1598C46.9626 23.9478 46.8242 23.7504 46.6916 23.4854C46.6269 23.3764 46.3029 22.9789 46.032 22.7021ZM22.1487 24.1598H19.3952V12.4538H22.1487C25.6826 12.4538 27.9031 14.5623 27.9031 18.3495C27.9031 22.0512 25.6826 24.1598 22.1487 24.1598ZM22.4196 10.5661H17.8373C17.6989 10.5661 17.3102 10.6986 17.3102 11.2964V25.3967C17.3102 26.0563 17.8373 26.0563 17.8373 26.0563H22.4196C27.0461 26.0563 30.2443 23.1644 30.2443 18.3495C30.2443 13.4433 27.0461 10.5661 22.4196 10.5661ZM3.1687 8.13649C3.1687 8.03926 3.24821 7.98326 3.33656 7.98326H3.83425C3.91376 7.98326 3.99621 8.03926 3.99621 8.13649V8.65484C3.99621 8.73733 3.91374 8.80206 3.83425 8.80206H3.33657C3.24822 8.80206 3.1687 8.73733 3.1687 8.65484L3.1687 8.13649ZM1.81404 8.13649C1.81404 8.03926 1.88761 7.98326 1.9819 7.98326H2.46487C2.55912 7.98326 2.63273 8.03926 2.63273 8.13649V8.65484C2.63273 8.73733 2.55322 8.80206 2.46487 8.80206H1.9819C1.88766 8.80206 1.81404 8.73733 1.81404 8.65484V8.13649ZM0.627233 5.1651C0.627233 4.94424 0.671403 4.51131 0.7303 4.1962C0.753829 4.08721 0.774479 4.05197 0.883446 4.05197H1.44886C1.52838 4.05197 1.57256 4.09622 1.57256 4.19046C1.54903 4.40246 1.52839 4.64396 1.52839 4.78237C1.52839 5.80131 1.69625 6.5611 3.00674 6.5611C3.26883 6.5611 3.48381 6.54827 3.68701 6.51685C3.71054 6.02799 3.71054 5.80126 3.71054 5.40663V4.7617C3.71054 3.64262 4.37609 3.1361 5.63357 3.1361C5.97812 3.1361 6.40219 3.17434 6.67607 3.23033C6.75559 3.25384 6.79976 3.28335 6.79976 3.37759V6.54927C6.79976 6.63475 6.74089 6.7025 6.6525 6.7025H6.00756C5.92804 6.7025 5.86914 6.63475 5.86914 6.54927V4.02253C5.69538 4.00116 5.62178 3.99302 5.48042 3.99302C4.92384 3.99302 4.64112 4.20502 4.64112 4.85V6.05743C4.64112 6.40786 4.63236 6.86137 4.6087 7.20887C4.6087 7.29436 4.55865 7.34437 4.44966 7.36787C4.04031 7.43263 3.51318 7.47685 2.98604 7.47685C1.30744 7.47685 0.627233 6.67878 0.627233 5.1651ZM7.0677 7.74189C7.0677 7.66817 7.11482 7.62992 7.19431 7.62992H7.34745C7.89815 7.62992 8.09547 7.57991 8.09547 6.97908V3.40104C8.09547 3.31855 8.15142 3.25978 8.23976 3.25978H8.87881C8.95833 3.25978 9.01722 3.31855 9.01722 3.40104V6.8701C9.01722 7.24118 8.9937 7.58576 8.84936 7.87142C8.6226 8.28959 8.2486 8.44272 7.63311 8.44272C7.55359 8.44272 7.29738 8.44273 7.1737 8.42136C7.106 8.40426 7.06768 8.36237 7.06768 8.2801L7.0677 7.74189ZM10.0921 1.27783C10.0921 1.19833 10.1599 1.13057 10.2453 1.13057H10.899C10.9933 1.13057 11.0433 1.19833 11.0433 1.27783V5.39186C11.0433 5.72169 11.1817 5.76291 11.4556 5.76291H11.6971V6.70233H11.1817C10.5162 6.70233 10.0921 6.5256 10.0921 5.66867V1.27783ZM13.2314 7.50633C13.2314 7.41209 13.3139 7.33833 13.4022 7.33833H13.9647C14.0589 7.33833 14.1473 7.41209 14.1473 7.50633V8.09234C14.1473 8.17184 14.0589 8.24557 13.9647 8.24557H13.4022C13.3139 8.24557 13.2314 8.17184 13.2314 8.09234V7.50633ZM11.6971 6.70233C11.5793 6.70233 11.4556 6.64935 11.4556 6.61409V5.85428C11.4556 5.80128 11.5852 5.76291 11.6971 5.76291L14.8806 5.76304L14.536 5.00326C14.2503 4.38188 13.7526 3.98431 12.8221 3.98431C12.7573 3.98431 12.5364 3.99285 12.4274 4.0014C12.3244 4.00781 12.2743 3.9719 12.2743 3.88065V3.34173C12.2743 3.26821 12.3244 3.22397 12.4215 3.20046C12.663 3.15046 12.8809 3.1357 13.1372 3.1357C14.2062 3.1357 14.9748 3.56272 15.5608 4.88499C15.714 5.23542 15.8524 5.58882 15.9054 5.66245C15.9554 5.74194 15.9908 5.76268 16.0732 5.76268H16.1468V6.7021L11.6971 6.70233ZM17.9315 2.00813C17.9315 1.91389 18.0198 1.84039 18.1082 1.84039H18.6206C18.7148 1.84039 18.7885 1.91389 18.7885 2.00813V2.57947C18.7885 2.66773 18.7148 2.74147 18.6206 2.74147H18.1082C18.0198 2.74147 17.9315 2.66773 17.9315 2.57947V2.00813ZM16.5768 2.00813C16.5768 1.91389 16.6593 1.84039 16.7535 1.84039H17.2601C17.3543 1.84039 17.4426 1.91389 17.4426 2.00813V2.57947C17.4426 2.66773 17.3484 2.74147 17.2601 2.74147H16.7535C16.6593 2.74147 16.5768 2.66773 16.5768 2.57947V2.00813ZM15.8907 5.85422C15.8907 5.80122 16.0202 5.76298 16.1321 5.76298H16.8124C16.9803 5.76298 17.2365 5.7416 17.2365 5.51561V3.40114C17.2365 3.31865 17.2954 3.25991 17.3837 3.25991H18.0198C18.0994 3.25991 18.1583 3.31865 18.1583 3.40114V5.63926C18.2171 5.74227 18.5028 5.76301 18.6353 5.76301H18.8091V6.70243H18.7207C18.3497 6.70243 17.9403 6.6582 17.6841 6.45213C17.4132 6.64361 16.9862 6.70243 16.674 6.70243H16.1321C16.0203 6.70243 15.8907 6.67293 15.8907 6.61416V5.85422ZM18.5676 5.85422C18.5676 5.80122 18.7001 5.76301 18.8091 5.76301L19.454 5.76298C19.6896 5.76298 19.7397 5.75655 19.7397 5.52148V1.28373C19.7397 1.19825 19.8074 1.13051 19.8869 1.13051H20.5525C20.632 1.13051 20.6909 1.19825 20.6909 1.28373V5.53622C20.6909 5.80125 20.6849 6.1458 20.6555 6.40791C20.632 6.50514 20.6025 6.56989 20.4876 6.6199C20.2756 6.67867 19.6748 6.7024 19.2802 6.7024L18.8091 6.70243C18.7001 6.70243 18.5676 6.67289 18.5676 6.61413L18.5676 5.85422ZM21.6274 1.27783C21.6274 1.19833 21.6862 1.13057 21.7746 1.13057H22.4343C22.5226 1.13057 22.5815 1.19833 22.5815 1.27783V6.54924C22.5815 6.62873 22.5226 6.70243 22.4343 6.70243H21.7746C21.6863 6.70243 21.6274 6.62873 21.6274 6.54924V1.27783ZM27.3965 8.13652C27.3965 8.03929 27.476 7.98329 27.5584 7.98329H28.0561C28.1356 7.98329 28.2181 8.03929 28.2181 8.13652V8.65484C28.2181 8.73733 28.1356 8.8021 28.0561 8.8021H27.5584C27.476 8.8021 27.3965 8.73733 27.3965 8.65484V8.13652ZM26.0359 8.13652C26.0359 8.03929 26.1154 7.98329 26.2038 7.98329H26.6926C26.781 7.98329 26.8605 8.03929 26.8605 8.13652V8.65484C26.8605 8.73733 26.7751 8.8021 26.6926 8.8021H26.2038C26.1154 8.8021 26.0359 8.73733 26.0359 8.65484V8.13652ZM24.8579 5.1651C24.8579 4.95011 24.8933 4.51132 24.9522 4.19623C24.9669 4.10199 25.0169 4.05197 25.0994 4.05197H25.6619C25.7561 4.05197 25.7944 4.09622 25.7856 4.19046C25.7651 4.40246 25.7502 4.64398 25.7502 4.78237C25.7502 5.80131 25.9181 6.56114 27.2286 6.56114C27.4907 6.56114 27.7027 6.5483 27.9088 6.51689C27.9294 6.02802 27.9294 5.80126 27.9294 5.40663V4.76173C27.9294 3.64855 28.6037 3.13613 29.8112 3.13613C30.1999 3.13613 30.6092 3.18036 30.8654 3.23037C30.9479 3.25387 30.9921 3.28335 30.9921 3.37759V5.50974C30.9921 5.72173 31.0716 5.76298 31.3278 5.76298H31.6635V6.7024H31.0863C30.4119 6.7024 30.0615 6.54042 30.0615 5.77772V4.02253C29.9142 4.00116 29.8406 3.99305 29.7022 3.99305C29.1456 3.99305 28.86 4.20506 28.86 4.85004V6.05743C28.86 6.40789 28.854 6.8614 28.8305 7.20891C28.8305 7.29439 28.7804 7.3444 28.6685 7.36791C28.2592 7.43266 27.7409 7.47688 27.2049 7.47688C25.5292 7.47688 24.8579 6.6788 24.8579 5.1651ZM36.1516 5.78649C36.2753 5.78649 36.2988 5.704 36.2988 5.30352V5.19454C36.2988 4.2993 35.8806 4.01362 34.9206 4.01362C34.5908 4.01362 33.9193 4.05785 33.5512 4.32872V5.77175C33.7809 5.77816 34.0577 5.78672 34.4317 5.78672L36.1516 5.78649ZM31.5015 5.89547C31.5015 5.81597 31.5693 5.76298 31.6488 5.76298H32.6V1.28377C32.6 1.19828 32.6589 1.13054 32.7472 1.13054H33.4128C33.4952 1.13054 33.5512 1.19828 33.5512 1.28377V3.51599C34.0636 3.16555 34.8205 3.12432 35.1621 3.12432C36.4137 3.12432 37.2206 3.63379 37.2206 5.0827V5.38309C37.2206 5.70409 37.1911 6.16054 37.1234 6.45209C37.1029 6.54933 37.0439 6.64357 36.8907 6.66408C36.6198 6.70234 35.5273 6.70233 35.112 6.70233H31.6488C31.5693 6.70233 31.5016 6.64934 31.5016 6.56984L31.5015 5.89547ZM34.629 1.64892C34.629 1.55467 34.7086 1.48395 34.8028 1.48395H35.383C35.4683 1.48395 35.5449 1.55467 35.5449 1.64892V2.22022C35.5449 2.30848 35.4683 2.38222 35.3741 2.38222H34.8028C34.6938 2.38222 34.629 2.30848 34.629 2.22022L34.629 1.64892ZM39.4234 4.97372C39.4234 5.53031 39.6501 5.79536 40.1979 5.79536H40.7486V4.00779C40.6102 3.99283 40.457 3.98428 40.301 3.98428C39.7473 3.98428 39.4234 4.31708 39.4234 4.87955V4.97372ZM38.7725 7.73309C38.7725 7.6506 38.8167 7.60937 38.9021 7.60937H39.5706C40.3304 7.60937 40.7339 7.47687 40.7339 6.92026V6.70233H40.1979C39.1377 6.70233 38.5016 6.15163 38.5016 5.09147V4.94421C38.5016 3.7957 39.2025 3.13606 40.4629 3.13606C40.8369 3.13606 41.3346 3.18605 41.5378 3.25978C41.635 3.29803 41.6645 3.31855 41.6645 3.40104V5.76288H42.3065V6.7023H41.6468V6.94967C41.5526 8.1512 40.7692 8.44275 39.7679 8.44275C39.6001 8.44275 38.9993 8.44275 38.8874 8.4045C38.7932 8.38313 38.7725 8.34851 38.7725 8.26901L38.7725 7.73309ZM42.7835 7.50636C42.7835 7.41212 42.863 7.3384 42.9514 7.3384H43.5168C43.6111 7.3384 43.6994 7.41212 43.6994 7.50636V8.09237C43.6994 8.17187 43.6111 8.2456 43.5168 8.2456H42.9514C42.863 8.2456 42.7835 8.17187 42.7835 8.09237V7.50636ZM42.2858 6.7024C42.1739 6.7024 42.0443 6.67289 42.0443 6.61413V5.85431C42.0443 5.80132 42.1739 5.76307 42.2858 5.76307H43.0397C43.2724 5.76307 43.3313 5.75665 43.3313 5.52158V4.38191C43.3313 4.08152 43.3225 3.75169 43.3165 3.40124C43.3165 3.31875 43.3754 3.25998 43.4638 3.25998H44.0793C44.1882 3.25998 44.2324 3.31875 44.2383 3.40124C44.247 3.71634 44.253 3.94016 44.253 4.15515V5.10637C44.253 5.72774 44.253 6.1459 44.2236 6.40801C44.203 6.50524 44.1735 6.56999 44.0557 6.62C43.8525 6.67898 43.2723 6.7025 42.8777 6.7025L42.2858 6.7024ZM45.54 2.29385C45.54 2.21435 45.6018 2.14959 45.6902 2.14959H46.3469C46.4352 2.14959 46.4941 2.21435 46.4941 2.29385V6.54924C46.4941 6.62873 46.4352 6.70246 46.3469 6.70246H45.6902C45.6018 6.70246 45.54 6.62873 45.54 6.54924V2.29385ZM45.4104 1.6872C45.3309 1.6872 45.2926 1.6577 45.2926 1.59893V1.38694C45.2926 1.33693 45.3309 1.31341 45.4104 1.31341H45.5488C45.4693 1.19843 45.4339 1.04543 45.4339 0.895234C45.4339 0.485885 45.6754 0.282715 46.1643 0.282715C46.2438 0.282715 46.391 0.289107 46.5088 0.326932C46.5618 0.333343 46.5884 0.362218 46.5884 0.397693V0.597909C46.5884 0.647916 46.5618 0.671637 46.4941 0.671637H46.2379C45.9817 0.671637 45.8727 0.751154 45.8727 0.963191C45.8727 1.13116 45.9375 1.25473 46.0259 1.30773H46.5383C46.6178 1.30773 46.6561 1.3291 46.6561 1.38146V1.59938C46.6561 1.65815 46.6178 1.68766 46.5383 1.68766L45.4104 1.6872ZM50.5787 3.79577C50.5787 3.737 50.6229 3.7075 50.7112 3.7075H50.8202C50.7613 3.61325 50.723 3.43658 50.723 3.29816C50.723 2.82109 51.0234 2.56486 51.5505 2.56486C51.6389 2.56486 51.7802 2.57342 51.9157 2.60911C51.9834 2.62407 52.0129 2.66808 52.0129 2.73583V2.9979C52.0129 3.06265 51.9834 3.09217 51.9157 3.09217C51.8598 3.09217 51.6831 3.07932 51.6242 3.07932C51.4003 3.07932 51.2943 3.20009 51.2943 3.38268C51.2943 3.53591 51.362 3.65656 51.4121 3.68601H51.9599C52.0483 3.68601 52.0954 3.72127 52.0954 3.78602V4.08641C52.0954 4.15415 52.0483 4.18939 51.9599 4.18939H50.7113C50.623 4.18939 50.5788 4.15415 50.5788 4.08641L50.5787 3.79577ZM49.5303 4.38768C49.6128 4.38768 49.6569 4.43192 49.6569 4.52617C49.6482 4.63516 49.6482 4.8059 49.6482 4.85597C49.6482 5.5598 49.9986 5.76304 50.9734 5.76304H52.7463C52.92 5.76304 53.1615 5.74165 53.1615 5.51564V1.2838C53.1615 1.19832 53.2292 1.13057 53.3087 1.13057H53.9684C54.0479 1.13057 54.1156 1.19832 54.1156 1.2838V5.63933C54.1745 5.74233 54.4366 5.76307 54.575 5.76307H54.7664V6.7025H54.6781C54.3866 6.7025 53.9595 6.66425 53.668 6.49628C53.403 6.66404 52.9848 6.7025 52.6579 6.7025H50.8114C49.2447 6.7025 48.7853 6.12236 48.7853 5.10637C48.7853 5.00914 48.7941 4.6823 48.8295 4.53504C48.859 4.42306 48.8884 4.38778 48.9826 4.38778L49.5303 4.38768ZM55.8766 2.017C55.8766 1.92276 55.9591 1.84904 56.0533 1.84904H56.6305C56.7188 1.84904 56.7925 1.92276 56.7925 2.017V2.58834C56.7925 2.6766 56.7188 2.74734 56.6246 2.74734H56.0533C55.9414 2.74734 55.8766 2.6766 55.8766 2.58834L55.8766 2.017ZM54.7723 6.7024C54.6633 6.7024 54.5308 6.67289 54.5308 6.61413V5.85431C54.5308 5.80132 54.6633 5.76307 54.7723 5.76307H55.4614C55.6292 5.76307 55.8854 5.74169 55.8854 5.51567V3.40124C55.8854 3.31875 55.9414 3.25998 56.0298 3.25998H56.6688C56.7483 3.25998 56.8072 3.31875 56.8072 3.40124V5.63939C56.8661 5.7424 57.1518 5.76311 57.2843 5.76311H57.458V6.70253H57.3726C56.9986 6.70253 56.5893 6.6583 56.3331 6.45222C56.0622 6.6437 55.6351 6.70253 55.323 6.70253L54.7723 6.7024ZM57.8821 7.50636C57.8821 7.41212 57.9645 7.3384 58.0529 7.3384H58.6154C58.7096 7.3384 58.798 7.41212 58.798 7.50636V8.09237C58.798 8.17187 58.7096 8.2456 58.6154 8.2456H58.0529C57.9645 8.2456 57.8821 8.17187 57.8821 8.09237V7.50636ZM57.458 6.70253C57.3491 6.70253 57.2165 6.67289 57.2165 6.61413V5.85431C57.2165 5.80132 57.3491 5.76311 57.458 5.76311L58.1383 5.76307C58.3739 5.76307 58.4328 5.75665 58.4328 5.52158V4.35833C58.4328 4.05795 58.424 3.72812 58.4181 3.37769C58.4181 3.29819 58.4769 3.2392 58.5653 3.2392H59.1808C59.2898 3.2392 59.331 3.29798 59.3398 3.37769C59.3486 3.6928 59.3545 3.91955 59.3545 4.13157V5.10637C59.3545 5.72774 59.3546 6.1459 59.3251 6.40801C59.3016 6.50524 59.275 6.56999 59.1572 6.62C58.9511 6.67898 58.3739 6.7025 57.9792 6.7025L57.458 6.70253Z" fill="#5C5C5C"/>
<path d="M87.7173 13.8526C87.7173 12.2506 86.5629 11.4643 84.8166 10.1597C83.1144 8.88751 80.2166 7.01749 78.4909 5.98971C76.7652 4.96489 73.9616 3.38051 72.0238 2.45582C70.0714 1.52228 68.5106 0.900879 67.5652 0.900879C66.6229 0.900879 65.9662 1.20125 65.5038 1.81676C65.0385 2.43222 64.7646 3.33634 64.5791 4.47602C64.3936 5.61865 64.2964 6.9998 64.2434 8.57827C64.1963 10.1568 64.1933 13.8526 64.1933 13.8526C64.1933 13.8526 64.1963 17.5485 64.2434 19.127C64.2964 20.7055 64.3936 22.0866 64.5791 23.2263C64.7646 24.3689 65.0385 25.2701 65.5038 25.8885C65.9662 26.504 66.6229 26.8014 67.5652 26.8014C68.5106 26.8014 70.0714 26.183 72.0238 25.2495C73.9616 24.3248 76.7652 22.7404 78.4909 21.7156C80.2166 20.6878 83.1144 18.8178 84.8166 17.5426C86.5629 16.241 87.7173 15.4547 87.7173 13.8526Z" fill="#5C5C5C"/>
<path d="M85.0404 11.9148H84.6811C84.5162 11.9148 84.3777 12.0533 84.3777 12.2211V15.484C84.3777 15.652 84.5162 15.7903 84.6811 15.7903H85.0404C85.2082 15.7903 85.3466 15.6518 85.3466 15.484V12.2211C85.3466 12.0533 85.2082 11.9148 85.0404 11.9148Z" fill="#A3A3A3"/>
<path d="M74.0293 10.9489H74.3886C74.5565 10.9489 74.6949 10.8104 74.6949 10.6426V5.44187C74.6949 5.2739 74.5564 5.13855 74.3886 5.13855H74.0293C73.8614 5.13855 73.7231 5.27403 73.7231 5.44187V10.6426C73.7231 10.8104 73.8615 10.9489 74.0293 10.9489Z" fill="#A3A3A3"/>
<path d="M77.2923 19.6659H76.936C76.7652 19.6659 76.6297 19.8014 76.6297 19.9693V20.3285C76.6297 20.4965 76.7652 20.6319 76.936 20.6319H77.2923C77.4631 20.6319 77.5986 20.4964 77.5986 20.3285V19.9693C77.5986 19.8015 77.4631 19.6659 77.2923 19.6659Z" fill="#A3A3A3"/>
<path d="M66.2812 9.01113H70.5131C70.6809 9.01113 70.8193 8.87264 70.8193 8.70484V7.07337H72.4508C72.6187 7.07337 72.7571 6.93489 72.7571 6.77004V4.473C72.7571 4.30524 72.6187 4.16674 72.4508 4.16674H72.0916C71.9237 4.16674 71.7882 4.30522 71.7882 4.473V6.1045H70.8193V3.5012C70.8193 3.33622 70.6809 3.20081 70.5131 3.20081H68.216C68.0482 3.20081 67.9157 3.33629 67.9157 3.50413V6.77004C67.9157 6.93502 68.0511 7.07337 68.219 7.07337H69.8505V8.04227H66.9468V4.473C66.9468 4.30524 66.8084 4.16674 66.6405 4.16674H66.2812C66.1134 4.16674 65.9779 4.30522 65.9779 4.473V8.70484C65.9779 8.87281 66.1134 9.01113 66.2812 9.01113ZM69.8505 6.1045H68.8816V4.16674H69.8505V6.1045Z" fill="#A3A3A3"/>
<path d="M83.1055 10.949H82.7463C82.5784 10.949 82.4429 11.0874 82.4429 11.2523V15.7904H80.8085C80.6407 15.7904 80.5052 15.9289 80.5052 16.0937V17.7282H79.5363V16.0937C79.5363 15.926 79.3979 15.7904 79.23 15.7904H75.9641C75.7992 15.7904 75.6608 15.9259 75.6608 16.0937V16.4559C75.6608 16.6209 75.7992 16.7593 75.9641 16.7593H78.5674V17.7282H74.6949V14.8215H77.2923C77.4631 14.8215 77.5985 14.6831 77.5985 14.5153V14.1589C77.5985 13.991 77.4631 13.8527 77.2923 13.8527H74.0293C73.8614 13.8527 73.7231 13.9912 73.7231 14.1589V18.3908C73.7231 18.5587 73.8615 18.697 74.0293 18.697H78.5674V19.3596C78.5674 19.5274 78.7029 19.6659 78.8737 19.6659H79.23C79.3979 19.6659 79.5363 19.5274 79.5363 19.3596V18.697H81.1649C81.3327 18.697 81.4711 18.5558 81.4711 18.3878V16.7593H83.1055C83.2734 16.7593 83.4089 16.6208 83.4089 16.4559V11.2523C83.4089 11.0873 83.2734 10.949 83.1055 10.949Z" fill="#A3A3A3"/>
<path d="M75.3575 19.6659H73.0575C72.8926 19.6659 72.7571 19.8014 72.7571 19.9693V21.6007H66.9468V20.6319H71.482C71.6498 20.6319 71.7882 20.4964 71.7882 20.3285V19.9693C71.7882 19.8015 71.6498 19.6659 71.482 19.6659H66.2783C66.1104 19.6659 65.9779 19.8014 65.9779 19.9663V22.2663C65.9779 22.4342 66.1163 22.5696 66.2842 22.5696H73.4197C73.5876 22.5696 73.723 22.4341 73.723 22.2663V20.6348H74.6949V21.2974C74.6949 21.4652 74.8274 21.6007 74.9952 21.6007H75.3575C75.5253 21.6007 75.6608 21.4652 75.6608 21.2974V19.9693C75.6608 19.8015 75.5253 19.6659 75.3575 19.6659Z" fill="#A3A3A3"/>
<path d="M67.6005 23.5385H67.2589C67.0852 23.5385 66.9468 23.6797 66.9468 23.8506V24.1952C66.9468 24.3689 67.0852 24.5073 67.2589 24.5073H67.6005C67.7714 24.5073 67.9127 24.3688 67.9127 24.1952V23.8506C67.9127 23.6799 67.7714 23.5385 67.6005 23.5385Z" fill="#A3A3A3"/>
<path d="M69.5383 23.5385H69.1938C69.023 23.5385 68.8816 23.6797 68.8816 23.8506V24.1952C68.8816 24.3689 69.023 24.5073 69.1938 24.5073H69.5383C69.7121 24.5073 69.8505 24.3688 69.8505 24.1952V23.8506C69.8505 23.6799 69.7121 23.5385 69.5383 23.5385Z" fill="#A3A3A3"/>
<path d="M66.2901 17.7281C66.1163 17.7281 65.9779 17.8694 65.9779 18.0403V18.3819C65.9779 18.5557 66.1163 18.697 66.2901 18.697H66.6317C66.8054 18.697 66.9438 18.5558 66.9438 18.3819V18.0403C66.9438 17.8696 66.8054 17.7281 66.6317 17.7281H66.2901Z" fill="#A3A3A3"/>
<path d="M68.2249 17.7281C68.0541 17.7281 67.9127 17.8694 67.9127 18.0403V18.3819C67.9127 18.5557 68.0541 18.697 68.2249 18.697H68.5665C68.7402 18.697 68.8816 18.5558 68.8816 18.3819V18.0403C68.8816 17.8696 68.7402 17.7281 68.5665 17.7281H68.2249Z" fill="#A3A3A3"/>
<path d="M69.8505 18.0403V18.3819C69.8505 18.5557 69.9918 18.697 70.1626 18.697H72.4508C72.6216 18.697 72.7571 18.5586 72.7571 18.3908V14.1589C72.7571 13.9909 72.6216 13.8527 72.4508 13.8527H72.0916C71.9237 13.8527 71.7853 13.9911 71.7853 14.1589V17.7282H70.1626C69.9918 17.7282 69.8505 17.8666 69.8505 18.0403Z" fill="#A3A3A3"/>
<path d="M78.8796 13.8527C78.7059 13.8527 78.5674 13.9939 78.5674 14.1648V14.5094C78.5674 14.6831 78.7059 14.8215 78.8796 14.8215H79.2212C79.395 14.8215 79.5334 14.683 79.5334 14.5094V14.1648C79.5334 13.9941 79.395 13.8527 79.2212 13.8527H78.8796Z" fill="#A3A3A3"/>
<path d="M77.9107 8.04226H78.2523C78.4261 8.04226 78.5674 7.90079 78.5674 7.7301V7.38849C78.5674 7.21475 78.4261 7.07336 78.2523 7.07336H77.9107C77.7399 7.07336 77.5985 7.21465 77.5985 7.38849V7.7301C77.5985 7.90085 77.7399 8.04226 77.9107 8.04226Z" fill="#A3A3A3"/>
<path d="M72.442 8.04224H72.1004C71.9267 8.04224 71.7882 8.18349 71.7882 8.35733V8.69894C71.7882 8.86969 71.9267 9.0111 72.1004 9.0111H72.442C72.6158 9.0111 72.7542 8.86984 72.7542 8.69894V8.35733C72.7542 8.18359 72.6158 8.04224 72.442 8.04224Z" fill="#A3A3A3"/>
<path d="M70.5072 11.9177H70.1656C69.9918 11.9177 69.8505 12.059 69.8505 12.2299V12.5715C69.8505 12.7452 69.9918 12.8837 70.1656 12.8837H70.5072C70.678 12.8837 70.8193 12.7452 70.8193 12.5715V12.2299C70.8193 12.0591 70.678 11.9177 70.5072 11.9177Z" fill="#A3A3A3"/>
<path d="M81.159 13.8527H80.8174C80.6436 13.8527 80.5052 13.9939 80.5052 14.1648V14.5094C80.5052 14.6831 80.6436 14.8215 80.8174 14.8215H81.159C81.3327 14.8215 81.4711 14.683 81.4711 14.5094V14.1648C81.4711 13.9941 81.3327 13.8527 81.159 13.8527Z" fill="#A3A3A3"/>
<path d="M66.2812 16.7592H70.5131C70.681 16.7592 70.8194 16.6207 70.8194 16.4529V14.1588C70.8194 13.9909 70.6839 13.8526 70.5131 13.8526H68.8816V10.9489H71.7882V12.5715C71.7882 12.7453 71.9267 12.8837 72.1004 12.8837H81.1678C81.3357 12.8837 81.4711 12.7482 81.4711 12.5804V9.31445C81.4711 9.14648 81.3357 9.01112 81.1678 9.01112H78.8737C78.7059 9.01112 78.5674 9.14661 78.5674 9.31445V9.98002H76.6297V6.41078C76.6297 6.24281 76.4942 6.10449 76.3234 6.10449H75.9671C75.7992 6.10449 75.6608 6.24298 75.6608 6.41078V11.9148H72.7571V10.2833C72.7571 10.1156 72.6187 9.98002 72.4509 9.98002H68.219C68.0511 9.98002 67.9157 10.1155 67.9157 10.2833V14.5181C67.9157 14.6861 68.0511 14.8214 68.219 14.8214H69.8505V15.7903H66.9468L66.9438 10.2833C66.9438 10.1156 66.8054 9.98002 66.6405 9.98002H66.2812C66.1133 9.98002 65.9779 10.1155 65.9779 10.2833V16.4529C65.9779 16.6209 66.1134 16.7592 66.2812 16.7592ZM76.6296 10.9489H79.5333V9.98002H80.5022V11.9148H76.6296V10.9489Z" fill="#A3A3A3"/>
</g>
<defs>
<clipPath id="clip0_624_14706">
<rect width="88" height="27.0841" fill="white"/>
</clipPath>
</defs>
</svg>
