<svg width="85" height="58" viewBox="0 0 85 58" fill="none" xmlns="http://www.w3.org/2000/svg">
<path d="M58.7421 0H26V32.8458H58.7421V0Z" fill="#BABABA"/>
<path d="M33.3273 19.4299C28.4083 25.8552 26.0512 32.6402 26 32.8458H32.7124C32.7124 29.6075 32.6612 24.6729 33.3273 19.4299Z" fill="#868686"/>
<path d="M28.767 18.7617C30.4066 17.528 32.2 16.1916 34.0959 15.0093C35.3769 9.25234 37.7851 3.64953 42.3455 0.205607C46.9571 3.64953 49.3653 9.20093 50.5951 15.0093C52.4909 16.1916 54.2843 17.528 55.924 18.7617C53.6182 11.5654 49.4678 3.70093 42.3455 0C35.2744 3.70093 31.124 11.5654 28.767 18.7617Z" fill="#868686"/>
<path d="M52.0298 32.8458H58.7422C58.6909 32.6402 56.3339 25.8552 51.4149 19.4299C52.081 24.6729 52.0298 29.6075 52.0298 32.8458Z" fill="#868686"/>
<path d="M58.7422 32.8458V20.972C57.9223 20.2524 56.9488 19.5327 55.9752 18.7617C58.076 25.2384 58.7422 31.1496 58.7422 32.8458Z" fill="#868686"/>
<path d="M42.3455 11.1542C45.9835 13.2617 49.0066 16.2944 51.3636 19.4299C51.1587 17.9393 50.9025 16.4486 50.595 14.958C47.9306 13.2617 45.0612 11.7196 42.3455 10.8972C39.6298 11.771 36.7603 13.2617 34.0959 14.958C33.7884 16.4486 33.5322 17.9393 33.3273 19.4299C35.7355 16.2944 38.7074 13.2617 42.3455 11.1542Z" fill="#868686"/>
<path d="M26 20.972V32.8458C26 31.0982 26.6661 25.187 28.7669 18.7103C27.7421 19.5328 26.8198 20.3038 26 20.972Z" fill="#868686"/>
<path d="M50.6462 15.0094C50.9537 16.5001 51.2099 17.9907 51.4148 19.4814C56.3338 25.9066 58.6909 32.6916 58.7421 32.8973C58.7421 31.1496 58.076 25.2384 55.9752 18.7617C54.3355 17.4767 52.5421 16.1916 50.6462 15.0094Z" fill="#606060"/>
<path d="M34.0959 15.0094C32.2 16.1916 30.4066 17.5281 28.7669 18.7617C26.6149 25.2384 26 31.1496 26 32.8973C26.0512 32.6916 28.4083 25.9066 33.3273 19.4814C33.5322 17.9907 33.7884 16.5001 34.0959 15.0094Z" fill="#606060"/>
<path d="M3.99993 55.7124C3.92517 57.1749 3.2523 57.9999 2.09347 57.9999C0.785109 57.9999 0.0374756 56.9874 0.0374756 54.6624C0.0374756 52.3374 0.785109 51.325 2.09347 51.325C3.40182 51.325 3.92517 52.2625 3.92517 53.3125H3.36444C3.36444 52.45 2.91586 51.8125 2.09347 51.8125C1.15893 51.8125 0.5982 52.5624 0.5982 54.6624C0.5982 56.7624 1.15893 57.5124 2.09347 57.5124C2.91586 57.5124 3.36444 56.8374 3.43921 55.7124H3.99993Z" fill="#5C5C5C"/>
<path d="M5.12124 55.4875C5.12124 53.95 5.6072 53.425 6.20531 53.425C6.80341 53.425 7.28937 53.95 7.28937 55.4875C7.28937 57.025 6.84079 57.55 6.20531 57.55C5.56982 57.55 5.12124 57.025 5.12124 55.4875ZM4.52313 55.4875C4.52313 57.175 5.12124 58 6.16792 58C7.21461 58 7.81272 57.175 7.81272 55.4875C7.81272 53.8375 7.21461 52.975 6.16792 52.975C5.12124 52.975 4.52313 53.8375 4.52313 55.4875Z" fill="#5C5C5C"/>
<path d="M8.63525 53.0875H9.12122V53.7625H9.1586C9.42027 53.2375 9.83147 52.975 10.3548 52.975C10.9155 52.975 11.2894 53.3125 11.3641 53.8H11.4015C11.6258 53.275 11.9996 52.975 12.6351 52.975C13.308 52.975 13.7565 53.35 13.7565 54.2125V57.8875H13.2332V54.2875C13.2332 53.725 12.9715 53.425 12.4856 53.425C11.9622 53.425 11.5136 53.9125 11.5136 54.6625V57.8875H10.9903V54.2875C10.9903 53.725 10.7286 53.425 10.2427 53.425C9.71932 53.425 9.27074 53.9125 9.27074 54.6625V57.8875H8.63525V53.0875Z" fill="#5C5C5C"/>
<path d="M14.8406 53.0875H15.3265V53.7625C15.5882 53.2375 15.9994 52.975 16.5601 52.975C17.1209 52.975 17.4947 53.3125 17.5694 53.8H17.6068C17.8311 53.275 18.2049 52.975 18.803 52.975C19.4759 52.975 19.9245 53.35 19.9245 54.2125V57.8875H19.4011V54.2875C19.4011 53.725 19.1395 53.425 18.6535 53.425C18.1302 53.425 17.6816 53.9125 17.6816 54.6625V57.8875H17.1582V54.2875C17.1582 53.725 16.8966 53.425 16.4106 53.425C15.8873 53.425 15.4387 53.9125 15.4387 54.6625V57.8875H14.9153V53.0875H14.8406Z" fill="#5C5C5C"/>
<path d="M21.345 55.075C21.345 53.875 21.6815 53.4625 22.3543 53.4625C23.0272 53.4625 23.3636 53.9125 23.3636 55.075H21.345ZM23.3636 56.3125C23.2889 57.1375 22.9151 57.55 22.3543 57.55C21.831 57.55 21.345 57.1375 21.345 55.75V55.525H23.9617V55.3C23.9617 53.6875 23.4758 52.975 22.4291 52.975C21.3824 52.975 20.7843 53.8 20.7843 55.4875C20.7843 57.2875 21.3824 58 22.3917 58C23.2889 58 23.8496 57.325 23.9244 56.3125H23.3636Z" fill="#5C5C5C"/>
<path d="M24.784 53.0875H25.3074V53.8375C25.5317 53.3125 25.9429 52.975 26.5036 52.975C26.5783 52.975 26.6157 52.975 26.6905 53.0125V53.5375C26.6157 53.5375 26.5036 53.5 26.4288 53.5C25.8307 53.5 25.27 53.95 25.27 54.85V57.85H24.7466V53.0875H24.784Z" fill="#5C5C5C"/>
<path d="M30.167 56.3125C30.0922 57.325 29.5315 58 28.6343 58C27.625 58 27.0269 57.2875 27.0269 55.4875C27.0269 53.8375 27.625 52.975 28.6717 52.975C29.5689 52.975 30.0922 53.5375 30.1296 54.5125H29.6063C29.5315 53.7625 29.2324 53.425 28.6717 53.425C28.0736 53.425 27.5876 53.8 27.5876 55.4875C27.5876 57.2875 28.111 57.55 28.5969 57.55C29.1577 57.55 29.4941 57.1375 29.5689 56.3125H30.167Z" fill="#5C5C5C"/>
<path d="M30.9894 53.0875H31.5128V57.8875H30.9894V53.0875ZM30.9894 51.4375H31.5128V52.375H30.9894V51.4375Z" fill="#5C5C5C"/>
<path d="M34.8024 56.2C34.8024 57.0625 34.3538 57.55 33.6809 57.55C33.2323 57.55 32.9333 57.175 32.9333 56.6125C32.9333 56.05 33.195 55.75 33.7557 55.6375L34.2043 55.525C34.4285 55.4875 34.7276 55.375 34.765 55.225V56.2H34.8024ZM33.0828 54.5125C33.0828 53.8 33.3445 53.425 34.0174 53.425C34.5033 53.425 34.8397 53.65 34.8397 54.25C34.8397 54.8125 34.765 54.8875 34.3912 55L33.3445 55.3C32.6716 55.4875 32.3726 55.975 32.3726 56.6125C32.3726 57.4375 32.7464 57.9625 33.5688 57.9625C34.0921 57.9625 34.5781 57.775 34.8024 57.1375H34.8397V57.2875C34.8397 57.775 35.1014 57.8875 35.55 57.8875C35.6248 57.8875 35.6995 57.85 35.8117 57.8125V57.4H35.6621C35.4752 57.4 35.4005 57.2875 35.4005 56.9875V54.1375C35.4005 53.3875 35.0267 52.8625 34.0547 52.8625C33.0454 52.8625 32.5595 53.425 32.5595 54.4H33.0828V54.5125Z" fill="#5C5C5C"/>
<path d="M37.0079 51.4375H36.4846V57.8875H37.0079V51.4375Z" fill="#5C5C5C"/>
<path d="M40.7834 51.925H41.7927C42.6898 51.925 43.1384 52.225 43.1384 53.0875C43.1384 53.8375 42.6898 54.25 41.6805 54.25H40.7834V51.925ZM40.7834 54.775H41.8674C42.8768 54.775 43.3627 55.225 43.3627 56.0875C43.3627 56.95 42.8768 57.4 41.8674 57.4H40.7834V54.775ZM40.2227 57.8875H41.9796C43.2132 57.8875 43.9234 57.2125 43.9234 56.0875C43.9234 55.2625 43.5122 54.625 42.7272 54.475C43.3627 54.325 43.6992 53.725 43.6992 53.0875C43.6992 52.1125 43.2132 51.475 41.9796 51.475H40.2227V57.8875Z" fill="#5C5C5C"/>
<path d="M46.914 56.2C46.914 57.0625 46.4654 57.55 45.7925 57.55C45.3066 57.55 45.0449 57.175 45.0449 56.6125C45.0449 56.05 45.3066 55.75 45.8673 55.6375L46.3159 55.525C46.5402 55.45 46.8392 55.375 46.8766 55.225V56.2H46.914ZM45.1944 54.5125C45.1944 53.8375 45.4561 53.425 46.129 53.425C46.6149 53.425 46.9514 53.65 46.9514 54.25C46.9514 54.8125 46.8766 54.8875 46.5028 55L45.4935 55.3C44.8206 55.4875 44.5215 55.975 44.5215 56.6125C44.5215 57.4375 44.8954 57.9625 45.7551 57.9625C46.2785 57.9625 46.7644 57.775 46.9887 57.1375H47.0261V57.2875C47.0261 57.775 47.2878 57.8875 47.7364 57.8875C47.8111 57.8875 47.8859 57.85 47.998 57.85V57.4375H47.8485C47.6616 57.4375 47.5868 57.325 47.5868 57.025V54.175C47.5868 53.425 47.213 52.9 46.2411 52.9C45.2318 52.9 44.7458 53.4625 44.7458 54.4375H45.1944V54.5125Z" fill="#5C5C5C"/>
<path d="M48.5962 53.0875H49.0822V53.7625C49.3438 53.2375 49.8298 52.975 50.3157 52.975C51.0634 52.975 51.5493 53.35 51.5493 54.25V57.8875H51.026V54.4375C51.026 53.7625 50.7643 53.4625 50.2036 53.4625C49.5681 53.4625 49.1569 53.95 49.1569 54.7V57.925H48.6336V53.0875H48.5962Z" fill="#5C5C5C"/>
<path d="M52.5212 51.4375H53.0446V55.4875H53.082L54.9137 53.0875H55.5865L54.166 54.8875L55.8482 57.8875H55.1753L53.7548 55.375L53.0446 56.2375V57.8875H52.5212V51.4375Z" fill="#5C5C5C"/>
<path d="M59.0257 55.4875C59.0257 53.95 59.4743 53.425 60.1098 53.425C60.7079 53.425 61.1938 53.95 61.1938 55.4875C61.1938 57.025 60.7079 57.55 60.1098 57.55C59.5116 57.55 59.0257 57.025 59.0257 55.4875ZM58.465 55.4875C58.465 57.175 59.0631 58 60.1098 58C61.1564 58 61.7546 57.175 61.7546 55.4875C61.7546 53.8375 61.1564 52.975 60.1098 52.975C59.0631 53.0125 58.465 53.8375 58.465 55.4875Z" fill="#5C5C5C"/>
<path d="M62.7639 53.575H62.091V53.125H62.7639V52.5625C62.7639 51.8875 62.9134 51.4 63.8106 51.4C63.9601 51.4 64.0722 51.4 64.147 51.4375V51.8875C64.0722 51.8875 63.9975 51.85 63.8853 51.85C63.4741 51.85 63.2872 52 63.2872 52.5625V53.125H64.147V53.575H63.2872V57.925H62.7639V53.575Z" fill="#5C5C5C"/>
<path d="M67.7729 51.925H68.7074C69.9784 51.925 70.5018 52.5625 70.5018 54.6625C70.5018 56.7625 69.9784 57.4 68.7074 57.4H67.7729V51.925ZM67.1748 57.8875H68.7074C70.5765 57.8875 71.0251 56.7625 71.0251 54.6625C71.0251 52.5625 70.5765 51.4375 68.7074 51.4375H67.1748V57.8875Z" fill="#5C5C5C"/>
<path d="M72.0345 53.0875H72.5952V56.4625C72.5952 57.25 72.8568 57.55 73.4176 57.55C74.0157 57.55 74.4643 57.0625 74.4643 56.3125V53.0875H74.9876V57.8875H74.5016V57.2125H74.4643C74.2026 57.7375 73.7166 58 73.2307 58C72.483 58 71.9971 57.625 71.9971 56.725V53.0875H72.0345Z" fill="#5C5C5C"/>
<path d="M76.5202 55.4875C76.5202 53.725 77.0062 53.425 77.5669 53.425C78.0903 53.425 78.6136 53.6875 78.6136 55.4875C78.6136 57.25 78.1276 57.55 77.5669 57.55C77.0062 57.55 76.5202 57.2875 76.5202 55.4875ZM75.9969 57.8875H76.4828V57.1C76.6324 57.6625 77.081 58 77.6417 58C78.6884 58 79.1743 57.1375 79.1743 55.4875C79.1743 53.8375 78.6884 52.975 77.6417 52.975C77.0436 52.975 76.6324 53.3125 76.5202 53.8V51.4375H75.9969V57.8875Z" fill="#5C5C5C"/>
<path d="M82.2023 56.2C82.2023 57.0625 81.7537 57.55 81.0809 57.55C80.6323 57.55 80.3332 57.175 80.3332 56.6125C80.3332 56.05 80.5949 55.75 81.1556 55.6375L81.6042 55.525C81.8285 55.45 82.1275 55.375 82.1649 55.225V56.2H82.2023ZM80.4827 54.5125C80.4827 53.8375 80.7444 53.425 81.4173 53.425C81.9032 53.425 82.2397 53.65 82.2397 54.25C82.2397 54.8125 82.1649 54.8875 81.7911 55L80.7818 55.3C80.1089 55.4875 79.8099 55.975 79.8099 56.6125C79.8099 57.4375 80.1837 57.9625 81.0435 57.9625C81.5668 57.9625 82.0528 57.775 82.2771 57.1375V57.2875C82.2771 57.775 82.5387 57.8875 82.9873 57.8875C83.0621 57.8875 83.1368 57.85 83.249 57.85V57.4375H83.0247C82.8378 57.4375 82.7256 57.325 82.7256 57.025V54.175C82.7256 53.425 82.3518 52.9 81.3799 52.9C80.3706 52.9 79.8846 53.4625 79.8846 54.4375H80.4827V54.5125Z" fill="#5C5C5C"/>
<path d="M83.8844 53.0875H84.4077V57.8875H83.8844V53.0875ZM83.8844 51.4375H84.4077V52.375H83.8844V51.4375Z" fill="#5C5C5C"/>
<path d="M36.6715 40.525C36.6715 40.525 36.7836 45.55 36.7836 45.85C36.7836 46.15 36.821 46.7875 36.4846 47.2C36.7836 47.05 37.1948 46.3375 37.1948 45.4C37.1948 44.95 37.0827 40 37.0827 40L36.6715 40.525Z" fill="#5C5C5C"/>
<path d="M6.61652 42.4C6.61652 42.4 6.91558 46.4874 6.76605 47.0124C6.50438 47.9874 6.01842 48.3624 4.8222 48.6249C5.00911 48.7374 5.6446 48.9249 6.16794 48.5499C6.80343 48.0999 7.25201 46.9749 7.25201 45.8874C7.25201 45.3999 7.0651 41.7625 7.0651 41.7625L6.61652 42.4Z" fill="#5C5C5C"/>
<path d="M34.8771 40.525C34.8771 40.525 34.9893 45.325 35.0266 45.85C35.064 46.225 34.9145 46.3375 34.4285 46.3375H32.9333C32.7464 46.3375 32.0735 46.3375 31.8492 46.075C31.6249 45.8125 31.5875 45.7 31.5875 44.35C31.5875 42.6625 31.6623 42.175 31.438 41.8L31.0268 42.4C31.139 42.625 31.2511 42.7375 31.2137 44.0875C31.1763 45.4375 31.4006 45.625 31.1763 46.075C31.0268 46.375 30.2044 46.3375 30.0175 46.3375H28.2606C28.0737 45.8125 27.5877 45.325 26.5036 44.65C25.1579 43.75 24.2607 43.2625 24.2607 42.5125C24.2607 42.0625 24.3355 41.8375 24.3355 41.8375C24.3355 41.8375 23.9243 42.3625 23.9243 43C23.9243 43.675 24.5224 44.275 25.5691 44.9125C26.3167 45.3625 27.2139 45.85 27.6625 46.375H10.5043C10.3174 46.375 9.45759 46.375 9.30807 46.0375C9.0464 45.475 9.2333 43.525 9.2333 42.175C9.2333 40.7875 9.27069 40.4125 9.08378 40.0375L8.70996 40.675C8.82211 40.9 8.89687 40.9 8.85949 42.2875C8.82211 43.6375 8.74734 45.6625 8.78472 46.1125C8.85949 46.7875 9.00901 47.0875 10.5043 47.0875H28.0737C28.111 47.6125 28.0363 48.2125 27.5129 49.225C28.0737 48.55 28.3353 47.8375 28.3727 47.0875H30.0549C30.3913 47.0875 31.2511 47.125 31.5128 46.3375C31.7371 47.0125 32.1109 47.0875 32.8959 47.0875H34.4285C34.765 47.0875 34.9893 46.975 35.1388 46.6375C35.2883 46.3375 35.4005 45.925 35.4005 45.4375C35.4005 44.9875 35.2883 40.0375 35.2883 40.0375L34.8771 40.525Z" fill="#5C5C5C"/>
<path d="M5.19605 46.4875C5.19605 45.85 4.93438 45.7 4.52318 45.175C4.18675 44.7625 3.88769 44.5 3.88769 44.35C3.88769 44.2 4.26151 42.85 5.0839 42.5875L5.19605 41.8375C4.59794 41.875 3.62602 43.45 3.51388 44.725C3.47649 44.9875 3.81293 45.2125 4.03722 45.475C4.41104 45.8875 4.897 46.15 4.897 46.3C4.897 46.4125 4.71009 46.375 4.56056 46.375H3.81293H1.75694C0.822396 46.375 0.336435 46 0.336435 44.4625C0.336435 42.775 0.710251 42.175 0.710251 42.175L0.67287 41.8375C0.67287 41.8375 0 42.775 0 44.65C0 46.5625 0.22429 47.0875 1.68217 47.0875H3.77555H4.71009C4.74747 47.0875 5.19605 47.125 5.19605 46.4875Z" fill="#5C5C5C"/>
<path d="M75.3241 41.2C75.5484 41.05 75.698 40.6 75.698 40.6C75.698 40.6 75.511 40.1875 75.2494 40L74.9503 40.6C74.9877 40.6375 75.3241 40.8625 75.3241 41.2Z" fill="#5C5C5C"/>
<path d="M30.9519 41.2C31.1762 41.05 31.3258 40.6 31.3258 40.6C31.3258 40.6 31.1388 40.1875 30.9146 40L30.6155 40.6C30.5781 40.6375 30.9146 40.8625 30.9519 41.2Z" fill="#5C5C5C"/>
<path d="M31.6996 41.2C31.9239 41.05 32.0734 40.6 32.0734 40.6C32.0734 40.6 31.8865 40.1875 31.6249 40L31.3258 40.6C31.3258 40.6375 31.6622 40.8625 31.6996 41.2Z" fill="#5C5C5C"/>
<path d="M79.9593 49.075C80.1836 48.925 80.3331 48.475 80.3331 48.475C80.3331 48.475 80.1462 48.0625 79.8846 47.875L79.5855 48.475C79.5855 48.5125 79.9219 48.7375 79.9593 49.075Z" fill="#5C5C5C"/>
<path d="M50.4653 49.075C50.6896 48.925 50.8391 48.475 50.8391 48.475C50.8391 48.475 50.6522 48.0625 50.4279 47.875L50.1289 48.475C50.0915 48.5125 50.4279 48.7375 50.4653 49.075Z" fill="#5C5C5C"/>
<path d="M42.6152 49.075C42.8395 48.925 42.989 48.475 42.989 48.475C42.989 48.475 42.8021 48.0625 42.5404 47.875L42.2414 48.475C42.2414 48.5125 42.5778 48.7375 42.6152 49.075Z" fill="#5C5C5C"/>
<path d="M25.756 49.075C25.9803 48.925 26.1298 48.475 26.1298 48.475C26.1298 48.475 25.9429 48.0625 25.6813 47.875L25.3822 48.475C25.3822 48.5125 25.7186 48.7375 25.756 49.075Z" fill="#5C5C5C"/>
<path d="M43.3254 49.075C43.5496 48.925 43.6992 48.475 43.6992 48.475C43.6992 48.475 43.5123 48.0625 43.288 47.875L42.9889 48.475C42.9515 48.5125 43.288 48.7375 43.3254 49.075Z" fill="#5C5C5C"/>
<path d="M2.13084 49.075C2.35513 48.925 2.50465 48.475 2.50465 48.475C2.50465 48.475 2.31774 48.0625 2.05607 47.875L1.75702 48.475C1.75702 48.5125 2.09345 48.7375 2.13084 49.075Z" fill="#5C5C5C"/>
<path d="M2.84098 49.075C3.06527 48.925 3.21479 48.475 3.21479 48.475C3.21479 48.475 3.02789 48.0625 2.8036 47.9125L2.50454 48.5125C2.46716 48.5125 2.8036 48.7375 2.84098 49.075Z" fill="#5C5C5C"/>
<path d="M67.7356 44.2375C69.0813 44.0875 69.0813 42.85 69.0813 42.85C69.0813 42.85 68.2215 43 67.9599 42.85C67.8851 42.8125 68.4832 42.325 68.857 42.325C68.9318 42.0625 68.8944 41.875 68.8944 41.875C68.8944 41.875 68.4458 42.025 68.072 42.325C67.6982 42.625 67.5113 42.9625 67.5487 43.15C67.773 43.45 68.7449 43.3 68.7449 43.3C68.7449 43.3 68.7075 43.675 67.5487 43.9C66.3898 44.125 65.9786 43.9 65.9786 43.9C65.9786 43.9 66.3525 44.3875 67.7356 44.2375Z" fill="#5C5C5C"/>
<path d="M57.9416 41.8375C57.1192 41.8375 56.9323 42.8875 56.9323 42.8875C56.9323 42.8875 57.194 42.4 57.7921 42.4C58.9509 42.4 59.9602 46.3375 59.2126 46.3375H57.2313C56.2968 46.3375 56.1473 46.225 56.2968 45.1C55.7361 46.375 56.1099 47.0875 57.0071 47.0875H59.3247C60.4088 47.125 59.4369 41.8375 57.9416 41.8375Z" fill="#5C5C5C"/>
<path d="M83.735 41.8375L83.3612 42.4375C84.2209 44.3125 84.2583 46.3375 83.8097 46.3375H82.9873H76.9689C76.782 46.3375 76.1091 46.3375 75.8848 46.075C75.6605 45.8125 75.6232 45.7 75.6232 44.35C75.6232 42.6625 75.6979 42.175 75.4736 41.8L75.0624 42.4C75.1746 42.625 75.2867 42.7375 75.2493 44.0875C75.212 45.4375 75.4363 45.6625 75.212 46.075C75.0624 46.375 74.24 46.3375 74.0531 46.3375H73.3055C73.156 46.3375 72.8569 46.3375 72.6326 46.1875C72.3336 46 72.4457 45.7375 72.4457 45.025C72.4457 44.05 72.3336 42.175 72.371 40L71.885 40.45C71.885 40.45 71.9598 42.925 71.9598 43.4875C71.9598 44.05 72.184 45.5125 71.8476 45.925C71.4738 46.3375 70.9504 46.3375 70.2776 46.3375H64.7451C63.8106 46.3375 63.3246 45.9625 63.3246 44.425C63.3246 42.7375 63.6984 42.1375 63.6984 42.1375L63.661 41.8C63.661 41.8 62.9882 42.7375 62.9882 44.6125C62.9882 46.525 63.2124 47.05 64.6703 47.05H70.2776C70.8383 47.05 71.7355 46.975 72.1093 46.3C72.2962 46.75 72.5952 47.05 73.2307 47.05H73.9784C74.3148 47.05 75.1746 47.0875 75.4362 46.3C75.6605 46.975 76.0344 47.05 76.8194 47.05H82.8752C83.3238 47.05 83.8845 47.05 84.034 46.825C84.3331 46.6 84.8564 44.5 83.735 41.8375Z" fill="#5C5C5C"/>
<path d="M53.7175 42.475C54.5773 44.35 54.6147 46.375 54.1661 46.375H47.5869C47.0636 46.375 46.5029 46.4875 46.5029 44.9875C46.5403 43.15 46.3533 42.025 46.2786 41.875C45.83 41.8375 43.8862 43.2625 43.8488 44.7625C43.8488 45.025 44.1478 45.2875 44.4095 45.55C44.6712 45.8125 45.0824 46.075 45.0824 46.3C45.0824 46.375 44.9328 46.375 44.8581 46.375C44.3721 46.375 43.9235 46.375 43.9235 46.375H43.0638H42.1666C41.2321 46.375 40.7461 46 40.7461 44.4625C40.7461 42.775 41.1199 42.175 41.1199 42.175L41.0825 41.8375C41.0825 41.8375 40.4097 42.775 40.4097 44.65C40.4097 46.5625 40.634 47.0875 42.0918 47.0875H43.0264H43.8862H44.8955C44.8955 47.0875 45.2693 47.125 45.2693 46.4875C45.2693 45.85 45.0824 45.625 44.7459 45.2125C44.4095 44.8 44.1478 44.5 44.1478 44.35C44.1478 44.125 45.1198 42.85 46.0543 42.55C46.2038 43.15 46.1664 43.8625 46.2038 44.5375C46.2786 46.0375 45.8674 47.0875 47.6617 47.0875H53.3811C53.8297 47.0875 54.3904 47.0875 54.5399 46.8625C54.7268 46.5625 55.2502 44.4625 54.0914 41.8C54.1287 41.8375 53.7175 42.475 53.7175 42.475Z" fill="#5C5C5C"/>
</svg>
