<svg width="88" height="28" viewBox="0 0 88 28" fill="none" xmlns="http://www.w3.org/2000/svg">
<g clip-path="url(#clip0_624_14716)">
<mask id="mask0_624_14716" style="mask-type:luminance" maskUnits="userSpaceOnUse" x="0" y="0" width="88" height="28">
<path d="M88 0H0V28H88V0Z" fill="white"/>
</mask>
<g mask="url(#mask0_624_14716)">
<path d="M44.5249 6.25988C43.9692 5.58221 43.2723 5.03018 42.4814 4.64115C41.7212 4.26978 40.884 4.07757 40.0356 4.07967C39.0318 4.02616 38.0362 4.28406 37.1888 4.81715C36.5258 5.27595 35.9443 5.83965 35.4678 6.48547V4.07967H31.3494V27.6808H35.4671V17.9313C35.944 18.5768 36.5254 19.1404 37.1882 19.5996C38.0357 20.1325 39.0312 20.3904 40.035 20.337C40.8834 20.3391 41.7207 20.1467 42.4807 19.7749C43.2717 19.386 43.9686 18.8339 44.5242 18.1562C45.1523 17.3788 45.6269 16.4921 45.9234 15.5422C46.5993 13.3692 46.5993 11.0463 45.9234 8.87328C45.627 7.92348 45.1531 7.03699 44.5249 6.25988ZM42.047 14.356C41.9062 14.9247 41.6496 15.4592 41.2927 15.927C40.9966 16.3041 40.6096 16.6023 40.167 16.7947C39.7404 16.9766 39.2803 17.0697 38.8155 17.068C38.3455 17.0763 37.8805 16.9726 37.4598 16.7658C37.0391 16.559 36.6753 16.2551 36.3993 15.8799C35.7327 14.9439 35.4042 13.8143 35.4665 12.6722V11.7451C35.4037 10.6026 35.7323 9.47245 36.3993 8.53615C36.6752 8.16159 37.0387 7.85819 37.4589 7.65169C37.8791 7.4452 38.3436 7.3417 38.813 7.34999C39.2778 7.34858 39.7378 7.44162 40.1644 7.62329C40.6073 7.81533 40.9943 8.11361 41.2902 8.49091C41.647 8.95879 41.9036 9.49328 42.0445 10.0619C42.4004 11.4726 42.4004 12.9478 42.0445 14.3585" fill="#5C5C5C"/>
<path d="M8.07587 17.1931C7.50512 17.232 6.93362 17.129 6.41366 16.8938C5.8937 16.6585 5.44189 16.2984 5.09958 15.8465C4.39089 14.7596 4.04757 13.4802 4.11838 12.1901C4.04693 10.9081 4.38433 9.6362 5.08324 8.55286C5.72648 7.66458 6.78835 7.22044 8.26884 7.22044C8.93727 7.21545 9.60319 7.3018 10.2476 7.47701C10.8475 7.64368 11.4251 7.88044 11.968 8.18226L12.8373 5.32841C12.1057 4.901 11.3142 4.58233 10.4883 4.3827C9.66739 4.18202 8.82487 4.07985 7.97907 4.07842C6.77253 4.05134 5.57325 4.26947 4.45593 4.71922C3.50816 5.11234 2.65778 5.70279 1.96301 6.45012C1.28706 7.19616 0.782358 8.07722 0.483356 9.03315C0.156654 10.0549 -0.00642952 11.1206 -1.56299e-05 12.1919C-0.00912737 13.2697 0.159431 14.3417 0.49907 15.3662C0.812789 16.3185 1.32179 17.1971 1.99444 17.9473C2.68549 18.7032 3.53681 19.2999 4.48798 19.695C5.58349 20.1404 6.76034 20.3586 7.94513 20.3358C8.84933 20.3328 9.75039 20.2305 10.6316 20.0309C11.4972 19.8455 12.3275 19.5264 13.0919 19.0852L12.1943 16.1675C10.9349 16.8556 9.51567 17.2087 8.07587 17.1931Z" fill="#5C5C5C"/>
<path d="M62.5057 17.0661C62.2866 17.084 62.0661 17.0544 61.8598 16.9795C61.6535 16.9045 61.4664 16.7861 61.3114 16.6323C61.0188 16.227 60.8822 15.7323 60.9261 15.2367V6.96453H65.3342V4.07969H60.9261V0.0396729H56.9032V15.2069C56.9032 16.9604 57.2841 18.2537 58.0459 19.0871C58.8078 19.9204 60.0574 20.3373 61.7947 20.3377C62.4634 20.3456 63.1298 20.259 63.7735 20.0805C64.3712 19.9059 64.9401 19.6469 65.4625 19.3114L64.6258 16.3293C64.0141 16.7883 63.2716 17.0462 62.5031 17.0667" fill="#5C5C5C"/>
<path d="M22.4199 4.07974C21.2767 4.07202 20.1385 4.22881 19.0413 4.54516C18.1294 4.7922 17.2615 5.17595 16.4679 5.68298L17.3687 8.50461C18.0397 8.10556 18.7573 7.78802 19.5058 7.5589C20.2942 7.32727 21.1133 7.21342 21.9359 7.22115C23.8241 7.22115 24.7682 8.04415 24.7682 9.69015V10.2033H22.5801C21.5856 10.193 20.5929 10.2896 19.6196 10.4915C18.8183 10.6506 18.0576 10.9667 17.3825 11.4211C16.7727 11.8476 16.285 12.4223 15.9669 13.0894C15.6131 13.8756 15.4427 14.7302 15.4685 15.59C15.4551 16.272 15.5866 16.9492 15.8544 17.5781C16.1002 18.137 16.4557 18.6425 16.9004 19.0654C17.3381 19.4819 17.8586 19.8043 18.4291 20.0124C19.0264 20.2293 19.6587 20.338 20.2953 20.3334C20.8387 20.3408 21.3803 20.2705 21.9032 20.1245C22.3451 19.9988 22.7679 19.8152 23.1603 19.5786C23.5079 19.3686 23.8224 19.1094 24.0937 18.8095C24.3418 18.533 24.5677 18.238 24.7695 17.927V20.3328H28.7584V9.91635C28.8061 9.1346 28.6939 8.35137 28.4286 7.61318C28.1633 6.87499 27.7502 6.19689 27.214 5.61915C26.1839 4.59329 24.5859 4.08036 22.4199 4.08036M24.7682 13.6663C24.7697 14.1482 24.6824 14.6264 24.5105 15.0775C24.3454 15.5192 24.0925 15.9239 23.7666 16.268C23.4408 16.612 23.0485 16.8885 22.6128 17.081C22.1477 17.2875 21.6426 17.3915 21.1325 17.386C20.8924 17.3918 20.6537 17.3477 20.432 17.2565C20.2103 17.1653 20.0106 17.0291 19.8459 16.8567C19.6707 16.6693 19.5349 16.4495 19.4464 16.2101C19.358 15.9706 19.3185 15.7163 19.3304 15.4617C19.3113 15.1039 19.377 14.7467 19.5222 14.4183C19.6674 14.0899 19.8882 13.7993 20.1671 13.5697C20.8573 13.0815 21.6978 12.8441 22.5456 12.8979H24.7663L24.7682 13.6663Z" fill="#5C5C5C"/>
<path d="M74.9621 4.07974C73.8189 4.07202 72.6807 4.22881 71.5835 4.54516C70.6717 4.79221 69.8037 5.17596 69.0101 5.68298L69.9109 8.50461C70.5819 8.10548 71.2995 7.78793 72.048 7.5589C72.8378 7.32684 73.6584 7.21299 74.4825 7.22115C76.3682 7.22115 77.311 8.04415 77.311 9.69015V10.2033H75.123C74.1287 10.193 73.1361 10.2896 72.163 10.4915C71.3618 10.6506 70.601 10.9667 69.926 11.4211C69.3162 11.8475 68.8288 12.4222 68.5111 13.0894C68.1566 13.8755 67.9861 14.7301 68.012 15.59C67.9988 16.272 68.1305 16.9492 68.3985 17.5781C68.644 18.137 68.9992 18.6425 69.4438 19.0654C69.8817 19.4816 70.4022 19.804 70.9725 20.0124C71.5699 20.2293 72.2022 20.338 72.8388 20.3334C73.3821 20.3409 73.9238 20.2705 74.4466 20.1245C74.8886 19.9989 75.3115 19.8153 75.7038 19.5786C76.0514 19.3685 76.3659 19.1094 76.6372 18.8095C76.8854 18.5331 77.1113 18.238 77.3129 17.927V20.3328H81.3018V9.91635C81.3495 9.1346 81.2374 8.35137 80.9721 7.61318C80.7068 6.87499 80.2937 6.19689 79.7574 5.61915C78.7278 4.59329 77.1298 4.08036 74.9633 4.08036M77.3123 13.6676C77.3138 14.1495 77.2265 14.6276 77.0546 15.0787C76.8892 15.5181 76.6378 15.9211 76.3148 16.2649C75.988 16.6108 75.5944 16.8887 75.1569 17.0823C74.6918 17.2888 74.1867 17.3928 73.6766 17.3872C73.4365 17.393 73.1978 17.3489 72.9761 17.2577C72.7544 17.1665 72.5547 17.0303 72.39 16.8579C72.2149 16.6705 72.0793 16.4507 71.991 16.2112C71.9026 15.9718 71.8632 15.7175 71.8752 15.4629C71.8559 15.1052 71.9215 14.748 72.0666 14.4196C72.2117 14.0912 72.4324 13.8006 72.7112 13.5709C73.402 13.0818 74.2435 12.844 75.0922 12.8979H77.3129L77.3123 13.6676Z" fill="#5C5C5C"/>
<path d="M87.9999 0H83.9437V20.2949H87.9999V0Z" fill="#5C5C5C"/>
<path d="M53.6441 6.84802H49.5879V20.2949H53.6441V6.84802Z" fill="#5C5C5C"/>
<path d="M54.2481 2.63629C54.2481 3.31774 53.9736 3.97128 53.4848 4.45313C52.9961 4.93499 52.3332 5.20569 51.6421 5.20569C50.9509 5.20569 50.288 4.93499 49.7993 4.45313C49.3106 3.97128 49.036 3.31774 49.036 2.63629C49.036 1.95485 49.3106 1.30131 49.7993 0.819454C50.288 0.337598 50.9509 0.0668945 51.6421 0.0668945C52.3332 0.0668945 52.9961 0.337598 53.4848 0.819454C53.9736 1.30131 54.2481 1.95485 54.2481 2.63629Z" fill="#5C5C5C"/>
<path d="M61.6571 25.5979C61.6571 27.1162 60.8054 28.0012 59.4345 28.0012C58.8314 28.0079 58.2334 27.8923 57.6776 27.6616V21.6044H58.7826V23.7933L58.8185 23.8552C58.9485 23.6924 59.1129 23.5594 59.3002 23.4653C59.4875 23.3713 59.6933 23.3184 59.9034 23.3105C60.9518 23.3105 61.6596 24.105 61.6596 25.5973M59.4609 27.0103C60.0435 27.0103 60.5187 26.5102 60.5187 25.6524C60.5187 24.7947 60.1781 24.3126 59.6846 24.3126C59.5059 24.3259 59.3323 24.3776 59.176 24.464C59.0197 24.5504 58.8843 24.6694 58.7795 24.8127V26.8863C58.9959 26.9714 59.2279 27.0136 59.4609 27.0103Z" fill="#5C5C5C"/>
<path d="M69.6325 27.9913C69.4941 27.9272 69.3727 27.8323 69.2779 27.714C69.1831 27.5956 69.1175 27.4572 69.0863 27.3096C68.9578 27.5079 68.7836 27.6736 68.5779 27.793C68.3723 27.9124 68.1409 27.9823 67.9027 27.9969C67.7031 28.0089 67.5033 27.9786 67.3167 27.908C67.1301 27.8375 66.961 27.7282 66.8208 27.5877C66.6806 27.4472 66.5726 27.2787 66.5041 27.0936C66.4356 26.9085 66.4082 26.711 66.4236 26.5145C66.4236 25.6834 67.0692 25.1833 68.1088 25.1833C68.3732 25.1879 68.6369 25.2117 68.8977 25.2546V24.9447C68.8977 24.5246 68.6557 24.2829 68.0736 24.2829C67.6679 24.2748 67.2677 24.3771 66.9171 24.5785L66.6392 23.9618C66.8382 23.749 67.0811 23.5806 67.3517 23.4682C67.6222 23.3557 67.914 23.3017 68.2075 23.3099C69.454 23.3099 70.0304 23.9711 70.0304 24.9887V26.5424C70.0006 26.8981 70.0922 27.2534 70.2906 27.5519L69.6325 27.9913ZM68.2496 25.9462C67.7468 25.9462 67.5236 26.1606 67.5236 26.5089C67.5205 26.582 67.5332 26.6549 67.5609 26.7227C67.5885 26.7906 67.6305 26.8518 67.684 26.9025C67.7375 26.9531 67.8013 26.992 67.8712 27.0164C67.9411 27.0409 68.0154 27.0504 68.0893 27.0444C68.2528 27.0306 68.411 26.9809 68.5524 26.899C68.6938 26.817 68.8148 26.7049 68.9065 26.5709V25.9995C68.6901 25.9648 68.4713 25.9467 68.2521 25.9456" fill="#5C5C5C"/>
<path d="M76.0917 23.4438L76.208 23.9352C76.6154 23.568 77.1369 23.3476 77.6876 23.3099C78.5048 23.3099 78.9781 23.8813 78.9781 24.8196V27.3568C78.9858 27.4285 78.9772 27.5009 78.953 27.569C78.9288 27.637 78.8896 27.6989 78.8381 27.7501C78.7867 27.8013 78.7243 27.8407 78.6556 27.8653C78.5869 27.8898 78.5134 27.899 78.4407 27.8922H77.8749V24.9101C77.8749 24.5079 77.6864 24.3114 77.3909 24.3114C76.9876 24.3703 76.6074 24.5337 76.2891 24.7849V27.358C76.2965 27.4305 76.2875 27.5038 76.2625 27.5724C76.2376 27.641 76.1974 27.7032 76.1449 27.7545C76.0924 27.8059 76.029 27.845 75.9592 27.869C75.8894 27.8931 75.8151 27.9014 75.7416 27.8935H75.1859V23.4438H76.0917Z" fill="#5C5C5C"/>
<path d="M85.0915 21.6044V25.4275C85.1251 25.2547 85.2203 25.0995 85.3599 24.99L87.108 23.3111L87.7994 24.0343L86.2576 25.5173L87.8981 27.5625C87.8183 27.6776 87.7113 27.7719 87.5864 27.8373C87.4615 27.9027 87.3224 27.9373 87.1809 27.938C87.058 27.9298 86.9388 27.8933 86.8329 27.8313C86.7269 27.7693 86.6373 27.6835 86.5712 27.581L85.2795 26.0187C85.186 25.9008 85.1215 25.7631 85.0909 25.6165V27.3573C85.0981 27.4305 85.0886 27.5043 85.063 27.5734C85.0375 27.6424 84.9965 27.7049 84.9432 27.7563C84.8899 27.8077 84.8256 27.8466 84.755 27.8702C84.6844 27.8938 84.6093 27.9015 84.5353 27.8928H83.9884V21.6044H85.0915Z" fill="#5C5C5C"/>
</g>
</g>
<defs>
<clipPath id="clip0_624_14716">
<rect width="88" height="28" fill="white"/>
</clipPath>
</defs>
</svg>
