<svg width="94" height="21" viewBox="0 0 94 21" fill="none" xmlns="http://www.w3.org/2000/svg">
<g clip-path="url(#clip0_624_14712)">
<mask id="mask0_624_14712" style="mask-type:luminance" maskUnits="userSpaceOnUse" x="0" y="0" width="94" height="21">
<path d="M94 0H0V21H94V0Z" fill="white"/>
</mask>
<g mask="url(#mask0_624_14712)">
<path d="M0 8.63192C0 3.93828 3.67186 0.578857 8.61248 0.578857C11.3552 0.578857 13.6439 1.55767 15.1402 3.33721L12.7828 5.47292C11.7175 4.27181 10.3806 3.64821 8.79414 3.64821C5.82489 3.64821 3.71685 5.69521 3.71685 8.63164C3.71685 11.5681 5.82489 13.6151 8.79414 13.6151C10.3806 13.6151 11.7175 12.9913 12.7828 11.7684L15.1402 13.9039C13.6439 15.706 11.3552 16.6849 8.5898 16.6849C3.67186 16.6851 0 13.3257 0 8.63192Z" fill="#7B7B7B"/>
<path d="M37.0423 4.98343H40.1704V7.65298H37.1335L37.0982 16.6849H33.5617L33.5973 7.65298H31.6806V4.98343H33.5973V4.4491C33.5973 1.75815 35.239 0 38.2758 0C39.2731 0 40.3153 0.200796 40.9731 0.645754L40.0434 3.15957C39.6209 2.87712 39.1235 2.72965 38.6162 2.73649C37.5735 2.73649 37.0423 3.29268 37.0423 4.47191V4.98343Z" fill="#5C5C5C"/>
<path d="M40.8727 10.5218C40.8727 6.91834 43.7063 4.35974 47.5824 4.35974C51.4585 4.35974 54.2685 6.91834 54.2685 10.5218C54.2685 14.1253 51.4214 16.6835 47.5457 16.6835C43.67 16.6835 40.8727 14.1254 40.8727 10.5218ZM50.6865 10.5218C50.6865 8.45288 49.3496 7.20719 47.582 7.20719C45.8144 7.20719 44.4543 8.45288 44.4543 10.5218C44.4543 12.5908 45.8135 13.8366 47.5824 13.8366C49.3513 13.8366 50.6869 12.5908 50.6869 10.5218" fill="#5C5C5C"/>
<path d="M64.3113 4.35327V7.60561C64.012 7.58279 63.7818 7.56036 63.5052 7.56036C61.5268 7.56036 60.2152 8.62118 60.2152 10.9477L60.1786 16.6845H56.5886V4.53446H60.0542V6.138C60.9282 4.96348 62.4013 4.35365 64.3111 4.35365" fill="#5C5C5C"/>
<path d="M78.7689 4.53822V14.5043C78.7689 18.9533 76.2856 20.9996 71.8883 20.9996C69.5764 20.9996 67.3329 20.4434 65.9045 19.3531L67.3099 16.8612C68.3531 17.6849 70.0521 18.2187 71.6168 18.2187C74.1094 18.2187 75.2337 17.1063 75.2337 14.9482V14.4363C74.3039 15.4379 72.9666 15.9275 71.3801 15.9275C68.0029 15.9275 65.2833 13.6359 65.2833 10.1432C65.2833 6.65045 68.0027 4.35986 71.3801 4.35986C73.0806 4.35986 74.4855 4.91606 75.4147 6.07285V4.53822H78.7689ZM75.2785 10.1435C75.2785 8.38663 73.9417 7.20702 72.0833 7.20702C70.2249 7.20702 68.864 8.38682 68.864 10.1435C68.864 11.9001 70.2244 13.0799 72.0833 13.0799C73.9422 13.0799 75.2785 11.9008 75.2785 10.1435Z" fill="#5C5C5C"/>
<path d="M93.932 11.5017H84.707C85.0471 12.9925 86.3394 13.9047 88.1973 13.9047C89.4897 13.9047 90.4188 13.5264 91.2578 12.7474L93.1385 14.7498C92.0055 16.017 90.2698 16.685 88.0718 16.685C83.8557 16.685 81.1487 14.0822 81.1487 10.5229C81.1487 6.9412 83.9367 4.36035 87.6537 4.36035C91.2343 4.36035 93.9994 6.71862 93.9994 10.5671C93.9994 10.8341 93.954 11.2124 93.9313 11.5017M84.6612 9.47698H90.6672C90.418 7.96432 89.2619 6.98598 87.6753 6.98598C86.0666 6.98598 84.9102 7.94245 84.6612 9.47698Z" fill="#5C5C5C"/>
<path d="M23.6273 13.8363C21.8645 13.8308 20.5109 12.5861 20.5109 10.5219C20.5109 8.45762 21.8645 7.21296 23.6273 7.2074V4.35986C19.7572 4.36505 16.9294 6.92195 16.9294 10.5219C16.9294 14.1254 19.7268 16.6835 23.6025 16.6835H23.6273V13.8363Z" fill="#7B7B7B"/>
<path d="M23.6273 13.8363C25.39 13.8308 26.7436 12.5861 26.7436 10.5219C26.7436 8.45762 25.39 7.21296 23.6273 7.2074V4.35986C27.4974 4.36505 30.3251 6.92195 30.3251 10.5219C30.3251 14.1254 27.5277 16.6835 23.652 16.6835H23.6273V13.8363Z" fill="#5C5C5C"/>
</g>
</g>
<defs>
<clipPath id="clip0_624_14712">
<rect width="94" height="21" fill="white"/>
</clipPath>
</defs>
</svg>
