<svg width="118" height="31" viewBox="0 0 118 31" fill="none" xmlns="http://www.w3.org/2000/svg">
<g clip-path="url(#clip0_624_14708)">
<path d="M117.956 30.6532H0.0214844V-0.0321045H118.021V30.6532H117.956Z" fill="white"/>
<path d="M116.178 28.8753H22.0148V1.81165H116.178V28.8753Z" fill="#5C5C5C"/>
<path d="M47.2347 12.8742H49.2101V20.4467H47.2347V12.8742ZM47.2347 9.64758H49.2101V11.4913H47.2347V9.64758Z" fill="white"/>
<path d="M27.8753 10.1743H33.9333V11.8205H29.9166V14.3228H33.5383V15.969H29.9166V18.8663H33.9333V20.5125H27.8753V10.1743Z" fill="white"/>
<path d="M34.9869 12.8742H36.8306V13.9277H36.8965C37.4891 13.0059 38.411 12.6766 39.1353 12.6766C40.1889 12.6766 40.9132 13.0717 41.3742 13.9936C41.8351 13.0717 42.8228 12.6766 43.7447 12.6766C45.5884 12.6766 46.1152 13.9278 46.1152 15.6398V20.3809H44.1398V15.9032C44.1398 15.1789 44.1398 14.1911 43.0204 14.1911C41.7034 14.1911 41.5717 15.7715 41.5717 16.7592V20.4467H39.5963V15.969C39.5963 15.2447 39.5963 14.257 38.4768 14.257C37.1599 14.257 37.0282 15.8374 37.0282 16.8251V20.5126H35.0527L34.9869 12.8742Z" fill="white"/>
<path d="M50.2637 12.8742H52.0416V14.5862C52.1074 13.8619 52.9634 12.6766 54.0829 12.6766C54.2804 12.6766 54.478 12.6766 54.6755 12.7425V14.7179C54.478 14.5862 54.1487 14.5862 53.8195 14.5862C52.2391 14.5862 52.2391 16.5617 52.2391 17.6811V20.4467H50.2637V12.8742Z" fill="white"/>
<path d="M57.7704 19.1298C58.363 19.1298 58.8239 18.8664 59.1532 18.4713C59.4824 18.0762 59.5482 17.4836 59.5482 16.8909H58.6922C57.8362 16.8909 56.5192 17.0226 56.5192 18.2079C56.5192 18.8664 57.046 19.1298 57.7704 19.1298ZM55.4657 13.2693C56.2558 12.94 57.2436 12.6766 58.0996 12.6766C60.4043 12.6766 61.392 13.5985 61.392 15.8374V16.8251C61.392 17.6153 61.392 18.142 61.392 18.7347C61.392 19.3273 61.4578 19.8541 61.4578 20.4467H59.7458C59.6799 20.0516 59.6799 19.5248 59.6799 19.3273H59.6141C59.1532 20.1833 58.1654 20.6443 57.3094 20.6443C55.9924 20.6443 54.6755 19.8541 54.6755 18.4054C54.6755 17.286 55.2023 16.6275 55.9924 16.2324C56.7168 15.8373 57.7045 15.7715 58.5605 15.7715H59.6141C59.6141 14.5204 59.0873 14.1253 57.902 14.1253C57.046 14.1253 56.2558 14.4545 55.5974 14.9813L55.4657 13.2693Z" fill="white"/>
<path d="M62.9065 14.2569H61.4579V12.8082H62.9065V11.2937L64.882 10.6353V12.8082H66.6599V14.2569H64.882V17.7469C64.882 18.4053 65.0795 18.998 65.8039 18.998C66.1331 18.998 66.5282 18.9321 66.7257 18.8004L66.7916 20.3808C66.3965 20.5125 65.9356 20.5783 65.3429 20.5783C63.8284 20.5783 62.9724 19.5906 62.9724 18.142L62.9065 14.2569Z" fill="white"/>
<path d="M71.9277 15.9031C71.8619 14.9813 71.4009 14.1252 70.3474 14.1252C69.2279 14.1252 68.7012 14.9154 68.5695 15.9031H71.9277ZM73.2447 19.9857C72.5204 20.3808 71.7302 20.5784 70.6766 20.5784C68.1744 20.5784 66.7257 19.1297 66.7257 16.6275C66.7257 14.4545 67.911 12.6107 70.2157 12.6107C73.0471 12.6107 73.8373 14.5203 73.8373 17.1543H68.6353C68.7012 18.3395 69.5572 19.0638 70.8083 19.0638C71.7302 19.0638 72.5862 18.7346 73.3105 18.2737L73.2447 19.9857Z" fill="white"/>
<path d="M79.1052 14.4545C78.5125 14.2569 78.0516 14.1252 77.3273 14.1252C76.8005 14.1252 76.142 14.3228 76.142 14.9813C76.142 16.1665 79.5661 15.4422 79.5661 18.142C79.5661 19.9199 77.9858 20.5784 76.4054 20.5784C75.6811 20.5784 74.8909 20.4467 74.1666 20.2491L74.2983 18.6029C74.8909 18.9322 75.5494 19.1297 76.2079 19.1297C76.7346 19.1297 77.5248 18.9321 77.5248 18.2078C77.5248 16.6933 74.1007 17.7469 74.1007 14.9813C74.1007 13.3351 75.5494 12.6107 77.0639 12.6107C77.9858 12.6107 78.5784 12.7424 79.2369 12.8741L79.1052 14.4545Z" fill="white"/>
<path d="M83.6487 10.1743H86.151L90.036 17.8127H90.1019V10.1743H92.0773V20.4466H89.5751L85.69 12.8082H85.6242V20.4466H83.6487V10.1743Z" fill="white"/>
<path d="M95.699 18.8004H96.6867C97.6086 18.8004 98.7938 18.537 98.7938 17.3518C98.7938 16.0348 97.6744 15.8373 96.6867 15.8373H95.699V18.8004ZM95.699 14.3228H96.555C97.411 14.3228 98.4646 14.1252 98.4646 13.0716C98.4646 11.8864 97.411 11.8205 96.4891 11.8205H95.699V14.3228ZM93.6577 10.1743H97.2135C98.5304 10.1743 100.506 10.5694 100.506 12.8082C100.506 13.9935 99.7157 14.8495 98.4646 15.1129C99.8474 15.2446 100.835 16.1665 100.835 17.4176C100.835 19.9857 98.5304 20.3808 97.2135 20.3808H93.6577V10.1743Z" fill="white"/>
<path d="M103.996 18.8004H105.115C106.827 18.8004 108.473 17.5493 108.473 15.3105C108.473 13.0716 106.827 11.8205 105.115 11.8205H103.996V18.8004ZM101.955 10.1743H104.786C107.947 10.1743 110.712 11.2279 110.712 15.3105C110.712 19.3931 107.947 20.4466 104.786 20.4466H101.955V10.1743Z" fill="white"/>
<path d="M20.171 28.8095H1.79938V1.74585H20.171V28.8095Z" fill="#5C5C5C"/>
<path d="M9.37192 18.2737C9.63531 11.5572 13.1911 5.63084 18.6565 1.81165H15.0349C10.623 5.63084 7.72571 10.9645 7.59401 16.9567C7.52816 21.6978 8.38419 25.2536 10.8864 28.8753H11.8083C9.83286 25.517 9.24022 22.027 9.37192 18.2737Z" fill="white"/>
<path d="M9.96456 28.8753C7.79157 26.5706 5.15764 22.2246 4.89425 17.5494C4.49916 11.8206 6.40875 6.22348 10.2279 1.81165H13.1911C8.5159 6.42102 6.14536 12.6107 6.67215 18.6688C7.00139 22.5538 8.58174 25.4511 10.8864 28.8094L9.96456 28.8753Z" fill="#A3A3A3"/>
<path d="M10.9523 23.2123C12.9277 21.171 14.7715 18.2079 15.3641 15.3105C16.1543 11.1621 15.1007 7.80384 15.0349 7.54044C14.969 7.3429 14.969 7.27705 14.969 7.27705C15.0349 7.21121 15.43 8.00138 15.6934 8.59402C16.2201 9.71344 16.8128 11.5572 16.8128 13.6643C16.7469 16.2983 15.8251 18.8663 14.113 20.9076C13.5204 21.632 12.8619 22.2246 12.0717 22.7514C11.5449 23.0806 10.7548 23.5416 10.6889 23.4757C10.7548 23.4099 10.8864 23.344 10.9523 23.2123Z" fill="white"/>
<path d="M10.8865 23.2781C12.2034 21.7636 13.3887 19.5907 13.7179 17.4835C14.113 14.5203 13.1911 12.1498 13.1911 12.0181C13.1253 11.8864 13.1253 11.8206 13.1253 11.8206C13.1911 11.8206 13.5204 12.2815 13.7179 12.6766C14.1789 13.4668 14.6398 14.7179 14.7057 16.2324C14.7715 18.0761 14.2447 19.9857 13.1253 21.4344C12.7302 21.9612 12.2693 22.4221 11.7425 22.8172C11.4132 23.0806 10.8206 23.4098 10.8206 23.4098C10.7548 23.4098 10.8206 23.344 10.8865 23.2781Z" fill="#A3A3A3"/>
</g>
<defs>
<clipPath id="clip0_624_14708">
<rect width="118" height="30.6853" fill="white"/>
</clipPath>
</defs>
</svg>
