<svg width="50" height="54" viewBox="0 0 50 54" fill="none" xmlns="http://www.w3.org/2000/svg">
<path d="M39.9512 45.0156H36.1782C36.2325 45.7846 36.842 46.337 37.7764 46.337C38.2748 46.3434 38.7642 46.2043 39.185 45.9367L39.6629 47.025C39.0796 47.3599 38.4208 47.5404 37.7486 47.5495C37.3499 47.5588 36.9534 47.4884 36.5821 47.3424C36.2109 47.1965 35.8724 46.9779 35.5864 46.6994C35.3003 46.4209 35.0725 46.0882 34.9162 45.7206C34.7599 45.3529 34.6783 44.9578 34.676 44.5582C34.6596 42.8414 35.5257 41.444 37.3832 41.444C39.0686 41.444 40.0384 42.621 40.0384 44.244C40.0309 44.5032 40.0017 44.7613 39.9512 45.0156ZM37.3819 42.6083C36.5486 42.6083 36.1921 43.2595 36.1845 43.9171H38.5869C38.5806 43.1772 38.1646 42.6045 37.3819 42.6045V42.6083Z" fill="#5C5C5C"/>
<path d="M15.6465 47.5521C14.3821 47.5521 13.0304 47.1074 13.0304 45.7391C13.0304 44.1477 14.7425 44.0236 15.8122 43.7753C16.3179 43.6549 16.6517 43.5219 16.6517 43.1823C16.6517 42.8656 16.2724 42.6375 15.6718 42.6375C15.1107 42.6574 14.5589 42.7865 14.047 43.0176L13.5678 41.9559C13.674 41.9065 14.683 41.4491 15.7578 41.4491C17.203 41.4491 18.0527 42.2029 18.0527 43.589V46.147C18.0394 46.4669 18.0753 46.787 18.1589 47.096C17.35 47.377 16.5025 47.5309 15.6465 47.5521ZM16.6479 45.5566V44.5557C16.4507 44.7141 15.9727 44.8408 15.5466 44.9421C15.0409 45.0587 14.5705 45.2335 14.5705 45.6681C14.5705 46.2066 15.0851 46.403 15.6263 46.403C15.99 46.4012 16.351 46.3396 16.6947 46.2205C16.6597 46.001 16.6441 45.7789 16.6479 45.5566Z" fill="#5C5C5C"/>
<path d="M28.2022 47.4241V43.7752C28.2022 43.0834 27.809 42.6666 27.125 42.6666C26.6103 42.6666 26.0818 42.9631 25.8833 43.0986V47.4254H24.4823V38.9075L25.8833 38.5793V41.9077C26.3797 41.6079 26.9475 41.4477 27.527 41.444C28.8711 41.444 29.6108 42.2434 29.6108 43.5193V47.4241H28.2022Z" fill="#5C5C5C"/>
<path d="M46.2265 42.9087V49.877L44.8243 50.0569V47.3532C44.4806 47.4812 44.1174 47.5485 43.7508 47.5521C42.1753 47.5521 40.8641 46.2775 40.8641 44.486C40.8641 42.6945 42.0944 41.4453 44.0062 41.4453C44.7857 41.4682 45.557 41.6105 46.2935 41.8672C46.2468 42.2124 46.2244 42.5604 46.2265 42.9087ZM43.9746 42.6667C42.8745 42.6667 42.432 43.5067 42.432 44.5025C42.432 45.4718 43.0174 46.3358 44.0555 46.3358C44.3204 46.3353 44.5823 46.2792 44.8243 46.1711V43.5447C44.826 43.3001 44.8442 43.0558 44.8787 42.8136C44.588 42.7113 44.2814 42.6615 43.9733 42.6667H43.9746Z" fill="#5C5C5C"/>
<path d="M10.5977 47.4241V43.7499C10.5977 43.0961 10.2639 42.6692 9.57478 42.6692C9.1948 42.6896 8.82379 42.7925 8.48738 42.9707C8.55187 43.2648 8.582 43.5654 8.57715 43.8665V47.4254H7.18123V43.7398C7.18123 43.0835 6.81961 42.6717 6.15579 42.6717C5.79437 42.6834 5.43925 42.7696 5.11264 42.9251C5.15022 43.1119 5.16677 43.3023 5.16195 43.4927V47.4203H3.76097V42.7933C3.75558 42.5397 3.71863 42.2878 3.65097 42.0433C3.79638 41.985 5.15563 41.4427 6.28982 41.4427C7.49734 41.4427 7.93356 41.9571 7.99552 42.0192C8.09288 41.9647 8.89958 41.4427 9.81502 41.4427C11.13 41.4427 12.0037 42.1966 12.0037 43.4699V47.4254L10.5977 47.4241Z" fill="#5C5C5C"/>
<path d="M34.1551 42.7794C33.9037 42.7097 33.6446 42.6718 33.3838 42.6666C33.0105 42.6687 32.6391 42.7216 32.28 42.8237C32.3306 43.0871 32.3527 43.3551 32.3457 43.6232V47.4241H30.9422V43.2431C30.9452 42.8575 30.91 42.4726 30.8373 42.094C30.9928 42.0357 32.2458 41.4503 33.4926 41.4503C33.855 41.4493 34.2163 41.4918 34.5686 41.577L34.1551 42.7794Z" fill="#5C5C5C"/>
<path d="M21.0861 47.5522C20.4265 47.5429 19.7741 47.4141 19.1604 47.1721L19.5675 46.0635C19.5979 46.0774 20.2162 46.4131 20.8446 46.4131C21.5198 46.4131 21.8561 46.1331 21.8561 45.748C21.8561 45.4718 21.6715 45.2412 21.1999 45.041C21.0406 44.9777 20.7902 44.8801 20.6119 44.8155C20.0075 44.5887 19.3108 44.1693 19.3108 43.1925C19.3108 42.0332 20.378 41.4466 21.4389 41.439C22.031 41.4262 22.6181 41.5502 23.1547 41.8014L22.7576 42.8846C22.351 42.7183 21.9172 42.6286 21.4781 42.6198C21.0873 42.6198 20.7497 42.7693 20.7497 43.119C20.7497 43.4434 20.9824 43.6131 21.4085 43.7816C21.5779 43.845 21.8169 43.9349 21.999 44.0135C22.7576 44.3112 23.4114 44.7851 23.4114 45.7176C23.4076 47.0061 22.305 47.5522 21.0861 47.5522Z" fill="#5C5C5C"/>
<path d="M10.3725 30.0595L9.46311 29.1444L8.5347 30.1318L9.47576 31.0773L10.3725 30.1508L11.3174 31.0773L12.2597 30.0823L11.2896 29.1368L10.3725 30.0595Z" fill="#5C5C5C"/>
<path d="M46.349 37.4472H44.9501V28.9555L46.349 28.6285V37.4472Z" fill="#5C5C5C"/>
<path d="M43.4385 36.0024V28.6299L42.0409 28.9569V34.5829C42.0409 35.4346 42.1547 35.768 42.1673 35.8504C42.1205 35.8694 41.7196 36.0684 40.9493 36.0684H38.1666C38.2108 35.9961 38.3209 35.3624 37.8618 34.5475C37.1155 33.2255 36.6867 32.1394 35.6204 32.1394C34.305 32.1394 33.7585 33.4258 32.8377 34.9568C32.5847 35.3751 32.3318 36.0709 31.2617 36.0709H28.9849C28.8899 35.9251 28.8397 35.7545 28.8407 35.5804C28.8407 33.7933 28.1337 32.7439 27.3975 32.1812L26.4438 33.1317C27.1724 33.6628 27.4924 34.2636 27.4924 35.3801C27.4924 35.8732 27.5885 35.9847 27.6366 36.0709H26.0138C25.9209 35.8753 25.8774 35.6599 25.8873 35.4435C25.8873 34.0253 25.1069 33.3738 24.6224 32.9771L23.6953 33.9251C23.8635 34.0519 24.5946 34.4524 24.5946 35.3916C24.5946 35.8428 24.6793 36.005 24.7072 36.0696H23.1792C23.0943 35.8718 23.0546 35.6574 23.0629 35.4423C23.0629 34.024 22.2774 33.3726 21.798 32.9759L20.8671 33.9239C21.0467 34.0709 21.7689 34.5145 21.7689 35.4511C21.7595 35.6627 21.798 35.8737 21.8815 36.0684H18.2703C18.1792 34.8681 17.5784 33.9137 16.8903 33.4182L15.9126 34.4055C16.5273 35.0646 16.86 35.8073 16.86 36.8567C16.86 38.4511 15.8658 39.4422 14.1102 39.7363L14.2366 40.6589C16.9953 40.4866 18.1792 38.9429 18.2614 37.446H31.6247C32.6366 37.446 33.0945 36.9074 33.2134 36.6995C33.3399 36.844 33.8724 37.446 35.289 37.446H40.886C41.8087 37.457 42.7253 37.2959 43.5891 36.9708C43.4884 36.6579 43.4376 36.3311 43.4385 36.0024ZM36.3351 36.0747H35.7621C34.6237 36.0747 34.2152 35.6083 33.9774 35.3751C34.6288 34.2205 34.8628 33.6666 35.4282 33.6666C35.9151 33.6666 36.0947 34.1736 36.6778 35.2306C36.9485 35.7084 36.6918 36.0696 36.3351 36.0696V36.0747Z" fill="#5C5C5C"/>
<path d="M24.4176 30.057L23.5082 29.1483L22.581 30.1267L23.5208 31.0773L24.4176 30.1508L25.3612 31.0773L26.3086 30.0785L25.3359 29.1331L24.4176 30.057Z" fill="#5C5C5C"/>
<path d="M23.4778 28.5754L24.4201 29.5196L25.3611 28.5475L24.4087 27.5894L23.4778 28.5754Z" fill="#5C5C5C"/>
<path d="M8.05906 40.2013C2.82632 40.2013 3.1261 35.8439 4.53642 33.4561L5.64697 34.0176C3.95585 36.8363 5.28775 38.7907 8.05906 38.7907C10.3282 38.7907 11.7272 38.2077 11.9207 37.4345L10.3535 37.4434C7.13571 37.4434 8.25512 33.2292 10.1094 32.7413C11.0113 32.503 11.7322 33.0759 12.0826 33.451C12.7441 34.1608 13.3222 34.9301 13.3222 36.6069C13.3222 38.7729 11.7778 40.2013 8.05906 40.2013ZM10.2308 34.1874C9.11523 34.4029 9.08613 36.067 10.6836 36.067H11.9194C11.5223 34.5651 10.6685 34.1012 10.2308 34.1887V34.1874Z" fill="#5C5C5C"/>
<path d="M43.8023 18.2249C45.0879 17.5419 45.7973 16.3621 46.312 15.0332C44.9411 14.7228 43.5821 14.6606 42.3093 15.3437C41.0237 16.0267 40.3135 17.2066 39.7996 18.5354C41.1586 18.8583 42.5168 18.908 43.8023 18.2249Z" fill="#5C5C5C"/>
<path d="M41.9909 13.9034C40.8641 15.7165 39.3711 16.4244 38.0616 16.8218C37.8405 15.4433 37.8286 13.7667 38.9545 11.9535C40.0813 10.1403 41.5623 9.43245 42.8846 9.03503C43.1049 10.426 43.1168 12.0902 41.9909 13.9034Z" fill="#5C5C5C"/>
<path d="M37.633 10.8109C37.6697 8.22776 36.4576 6.27795 35.65 5.18506C34.7682 6.31521 33.5321 8.16566 33.4954 10.7489C33.4587 13.1333 34.4746 15.021 35.4785 16.3748C36.519 15.0334 37.5963 13.1955 37.633 10.8109Z" fill="#5C5C5C"/>
<path d="M31.4144 9.34545C29.8719 6.45179 27.3869 4.88697 25.759 3.94312C25.6728 5.8805 25.526 8.73692 27.1052 11.6927C28.5376 14.3876 30.7042 15.8779 32.7606 17.095C32.9074 14.6981 32.8101 11.9783 31.4144 9.34545Z" fill="#5C5C5C"/>
<path d="M23.7026 11.407C20.1523 9.37026 16.0881 8.89833 13.4196 8.93559C14.7052 11.1835 17.1654 14.5118 20.8011 16.5983C24.3019 18.6101 28.2559 19.1068 31.084 19.0697C29.6029 16.5361 27.2153 13.4189 23.7026 11.407Z" fill="#5C5C5C"/>
<path d="M16.9691 18.3492C12.5504 18.3492 7.60494 19.6781 3.65097 21.5409C7.65385 23.3915 12.4157 24.7327 16.9691 24.7327C20.5928 24.7327 24.9267 24.0123 30.2884 21.5409C24.412 18.8708 20.3478 18.3616 16.9691 18.3492Z" fill="#5C5C5C"/>
</svg>
