<svg width="220" height="80" viewBox="0 0 220 80" fill="none" xmlns="http://www.w3.org/2000/svg">
<g clip-path="url(#clip0_1491_21615)">
<path d="M89.5835 31.0859C89.5835 30.9467 89.7009 30.8378 89.8314 30.8378H90.6624C90.8016 30.8378 90.9321 30.9467 90.9321 31.0859V31.9514C90.9321 32.0688 90.8016 32.1777 90.6624 32.1777H89.8314C89.7009 32.1777 89.5835 32.0688 89.5835 31.9514V31.0859ZM52.0913 49.3225L54.384 42.9464L56.0372 38.7972L57.6512 42.9464L59.8873 49.3225H52.0913ZM58.4473 36.6835C58.1254 35.9919 57.9731 35.6048 56.9769 35.6048H55.067C54.1882 35.6048 53.888 35.9919 53.627 36.6835C53.4225 37.2358 45.4177 57.7992 45.4177 57.7992C45.4177 57.7992 45.4177 58.4821 46.1878 58.4821H48.2325C48.6849 58.4821 48.8894 57.995 48.8894 57.995L51.1081 51.9059H60.9706L63.1632 57.995C63.1632 57.995 63.3589 58.4821 63.8332 58.4821H65.7822C66.6131 58.4821 66.6131 57.7992 66.6131 57.7992C66.6131 57.7992 58.6648 37.2358 58.4473 36.6835ZM126.81 55.6811H121.707V47.8654H126.81C129.225 47.8654 130.673 49.5182 130.673 51.819C130.673 54.2111 129.225 55.6811 126.81 55.6811ZM121.707 38.3927H126.432C128.555 38.3927 129.903 39.8541 129.903 41.8983C129.903 43.8119 128.555 45.2385 126.432 45.2385H121.707V38.3927ZM130.186 46.3954C132.035 45.6473 133.184 43.8119 133.184 41.5068C133.184 37.7099 130.378 35.6048 126.432 35.6048H119.467C118.627 35.6048 118.431 36.4921 118.431 36.6835V57.5078C118.431 57.7991 118.431 58.4821 119.467 58.4821H126.614C130.673 58.4821 133.949 56.3509 133.949 51.9059C133.949 49.5182 132.575 47.1957 130.186 46.3954ZM113.002 53.5282C112.741 53.0628 112.332 53.2587 112.075 53.5282C111.101 54.4024 108.795 55.8507 105.693 55.8507C100.668 55.8507 97.1924 51.819 97.1924 46.8825C97.1924 42.1679 100.473 38.2449 105.502 38.2449C108.19 38.2449 110.118 39.28 111.253 40.0498C112.075 40.5456 112.258 40.5456 112.741 40.0498C113.002 39.5583 113.402 38.8929 113.402 38.8929C113.402 38.8929 113.881 38.2449 113.402 37.91C112.258 37.1706 109.617 35.3221 105.502 35.3221C98.8369 35.3221 93.9165 40.3281 93.9165 46.8825C93.9165 53.5282 98.6237 58.7387 105.502 58.7387C109.944 58.7387 112.741 56.6293 113.881 55.6811C114.377 55.368 114.172 55.0766 113.976 54.6851C113.881 54.5242 113.402 53.9371 113.002 53.5282ZM77.7197 55.6811H73.6521V38.3927H77.7197C82.9403 38.3927 86.2205 41.5068 86.2205 47.1C86.2205 52.5671 82.9403 55.6811 77.7197 55.6811ZM78.12 35.6048H71.3507C71.1462 35.6048 70.5719 35.8005 70.5719 36.6835V57.5078C70.5719 58.4821 71.3507 58.4821 71.3507 58.4821H78.12C84.9545 58.4821 89.6791 54.2111 89.6791 47.1C89.6791 39.8541 84.9545 35.6048 78.12 35.6048ZM49.6811 32.0166C49.6811 31.873 49.7986 31.7903 49.9291 31.7903H50.6643C50.7818 31.7903 50.9036 31.873 50.9036 32.0166V32.7822C50.9036 32.904 50.7817 32.9996 50.6643 32.9996H49.9291C49.7986 32.9996 49.6811 32.904 49.6811 32.7822L49.6811 32.0166ZM47.6799 32.0166C47.6799 31.873 47.7886 31.7903 47.9279 31.7903H48.6414C48.7806 31.7903 48.8893 31.873 48.8893 32.0166V32.7822C48.8893 32.904 48.7719 32.9996 48.6414 32.9996H47.9279C47.7887 32.9996 47.6799 32.904 47.6799 32.7822V32.0166ZM45.9267 27.6282C45.9267 27.302 45.9919 26.6627 46.0789 26.1973C46.1137 26.0363 46.1442 25.9843 46.3052 25.9843H47.1404C47.2579 25.9843 47.3232 26.0496 47.3232 26.1888C47.2884 26.5019 47.2579 26.8586 47.2579 27.063C47.2579 28.5678 47.5059 29.69 49.4418 29.69C49.829 29.69 50.1466 29.671 50.4468 29.6246C50.4816 28.9026 50.4816 28.5678 50.4816 27.9849V27.0325C50.4816 25.3797 51.4648 24.6316 53.3224 24.6316C53.8314 24.6316 54.4579 24.6881 54.8624 24.7708C54.9799 24.8055 55.0452 24.8491 55.0452 24.9883V29.6725C55.0452 29.7987 54.9582 29.8988 54.8276 29.8988H53.8749C53.7574 29.8988 53.6704 29.7987 53.6704 29.6725V25.9408C53.4137 25.9092 53.305 25.8972 53.0962 25.8972C52.2739 25.8972 51.8563 26.2103 51.8563 27.1629V28.9461C51.8563 29.4636 51.8433 30.1334 51.8084 30.6466C51.8084 30.7729 51.7344 30.8467 51.5734 30.8815C50.9687 30.9771 50.19 31.0424 49.4113 31.0424C46.9315 31.0424 45.9267 29.8638 45.9267 27.6282ZM55.441 31.4338C55.441 31.325 55.5106 31.2685 55.628 31.2685H55.8543C56.6678 31.2685 56.9593 31.1946 56.9593 30.3073V25.0229C56.9593 24.9011 57.0419 24.8143 57.1725 24.8143H58.1165C58.234 24.8143 58.321 24.9011 58.321 25.0229V30.1463C58.321 30.6944 58.2862 31.2033 58.073 31.6251C57.738 32.2427 57.1855 32.4689 56.2763 32.4689C56.1588 32.4689 55.7803 32.4689 55.5976 32.4373C55.4976 32.4121 55.441 32.3502 55.441 32.2287L55.441 31.4338ZM59.9089 21.8872C59.9089 21.7698 60.009 21.6697 60.1351 21.6697H61.1009C61.2401 21.6697 61.3141 21.7698 61.3141 21.8872V27.9631C61.3141 28.4502 61.5186 28.5111 61.9231 28.5111H62.2799V29.8985H61.5186C60.5353 29.8985 59.9089 29.6375 59.9089 28.3719V21.8872ZM64.5465 31.0859C64.5465 30.9468 64.6683 30.8378 64.7988 30.8378H65.6297C65.7689 30.8378 65.8994 30.9468 65.8994 31.0859V31.9514C65.8994 32.0688 65.7689 32.1777 65.6297 32.1777H64.7988C64.6683 32.1777 64.5465 32.0688 64.5465 31.9514V31.0859ZM62.2799 29.8985C62.1059 29.8985 61.9232 29.8203 61.9232 29.7682V28.6461C61.9232 28.5678 62.1146 28.5111 62.2799 28.5111L66.9827 28.5113L66.4737 27.3892C66.0517 26.4715 65.3165 25.8843 63.9418 25.8843C63.8461 25.8843 63.5198 25.897 63.3588 25.9096C63.2065 25.919 63.1326 25.866 63.1326 25.7312V24.9353C63.1326 24.8268 63.2065 24.7614 63.3501 24.7267C63.7068 24.6528 64.0287 24.6311 64.4072 24.6311C65.9865 24.6311 67.1219 25.2617 67.9877 27.2145C68.2139 27.7321 68.4184 28.254 68.4967 28.3628C68.5706 28.4802 68.6228 28.5108 68.7446 28.5108H68.8533V29.8982L62.2799 29.8985ZM71.4898 22.9658C71.4898 22.8266 71.6203 22.718 71.7508 22.718H72.5078C72.647 22.718 72.7558 22.8266 72.7558 22.9658V23.8096C72.7558 23.9399 72.6469 24.0488 72.5078 24.0488H71.7508C71.6203 24.0488 71.4898 23.9399 71.4898 23.8096V22.9658ZM69.4886 22.9658C69.4886 22.8266 69.6104 22.718 69.7496 22.718H70.4979C70.6371 22.718 70.7676 22.8266 70.7676 22.9658V23.8096C70.7676 23.9399 70.6284 24.0488 70.4979 24.0488H69.7496C69.6104 24.0488 69.4886 23.9399 69.4886 23.8096V22.9658ZM68.4749 28.646C68.4749 28.5677 68.6663 28.5112 68.8317 28.5112H69.8366C70.0846 28.5112 70.4631 28.4797 70.4631 28.1459V25.0231C70.4631 24.9012 70.5501 24.8145 70.6806 24.8145H71.6203C71.7378 24.8145 71.8248 24.9012 71.8248 25.0231V28.3285C71.9117 28.4806 72.3338 28.5113 72.5296 28.5113H72.7862V29.8987H72.6557C72.1075 29.8987 71.5028 29.8334 71.1243 29.529C70.7241 29.8118 70.0933 29.8987 69.6321 29.8987H68.8317C68.6664 29.8987 68.4749 29.8551 68.4749 29.7683V28.646ZM72.4295 28.646C72.4295 28.5677 72.6252 28.5113 72.7862 28.5113L73.739 28.5112C74.087 28.5112 74.1609 28.5017 74.1609 28.1546V21.8959C74.1609 21.7697 74.261 21.6696 74.3785 21.6696H75.3617C75.4791 21.6696 75.5661 21.7697 75.5661 21.8959V28.1763C75.5661 28.5678 75.5573 29.0766 75.5139 29.4637C75.4791 29.6073 75.4356 29.7029 75.2659 29.7768C74.9527 29.8636 74.0652 29.8986 73.4822 29.8986L72.7862 29.8987C72.6252 29.8987 72.4294 29.8551 72.4294 29.7683L72.4295 28.646ZM76.9496 21.8872C76.9496 21.7698 77.0366 21.6697 77.1671 21.6697H78.1416C78.2721 21.6697 78.3591 21.7698 78.3591 21.8872V29.6724C78.3591 29.7898 78.2722 29.8987 78.1416 29.8987H77.1671C77.0366 29.8987 76.9496 29.7898 76.9496 29.6724V21.8872ZM85.4721 32.0167C85.4721 31.8731 85.5896 31.7904 85.7114 31.7904H86.4466C86.5641 31.7904 86.6859 31.8731 86.6859 32.0167V32.7822C86.6859 32.904 86.5641 32.9996 86.4466 32.9996H85.7114C85.5896 32.9996 85.4721 32.904 85.4721 32.7822V32.0167ZM83.4622 32.0167C83.4622 31.8731 83.5797 31.7904 83.7102 31.7904H84.4324C84.5629 31.7904 84.6803 31.8731 84.6803 32.0167V32.7822C84.6803 32.904 84.5542 32.9996 84.4324 32.9996H83.7102C83.5797 32.9996 83.4622 32.904 83.4622 32.7822V32.0167ZM81.722 27.6282C81.722 27.3107 81.7743 26.6627 81.8613 26.1973C81.883 26.0581 81.9569 25.9843 82.0788 25.9843H82.9097C83.0489 25.9843 83.1055 26.0496 83.0924 26.1888C83.0621 26.5019 83.0402 26.8586 83.0402 27.063C83.0402 28.5678 83.2882 29.69 85.2241 29.69C85.6113 29.69 85.9245 29.6711 86.2291 29.6247C86.2594 28.9027 86.2594 28.5678 86.2594 27.9849V27.0325C86.2594 25.3885 87.2556 24.6317 89.0393 24.6317C89.6136 24.6317 90.2183 24.697 90.5968 24.7709C90.7186 24.8056 90.7838 24.8491 90.7838 24.9883V28.1372C90.7838 28.4503 90.9013 28.5112 91.2798 28.5112H91.7757V29.8986H90.9231C89.9268 29.8986 89.4091 29.6594 89.4091 28.533V25.9408C89.1916 25.9092 89.0828 25.8973 88.8783 25.8973C88.0561 25.8973 87.6341 26.2104 87.6341 27.1629V28.9461C87.6341 29.4637 87.6253 30.1335 87.5906 30.6467C87.5906 30.7729 87.5166 30.8468 87.3513 30.8815C86.7466 30.9771 85.9809 31.0425 85.1891 31.0425C82.7137 31.0425 81.722 29.8638 81.722 27.6282ZM98.4058 28.5459C98.5885 28.5459 98.6233 28.4241 98.6233 27.8327V27.6717C98.6233 26.3495 98.0056 25.9276 96.5873 25.9276C96.1001 25.9276 95.1082 25.993 94.5644 26.393V28.5242C94.9037 28.5336 95.3126 28.5463 95.8651 28.5463L98.4058 28.5459ZM91.5364 28.7069C91.5364 28.5895 91.6366 28.5112 91.754 28.5112H93.1592V21.896C93.1592 21.7697 93.2461 21.6697 93.3767 21.6697H94.3599C94.4817 21.6697 94.5644 21.7697 94.5644 21.896V25.1927C95.3214 24.6751 96.4394 24.6142 96.9441 24.6142C98.793 24.6142 99.985 25.3667 99.985 27.5065V27.9502C99.985 28.4243 99.9415 29.0984 99.8415 29.529C99.8112 29.6726 99.724 29.8118 99.4978 29.842C99.0975 29.8985 97.4835 29.8985 96.8701 29.8985H91.7541C91.6366 29.8985 91.5365 29.8203 91.5365 29.7029L91.5364 28.7069ZM96.1566 22.4352C96.1566 22.2961 96.2741 22.1916 96.4133 22.1916H97.2704C97.3965 22.1916 97.5096 22.2961 97.5096 22.4352V23.279C97.5096 23.4093 97.3965 23.5182 97.2573 23.5182H96.4133C96.2523 23.5182 96.1566 23.4093 96.1566 23.279L96.1566 22.4352ZM103.239 27.3456C103.239 28.1676 103.574 28.559 104.383 28.559H105.197V25.919C104.992 25.8969 104.766 25.8843 104.536 25.8843C103.718 25.8843 103.239 26.3758 103.239 27.2065V27.3456ZM102.278 31.4208C102.278 31.299 102.343 31.2381 102.469 31.2381H103.457C104.579 31.2381 105.175 31.0424 105.175 30.2204V29.8985H104.383C102.817 29.8985 101.877 29.0852 101.877 27.5195V27.302C101.877 25.6058 102.913 24.6316 104.775 24.6316C105.327 24.6316 106.063 24.7054 106.363 24.8143C106.506 24.8708 106.55 24.9011 106.55 25.0229V28.5111H107.498V29.8985H106.524V30.2638C106.385 32.0383 105.227 32.4689 103.748 32.4689C103.5 32.4689 102.613 32.4689 102.447 32.4124C102.308 32.3809 102.278 32.3297 102.278 32.2123L102.278 31.4208ZM108.203 31.086C108.203 30.9468 108.32 30.8379 108.451 30.8379H109.286C109.426 30.8379 109.556 30.9468 109.556 31.086V31.9515C109.556 32.0689 109.426 32.1778 109.286 32.1778H108.451C108.32 32.1778 108.203 32.0689 108.203 31.9515V31.086ZM107.468 29.8986C107.302 29.8986 107.111 29.8551 107.111 29.7683V28.6461C107.111 28.5678 107.302 28.5114 107.468 28.5114H108.581C108.925 28.5114 109.012 28.5019 109.012 28.1547V26.4715C109.012 26.0279 108.999 25.5408 108.99 25.0232C108.99 24.9014 109.077 24.8146 109.208 24.8146H110.117C110.278 24.8146 110.343 24.9014 110.352 25.0232C110.365 25.4886 110.374 25.8191 110.374 26.1367V27.5415C110.374 28.4592 110.374 29.0768 110.33 29.4639C110.3 29.6075 110.256 29.7031 110.082 29.7769C109.782 29.864 108.925 29.8988 108.342 29.8988L107.468 29.8986ZM112.275 23.3877C112.275 23.2703 112.366 23.1747 112.497 23.1747H113.467C113.598 23.1747 113.685 23.2703 113.685 23.3877V29.6724C113.685 29.7898 113.598 29.8987 113.467 29.8987H112.497C112.366 29.8987 112.275 29.7898 112.275 29.6724V23.3877ZM112.084 22.4918C111.966 22.4918 111.91 22.4482 111.91 22.3614V22.0483C111.91 21.9745 111.966 21.9397 112.084 21.9397H112.288C112.171 21.7699 112.118 21.544 112.118 21.3222C112.118 20.7176 112.475 20.4175 113.197 20.4175C113.315 20.4175 113.532 20.427 113.706 20.4828C113.785 20.4923 113.824 20.5349 113.824 20.5873V20.883C113.824 20.9569 113.785 20.9919 113.685 20.9919H113.306C112.928 20.9919 112.767 21.1094 112.767 21.4225C112.767 21.6706 112.862 21.8531 112.993 21.9314H113.75C113.867 21.9314 113.924 21.9629 113.924 22.0402V22.3621C113.924 22.4489 113.867 22.4925 113.75 22.4925L112.084 22.4918ZM119.719 25.6059C119.719 25.5191 119.784 25.4755 119.914 25.4755H120.075C119.988 25.3363 119.932 25.0754 119.932 24.871C119.932 24.1664 120.376 23.788 121.154 23.788C121.285 23.788 121.494 23.8006 121.694 23.8533C121.794 23.8754 121.837 23.9404 121.837 24.0405V24.4275C121.837 24.5232 121.794 24.5668 121.694 24.5668C121.611 24.5668 121.35 24.5478 121.263 24.5478C120.932 24.5478 120.776 24.7262 120.776 24.9958C120.776 25.2221 120.876 25.4003 120.95 25.4438H121.759C121.89 25.4438 121.959 25.4959 121.959 25.5915V26.0351C121.959 26.1352 121.89 26.1872 121.759 26.1872H119.914C119.784 26.1872 119.719 26.1352 119.719 26.0351L119.719 25.6059ZM118.17 26.4801C118.292 26.4801 118.357 26.5454 118.357 26.6846C118.344 26.8456 118.344 27.0977 118.344 27.1717C118.344 28.2112 118.862 28.5113 120.302 28.5113H122.921C123.177 28.5113 123.534 28.4797 123.534 28.1459V21.896C123.534 21.7698 123.634 21.6697 123.752 21.6697H124.726C124.844 21.6697 124.944 21.7698 124.944 21.896V28.3286C125.031 28.4807 125.418 28.5114 125.622 28.5114H125.905V29.8988H125.775C125.344 29.8988 124.713 29.8423 124.282 29.5942C123.891 29.842 123.273 29.8988 122.79 29.8988H120.062C117.748 29.8988 117.069 29.042 117.069 27.5415C117.069 27.3979 117.082 26.9152 117.135 26.6977C117.178 26.5323 117.222 26.4802 117.361 26.4802L118.17 26.4801ZM127.545 22.9789C127.545 22.8397 127.667 22.7308 127.806 22.7308H128.659C128.789 22.7308 128.898 22.8397 128.898 22.9789V23.8227C128.898 23.953 128.789 24.0575 128.65 24.0575H127.806C127.641 24.0575 127.545 23.953 127.545 23.8227L127.545 22.9789ZM125.914 29.8986C125.753 29.8986 125.557 29.8551 125.557 29.7683V28.6461C125.557 28.5678 125.753 28.5114 125.914 28.5114H126.932C127.18 28.5114 127.558 28.4798 127.558 28.146V25.0232C127.558 24.9014 127.641 24.8146 127.771 24.8146H128.715C128.833 24.8146 128.92 24.9014 128.92 25.0232V28.3287C129.007 28.4808 129.429 28.5114 129.625 28.5114H129.881V29.8988H129.755C129.203 29.8988 128.598 29.8335 128.219 29.5292C127.819 29.812 127.188 29.8988 126.727 29.8988L125.914 29.8986ZM130.508 31.086C130.508 30.9468 130.63 30.8379 130.76 30.8379H131.591C131.73 30.8379 131.861 30.9468 131.861 31.086V31.9515C131.861 32.0689 131.73 32.1778 131.591 32.1778H130.76C130.63 32.1778 130.508 32.0689 130.508 31.9515V31.086ZM129.881 29.8988C129.72 29.8988 129.525 29.8551 129.525 29.7683V28.6461C129.525 28.5678 129.72 28.5114 129.881 28.5114L130.886 28.5114C131.234 28.5114 131.321 28.5019 131.321 28.1547V26.4367C131.321 25.9931 131.308 25.506 131.299 24.9884C131.299 24.871 131.386 24.7839 131.517 24.7839H132.426C132.587 24.7839 132.648 24.8707 132.661 24.9884C132.674 25.4538 132.683 25.7887 132.683 26.1018V27.5415C132.683 28.4592 132.683 29.0768 132.639 29.4639C132.605 29.6075 132.565 29.7031 132.391 29.7769C132.087 29.864 131.234 29.8988 130.651 29.8988L129.881 29.8988Z" fill="#303D4A"/>
<path d="M174.582 40.4586C174.582 38.0926 172.877 36.9314 170.297 35.0046C167.783 33.1257 163.502 30.3639 160.952 28.846C158.403 27.3325 154.261 24.9925 151.399 23.6269C148.515 22.2482 146.209 21.3304 144.812 21.3304C143.42 21.3304 142.45 21.774 141.767 22.6831C141.08 23.592 140.675 24.9273 140.401 26.6105C140.127 28.298 139.983 30.3378 139.905 32.669C139.835 35.0002 139.831 40.4586 139.831 40.4586C139.831 40.4586 139.835 45.917 139.905 48.2482C139.983 50.5794 140.127 52.6192 140.401 54.3024C140.675 55.9899 141.08 57.3208 141.767 58.2342C142.45 59.1432 143.42 59.5825 144.812 59.5825C146.209 59.5825 148.515 58.6691 151.399 57.2904C154.261 55.9247 158.403 53.5847 160.952 52.0712C163.502 50.5533 167.783 47.7915 170.297 45.9083C172.877 43.9859 174.582 42.8246 174.582 40.4586Z" fill="#B01E28"/>
<path d="M170.628 37.5968H170.097C169.853 37.5968 169.649 37.8013 169.649 38.0491V42.8681C169.649 43.1162 169.853 43.3204 170.097 43.3204H170.628C170.876 43.3204 171.08 43.1159 171.08 42.8681V38.0491C171.08 37.8013 170.876 37.5968 170.628 37.5968Z" fill="#E1261E"/>
<path d="M154.362 36.1702H154.892C155.14 36.1702 155.345 35.9657 155.345 35.7179V28.037C155.345 27.789 155.14 27.5891 154.892 27.5891H154.362C154.114 27.5891 153.909 27.7892 153.909 28.037V35.7179C153.909 35.9657 154.114 36.1702 154.362 36.1702Z" fill="#E1261E"/>
<path d="M159.182 49.0441H158.656C158.403 49.0441 158.203 49.2442 158.203 49.4921V50.0227C158.203 50.2708 158.403 50.4707 158.656 50.4707H159.182C159.434 50.4707 159.634 50.2706 159.634 50.0227V49.4921C159.634 49.2444 159.434 49.0441 159.182 49.0441Z" fill="#E1261E"/>
<path d="M142.916 33.3084H149.167C149.415 33.3084 149.62 33.1039 149.62 32.8561V30.4466H152.03C152.278 30.4466 152.482 30.2421 152.482 29.9986V26.6061C152.482 26.3584 152.278 26.1538 152.03 26.1538H151.499C151.251 26.1538 151.051 26.3583 151.051 26.6061V29.0157H149.62V25.1709C149.62 24.9272 149.415 24.7273 149.167 24.7273H145.774C145.526 24.7273 145.33 24.9273 145.33 25.1752V29.9986C145.33 30.2422 145.53 30.4466 145.778 30.4466H148.188V31.8775H143.899V26.6061C143.899 26.3584 143.694 26.1538 143.446 26.1538H142.916C142.668 26.1538 142.468 26.3583 142.468 26.6061V32.8561C142.468 33.1041 142.668 33.3084 142.916 33.3084ZM148.188 29.0157H146.757V26.1538H148.188V29.0157Z" fill="#E1261E"/>
<path d="M167.77 36.1702H167.239C166.991 36.1702 166.791 36.3747 166.791 36.6182V43.3204H164.376C164.128 43.3204 163.928 43.525 163.928 43.7684V46.1823H162.497V43.7684C162.497 43.5207 162.292 43.3204 162.044 43.3204H157.22C156.976 43.3204 156.772 43.5205 156.772 43.7684V44.3034C156.772 44.547 156.976 44.7514 157.22 44.7514H161.066V46.1823H155.345V41.8895H159.182C159.434 41.8895 159.634 41.685 159.634 41.4372V40.911C159.634 40.6629 159.434 40.4586 159.182 40.4586H154.362C154.114 40.4586 153.909 40.6632 153.909 40.911V47.1609C153.909 47.409 154.114 47.6132 154.362 47.6132H161.066V48.5918C161.066 48.8395 161.266 49.0441 161.518 49.0441H162.044C162.292 49.0441 162.497 48.8396 162.497 48.5918V47.6132H164.903C165.151 47.6132 165.355 47.4046 165.355 47.1565V44.7514H167.77C168.018 44.7514 168.218 44.5468 168.218 44.3034V36.6182C168.218 36.3746 168.018 36.1702 167.77 36.1702Z" fill="#E1261E"/>
<path d="M156.324 49.0441H152.926C152.682 49.0441 152.482 49.2442 152.482 49.4921V51.9016H143.899V50.4707H150.599C150.846 50.4707 151.051 50.2706 151.051 50.0227V49.4921C151.051 49.2444 150.846 49.0441 150.599 49.0441H142.911C142.663 49.0441 142.468 49.2442 142.468 49.4877V52.8845C142.468 53.1326 142.672 53.3325 142.92 53.3325H153.461C153.709 53.3325 153.909 53.1324 153.909 52.8845V50.475H155.345V51.4536C155.345 51.7014 155.541 51.9016 155.789 51.9016H156.324C156.572 51.9016 156.772 51.7015 156.772 51.4536V49.4921C156.772 49.2444 156.572 49.0441 156.324 49.0441Z" fill="#E1261E"/>
<path d="M144.864 54.7635H144.36C144.103 54.7635 143.899 54.9721 143.899 55.2245V55.7333C143.899 55.9899 144.103 56.1944 144.36 56.1944H144.864C145.117 56.1944 145.326 55.9898 145.326 55.7333V55.2245C145.326 54.9723 145.117 54.7635 144.864 54.7635Z" fill="#E1261E"/>
<path d="M147.727 54.7635H147.218C146.966 54.7635 146.757 54.9721 146.757 55.2245V55.7333C146.757 55.9899 146.966 56.1944 147.218 56.1944H147.727C147.984 56.1944 148.188 55.9898 148.188 55.7333V55.2245C148.188 54.9723 147.984 54.7635 147.727 54.7635Z" fill="#E1261E"/>
<path d="M142.929 46.1823C142.672 46.1823 142.468 46.3909 142.468 46.6433V47.1478C142.468 47.4044 142.672 47.6132 142.929 47.6132H143.433C143.69 47.6132 143.894 47.4046 143.894 47.1478V46.6433C143.894 46.3911 143.69 46.1823 143.433 46.1823H142.929Z" fill="#E1261E"/>
<path d="M145.787 46.1823C145.534 46.1823 145.326 46.3909 145.326 46.6433V47.1478C145.326 47.4044 145.535 47.6132 145.787 47.6132H146.291C146.548 47.6132 146.757 47.4046 146.757 47.1478V46.6433C146.757 46.3911 146.548 46.1823 146.291 46.1823H145.787Z" fill="#E1261E"/>
<path d="M148.188 46.6433V47.1478C148.188 47.4044 148.397 47.6132 148.649 47.6132H152.03C152.282 47.6132 152.482 47.4087 152.482 47.1609V40.911C152.482 40.6629 152.282 40.4587 152.03 40.4587H151.499C151.251 40.4587 151.046 40.6632 151.046 40.911V46.1823H148.649C148.397 46.1823 148.188 46.3868 148.188 46.6433Z" fill="#E1261E"/>
<path d="M161.527 40.4587C161.27 40.4587 161.066 40.6673 161.066 40.9197V41.4285C161.066 41.6851 161.27 41.8896 161.527 41.8896H162.031C162.288 41.8896 162.493 41.685 162.493 41.4285V40.9197C162.493 40.6675 162.288 40.4587 162.031 40.4587H161.527Z" fill="#E1261E"/>
<path d="M160.095 31.8775H160.6C160.857 31.8775 161.066 31.6686 161.066 31.4165V30.912C161.066 30.6554 160.857 30.4466 160.6 30.4466H160.095C159.843 30.4466 159.634 30.6552 159.634 30.912V31.4165C159.634 31.6687 159.843 31.8775 160.095 31.8775Z" fill="#E1261E"/>
<path d="M152.017 31.8775H151.512C151.255 31.8775 151.051 32.0861 151.051 32.3428V32.8474C151.051 33.0995 151.255 33.3084 151.512 33.3084H152.017C152.273 33.3084 152.478 33.0998 152.478 32.8474V32.3428C152.478 32.0863 152.273 31.8775 152.017 31.8775Z" fill="#E1261E"/>
<path d="M149.158 37.6011H148.654C148.397 37.6011 148.188 37.8097 148.188 38.0621V38.5667C148.188 38.8233 148.397 39.0277 148.654 39.0277H149.158C149.411 39.0277 149.62 38.8232 149.62 38.5667V38.0621C149.62 37.81 149.411 37.6011 149.158 37.6011Z" fill="#E1261E"/>
<path d="M164.894 40.4587H164.389C164.133 40.4587 163.928 40.6673 163.928 40.9197V41.4285C163.928 41.6851 164.133 41.8896 164.389 41.8896H164.894C165.151 41.8896 165.355 41.685 165.355 41.4285V40.9197C165.355 40.6675 165.151 40.4587 164.894 40.4587Z" fill="#E1261E"/>
<path d="M142.915 44.7514H149.167C149.415 44.7514 149.619 44.5469 149.619 44.2991V40.911C149.619 40.6629 149.419 40.4587 149.167 40.4587H146.757V36.1703H151.051V38.5667C151.051 38.8233 151.255 39.0277 151.512 39.0277H164.907C165.155 39.0277 165.355 38.8276 165.355 38.5798V33.7564C165.355 33.5083 165.155 33.3084 164.907 33.3084H161.518C161.27 33.3084 161.066 33.5085 161.066 33.7564V34.7394H158.203V29.468C158.203 29.22 158.003 29.0157 157.75 29.0157H157.224C156.976 29.0157 156.772 29.2202 156.772 29.468V37.5968H152.482V35.1873C152.482 34.9395 152.278 34.7394 152.03 34.7394H145.778C145.53 34.7394 145.33 34.9394 145.33 35.1873V41.4416C145.33 41.6897 145.53 41.8896 145.778 41.8896H148.188V43.3205H143.899L143.894 35.1873C143.894 34.9395 143.69 34.7394 143.446 34.7394H142.915C142.667 34.7394 142.467 34.9394 142.467 35.1873V44.2991C142.467 44.5471 142.667 44.7514 142.915 44.7514ZM158.203 36.1703H162.492V34.7394H163.924V37.5968H158.203V36.1703Z" fill="#E1261E"/>
</g>
<defs>
<clipPath id="clip0_1491_21615">
<rect width="130" height="40" fill="white" transform="translate(45 20)"/>
</clipPath>
</defs>
</svg>
