<svg width="220" height="80" viewBox="0 0 220 80" fill="none" xmlns="http://www.w3.org/2000/svg">
<path d="M194.706 21H157.349V58.8224H194.706V21Z" fill="#B7D433"/>
<path d="M165.709 43.3738C160.097 50.7726 157.408 58.5857 157.349 58.8224H165.008C165.008 55.0935 164.949 49.4112 165.709 43.3738Z" fill="#00B9F1"/>
<path d="M160.506 42.6044C162.377 41.1838 164.423 39.6449 166.586 38.2835C168.047 31.6542 170.795 25.2025 175.998 21.2368C181.26 25.2025 184.007 31.595 185.41 38.2835C187.573 39.6449 189.62 41.1838 191.49 42.6044C188.86 34.3178 184.124 25.2617 175.998 21C167.93 25.2617 163.195 34.3178 160.506 42.6044Z" fill="#00B9F1"/>
<path d="M187.047 58.8224H194.706C194.647 58.5857 191.958 50.7726 186.346 43.3738C187.106 49.4112 187.047 55.0935 187.047 58.8224Z" fill="#00B9F1"/>
<path d="M194.706 58.8224V45.1495C193.77 44.3209 192.66 43.4922 191.549 42.6044C193.946 50.0623 194.706 56.8692 194.706 58.8224Z" fill="#00B9F1"/>
<path d="M175.998 33.8442C180.149 36.271 183.598 39.7632 186.287 43.3738C186.054 41.6573 185.761 39.9408 185.41 38.2243C182.37 36.271 179.097 34.4953 175.998 33.5483C172.9 34.5545 169.626 36.271 166.586 38.2243C166.235 39.9408 165.943 41.6573 165.709 43.3738C168.457 39.7632 171.847 36.271 175.998 33.8442Z" fill="#00B9F1"/>
<path d="M157.349 45.1495V58.8224C157.349 56.81 158.109 50.0031 160.506 42.5452C159.337 43.4922 158.285 44.3801 157.349 45.1495Z" fill="#00B9F1"/>
<path d="M185.469 38.2835C185.82 40 186.112 41.7165 186.346 43.433C191.958 50.8318 194.647 58.6449 194.706 58.8816C194.706 56.8692 193.946 50.0623 191.549 42.6044C189.678 41.1246 187.632 39.6449 185.469 38.2835Z" fill="#0091C0"/>
<path d="M166.586 38.2835C164.423 39.6449 162.377 41.1838 160.506 42.6044C158.051 50.0623 157.349 56.8692 157.349 58.8816C157.408 58.6449 160.097 50.8318 165.709 43.433C165.943 41.7165 166.235 40 166.586 38.2835Z" fill="#0091C0"/>
<path d="M30.8558 52.1656C30.7463 54.3265 29.7613 55.5455 28.0648 55.5455C26.1494 55.5455 25.0549 54.0495 25.0549 50.6142C25.0549 47.179 26.1494 45.683 28.0648 45.683C29.9802 45.683 30.7463 47.0682 30.7463 48.6196H29.9254C29.9254 47.3452 29.2687 46.4033 28.0648 46.4033C26.6967 46.4033 25.8758 47.5115 25.8758 50.6142C25.8758 53.717 26.6967 54.8252 28.0648 54.8252C29.2687 54.8252 29.9254 53.8278 30.0349 52.1656H30.8558Z" fill="#006580"/>
<path d="M32.4972 51.8332C32.4972 49.5615 33.2086 48.7858 34.0842 48.7858C34.9598 48.7858 35.6712 49.5615 35.6712 51.8332C35.6712 54.1049 35.0145 54.8806 34.0842 54.8806C33.1539 54.8806 32.4972 54.1049 32.4972 51.8332ZM31.6216 51.8332C31.6216 54.3265 32.4972 55.5454 34.0295 55.5454C35.5618 55.5454 36.4374 54.3265 36.4374 51.8332C36.4374 49.3953 35.5618 48.1209 34.0295 48.1209C32.4972 48.1209 31.6216 49.3953 31.6216 51.8332Z" fill="#006580"/>
<path d="M37.6416 48.2871H38.353V49.2845H38.4077C38.7908 48.5088 39.3928 48.1209 40.1589 48.1209C40.9798 48.1209 41.5271 48.6196 41.6365 49.3399H41.6912C42.0196 48.5642 42.5668 48.1209 43.4972 48.1209C44.4822 48.1209 45.1389 48.675 45.1389 49.9494V55.3792H44.3727V50.0602C44.3727 49.2291 43.9897 48.7858 43.2783 48.7858C42.5121 48.7858 41.8554 49.5061 41.8554 50.6142V55.3792H41.0893V50.0602C41.0893 49.2291 40.7062 48.7858 39.9948 48.7858C39.2286 48.7858 38.5719 49.5061 38.5719 50.6142V55.3792H37.6416V48.2871Z" fill="#006580"/>
<path d="M46.7258 48.2871H47.4373V49.2845C47.8203 48.5088 48.4223 48.1209 49.2432 48.1209C50.064 48.1209 50.6113 48.6196 50.7207 49.3399H50.7755C51.1038 48.5642 51.6511 48.1209 52.5267 48.1209C53.5117 48.1209 54.1684 48.675 54.1684 49.9494V55.3792H53.4023V50.0602C53.4023 49.2291 53.0192 48.7858 52.3078 48.7858C51.5416 48.7858 50.8849 49.5061 50.8849 50.6142V55.3792H50.1188V50.0602C50.1188 49.2291 49.7357 48.7858 49.0243 48.7858C48.2581 48.7858 47.6014 49.5061 47.6014 50.6142V55.3792H46.8353V48.2871H46.7258Z" fill="#006580"/>
<path d="M56.2479 51.2237C56.2479 49.4507 56.7404 48.8412 57.7254 48.8412C58.7105 48.8412 59.203 49.5061 59.203 51.2237H56.2479ZM59.203 53.0521C59.0936 54.2711 58.5463 54.8806 57.7254 54.8806C56.9593 54.8806 56.2479 54.2711 56.2479 52.221V51.8886H60.0786V51.5562C60.0786 49.1737 59.3672 48.1209 57.8349 48.1209C56.3026 48.1209 55.427 49.3399 55.427 51.8332C55.427 54.4927 56.3026 55.5454 57.7802 55.5454C59.0936 55.5454 59.9144 54.5481 60.0239 53.0521H59.203Z" fill="#006580"/>
<path d="M61.2825 48.2871H62.0487V49.3953C62.377 48.6196 62.979 48.1209 63.7999 48.1209C63.9093 48.1209 63.964 48.1209 64.0735 48.1763V48.952C63.964 48.952 63.7998 48.8966 63.6904 48.8966C62.8148 48.8966 61.9939 49.5615 61.9939 50.8913V55.3238H61.2278V48.2871H61.2825Z" fill="#006580"/>
<path d="M69.163 53.0521C69.0536 54.5481 68.2327 55.5454 66.9193 55.5454C65.4418 55.5454 64.5662 54.4927 64.5662 51.8332C64.5662 49.3953 65.4418 48.1209 66.9741 48.1209C68.2874 48.1209 69.0536 48.952 69.1083 50.3926H68.3422C68.2327 49.2845 67.7949 48.7858 66.9741 48.7858C66.0985 48.7858 65.387 49.3399 65.387 51.8332C65.387 54.4927 66.1532 54.8806 66.8646 54.8806C67.6855 54.8806 68.178 54.2711 68.2874 53.0521H69.163Z" fill="#006580"/>
<path d="M70.3667 48.2871H71.1328V55.3792H70.3667V48.2871ZM70.3667 45.8492H71.1328V47.2344H70.3667V45.8492Z" fill="#006580"/>
<path d="M75.9487 52.8859C75.9487 54.1603 75.292 54.8806 74.307 54.8806C73.6503 54.8806 73.2125 54.3265 73.2125 53.4954C73.2125 52.6643 73.5955 52.2211 74.4164 52.0548L75.0731 51.8886C75.4015 51.8332 75.8393 51.667 75.894 51.4454V52.8859H75.9487ZM73.4314 50.3926C73.4314 49.3399 73.8144 48.7858 74.7995 48.7858C75.5109 48.7858 76.0034 49.1183 76.0034 50.0048C76.0034 50.8359 75.894 50.9467 75.3467 51.1129L73.8144 51.5562C72.8294 51.8332 72.3916 52.5535 72.3916 53.4954C72.3916 54.7144 72.9388 55.4901 74.1428 55.4901C74.9089 55.4901 75.6204 55.213 75.9487 54.2711H76.0034V54.4927C76.0034 55.213 76.3865 55.3792 77.0432 55.3792C77.1527 55.3792 77.2621 55.3238 77.4263 55.2684V54.659H77.2074C76.9338 54.659 76.8243 54.4927 76.8243 54.0495V49.8386C76.8243 48.7304 76.2771 47.9547 74.8542 47.9547C73.3766 47.9547 72.6652 48.7858 72.6652 50.2264H73.4314V50.3926Z" fill="#006580"/>
<path d="M79.1775 45.8492H78.4114V55.3792H79.1775V45.8492Z" fill="#006580"/>
<path d="M84.7047 46.5696H86.1822C87.4956 46.5696 88.1523 47.0128 88.1523 48.2872C88.1523 49.3953 87.4956 50.0048 86.0181 50.0048H84.7047V46.5696ZM84.7047 50.7805H86.2917C87.7692 50.7805 88.4807 51.4454 88.4807 52.7197C88.4807 53.9941 87.7692 54.659 86.2917 54.659H84.7047V50.7805ZM83.8838 55.3792H86.4559C88.2618 55.3792 89.3015 54.3819 89.3015 52.7197C89.3015 51.5008 88.6996 50.5589 87.5503 50.3372C88.4807 50.1156 88.9732 49.2291 88.9732 48.2872C88.9732 46.8466 88.2618 45.9047 86.4559 45.9047H83.8838V55.3792Z" fill="#006580"/>
<path d="M93.6796 52.8859C93.6796 54.1603 93.0229 54.8806 92.0379 54.8806C91.3265 54.8806 90.9434 54.3265 90.9434 53.4954C90.9434 52.6643 91.3265 52.221 92.1473 52.0548L92.804 51.8886C93.1324 51.7778 93.5702 51.667 93.6249 51.4453V52.8859H93.6796ZM91.1623 50.3926C91.1623 49.3953 91.5454 48.7858 92.5304 48.7858C93.2418 48.7858 93.7344 49.1183 93.7344 50.0048C93.7344 50.8359 93.6249 50.9467 93.0777 51.1129L91.6001 51.5562C90.615 51.8332 90.1772 52.5535 90.1772 53.4954C90.1772 54.7143 90.7245 55.49 91.9832 55.49C92.7493 55.49 93.4607 55.213 93.7891 54.2711H93.8438V54.4927C93.8438 55.213 94.2269 55.3792 94.8836 55.3792C94.993 55.3792 95.1025 55.3238 95.2667 55.3238V54.7143H95.0478C94.7741 54.7143 94.6647 54.5481 94.6647 54.1049V49.894C94.6647 48.7858 94.1174 48.0101 92.6946 48.0101C91.217 48.0101 90.5056 48.8412 90.5056 50.2818H91.1623V50.3926Z" fill="#006580"/>
<path d="M96.1423 48.2871H96.8538V49.2845C97.2368 48.5088 97.9483 48.1209 98.6597 48.1209C99.7542 48.1209 100.466 48.675 100.466 50.0048V55.3792H99.6994V50.2818C99.6994 49.2845 99.3164 48.8412 98.4955 48.8412C97.5652 48.8412 96.9632 49.5615 96.9632 50.6696V55.4346H96.1971V48.2871H96.1423Z" fill="#006580"/>
<path d="M101.888 45.8492H102.655V51.8332H102.709L105.391 48.2871H106.376L104.296 50.9467L106.759 55.3792H105.774L103.694 51.667L102.655 52.9413V55.3792H101.888V45.8492Z" fill="#006580"/>
<path d="M111.41 51.8332C111.41 49.5615 112.067 48.7858 112.997 48.7858C113.873 48.7858 114.585 49.5615 114.585 51.8332C114.585 54.1049 113.873 54.8806 112.997 54.8806C112.122 54.8806 111.41 54.1049 111.41 51.8332ZM110.59 51.8332C110.59 54.3265 111.465 55.5454 112.997 55.5454C114.53 55.5454 115.405 54.3265 115.405 51.8332C115.405 49.3953 114.53 48.1209 112.997 48.1209C111.465 48.1763 110.59 49.3953 110.59 51.8332Z" fill="#006580"/>
<path d="M116.883 49.0074H115.898V48.3426H116.883V47.5115C116.883 46.5141 117.102 45.7938 118.415 45.7938C118.634 45.7938 118.798 45.7938 118.908 45.8493V46.5141C118.798 46.5141 118.689 46.4587 118.525 46.4587C117.923 46.4587 117.649 46.6804 117.649 47.5115V48.3426H118.908V49.0074H117.649V55.4346H116.883V49.0074Z" fill="#006580"/>
<path d="M124.216 46.5695H125.584C127.445 46.5695 128.211 47.5114 128.211 50.6142C128.211 53.717 127.445 54.6589 125.584 54.6589H124.216V46.5695ZM123.34 55.3792H125.584C128.32 55.3792 128.977 53.717 128.977 50.6142C128.977 47.5114 128.32 45.8492 125.584 45.8492H123.34V55.3792Z" fill="#006580"/>
<path d="M130.455 48.2872H131.276V53.2738C131.276 54.4373 131.659 54.8806 132.479 54.8806C133.355 54.8806 134.012 54.1603 134.012 53.0521V48.2872H134.778V55.3792H134.066V54.3819H134.012C133.629 55.1576 132.917 55.5455 132.206 55.5455C131.111 55.5455 130.4 54.9914 130.4 53.6616V48.2872H130.455Z" fill="#006580"/>
<path d="M137.022 51.8332C137.022 49.2291 137.733 48.7858 138.554 48.7858C139.32 48.7858 140.086 49.1736 140.086 51.8332C140.086 54.4373 139.375 54.8806 138.554 54.8806C137.733 54.8806 137.022 54.4927 137.022 51.8332ZM136.256 55.3792H136.967V54.2157C137.186 55.0468 137.843 55.5454 138.664 55.5454C140.196 55.5454 140.907 54.2711 140.907 51.8332C140.907 49.3953 140.196 48.1209 138.664 48.1209C137.788 48.1209 137.186 48.6196 137.022 49.3399V45.8492H136.256V55.3792Z" fill="#006580"/>
<path d="M145.34 52.8859C145.34 54.1603 144.683 54.8806 143.698 54.8806C143.041 54.8806 142.604 54.3265 142.604 53.4954C142.604 52.6643 142.987 52.221 143.807 52.0548L144.464 51.8886C144.793 51.7778 145.23 51.667 145.285 51.4453V52.8859H145.34ZM142.822 50.3926C142.822 49.3953 143.206 48.7858 144.191 48.7858C144.902 48.7858 145.395 49.1183 145.395 50.0048C145.395 50.8359 145.285 50.9467 144.738 51.1129L143.26 51.5562C142.275 51.8332 141.837 52.5535 141.837 53.4954C141.837 54.7143 142.385 55.49 143.643 55.49C144.409 55.49 145.121 55.213 145.449 54.2711V54.4927C145.449 55.213 145.832 55.3792 146.489 55.3792C146.598 55.3792 146.708 55.3238 146.872 55.3238V54.7143H146.544C146.27 54.7143 146.106 54.5481 146.106 54.1049V49.894C146.106 48.7858 145.559 48.0101 144.136 48.0101C142.658 48.0101 141.947 48.8412 141.947 50.2818H142.822V50.3926Z" fill="#006580"/>
<path d="M147.802 48.2871H148.568V55.3792H147.802V48.2871ZM147.802 45.8492H148.568V47.2344H147.802V45.8492Z" fill="#006580"/>
<path d="M78.685 29.7259C78.685 29.7259 78.8492 37.1504 78.8492 37.5936C78.8492 38.0369 78.9039 38.9788 78.4114 39.5883C78.8492 39.3666 79.4511 38.3139 79.4511 36.9287C79.4511 36.2639 79.287 28.9502 79.287 28.9502L78.685 29.7259Z" fill="#006580"/>
<path d="M34.6861 32.4962C34.6861 32.4962 35.1239 38.5355 34.905 39.3112C34.5219 40.7518 33.8105 41.3059 32.0593 41.6937C32.3329 41.86 33.2633 42.137 34.0294 41.5829C34.9597 40.918 35.6164 39.2558 35.6164 37.649C35.6164 36.9287 35.3428 31.5543 35.3428 31.5543L34.6861 32.4962Z" fill="#006580"/>
<path d="M76.0583 29.7259C76.0583 29.7259 76.2225 36.8179 76.2772 37.5936C76.3319 38.1477 76.113 38.3139 75.4016 38.3139H73.2126C72.939 38.3139 71.954 38.3139 71.6256 37.9261C71.2973 37.5382 71.2425 37.372 71.2425 35.3774C71.2425 32.884 71.352 32.1638 71.0236 31.6097L70.4217 32.4962C70.5858 32.8286 70.75 32.9949 70.6953 34.9895C70.6406 36.9841 70.9689 37.2612 70.6406 37.9261C70.4217 38.3693 69.2177 38.3139 68.9441 38.3139H66.372C66.0984 37.5382 65.387 36.8179 63.8 35.8206C61.8299 34.4908 60.5165 33.7706 60.5165 32.6624C60.5165 31.9975 60.6259 31.6651 60.6259 31.6651C60.6259 31.6651 60.024 32.4408 60.024 33.3827C60.024 34.38 60.8996 35.2665 62.4318 36.2085C63.5263 36.8733 64.8397 37.5936 65.4964 38.3693H40.3778C40.1041 38.3693 38.8455 38.3693 38.6266 37.8707C38.2435 37.0396 38.5171 34.1584 38.5171 32.1638C38.5171 30.1137 38.5718 29.5596 38.2982 29.0056L37.751 29.9475C37.9152 30.2799 38.0246 30.2799 37.9699 32.33C37.9152 34.3246 37.8057 37.3166 37.8604 37.9815C37.9699 38.9788 38.1888 39.4221 40.3778 39.4221H66.0984C66.1531 40.1977 66.0437 41.0843 65.2775 42.5802C66.0984 41.5829 66.4815 40.5302 66.5362 39.4221H68.9988C69.4913 39.4221 70.75 39.4775 71.1331 38.3139C71.4614 39.3112 72.0087 39.4221 73.1579 39.4221H75.4016C75.8941 39.4221 76.2225 39.2558 76.4414 38.7572C76.6603 38.3139 76.8245 37.7044 76.8245 36.9841C76.8245 36.3193 76.6603 29.0056 76.6603 29.0056L76.0583 29.7259Z" fill="#006580"/>
<path d="M32.6067 38.5355C32.6067 37.5936 32.2237 37.372 31.6217 36.5963C31.1292 35.9868 30.6914 35.599 30.6914 35.3773C30.6914 35.1557 31.2386 33.1611 32.4426 32.7732L32.6067 31.6651C31.7311 31.7205 30.3083 34.0476 30.1441 35.9314C30.0894 36.3193 30.5819 36.6517 30.9103 37.0395C31.4575 37.649 32.1689 38.0369 32.1689 38.2585C32.1689 38.4247 31.8953 38.3693 31.6764 38.3693H30.5819H27.5721C26.2039 38.3693 25.4925 37.8152 25.4925 35.5436C25.4925 33.0503 26.0398 32.1637 26.0398 32.1637L25.985 31.6651C25.985 31.6651 25 33.0503 25 35.8206C25 38.6463 25.3283 39.422 27.4626 39.422H30.5272H31.8953C31.95 39.422 32.6067 39.4775 32.6067 38.5355Z" fill="#006580"/>
<path d="M135.271 30.7232C135.599 30.5015 135.818 29.8367 135.818 29.8367C135.818 29.8367 135.544 29.2272 135.161 28.9502L134.723 29.8367C134.778 29.8921 135.271 30.2245 135.271 30.7232Z" fill="#006580"/>
<path d="M70.3122 30.7232C70.6405 30.5015 70.8594 29.8367 70.8594 29.8367C70.8594 29.8367 70.5858 29.2272 70.2575 28.9502L69.8197 29.8367C69.7649 29.8921 70.2575 30.2245 70.3122 30.7232Z" fill="#006580"/>
<path d="M71.4066 30.7232C71.735 30.5015 71.9539 29.8367 71.9539 29.8367C71.9539 29.8367 71.6802 29.2272 71.2972 28.9502L70.8594 29.8367C70.8594 29.8921 71.3519 30.2245 71.4066 30.7232Z" fill="#006580"/>
<path d="M142.056 42.3586C142.384 42.137 142.603 41.4721 142.603 41.4721C142.603 41.4721 142.33 40.8626 141.947 40.5856L141.509 41.4721C141.509 41.5275 142.001 41.86 142.056 42.3586Z" fill="#006580"/>
<path d="M98.8786 42.3586C99.2069 42.137 99.4258 41.4721 99.4258 41.4721C99.4258 41.4721 99.1522 40.8626 98.8239 40.5856L98.3861 41.4721C98.3313 41.5275 98.8239 41.86 98.8786 42.3586Z" fill="#006580"/>
<path d="M87.3864 42.3586C87.7147 42.137 87.9336 41.4721 87.9336 41.4721C87.9336 41.4721 87.66 40.8626 87.2769 40.5856L86.8391 41.4721C86.8391 41.5275 87.3316 41.86 87.3864 42.3586Z" fill="#006580"/>
<path d="M62.7055 42.3586C63.0338 42.137 63.2527 41.4721 63.2527 41.4721C63.2527 41.4721 62.9791 40.8626 62.596 40.5856L62.1582 41.4721C62.1582 41.5275 62.6507 41.86 62.7055 42.3586Z" fill="#006580"/>
<path d="M88.426 42.3586C88.7543 42.137 88.9732 41.4721 88.9732 41.4721C88.9732 41.4721 88.6996 40.8626 88.3712 40.5856L87.9334 41.4721C87.8787 41.5275 88.3712 41.86 88.426 42.3586Z" fill="#006580"/>
<path d="M28.1193 42.3586C28.4476 42.137 28.6665 41.4721 28.6665 41.4721C28.6665 41.4721 28.3929 40.8626 28.0098 40.5856L27.572 41.4721C27.572 41.5275 28.0645 41.86 28.1193 42.3586Z" fill="#006580"/>
<path d="M29.1589 42.3586C29.4872 42.137 29.7061 41.4721 29.7061 41.4721C29.7061 41.4721 29.4325 40.8626 29.1041 40.641L28.6663 41.5275C28.6116 41.5275 29.1041 41.8599 29.1589 42.3586Z" fill="#006580"/>
<path d="M124.161 35.2111C126.132 34.9895 126.132 33.1611 126.132 33.1611C126.132 33.1611 124.873 33.3827 124.49 33.1611C124.38 33.1057 125.256 32.3854 125.803 32.3854C125.913 31.9975 125.858 31.7205 125.858 31.7205C125.858 31.7205 125.201 31.9421 124.654 32.3854C124.107 32.8286 123.833 33.3273 123.888 33.6043C124.216 34.0476 125.639 33.826 125.639 33.826C125.639 33.826 125.584 34.38 123.888 34.7125C122.191 35.0449 121.589 34.7125 121.589 34.7125C121.589 34.7125 122.137 35.4328 124.161 35.2111Z" fill="#006580"/>
<path d="M109.823 31.6651C108.62 31.6651 108.346 33.2165 108.346 33.2165C108.346 33.2165 108.729 32.4962 109.605 32.4962C111.301 32.4962 112.779 38.3139 111.684 38.3139H108.784C107.416 38.3139 107.197 38.1477 107.416 36.4855C106.595 38.3693 107.142 39.422 108.455 39.422H111.848C113.435 39.4775 112.012 31.6651 109.823 31.6651Z" fill="#006580"/>
<path d="M147.584 31.6651L147.036 32.5516C148.295 35.3219 148.35 38.3139 147.693 38.3139H146.489H137.678C137.405 38.3139 136.42 38.3139 136.091 37.9261C135.763 37.5382 135.708 37.372 135.708 35.3774C135.708 32.884 135.818 32.1638 135.49 31.6097L134.888 32.4962C135.052 32.8286 135.216 32.9949 135.161 34.9895C135.106 36.9842 135.435 37.3166 135.106 37.9261C134.888 38.3693 133.684 38.3139 133.41 38.3139H132.315C132.097 38.3139 131.659 38.3139 131.33 38.0923C130.893 37.8153 131.057 37.4274 131.057 36.3747C131.057 34.9341 130.893 32.1638 130.947 28.9502L130.236 29.615C130.236 29.615 130.345 33.2719 130.345 34.103C130.345 34.9341 130.674 37.095 130.181 37.7044C129.634 38.3139 128.868 38.3139 127.883 38.3139H119.783C118.415 38.3139 117.704 37.7598 117.704 35.4882C117.704 32.9949 118.251 32.1083 118.251 32.1083L118.196 31.6097C118.196 31.6097 117.211 32.9949 117.211 35.7652C117.211 38.5909 117.54 39.3666 119.674 39.3666H127.883C128.704 39.3666 130.017 39.2558 130.564 38.2585C130.838 38.9234 131.276 39.3666 132.206 39.3666H133.301C133.793 39.3666 135.052 39.4221 135.435 38.2585C135.763 39.2558 136.31 39.3666 137.46 39.3666H146.325C146.982 39.3666 147.803 39.3666 148.021 39.0342C148.459 38.7018 149.225 35.599 147.584 31.6651Z" fill="#006580"/>
<path d="M103.64 32.607C104.898 35.3774 104.953 38.3693 104.296 38.3693H94.6649C93.8987 38.3693 93.0779 38.5355 93.0779 36.3193C93.1326 33.6043 92.859 31.9421 92.7495 31.7205C92.0928 31.6651 89.2471 33.7706 89.1924 35.9868C89.1924 36.3747 89.6302 36.7625 90.0133 37.1504C90.3963 37.5382 90.9983 37.9261 90.9983 38.2585C90.9983 38.3693 90.7794 38.3693 90.67 38.3693C89.9585 38.3693 89.3018 38.3693 89.3018 38.3693H88.0432H86.7298C85.3617 38.3693 84.6502 37.8153 84.6502 35.5436C84.6502 33.0503 85.1975 32.1638 85.1975 32.1638L85.1428 31.6651C85.1428 31.6651 84.1577 33.0503 84.1577 35.8206C84.1577 38.6464 84.4861 39.4221 86.6203 39.4221H87.9884H89.2471H90.7247C90.7247 39.4221 91.2719 39.4775 91.2719 38.5355C91.2719 37.5936 90.9983 37.2612 90.5058 36.6517C90.0133 36.0422 89.6302 35.599 89.6302 35.3774C89.6302 35.0449 91.053 33.1611 92.4212 32.7178C92.6401 33.6043 92.5853 34.6571 92.6401 35.6544C92.7495 37.8707 92.1475 39.4221 94.7743 39.4221H103.147C103.804 39.4221 104.625 39.4221 104.844 39.0896C105.117 38.6464 105.883 35.5436 104.187 31.6097C104.242 31.6651 103.64 32.607 103.64 32.607Z" fill="#006580"/>
</svg>
