<svg width="220" height="80" viewBox="0 0 220 80" fill="none" xmlns="http://www.w3.org/2000/svg">
<g clip-path="url(#clip0_1491_21624)">
<mask id="mask0_1491_21624" style="mask-type:luminance" maskUnits="userSpaceOnUse" x="43" y="27" width="134" height="30">
<path d="M177 27H43V57H177V27Z" fill="white"/>
</mask>
<g mask="url(#mask0_1491_21624)">
<path d="M43 39.3314C43 32.6262 48.2344 27.827 55.2774 27.827C59.1872 27.827 62.4499 29.2253 64.5828 31.7675L61.2223 34.8185C59.7036 33.1027 57.7979 32.2118 55.5363 32.2118C51.3036 32.2118 48.2985 35.1361 48.2985 39.331C48.2985 43.5259 51.3036 46.4502 55.5363 46.4502C57.7979 46.4502 59.7036 45.559 61.2223 43.8121L64.5828 46.8628C62.4499 49.4372 59.1872 50.8356 55.245 50.8356C48.2344 50.8359 43 46.0367 43 39.3314Z" fill="#F15B40"/>
<path d="M95.8048 34.1192H100.264V37.9328H95.9349L95.8846 50.8355H90.8432L90.894 37.9328H88.1616V34.1192H90.894V33.3559C90.894 29.5116 93.2342 27 97.5633 27C98.985 27 100.471 27.2869 101.408 27.9225L100.083 31.5137C99.4808 31.1102 98.7716 30.8995 98.0486 30.9093C96.5622 30.9093 95.8048 31.7038 95.8048 33.3884V34.1192Z" fill="#082340"/>
<path d="M101.265 42.0312C101.265 36.8833 105.305 33.2282 110.83 33.2282C116.356 33.2282 120.361 36.8833 120.361 42.0312C120.361 47.179 116.303 50.8336 110.778 50.8336C105.253 50.8336 101.265 47.1792 101.265 42.0312ZM115.255 42.0312C115.255 39.0755 113.349 37.296 110.83 37.296C108.31 37.296 106.371 39.0755 106.371 42.0312C106.371 44.9868 108.309 46.7665 110.83 46.7665C113.352 46.7665 115.256 44.9868 115.256 42.0312" fill="#082340"/>
<path d="M134.678 33.2189V37.8651C134.251 37.8325 133.923 37.8004 133.529 37.8004C130.708 37.8004 128.839 39.3159 128.839 42.6395L128.787 50.835H123.669V33.4777H128.609V35.7685C129.855 34.0906 131.955 33.2194 134.678 33.2194" fill="#082340"/>
<path d="M155.288 33.4833V47.7205C155.288 54.0763 151.748 56.9995 145.479 56.9995C142.183 56.9995 138.985 56.2049 136.949 54.6474L138.952 51.0875C140.439 52.2642 142.862 53.0268 145.092 53.0268C148.645 53.0268 150.248 51.4376 150.248 48.3547V47.6233C148.923 49.0542 147.016 49.7537 144.755 49.7537C139.94 49.7537 136.063 46.4799 136.063 41.4903C136.063 36.5007 139.94 33.2285 144.755 33.2285C147.179 33.2285 149.181 34.023 150.506 35.6756V33.4833H155.288ZM150.312 41.4907C150.312 38.981 148.406 37.2958 145.757 37.2958C143.108 37.2958 141.168 38.9812 141.168 41.4907C141.168 44.0002 143.107 45.6856 145.757 45.6856C148.407 45.6856 150.312 44.0012 150.312 41.4907Z" fill="#082340"/>
<path d="M176.903 43.4311H163.752C164.237 45.5608 166.079 46.8639 168.728 46.8639C170.57 46.8639 171.895 46.3235 173.091 45.2107L175.772 48.0712C174.157 49.8815 171.682 50.8358 168.549 50.8358C162.539 50.8358 158.68 47.1175 158.68 42.0328C158.68 36.9161 162.654 33.2291 167.953 33.2291C173.057 33.2291 176.999 36.5981 176.999 42.096C176.999 42.4773 176.934 43.0178 176.902 43.4311M163.687 40.5386H172.249C171.894 38.3777 170.246 36.98 167.984 36.98C165.691 36.98 164.042 38.3464 163.687 40.5386Z" fill="#082340"/>
<path d="M76.6815 46.7662C74.1687 46.7583 72.2391 44.9802 72.2391 42.0313C72.2391 39.0824 74.1687 37.3043 76.6815 37.2964V33.2285C71.1645 33.2359 67.1335 36.8886 67.1335 42.0313C67.1335 47.1793 71.1212 50.8336 76.6462 50.8336H76.6815V46.7662Z" fill="#F15B40"/>
<path d="M76.6814 46.7662C79.1942 46.7583 81.1238 44.9802 81.1238 42.0313C81.1238 39.0824 79.1942 37.3043 76.6814 37.2964V33.2285C82.1984 33.2359 86.2293 36.8886 86.2293 42.0313C86.2293 47.1793 82.2416 50.8336 76.7167 50.8336H76.6814V46.7662Z" fill="#082340"/>
</g>
</g>
<defs>
<clipPath id="clip0_1491_21624">
<rect width="134" height="30" fill="white" transform="translate(43 27)"/>
</clipPath>
</defs>
</svg>
