<svg width="220" height="80" viewBox="0 0 220 80" fill="none" xmlns="http://www.w3.org/2000/svg">
<g clip-path="url(#clip0_1491_21622)">
<path d="M182.945 58.9602H37.0266V20.9602H183.027V58.9602H182.945Z" fill="white"/>
<path d="M180.745 56.7584H64.2388V23.2434H180.745V56.7584Z" fill="#001E5E"/>
<path d="M95.4429 36.943H97.8871V46.3207H95.4429V36.943ZM95.4429 32.9473H97.8871V35.2306H95.4429V32.9473Z" fill="white"/>
<path d="M71.4897 33.5997H78.9853V35.6383H74.0154V38.737H78.4964V40.7756H74.0154V44.3636H78.9853V46.4022H71.4897V33.5997Z" fill="white"/>
<path d="M80.2888 36.943H82.5701V38.2477H82.6515C83.3848 37.1061 84.5254 36.6984 85.4216 36.6984C86.7252 36.6984 87.6214 37.1876 88.1917 38.3293C88.762 37.1876 89.9841 36.6984 91.1248 36.6984C93.406 36.6984 94.0578 38.2477 94.0578 40.3679V46.2391H91.6136V40.6941C91.6136 39.7971 91.6136 38.5739 90.2285 38.5739C88.5991 38.5739 88.4361 40.531 88.4361 41.7542V46.3207H85.9919V40.7756C85.9919 39.8786 85.9919 38.6554 84.6069 38.6554C82.9774 38.6554 82.8145 40.6125 82.8145 41.8357V46.4022H80.3703L80.2888 36.943Z" fill="white"/>
<path d="M99.1907 36.943H101.39V39.0632C101.472 38.1662 102.531 36.6984 103.916 36.6984C104.161 36.6984 104.405 36.6984 104.649 36.7799V39.2263C104.405 39.0632 103.998 39.0632 103.59 39.0632C101.635 39.0632 101.635 41.5095 101.635 42.8958V46.3207H99.1907V36.943Z" fill="white"/>
<path d="M108.479 44.6898C109.212 44.6898 109.782 44.3636 110.19 43.8743C110.597 43.3851 110.678 42.6511 110.678 41.9172H109.619C108.56 41.9172 106.931 42.0803 106.931 43.5481C106.931 44.3636 107.582 44.6898 108.479 44.6898ZM105.627 37.4323C106.605 37.0245 107.827 36.6984 108.886 36.6984C111.738 36.6984 112.96 37.84 112.96 40.6125V41.8357C112.96 42.8142 112.96 43.4666 112.96 44.2005C112.96 44.9344 113.041 45.5868 113.041 46.3207H110.923C110.841 45.8314 110.841 45.179 110.841 44.9344H110.76C110.19 45.9945 108.967 46.5653 107.908 46.5653C106.279 46.5653 104.649 45.5868 104.649 43.7928C104.649 42.4065 105.301 41.5911 106.279 41.1018C107.175 40.6125 108.397 40.531 109.456 40.531H110.76C110.76 38.9816 110.108 38.4924 108.642 38.4924C107.582 38.4924 106.605 38.9001 105.79 39.5524L105.627 37.4323Z" fill="white"/>
<path d="M114.833 38.6554H113.041V36.8615H114.833V34.9859L117.278 34.1705V36.8615H119.477V38.6554H117.278V42.9773C117.278 43.7928 117.522 44.5267 118.418 44.5267C118.826 44.5267 119.314 44.4452 119.559 44.2821L119.64 46.2391C119.152 46.4022 118.581 46.4838 117.848 46.4838C115.974 46.4838 114.915 45.2606 114.915 43.4666L114.833 38.6554Z" fill="white"/>
<path d="M125.995 40.6941C125.914 39.5524 125.344 38.4924 124.04 38.4924C122.655 38.4924 122.003 39.4709 121.84 40.6941H125.995ZM127.625 45.7499C126.729 46.2391 125.751 46.4838 124.447 46.4838C121.351 46.4838 119.559 44.6898 119.559 41.5911C119.559 38.9001 121.026 36.6168 123.877 36.6168C127.381 36.6168 128.358 38.9816 128.358 42.2434H121.922C122.003 43.7112 123.062 44.6082 124.61 44.6082C125.751 44.6082 126.81 44.2005 127.706 43.6297L127.625 45.7499Z" fill="white"/>
<path d="M134.876 38.9001C134.143 38.6554 133.572 38.4924 132.676 38.4924C132.024 38.4924 131.21 38.737 131.21 39.5524C131.21 41.0203 135.446 40.1233 135.446 43.4666C135.446 45.6683 133.491 46.4838 131.536 46.4838C130.639 46.4838 129.662 46.3207 128.766 46.076L128.929 44.0374C129.662 44.4451 130.477 44.6898 131.291 44.6898C131.943 44.6898 132.921 44.4451 132.921 43.5481C132.921 41.6726 128.684 42.9773 128.684 39.5524C128.684 37.5138 130.476 36.6168 132.35 36.6168C133.491 36.6168 134.224 36.7799 135.039 36.943L134.876 38.9001Z" fill="white"/>
<path d="M140.498 33.5997H143.594L148.4 43.0589H148.482V33.5997H150.926V46.3207H147.83L143.023 36.8615H142.942V46.3207H140.498V33.5997Z" fill="white"/>
<path d="M155.407 44.2821H156.629C157.77 44.2821 159.236 43.9559 159.236 42.4881C159.236 40.8572 157.851 40.6125 156.629 40.6125H155.407V44.2821ZM155.407 38.737H156.466C157.526 38.737 158.829 38.4924 158.829 37.1876C158.829 35.7198 157.526 35.6383 156.385 35.6383H155.407V38.737ZM152.882 33.5997H157.281C158.911 33.5997 161.355 34.0889 161.355 36.8615C161.355 38.3293 160.377 39.3894 158.829 39.7155C160.54 39.8786 161.762 41.0203 161.762 42.5696C161.762 45.7499 158.911 46.2391 157.281 46.2391H152.882V33.5997Z" fill="white"/>
<path d="M165.673 44.2821H167.058C169.176 44.2821 171.213 42.7327 171.213 39.9602C171.213 37.1876 169.176 35.6383 167.058 35.6383H165.673V44.2821ZM163.147 33.5997H166.651C170.561 33.5997 173.983 34.9044 173.983 39.9602C173.983 45.016 170.561 46.3207 166.651 46.3207H163.147V33.5997Z" fill="white"/>
<path d="M61.9573 56.6769H39.2263V23.1619H61.9573V56.6769Z" fill="#001E5E"/>
<path d="M48.5957 43.6297C48.9216 35.3121 53.3212 27.973 60.0834 23.2434H55.6024C50.1437 27.973 46.5589 34.5782 46.3959 41.9988C46.3145 47.87 47.3736 52.2735 50.4696 56.7584H51.6102C49.166 52.5996 48.4328 48.2778 48.5957 43.6297Z" fill="white"/>
<path d="M49.329 56.7584C46.6404 53.9044 43.3815 48.5224 43.0556 42.7327C42.5668 35.6383 44.9295 28.707 49.6549 23.2434H53.3212C47.5366 28.9516 44.6036 36.6168 45.2554 44.119C45.6627 48.9301 47.6181 52.5181 50.4696 56.6769L49.329 56.7584Z" fill="#FDB811"/>
<path d="M50.5512 49.7456C52.9954 47.2177 55.2767 43.5482 56.0099 39.9602C56.9876 34.8228 55.684 30.664 55.6026 30.3379C55.5211 30.0932 55.5211 30.0117 55.5211 30.0117C55.6026 29.9301 56.0914 30.9087 56.4173 31.6426C57.0691 33.0288 57.8023 35.3121 57.8023 37.9215C57.7209 41.1833 56.5802 44.3636 54.4619 46.8915C53.7287 47.7885 52.914 48.5224 51.9363 49.1748C51.2845 49.5825 50.3068 50.1533 50.2253 50.0718C50.3068 49.9902 50.4698 49.9087 50.5512 49.7456Z" fill="white"/>
<path d="M50.4697 49.8271C52.0992 47.9516 53.5657 45.2606 53.9731 42.6512C54.4619 38.9816 53.3213 36.046 53.3213 35.8829C53.2398 35.7198 53.2398 35.6383 53.2398 35.6383C53.3213 35.6383 53.7286 36.2091 53.9731 36.6984C54.5434 37.6769 55.1137 39.2263 55.1952 41.1018C55.2766 43.3851 54.6248 45.7499 53.2398 47.5439C52.751 48.1962 52.1806 48.767 51.5289 49.2563C51.1215 49.5825 50.3882 49.9902 50.3882 49.9902C50.3068 49.9902 50.3882 49.9087 50.4697 49.8271Z" fill="#FDB811"/>
</g>
<defs>
<clipPath id="clip0_1491_21622">
<rect width="146" height="38" fill="white" transform="translate(37 21)"/>
</clipPath>
</defs>
</svg>
