<svg width="220" height="80" viewBox="0 0 220 80" fill="none" xmlns="http://www.w3.org/2000/svg">
<path d="M171.204 48.3949H165.264C165.349 49.6039 166.309 50.4723 167.78 50.4723C168.564 50.4824 169.335 50.2637 169.997 49.8429L170.75 51.5538C169.831 52.0803 168.794 52.364 167.736 52.3784C167.108 52.393 166.484 52.2823 165.9 52.0528C165.315 51.8234 164.782 51.4798 164.332 51.042C163.882 50.6043 163.523 50.0812 163.277 49.5032C163.031 48.9253 162.902 48.3041 162.899 47.6759C162.873 44.9771 164.236 42.7803 167.161 42.7803C169.814 42.7803 171.341 44.6306 171.341 47.182C171.329 47.5894 171.283 47.9952 171.204 48.3949ZM167.159 44.6107C165.847 44.6107 165.286 45.6344 165.274 46.6681H169.056C169.046 45.5049 168.391 44.6047 167.159 44.6047V44.6107Z" fill="#1B4298"/>
<path d="M132.94 52.3824C130.949 52.3824 128.822 51.6833 128.822 49.5322C128.822 47.0306 131.517 46.8354 133.201 46.445C133.997 46.2558 134.523 46.0467 134.523 45.5129C134.523 45.015 133.925 44.6565 132.98 44.6565C132.097 44.6878 131.228 44.8907 130.422 45.254L129.668 43.5849C129.835 43.5072 131.423 42.7882 133.115 42.7882C135.391 42.7882 136.728 43.9733 136.728 46.1522V50.1736C136.707 50.6765 136.764 51.1796 136.895 51.6654C135.622 52.1072 134.288 52.349 132.94 52.3824ZM134.517 49.2454V47.6719C134.206 47.9209 133.454 48.1201 132.783 48.2794C131.987 48.4627 131.246 48.7375 131.246 49.4207C131.246 50.2672 132.056 50.5759 132.908 50.5759C133.481 50.5731 134.049 50.4762 134.59 50.2891C134.535 49.944 134.511 49.5948 134.517 49.2454Z" fill="#1B4298"/>
<path d="M152.707 52.1812V46.445C152.707 45.3576 152.088 44.7023 151.011 44.7023C150.201 44.7023 149.369 45.1683 149.056 45.3815V52.1832H146.851V38.7928L149.056 38.2769V43.5092C149.838 43.0379 150.732 42.7861 151.644 42.7803C153.76 42.7803 154.924 44.037 154.924 46.0427V52.1812H152.707Z" fill="#1B4298"/>
<path d="M181.083 45.0827V56.0372L178.875 56.32V52.0697C178.334 52.2709 177.762 52.3767 177.185 52.3824C174.705 52.3824 172.641 50.3787 172.641 47.5624C172.641 44.7461 174.577 42.7822 177.587 42.7822C178.814 42.8183 180.029 43.0419 181.188 43.4455C181.115 43.9881 181.079 44.5352 181.083 45.0827ZM177.538 44.7023C175.806 44.7023 175.109 46.0228 175.109 47.5883C175.109 49.112 176.031 50.4703 177.665 50.4703C178.082 50.4695 178.494 50.3813 178.875 50.2114V46.0825C178.878 45.698 178.907 45.314 178.961 44.9333C178.503 44.7723 178.021 44.6941 177.536 44.7023H177.538Z" fill="#1B4298"/>
<path d="M124.992 52.1812V46.4052C124.992 45.3775 124.466 44.7063 123.381 44.7063C122.783 44.7384 122.199 44.9002 121.669 45.1803C121.771 45.6426 121.818 46.1152 121.811 46.5884V52.1832H119.613V46.3893C119.613 45.3576 119.044 44.7102 117.999 44.7102C117.43 44.7285 116.871 44.8641 116.356 45.1086C116.415 45.4022 116.442 45.7015 116.434 46.0009V52.1752H114.228V44.9014C114.22 44.5027 114.162 44.1066 114.055 43.7223C114.284 43.6307 116.424 42.7783 118.21 42.7783C120.111 42.7783 120.797 43.5869 120.895 43.6845C121.048 43.5989 122.318 42.7783 123.759 42.7783C125.83 42.7783 127.205 43.9633 127.205 45.965V52.1832L124.992 52.1812Z" fill="#1B4298"/>
<path d="M162.079 44.8795C161.683 44.7699 161.275 44.7103 160.865 44.7023C160.277 44.7055 159.692 44.7886 159.127 44.9492C159.206 45.3632 159.241 45.7846 159.23 46.206V52.1812H157.021V45.6085C157.025 45.0024 156.97 44.3972 156.855 43.802C157.1 43.7104 159.073 42.7902 161.036 42.7902C161.606 42.7885 162.175 42.8554 162.73 42.9894L162.079 44.8795Z" fill="#1B4298"/>
<path d="M141.504 52.3824C140.465 52.3679 139.438 52.1654 138.472 51.7849L139.113 50.0421C139.161 50.064 140.134 50.5918 141.123 50.5918C142.186 50.5918 142.716 50.1517 142.716 49.5462C142.716 49.112 142.425 48.7495 141.683 48.4348C141.432 48.3352 141.038 48.1818 140.757 48.0802C139.806 47.7237 138.709 47.0645 138.709 45.5288C138.709 43.7064 140.389 42.7842 142.059 42.7723C142.991 42.7522 143.915 42.9471 144.76 43.3419L144.135 45.0449C143.495 44.7834 142.812 44.6423 142.121 44.6286C141.506 44.6286 140.974 44.8636 140.974 45.4133C140.974 45.9232 141.34 46.1901 142.011 46.455C142.278 46.5546 142.654 46.696 142.941 46.8195C144.135 47.2875 145.164 48.0324 145.164 49.4984C145.158 51.5239 143.423 52.3824 141.504 52.3824Z" fill="#1B4298"/>
<path d="M124.637 24.8832L123.206 23.4447L121.744 24.9968L123.225 26.4832L124.637 25.0267L126.125 26.4832L127.608 24.9191L126.081 23.4328L124.637 24.8832Z" fill="#1B4298"/>
<path d="M181.276 36.4971H179.073V23.1478L181.276 22.6338V36.4971Z" fill="#1B4298"/>
<path d="M176.694 34.2257V22.6358L174.493 23.1498V31.9942C174.493 33.3331 174.672 33.8571 174.692 33.9867C174.619 34.0165 173.987 34.3293 172.775 34.3293H168.394C168.464 34.2158 168.637 33.2196 167.914 31.9384C166.739 29.8603 166.064 28.1528 164.385 28.1528C162.314 28.1528 161.454 30.1751 160.005 32.582C159.606 33.2395 159.208 34.3333 157.523 34.3333H153.939C153.789 34.1042 153.71 33.836 153.712 33.5623C153.712 30.7529 152.599 29.1032 151.44 28.2186L149.938 29.7129C151.085 30.5477 151.589 31.4921 151.589 33.2475C151.589 34.0225 151.741 34.1979 151.816 34.3333H149.261C149.115 34.0259 149.047 33.6872 149.062 33.3471C149.062 31.1176 147.834 30.0934 147.071 29.4698L145.611 30.9602C145.876 31.1594 147.027 31.789 147.027 33.2654C147.027 33.9747 147.161 34.2297 147.204 34.3313H144.799C144.665 34.0203 144.603 33.6834 144.616 33.3451C144.616 31.1156 143.379 30.0915 142.624 29.4678L141.159 30.9582C141.442 31.1893 142.579 31.8866 142.579 33.359C142.564 33.6917 142.624 34.0234 142.756 34.3293H137.071C136.927 32.4425 135.981 30.9422 134.898 30.1632L133.359 31.7153C134.327 32.7513 134.85 33.9189 134.85 35.5686C134.85 38.0751 133.285 39.6332 130.521 40.0954L130.72 41.5459C135.063 41.275 136.927 38.8482 137.057 36.4951H158.095C159.688 36.4951 160.409 35.6483 160.596 35.3216C160.795 35.5487 161.633 36.4951 163.864 36.4951H172.675C174.128 36.5124 175.571 36.2591 176.931 35.748C176.772 35.2562 176.692 34.7425 176.694 34.2257ZM165.51 34.3393H164.608C162.816 34.3393 162.173 33.6061 161.799 33.2395C162.824 31.4244 163.193 30.5537 164.083 30.5537C164.849 30.5537 165.132 31.3507 166.05 33.0124C166.476 33.7635 166.072 34.3313 165.51 34.3313V34.3393Z" fill="#1B4298"/>
<path d="M146.749 24.8793L145.317 23.4507L143.857 24.9888L145.337 26.4832L146.749 25.0267L148.234 26.4832L149.726 24.9131L148.194 23.4268L146.749 24.8793Z" fill="#1B4298"/>
<path d="M145.269 22.5501L146.753 24.0345L148.234 22.5063L146.735 21L145.269 22.5501Z" fill="#1B4298"/>
<path d="M120.995 40.8267C112.757 40.8267 113.229 33.9767 115.449 30.2229L117.198 31.1056C114.535 35.5368 116.632 38.6091 120.995 38.6091C124.567 38.6091 126.77 37.6926 127.074 36.4772L124.607 36.4911C119.541 36.4911 121.304 29.8663 124.223 29.0992C125.643 28.7246 126.778 29.6252 127.329 30.215C128.371 31.3307 129.281 32.5401 129.281 35.1761C129.281 38.5812 126.849 40.8267 120.995 40.8267ZM124.414 31.3726C122.658 31.7113 122.612 34.3274 125.127 34.3274H127.072C126.447 31.9663 125.103 31.2371 124.414 31.3746V31.3726Z" fill="#1B4298"/>
<path d="M101.211 44.9951C103.235 43.9213 104.352 42.0666 105.162 39.9776C103.004 39.4895 100.865 39.3918 98.8607 40.4657C96.8368 41.5394 95.7187 43.3942 94.9097 45.4832C97.0491 45.9908 99.1874 46.0689 101.211 44.9951Z" fill="url(#paint0_radial_1491_21621)"/>
<path d="M98.3595 38.2015C96.5856 41.0519 94.2351 42.1647 92.1735 42.7894C91.8255 40.6223 91.8066 37.9867 93.5793 35.1363C95.3532 32.2859 97.6848 31.173 99.7665 30.5483C100.113 32.7349 100.132 35.3511 98.3595 38.2015Z" fill="url(#paint1_radial_1491_21621)"/>
<path d="M91.4988 33.34C91.5566 29.2791 89.6483 26.2139 88.3769 24.4959C86.9887 26.2725 85.0427 29.1815 84.9849 33.2424C84.9271 36.9909 86.5264 39.9584 88.1068 42.0865C89.745 39.9779 91.441 37.0885 91.4988 33.34Z" fill="url(#paint2_radial_1491_21621)"/>
<path d="M81.7087 31.0361C79.2802 26.4872 75.3681 24.0272 72.8053 22.5435C72.6696 25.5891 72.4384 30.0795 74.9246 34.7261C77.1797 38.9626 80.5906 41.3054 83.828 43.2187C84.0592 39.4507 83.9059 35.1751 81.7087 31.0361Z" fill="url(#paint3_radial_1491_21621)"/>
<path d="M69.5677 34.277C63.9784 31.0752 57.5801 30.3333 53.3789 30.3918C55.4029 33.9256 59.2761 39.1578 64.9998 42.4378C70.5112 45.6006 76.7361 46.3814 81.1884 46.323C78.8568 42.3402 75.0979 37.4397 69.5677 34.277Z" fill="url(#paint4_radial_1491_21621)"/>
<path d="M58.9671 45.1904C52.0106 45.1904 44.2248 47.2794 38 50.2079C44.3018 53.117 51.7986 55.2255 58.9671 55.2255C64.672 55.2255 71.4949 54.093 79.936 50.2079C70.6846 46.0104 64.2863 45.2099 58.9671 45.1904Z" fill="url(#paint5_radial_1491_21621)"/>
<defs>
<radialGradient id="paint0_radial_1491_21621" cx="0" cy="0" r="1" gradientUnits="userSpaceOnUse" gradientTransform="translate(94.8921 45.4861) scale(12.1518 12.3105)">
<stop stop-color="#FFDC04"/>
<stop offset="0.2068" stop-color="#F8B10E"/>
<stop offset="0.4624" stop-color="#F18219"/>
<stop offset="0.6892" stop-color="#EB6020"/>
<stop offset="0.8761" stop-color="#E84C25"/>
<stop offset="1" stop-color="#E74427"/>
</radialGradient>
<radialGradient id="paint1_radial_1491_21621" cx="0" cy="0" r="1" gradientUnits="userSpaceOnUse" gradientTransform="translate(92.1634 42.7985) scale(14.2749 14.4613)">
<stop stop-color="#FFDC04"/>
<stop offset="0.2068" stop-color="#F8B10E"/>
<stop offset="0.4624" stop-color="#F18219"/>
<stop offset="0.6892" stop-color="#EB6020"/>
<stop offset="0.8761" stop-color="#E84C25"/>
<stop offset="1" stop-color="#E74427"/>
</radialGradient>
<radialGradient id="paint2_radial_1491_21621" cx="0" cy="0" r="1" gradientUnits="userSpaceOnUse" gradientTransform="translate(88.098 42.0737) scale(17.8605 18.0938)">
<stop stop-color="#FFDC04"/>
<stop offset="0.2068" stop-color="#F8B10E"/>
<stop offset="0.4624" stop-color="#F18219"/>
<stop offset="0.6892" stop-color="#EB6020"/>
<stop offset="0.8761" stop-color="#E84C25"/>
<stop offset="1" stop-color="#E74427"/>
</radialGradient>
<radialGradient id="paint3_radial_1491_21621" cx="0" cy="0" r="1" gradientUnits="userSpaceOnUse" gradientTransform="translate(83.8054 43.2154) scale(23.107 23.4087)">
<stop stop-color="#FFDC04"/>
<stop offset="0.2068" stop-color="#F8B10E"/>
<stop offset="0.4624" stop-color="#F18219"/>
<stop offset="0.6892" stop-color="#EB6020"/>
<stop offset="0.8761" stop-color="#E84C25"/>
<stop offset="1" stop-color="#E74427"/>
</radialGradient>
<radialGradient id="paint4_radial_1491_21621" cx="0" cy="0" r="1" gradientUnits="userSpaceOnUse" gradientTransform="translate(81.8028 46.5471) scale(33.3533 33.7888)">
<stop offset="4.52862e-07" stop-color="#FFDC04"/>
<stop offset="0.1952" stop-color="#F8B10E"/>
<stop offset="0.4364" stop-color="#F18219"/>
<stop offset="0.6505" stop-color="#EB6020"/>
<stop offset="0.8269" stop-color="#E84C25"/>
<stop offset="0.9438" stop-color="#E74427"/>
</radialGradient>
<radialGradient id="paint5_radial_1491_21621" cx="0" cy="0" r="1" gradientUnits="userSpaceOnUse" gradientTransform="translate(80.6923 50.1564) scale(42.9877 43.5491)">
<stop stop-color="#FFDC04"/>
<stop offset="0.1801" stop-color="#F8B10E"/>
<stop offset="0.4027" stop-color="#F18219"/>
<stop offset="0.6001" stop-color="#EB6020"/>
<stop offset="0.7629" stop-color="#E84C25"/>
<stop offset="0.8708" stop-color="#E74427"/>
</radialGradient>
</defs>
</svg>
